0
SECTION
2
HEADER
9
$INSUNITS
70
1
9
$ACADVER
1
AC1014
9
$HANDSEED
5
FFFF
0
ENDSEC
0
SECTION
2
TABLES
0
TABLE
2
VPORT
5
8
100
AcDbSymbolTable
0
ENDTAB
0
TABLE
2
LTYPE
5
5
100
AcDbSymbolTable
0
LTYPE
5
14
100
AcDbSymbolTableRecord
100
AcDbLinetypeTableRecord
2
BYBLOCK
70
0
0
LTYPE
5
15
100
AcDbSymbolTableRecord
100
AcDbLinetypeTableRecord
2
BYLAYER
70
0
0
ENDTAB
0
TABLE
2
LAYER
5
2
100
AcDbSymbolTable
70
2
0
LAYER
5
50
100
AcDbSymbolTableRecord
100
AcDbLayerTableRecord
2
0
70
0
6
CONTINUOUS
0
ENDTAB
0
TABLE
2
STYLE
5
3
100
AcDbSymbolTable
70
1
0
STYLE
5
11
100
AcDbSymbolTableRecord
100
AcDbTextStyleTableRecord
2
STANDARD
70
0
0
ENDTAB
0
TABLE
2
VIEW
5
6
100
AcDbSymbolTable
70
0
0
ENDTAB
0
TABLE
2
UCS
5
7
100
AcDbSymbolTable
70
0
0
ENDTAB
0
TABLE
2
APPID
5
9
100
AcDbSymbolTable
70
2
0
APPID
5
12
100
AcDbSymbolTableRecord
100
AcDbRegAppTableRecord
2
ACAD
70
0
0
ENDTAB
0
TABLE
2
DIMSTYLE
5
A
100
AcDbSymbolTable
70
1
0
ENDTAB
0
TABLE
2
BLOCK_RECORD
5
1
100
AcDbSymbolTable
70
1
0
BLOCK_RECORD
5
1F
100
AcDbSymbolTableRecord
100
AcDbBlockTableRecord
2
*MODEL_SPACE
0
BLOCK_RECORD
5
1B
100
AcDbSymbolTableRecord
100
AcDbBlockTableRecord
2
*PAPER_SPACE
0
ENDTAB
0
ENDSEC
0
SECTION
2
BLOCKS
0
BLOCK
5
20
100
AcDbEntity
100
AcDbBlockBegin
2
*MODEL_SPACE
0
ENDBLK
5
21
100
AcDbEntity
100
AcDbBlockEnd
0
BLOCK
5
1C
100
AcDbEntity
100
AcDbBlockBegin
2
*PAPER_SPACE
0
ENDBLK
5
1D
100
AcDbEntity
100
AcDbBlockEnd
0
ENDSEC
0
SECTION
2
ENTITIES
0
LWPOLYLINE
5
100
100
AcDbEntity
8
0
100
AcDbPolyline
90
8
70
1
43
0.0
10
4.7499999999999991
20
3.6395526508105241e-33
10
0
20
0
10
0
20
-3.3749999999999996
10
1.875
20
-3.3749999999999996
10
2.0915063509461103
20
-3.75
10
2.6584936490538884
20
-3.75
10
2.8749999999999991
20
-3.3749999999999996
10
4.7499999999999991
20
-3.3749999999999996
0
CIRCLE
5
101
100
AcDbEntity
8
0
100
AcDbCircle
10
2.375
20
-0.94499999999999995
30
0
40
0.12500000000000006
210
0
220
0
230
1
0
CIRCLE
5
102
100
AcDbEntity
8
0
100
AcDbCircle
10
2.375
20
-2.1949999999999998
30
0
40
0.074999999999999997
210
0
220
0
230
1
0
LINE
5
103
100
AcDbEntity
8
0
100
AcDbLine
10
0
20
-2.1949999999999998
30
0
11
2.375
21
-2.1949999999999998
31
0
0
LINE
5
104
100
AcDbEntity
8
0
100
AcDbLine
10
4.7499999999999991
20
-2.1949999999999994
30
0
11
2.375
21
-2.1949999999999998
31
0
0
LINE
5
105
100
AcDbEntity
8
0
100
AcDbLine
10
0.80000000000000016
20
-1.8749999999999996
30
0
11
3.9499999999999993
21
-1.8749999999999996
31
0
0
LWPOLYLINE
5
106
100
AcDbEntity
8
0
100
AcDbPolyline
90
4
70
1
43
0.0
10
3.9999999999999991
20
-1.8249999999999524
10
3.8999999999999999
20
-1.8249999999999997
42
0.99999999999999989
10
3.9000000000000106
20
-1.9249999999999994
10
3.9999999521111551
20
-1.9249999999999761
42
1.0000004789861143
0
LINE
5
107
100
AcDbEntity
8
0
100
AcDbLine
10
2.375
20
-0.94499999999999995
30
0
11
2.375
21
-2.1949999999999998
31
0
0
LWPOLYLINE
5
108
100
AcDbEntity
8
0
100
AcDbPolyline
90
4
70
1
43
0.0
10
0.74999999999999967
20
-1.824999999999952
10
0.85000000000001275
20
-1.824999999999978
42
-0.99999999999999989
10
0.84999999999998765
20
-1.9250000000000211
10
0.75000004789860109
20
-1.925000000000024
42
-1.0000004789861143
0
CIRCLE
5
109
100
AcDbEntity
8
0
100
AcDbCircle
10
1.7749999999999995
20
-3.2749999999999999
30
0
40
0.0625
210
0
220
0
230
1
0
CIRCLE
5
110
100
AcDbEntity
8
0
100
AcDbCircle
10
2.1749999999999994
20
-3.2749999999999999
30
0
40
0.0625
210
0
220
0
230
1
0
CIRCLE
5
111
100
AcDbEntity
8
0
100
AcDbCircle
10
2.5749999999999993
20
-3.2749999999999999
30
0
40
0.0625
210
0
220
0
230
1
0
CIRCLE
5
112
100
AcDbEntity
8
0
100
AcDbCircle
10
2.9749999999999992
20
-3.2749999999999999
30
0
40
0.0625
210
0
220
0
230
1
0
LINE
5
113
100
AcDbEntity
8
0
100
AcDbLine
10
1.7749999999999995
20
-3.2749999999999999
30
0
11
2.9749999999999992
21
-3.2749999999999999
31
0
0
CIRCLE
5
114
100
AcDbEntity
8
0
100
AcDbCircle
10
4.0499999999999989
20
-0.16
30
0
40
0.031249999999999969
210
0
220
0
230
1
0
CIRCLE
5
115
100
AcDbEntity
8
0
100
AcDbCircle
10
0.70000000000000084
20
-0.16000000000000003
30
0
40
0.031249999999999969
210
0
220
0
230
1
0
CIRCLE
5
116
100
AcDbEntity
8
0
100
AcDbCircle
10
4.2699999999999996
20
-2.6549999999999998
30
0
40
0.031250000000000173
210
0
220
0
230
1
0
CIRCLE
5
117
100
AcDbEntity
8
0
100
AcDbCircle
10
0.48000000000000093
20
-2.6549999999999994
30
0
40
0.031250000000000173
210
0
220
0
230
1
0
CIRCLE
5
118
100
AcDbEntity
8
0
100
AcDbCircle
10
0.44999999999999996
20
-3.1349999999999993
30
0
40
0.031250000000000097
210
0
220
0
230
1
0
CIRCLE
5
119
100
AcDbEntity
8
0
100
AcDbCircle
10
4.2999999999999998
20
-3.1349999999999993
30
0
40
0.031250000000000097
210
0
220
0
230
1
0
ENDSEC
0
SECTION
2
OBJECTS
0
DICTIONARY
5
C
100
AcDbDictionary
3
ACAD_GROUP
350
D
3
ACAD_MLINESTYLE
350
17
0
DICTIONARY
5
D
100
AcDbDictionary
0
DICTIONARY
5
1A
330
C
100
AcDbDictionary
0
DICTIONARY
5
17
100
AcDbDictionary
0
ENDSEC
0
EOF
