G04 #@! TF.GenerationSoftware,KiCad,Pcbnew,(5.1.4)-1*
G04 #@! TF.CreationDate,2020-06-09T21:04:36-05:00*
G04 #@! TF.ProjectId,Blue_Wizard,426c7565-5f57-4697-9a61-72642e6b6963,rev?*
G04 #@! TF.SameCoordinates,Original*
G04 #@! TF.FileFunction,Legend,Top*
G04 #@! TF.FilePolarity,Positive*
%FSLAX46Y46*%
G04 Gerber Fmt 4.6, Leading zero omitted, Abs format (unit mm)*
G04 Created by KiCad (PCBNEW (5.1.4)-1) date 2020-06-09 21:04:36*
%MOMM*%
%LPD*%
G04 APERTURE LIST*
%ADD10C,0.300000*%
%ADD11C,0.200000*%
%ADD12C,0.250000*%
%ADD13C,0.120000*%
%ADD14C,0.203200*%
%ADD15C,0.127000*%
%ADD16C,0.152400*%
%ADD17C,0.100000*%
%ADD18C,0.135128*%
%ADD19C,0.150000*%
%ADD20C,0.015000*%
%ADD21C,0.120650*%
G04 APERTURE END LIST*
D10*
X177005371Y-69082171D02*
X176291085Y-69582171D01*
X177005371Y-69939314D02*
X175505371Y-69939314D01*
X175505371Y-69367885D01*
X175576800Y-69225028D01*
X175648228Y-69153600D01*
X175791085Y-69082171D01*
X176005371Y-69082171D01*
X176148228Y-69153600D01*
X176219657Y-69225028D01*
X176291085Y-69367885D01*
X176291085Y-69939314D01*
X176219657Y-68439314D02*
X176219657Y-67939314D01*
X177005371Y-67725028D02*
X177005371Y-68439314D01*
X175505371Y-68439314D01*
X175505371Y-67725028D01*
X176933942Y-67153600D02*
X177005371Y-66939314D01*
X177005371Y-66582171D01*
X176933942Y-66439314D01*
X176862514Y-66367885D01*
X176719657Y-66296457D01*
X176576800Y-66296457D01*
X176433942Y-66367885D01*
X176362514Y-66439314D01*
X176291085Y-66582171D01*
X176219657Y-66867885D01*
X176148228Y-67010742D01*
X176076800Y-67082171D01*
X175933942Y-67153600D01*
X175791085Y-67153600D01*
X175648228Y-67082171D01*
X175576800Y-67010742D01*
X175505371Y-66867885D01*
X175505371Y-66510742D01*
X175576800Y-66296457D01*
X176219657Y-65653600D02*
X176219657Y-65153600D01*
X177005371Y-64939314D02*
X177005371Y-65653600D01*
X175505371Y-65653600D01*
X175505371Y-64939314D01*
X175505371Y-64510742D02*
X175505371Y-63653600D01*
X177005371Y-64082171D02*
X175505371Y-64082171D01*
X187245085Y-78737542D02*
X187459371Y-78808971D01*
X187816514Y-78808971D01*
X187959371Y-78737542D01*
X188030800Y-78666114D01*
X188102228Y-78523257D01*
X188102228Y-78380400D01*
X188030800Y-78237542D01*
X187959371Y-78166114D01*
X187816514Y-78094685D01*
X187530800Y-78023257D01*
X187387942Y-77951828D01*
X187316514Y-77880400D01*
X187245085Y-77737542D01*
X187245085Y-77594685D01*
X187316514Y-77451828D01*
X187387942Y-77380400D01*
X187530800Y-77308971D01*
X187887942Y-77308971D01*
X188102228Y-77380400D01*
X188602228Y-77308971D02*
X188959371Y-78808971D01*
X189245085Y-77737542D01*
X189530800Y-78808971D01*
X189887942Y-77308971D01*
X190459371Y-78808971D02*
X190459371Y-77308971D01*
X190816514Y-77308971D01*
X191030800Y-77380400D01*
X191173657Y-77523257D01*
X191245085Y-77666114D01*
X191316514Y-77951828D01*
X191316514Y-78166114D01*
X191245085Y-78451828D01*
X191173657Y-78594685D01*
X191030800Y-78737542D01*
X190816514Y-78808971D01*
X190459371Y-78808971D01*
D11*
X122432914Y-47950380D02*
X122432914Y-46950380D01*
X122813866Y-46950380D01*
X122909104Y-46998000D01*
X122956723Y-47045619D01*
X123004342Y-47140857D01*
X123004342Y-47283714D01*
X122956723Y-47378952D01*
X122909104Y-47426571D01*
X122813866Y-47474190D01*
X122432914Y-47474190D01*
X123385295Y-47045619D02*
X123432914Y-46998000D01*
X123528152Y-46950380D01*
X123766247Y-46950380D01*
X123861485Y-46998000D01*
X123909104Y-47045619D01*
X123956723Y-47140857D01*
X123956723Y-47236095D01*
X123909104Y-47378952D01*
X123337676Y-47950380D01*
X123956723Y-47950380D01*
X124861485Y-46950380D02*
X124385295Y-46950380D01*
X124337676Y-47426571D01*
X124385295Y-47378952D01*
X124480533Y-47331333D01*
X124718628Y-47331333D01*
X124813866Y-47378952D01*
X124861485Y-47426571D01*
X124909104Y-47521809D01*
X124909104Y-47759904D01*
X124861485Y-47855142D01*
X124813866Y-47902761D01*
X124718628Y-47950380D01*
X124480533Y-47950380D01*
X124385295Y-47902761D01*
X124337676Y-47855142D01*
X138231714Y-61869580D02*
X138231714Y-60869580D01*
X138612666Y-60869580D01*
X138707904Y-60917200D01*
X138755523Y-60964819D01*
X138803142Y-61060057D01*
X138803142Y-61202914D01*
X138755523Y-61298152D01*
X138707904Y-61345771D01*
X138612666Y-61393390D01*
X138231714Y-61393390D01*
X139755523Y-61869580D02*
X139184095Y-61869580D01*
X139469809Y-61869580D02*
X139469809Y-60869580D01*
X139374571Y-61012438D01*
X139279333Y-61107676D01*
X139184095Y-61155295D01*
X140707904Y-61869580D02*
X140136476Y-61869580D01*
X140422190Y-61869580D02*
X140422190Y-60869580D01*
X140326952Y-61012438D01*
X140231714Y-61107676D01*
X140136476Y-61155295D01*
X123194914Y-56840380D02*
X123194914Y-55840380D01*
X123575866Y-55840380D01*
X123671104Y-55888000D01*
X123718723Y-55935619D01*
X123766342Y-56030857D01*
X123766342Y-56173714D01*
X123718723Y-56268952D01*
X123671104Y-56316571D01*
X123575866Y-56364190D01*
X123194914Y-56364190D01*
X124099676Y-55840380D02*
X124718723Y-55840380D01*
X124385390Y-56221333D01*
X124528247Y-56221333D01*
X124623485Y-56268952D01*
X124671104Y-56316571D01*
X124718723Y-56411809D01*
X124718723Y-56649904D01*
X124671104Y-56745142D01*
X124623485Y-56792761D01*
X124528247Y-56840380D01*
X124242533Y-56840380D01*
X124147295Y-56792761D01*
X124099676Y-56745142D01*
X125671104Y-56840380D02*
X125099676Y-56840380D01*
X125385390Y-56840380D02*
X125385390Y-55840380D01*
X125290152Y-55983238D01*
X125194914Y-56078476D01*
X125099676Y-56126095D01*
X122128114Y-53741580D02*
X122128114Y-52741580D01*
X122509066Y-52741580D01*
X122604304Y-52789200D01*
X122651923Y-52836819D01*
X122699542Y-52932057D01*
X122699542Y-53074914D01*
X122651923Y-53170152D01*
X122604304Y-53217771D01*
X122509066Y-53265390D01*
X122128114Y-53265390D01*
X123032876Y-52741580D02*
X123651923Y-52741580D01*
X123318590Y-53122533D01*
X123461447Y-53122533D01*
X123556685Y-53170152D01*
X123604304Y-53217771D01*
X123651923Y-53313009D01*
X123651923Y-53551104D01*
X123604304Y-53646342D01*
X123556685Y-53693961D01*
X123461447Y-53741580D01*
X123175733Y-53741580D01*
X123080495Y-53693961D01*
X123032876Y-53646342D01*
X124270971Y-52741580D02*
X124366209Y-52741580D01*
X124461447Y-52789200D01*
X124509066Y-52836819D01*
X124556685Y-52932057D01*
X124604304Y-53122533D01*
X124604304Y-53360628D01*
X124556685Y-53551104D01*
X124509066Y-53646342D01*
X124461447Y-53693961D01*
X124366209Y-53741580D01*
X124270971Y-53741580D01*
X124175733Y-53693961D01*
X124128114Y-53646342D01*
X124080495Y-53551104D01*
X124032876Y-53360628D01*
X124032876Y-53122533D01*
X124080495Y-52932057D01*
X124128114Y-52836819D01*
X124175733Y-52789200D01*
X124270971Y-52741580D01*
X122940914Y-51252380D02*
X122940914Y-50252380D01*
X123321866Y-50252380D01*
X123417104Y-50300000D01*
X123464723Y-50347619D01*
X123512342Y-50442857D01*
X123512342Y-50585714D01*
X123464723Y-50680952D01*
X123417104Y-50728571D01*
X123321866Y-50776190D01*
X122940914Y-50776190D01*
X123893295Y-50347619D02*
X123940914Y-50300000D01*
X124036152Y-50252380D01*
X124274247Y-50252380D01*
X124369485Y-50300000D01*
X124417104Y-50347619D01*
X124464723Y-50442857D01*
X124464723Y-50538095D01*
X124417104Y-50680952D01*
X123845676Y-51252380D01*
X124464723Y-51252380D01*
X125036152Y-50680952D02*
X124940914Y-50633333D01*
X124893295Y-50585714D01*
X124845676Y-50490476D01*
X124845676Y-50442857D01*
X124893295Y-50347619D01*
X124940914Y-50300000D01*
X125036152Y-50252380D01*
X125226628Y-50252380D01*
X125321866Y-50300000D01*
X125369485Y-50347619D01*
X125417104Y-50442857D01*
X125417104Y-50490476D01*
X125369485Y-50585714D01*
X125321866Y-50633333D01*
X125226628Y-50680952D01*
X125036152Y-50680952D01*
X124940914Y-50728571D01*
X124893295Y-50776190D01*
X124845676Y-50871428D01*
X124845676Y-51061904D01*
X124893295Y-51157142D01*
X124940914Y-51204761D01*
X125036152Y-51252380D01*
X125226628Y-51252380D01*
X125321866Y-51204761D01*
X125369485Y-51157142D01*
X125417104Y-51061904D01*
X125417104Y-50871428D01*
X125369485Y-50776190D01*
X125321866Y-50728571D01*
X125226628Y-50680952D01*
D12*
X202438047Y-87955428D02*
X203199952Y-87955428D01*
X202438047Y-85351928D02*
X203199952Y-85351928D01*
X202819000Y-85732880D02*
X202819000Y-84970976D01*
D13*
X192499315Y-82613500D02*
G75*
G03X192499315Y-82613500I-538815J0D01*
G01*
D12*
X199707595Y-68905500D02*
X199612357Y-68857880D01*
X199469500Y-68857880D01*
X199326642Y-68905500D01*
X199231404Y-69000738D01*
X199183785Y-69095976D01*
X199136166Y-69286452D01*
X199136166Y-69429309D01*
X199183785Y-69619785D01*
X199231404Y-69715023D01*
X199326642Y-69810261D01*
X199469500Y-69857880D01*
X199564738Y-69857880D01*
X199707595Y-69810261D01*
X199755214Y-69762642D01*
X199755214Y-69429309D01*
X199564738Y-69429309D01*
X200183785Y-69857880D02*
X200183785Y-68857880D01*
X200755214Y-69857880D01*
X200755214Y-68857880D01*
X201231404Y-69857880D02*
X201231404Y-68857880D01*
X201469500Y-68857880D01*
X201612357Y-68905500D01*
X201707595Y-69000738D01*
X201755214Y-69095976D01*
X201802833Y-69286452D01*
X201802833Y-69429309D01*
X201755214Y-69619785D01*
X201707595Y-69715023D01*
X201612357Y-69810261D01*
X201469500Y-69857880D01*
X201231404Y-69857880D01*
X197929523Y-72858380D02*
X197453333Y-72858380D01*
X197405714Y-73334571D01*
X197453333Y-73286952D01*
X197548571Y-73239333D01*
X197786666Y-73239333D01*
X197881904Y-73286952D01*
X197929523Y-73334571D01*
X197977142Y-73429809D01*
X197977142Y-73667904D01*
X197929523Y-73763142D01*
X197881904Y-73810761D01*
X197786666Y-73858380D01*
X197548571Y-73858380D01*
X197453333Y-73810761D01*
X197405714Y-73763142D01*
X198262857Y-72858380D02*
X198596190Y-73858380D01*
X198929523Y-72858380D01*
X194191119Y-69857880D02*
X193857785Y-69381690D01*
X193619690Y-69857880D02*
X193619690Y-68857880D01*
X194000642Y-68857880D01*
X194095880Y-68905500D01*
X194143500Y-68953119D01*
X194191119Y-69048357D01*
X194191119Y-69191214D01*
X194143500Y-69286452D01*
X194095880Y-69334071D01*
X194000642Y-69381690D01*
X193619690Y-69381690D01*
X194619690Y-69334071D02*
X194953023Y-69334071D01*
X195095880Y-69857880D02*
X194619690Y-69857880D01*
X194619690Y-68857880D01*
X195095880Y-68857880D01*
X195476833Y-69810261D02*
X195619690Y-69857880D01*
X195857785Y-69857880D01*
X195953023Y-69810261D01*
X196000642Y-69762642D01*
X196048261Y-69667404D01*
X196048261Y-69572166D01*
X196000642Y-69476928D01*
X195953023Y-69429309D01*
X195857785Y-69381690D01*
X195667309Y-69334071D01*
X195572071Y-69286452D01*
X195524452Y-69238833D01*
X195476833Y-69143595D01*
X195476833Y-69048357D01*
X195524452Y-68953119D01*
X195572071Y-68905500D01*
X195667309Y-68857880D01*
X195905404Y-68857880D01*
X196048261Y-68905500D01*
X196476833Y-69334071D02*
X196810166Y-69334071D01*
X196953023Y-69857880D02*
X196476833Y-69857880D01*
X196476833Y-68857880D01*
X196953023Y-68857880D01*
X197238738Y-68857880D02*
X197810166Y-68857880D01*
X197524452Y-69857880D02*
X197524452Y-68857880D01*
X190778095Y-73810761D02*
X190920952Y-73858380D01*
X191159047Y-73858380D01*
X191254285Y-73810761D01*
X191301904Y-73763142D01*
X191349523Y-73667904D01*
X191349523Y-73572666D01*
X191301904Y-73477428D01*
X191254285Y-73429809D01*
X191159047Y-73382190D01*
X190968571Y-73334571D01*
X190873333Y-73286952D01*
X190825714Y-73239333D01*
X190778095Y-73144095D01*
X190778095Y-73048857D01*
X190825714Y-72953619D01*
X190873333Y-72906000D01*
X190968571Y-72858380D01*
X191206666Y-72858380D01*
X191349523Y-72906000D01*
X191682857Y-72858380D02*
X191920952Y-73858380D01*
X192111428Y-73144095D01*
X192301904Y-73858380D01*
X192540000Y-72858380D01*
X193492380Y-73763142D02*
X193444761Y-73810761D01*
X193301904Y-73858380D01*
X193206666Y-73858380D01*
X193063809Y-73810761D01*
X192968571Y-73715523D01*
X192920952Y-73620285D01*
X192873333Y-73429809D01*
X192873333Y-73286952D01*
X192920952Y-73096476D01*
X192968571Y-73001238D01*
X193063809Y-72906000D01*
X193206666Y-72858380D01*
X193301904Y-72858380D01*
X193444761Y-72906000D01*
X193492380Y-72953619D01*
X194397142Y-73858380D02*
X193920952Y-73858380D01*
X193920952Y-72858380D01*
X194730476Y-73858380D02*
X194730476Y-72858380D01*
X195301904Y-73858380D02*
X194873333Y-73286952D01*
X195301904Y-72858380D02*
X194730476Y-73429809D01*
X188317452Y-69810261D02*
X188460309Y-69857880D01*
X188698404Y-69857880D01*
X188793642Y-69810261D01*
X188841261Y-69762642D01*
X188888880Y-69667404D01*
X188888880Y-69572166D01*
X188841261Y-69476928D01*
X188793642Y-69429309D01*
X188698404Y-69381690D01*
X188507928Y-69334071D01*
X188412690Y-69286452D01*
X188365071Y-69238833D01*
X188317452Y-69143595D01*
X188317452Y-69048357D01*
X188365071Y-68953119D01*
X188412690Y-68905500D01*
X188507928Y-68857880D01*
X188746023Y-68857880D01*
X188888880Y-68905500D01*
X189222214Y-68857880D02*
X189460309Y-69857880D01*
X189650785Y-69143595D01*
X189841261Y-69857880D01*
X190079357Y-68857880D01*
X190460309Y-69857880D02*
X190460309Y-68857880D01*
X190698404Y-68857880D01*
X190841261Y-68905500D01*
X190936500Y-69000738D01*
X190984119Y-69095976D01*
X191031738Y-69286452D01*
X191031738Y-69429309D01*
X190984119Y-69619785D01*
X190936500Y-69715023D01*
X190841261Y-69810261D01*
X190698404Y-69857880D01*
X190460309Y-69857880D01*
X191460309Y-69857880D02*
X191460309Y-68857880D01*
X192126976Y-68857880D02*
X192317452Y-68857880D01*
X192412690Y-68905500D01*
X192507928Y-69000738D01*
X192555547Y-69191214D01*
X192555547Y-69524547D01*
X192507928Y-69715023D01*
X192412690Y-69810261D01*
X192317452Y-69857880D01*
X192126976Y-69857880D01*
X192031738Y-69810261D01*
X191936500Y-69715023D01*
X191888880Y-69524547D01*
X191888880Y-69191214D01*
X191936500Y-69000738D01*
X192031738Y-68905500D01*
X192126976Y-68857880D01*
D14*
X190539999Y-42089001D02*
X190539999Y-64089001D01*
X190539999Y-64089001D02*
X195539999Y-64089001D01*
X195539999Y-64089001D02*
X195539999Y-42089001D01*
X195539999Y-42089001D02*
X194539999Y-42089001D01*
X194539999Y-42089001D02*
X193539999Y-42089001D01*
X193539999Y-42089001D02*
X192539999Y-42089001D01*
X192539999Y-42089001D02*
X191539999Y-42089001D01*
X191539999Y-42089001D02*
X190539999Y-42089001D01*
D15*
X191539999Y-42089001D02*
X192039999Y-42539001D01*
X192039999Y-42539001D02*
X192539999Y-42089001D01*
X192539999Y-42089001D02*
X193039999Y-42589001D01*
X193039999Y-42589001D02*
X193539999Y-42089001D01*
X193539999Y-42089001D02*
X194089999Y-42639001D01*
X194089999Y-42639001D02*
X194539999Y-42089001D01*
X193539999Y-42839001D02*
X194039999Y-43189001D01*
X194039999Y-43189001D02*
X192589999Y-43189001D01*
D13*
X123022000Y-70183500D02*
X126872000Y-70183500D01*
X123022000Y-72183500D02*
X126872000Y-72183500D01*
X123022000Y-70183500D02*
X123022000Y-72183500D01*
D15*
X145670000Y-127978000D02*
X155320000Y-127978000D01*
X155320000Y-136578000D02*
X145670000Y-136578000D01*
X145670000Y-127978000D02*
X145670000Y-134028000D01*
X155320000Y-127978000D02*
X155320000Y-134028000D01*
X131445000Y-41245000D02*
X131445000Y-55245000D01*
X141245000Y-41245000D02*
X131445000Y-41245000D01*
X141245000Y-55245000D02*
X141245000Y-41245000D01*
X131445000Y-55245000D02*
X141245000Y-55245000D01*
D11*
X177246500Y-61092000D02*
G75*
G03X177246500Y-61092000I-100000J0D01*
G01*
D15*
X183946500Y-61992000D02*
X183946500Y-63992000D01*
X179146500Y-61992000D02*
X179146500Y-63992000D01*
X183046500Y-65392000D02*
X183646500Y-64792000D01*
X180046500Y-65392000D02*
X183046500Y-65392000D01*
X179446500Y-64792000D02*
X180046500Y-65392000D01*
X183046500Y-60592000D02*
X183646500Y-61192000D01*
X180046500Y-60592000D02*
X179446500Y-61192000D01*
X183046500Y-60592000D02*
X180046500Y-60592000D01*
D13*
X184273500Y-69338500D02*
X184273500Y-66678500D01*
X181673500Y-69338500D02*
X184273500Y-69338500D01*
X181673500Y-66678500D02*
X184273500Y-66678500D01*
X181673500Y-69338500D02*
X181673500Y-66678500D01*
X180403500Y-69338500D02*
X179073500Y-69338500D01*
X179073500Y-69338500D02*
X179073500Y-68008500D01*
D15*
X104362000Y-110862000D02*
X105812000Y-110862000D01*
X104862000Y-111212000D02*
X104362000Y-110862000D01*
X104312000Y-111412000D02*
X103862000Y-111962000D01*
X104862000Y-111962000D02*
X104312000Y-111412000D01*
X105362000Y-111462000D02*
X104862000Y-111962000D01*
X105862000Y-111962000D02*
X105362000Y-111462000D01*
X106362000Y-111512000D02*
X105862000Y-111962000D01*
X106862000Y-111962000D02*
X106362000Y-111512000D01*
D14*
X106862000Y-111962000D02*
X107862000Y-111962000D01*
X105862000Y-111962000D02*
X106862000Y-111962000D01*
X104862000Y-111962000D02*
X105862000Y-111962000D01*
X103862000Y-111962000D02*
X104862000Y-111962000D01*
X100332800Y-111956200D02*
X103862000Y-111962000D01*
X100271200Y-90012800D02*
X100271200Y-112012800D01*
X107862000Y-89962000D02*
X100332800Y-89962000D01*
X107862000Y-111962000D02*
X107862000Y-89962000D01*
D15*
X106950000Y-62489001D02*
X108400000Y-62489001D01*
X107450000Y-62839001D02*
X106950000Y-62489001D01*
X106900000Y-63039001D02*
X106450000Y-63589001D01*
X107450000Y-63589001D02*
X106900000Y-63039001D01*
X107950000Y-63089001D02*
X107450000Y-63589001D01*
X108450000Y-63589001D02*
X107950000Y-63089001D01*
X108950000Y-63139001D02*
X108450000Y-63589001D01*
X109450000Y-63589001D02*
X108950000Y-63139001D01*
D14*
X109450000Y-63589001D02*
X110450000Y-63589001D01*
X108450000Y-63589001D02*
X109450000Y-63589001D01*
X107450000Y-63589001D02*
X108450000Y-63589001D01*
X106450000Y-63589001D02*
X107450000Y-63589001D01*
X105450000Y-63589001D02*
X106450000Y-63589001D01*
X105450000Y-41589001D02*
X105450000Y-63589001D01*
X110450000Y-41589001D02*
X105450000Y-41589001D01*
X110450000Y-63589001D02*
X110450000Y-41589001D01*
X198650000Y-115228000D02*
X176650000Y-115228000D01*
X176650000Y-115228000D02*
X176650000Y-120228000D01*
X176650000Y-120228000D02*
X198650000Y-120228000D01*
X198650000Y-120228000D02*
X198650000Y-119228000D01*
X198650000Y-119228000D02*
X198650000Y-118228000D01*
X198650000Y-118228000D02*
X198650000Y-117228000D01*
X198650000Y-117228000D02*
X198650000Y-116228000D01*
X198650000Y-116228000D02*
X198650000Y-115228000D01*
D15*
X198650000Y-116228000D02*
X198200000Y-116728000D01*
X198200000Y-116728000D02*
X198650000Y-117228000D01*
X198650000Y-117228000D02*
X198150000Y-117728000D01*
X198150000Y-117728000D02*
X198650000Y-118228000D01*
X198650000Y-118228000D02*
X198100000Y-118778000D01*
X198100000Y-118778000D02*
X198650000Y-119228000D01*
X197900000Y-118228000D02*
X197550000Y-118728000D01*
X197550000Y-118728000D02*
X197550000Y-117278000D01*
D13*
X199139500Y-84014000D02*
X200469500Y-84014000D01*
X199139500Y-85344000D02*
X199139500Y-84014000D01*
X199139500Y-86614000D02*
X201799500Y-86614000D01*
X201799500Y-86614000D02*
X201799500Y-89214000D01*
X199139500Y-86614000D02*
X199139500Y-89214000D01*
X199139500Y-89214000D02*
X201799500Y-89214000D01*
X133695000Y-123224000D02*
X133695000Y-123380000D01*
X133695000Y-125540000D02*
X133695000Y-125696000D01*
X136927335Y-123381392D02*
G75*
G03X133695000Y-123224484I-1672335J-1078608D01*
G01*
X136927335Y-125538608D02*
G75*
G02X133695000Y-125695516I-1672335J1078608D01*
G01*
X136296130Y-123380163D02*
G75*
G03X134214039Y-123380000I-1041130J-1079837D01*
G01*
X136296130Y-125539837D02*
G75*
G02X134214039Y-125540000I-1041130J1079837D01*
G01*
X146456130Y-125539837D02*
G75*
G02X144374039Y-125540000I-1041130J1079837D01*
G01*
X146456130Y-123380163D02*
G75*
G03X144374039Y-123380000I-1041130J-1079837D01*
G01*
X147087335Y-125538608D02*
G75*
G02X143855000Y-125695516I-1672335J1078608D01*
G01*
X147087335Y-123381392D02*
G75*
G03X143855000Y-123224484I-1672335J-1078608D01*
G01*
X143855000Y-125540000D02*
X143855000Y-125696000D01*
X143855000Y-123224000D02*
X143855000Y-123380000D01*
X156616130Y-125539837D02*
G75*
G02X154534039Y-125540000I-1041130J1079837D01*
G01*
X156616130Y-123380163D02*
G75*
G03X154534039Y-123380000I-1041130J-1079837D01*
G01*
X157247335Y-125538608D02*
G75*
G02X154015000Y-125695516I-1672335J1078608D01*
G01*
X157247335Y-123381392D02*
G75*
G03X154015000Y-123224484I-1672335J-1078608D01*
G01*
X154015000Y-125540000D02*
X154015000Y-125696000D01*
X154015000Y-123224000D02*
X154015000Y-123380000D01*
X164175000Y-123224000D02*
X164175000Y-123380000D01*
X164175000Y-125540000D02*
X164175000Y-125696000D01*
X167407335Y-123381392D02*
G75*
G03X164175000Y-123224484I-1672335J-1078608D01*
G01*
X167407335Y-125538608D02*
G75*
G02X164175000Y-125695516I-1672335J1078608D01*
G01*
X166776130Y-123380163D02*
G75*
G03X164694039Y-123380000I-1041130J-1079837D01*
G01*
X166776130Y-125539837D02*
G75*
G02X164694039Y-125540000I-1041130J1079837D01*
G01*
X192281500Y-80060500D02*
X192281500Y-76530500D01*
X198751500Y-80060500D02*
X198751500Y-76530500D01*
X192346500Y-81385500D02*
X192346500Y-80060500D01*
X192281500Y-80060500D02*
X192346500Y-80060500D01*
X192281500Y-76530500D02*
X192346500Y-76530500D01*
X198686500Y-80060500D02*
X198751500Y-80060500D01*
X198686500Y-76530500D02*
X198751500Y-76530500D01*
D15*
X122573000Y-118728000D02*
X122573000Y-117278000D01*
X122923000Y-118228000D02*
X122573000Y-118728000D01*
X123123000Y-118778000D02*
X123673000Y-119228000D01*
X123673000Y-118228000D02*
X123123000Y-118778000D01*
X123173000Y-117728000D02*
X123673000Y-118228000D01*
X123673000Y-117228000D02*
X123173000Y-117728000D01*
X123223000Y-116728000D02*
X123673000Y-117228000D01*
X123673000Y-116228000D02*
X123223000Y-116728000D01*
D14*
X123673000Y-116228000D02*
X123673000Y-115228000D01*
X123673000Y-117228000D02*
X123673000Y-116228000D01*
X123673000Y-118228000D02*
X123673000Y-117228000D01*
X123673000Y-119228000D02*
X123673000Y-118228000D01*
X123673000Y-120228000D02*
X123673000Y-119228000D01*
X101673000Y-120228000D02*
X123673000Y-120228000D01*
X101673000Y-115228000D02*
X101673000Y-120228000D01*
X123673000Y-115228000D02*
X101673000Y-115228000D01*
D16*
X100329999Y-121539000D02*
X100329999Y-120269000D01*
X103504999Y-119634000D02*
X104774999Y-119634000D01*
X105409999Y-120269000D02*
X104774999Y-119634000D01*
X104774999Y-122174000D02*
X105409999Y-121539000D01*
X102234999Y-119634000D02*
X102869999Y-120269000D01*
X100964999Y-119634000D02*
X102234999Y-119634000D01*
X100329999Y-120269000D02*
X100964999Y-119634000D01*
X100964999Y-122174000D02*
X100329999Y-121539000D01*
X102234999Y-122174000D02*
X100964999Y-122174000D01*
X102869999Y-121539000D02*
X102234999Y-122174000D01*
X102869999Y-120269000D02*
X103504999Y-119634000D01*
X103504999Y-122174000D02*
X102869999Y-121539000D01*
X104774999Y-122174000D02*
X103504999Y-122174000D01*
X106044999Y-119634000D02*
X107314999Y-119634000D01*
X107949999Y-120269000D02*
X107314999Y-119634000D01*
X107314999Y-122174000D02*
X107949999Y-121539000D01*
X105409999Y-120269000D02*
X106044999Y-119634000D01*
X106044999Y-122174000D02*
X105409999Y-121539000D01*
X107314999Y-122174000D02*
X106044999Y-122174000D01*
X109854999Y-119634000D02*
X110489999Y-120269000D01*
X108584999Y-119634000D02*
X109854999Y-119634000D01*
X107949999Y-120269000D02*
X108584999Y-119634000D01*
X108584999Y-122174000D02*
X107949999Y-121539000D01*
X109854999Y-122174000D02*
X108584999Y-122174000D01*
X110489999Y-121539000D02*
X109854999Y-122174000D01*
X113664999Y-119634000D02*
X114934999Y-119634000D01*
X115569999Y-120269000D02*
X114934999Y-119634000D01*
X114934999Y-122174000D02*
X115569999Y-121539000D01*
X112394999Y-119634000D02*
X113029999Y-120269000D01*
X111124999Y-119634000D02*
X112394999Y-119634000D01*
X110489999Y-120269000D02*
X111124999Y-119634000D01*
X111124999Y-122174000D02*
X110489999Y-121539000D01*
X112394999Y-122174000D02*
X111124999Y-122174000D01*
X113029999Y-121539000D02*
X112394999Y-122174000D01*
X113029999Y-120269000D02*
X113664999Y-119634000D01*
X113664999Y-122174000D02*
X113029999Y-121539000D01*
X114934999Y-122174000D02*
X113664999Y-122174000D01*
X116204999Y-119634000D02*
X117474999Y-119634000D01*
X118109999Y-120269000D02*
X117474999Y-119634000D01*
X117474999Y-122174000D02*
X118109999Y-121539000D01*
X115569999Y-120269000D02*
X116204999Y-119634000D01*
X116204999Y-122174000D02*
X115569999Y-121539000D01*
X117474999Y-122174000D02*
X116204999Y-122174000D01*
X120014999Y-119634000D02*
X120649999Y-120269000D01*
X118744999Y-119634000D02*
X120014999Y-119634000D01*
X118109999Y-120269000D02*
X118744999Y-119634000D01*
X118744999Y-122174000D02*
X118109999Y-121539000D01*
X120014999Y-122174000D02*
X118744999Y-122174000D01*
X120649999Y-121539000D02*
X120014999Y-122174000D01*
X123824999Y-119634000D02*
X125094999Y-119634000D01*
X125729999Y-120269000D02*
X125094999Y-119634000D01*
X125094999Y-122174000D02*
X125729999Y-121539000D01*
X125729999Y-121539000D02*
X125729999Y-120269000D01*
X122554999Y-119634000D02*
X123189999Y-120269000D01*
X121284999Y-119634000D02*
X122554999Y-119634000D01*
X120649999Y-120269000D02*
X121284999Y-119634000D01*
X121284999Y-122174000D02*
X120649999Y-121539000D01*
X122554999Y-122174000D02*
X121284999Y-122174000D01*
X123189999Y-121539000D02*
X122554999Y-122174000D01*
X123189999Y-120269000D02*
X123824999Y-119634000D01*
X123824999Y-122174000D02*
X123189999Y-121539000D01*
X125094999Y-122174000D02*
X123824999Y-122174000D01*
D14*
X193127999Y-90462001D02*
X193127999Y-112462001D01*
X193127999Y-112462001D02*
X200657199Y-112462001D01*
X200718799Y-112411201D02*
X200718799Y-90411201D01*
X200657199Y-90467801D02*
X197127999Y-90462001D01*
X197127999Y-90462001D02*
X196127999Y-90462001D01*
X196127999Y-90462001D02*
X195127999Y-90462001D01*
X195127999Y-90462001D02*
X194127999Y-90462001D01*
X194127999Y-90462001D02*
X193127999Y-90462001D01*
D15*
X194127999Y-90462001D02*
X194627999Y-90912001D01*
X194627999Y-90912001D02*
X195127999Y-90462001D01*
X195127999Y-90462001D02*
X195627999Y-90962001D01*
X195627999Y-90962001D02*
X196127999Y-90462001D01*
X196127999Y-90462001D02*
X196677999Y-91012001D01*
X196677999Y-91012001D02*
X197127999Y-90462001D01*
X196127999Y-91212001D02*
X196627999Y-91562001D01*
X196627999Y-91562001D02*
X195177999Y-91562001D01*
D16*
X175894999Y-119634000D02*
X177164999Y-119634000D01*
X177164999Y-119634000D02*
X177799999Y-120269000D01*
X177799999Y-121539000D02*
X177164999Y-122174000D01*
X177799999Y-120269000D02*
X178434999Y-119634000D01*
X178434999Y-119634000D02*
X179704999Y-119634000D01*
X179704999Y-119634000D02*
X180339999Y-120269000D01*
X180339999Y-121539000D02*
X179704999Y-122174000D01*
X179704999Y-122174000D02*
X178434999Y-122174000D01*
X178434999Y-122174000D02*
X177799999Y-121539000D01*
X175259999Y-120269000D02*
X175259999Y-121539000D01*
X175894999Y-119634000D02*
X175259999Y-120269000D01*
X175259999Y-121539000D02*
X175894999Y-122174000D01*
X177164999Y-122174000D02*
X175894999Y-122174000D01*
X180339999Y-120269000D02*
X180974999Y-119634000D01*
X180974999Y-119634000D02*
X182244999Y-119634000D01*
X182244999Y-119634000D02*
X182879999Y-120269000D01*
X182879999Y-121539000D02*
X182244999Y-122174000D01*
X182244999Y-122174000D02*
X180974999Y-122174000D01*
X180974999Y-122174000D02*
X180339999Y-121539000D01*
X183514999Y-119634000D02*
X184784999Y-119634000D01*
X184784999Y-119634000D02*
X185419999Y-120269000D01*
X185419999Y-121539000D02*
X184784999Y-122174000D01*
X183514999Y-119634000D02*
X182879999Y-120269000D01*
X182879999Y-121539000D02*
X183514999Y-122174000D01*
X184784999Y-122174000D02*
X183514999Y-122174000D01*
X186054999Y-119634000D02*
X187324999Y-119634000D01*
X187324999Y-119634000D02*
X187959999Y-120269000D01*
X187959999Y-121539000D02*
X187324999Y-122174000D01*
X187959999Y-120269000D02*
X188594999Y-119634000D01*
X188594999Y-119634000D02*
X189864999Y-119634000D01*
X189864999Y-119634000D02*
X190499999Y-120269000D01*
X190499999Y-121539000D02*
X189864999Y-122174000D01*
X189864999Y-122174000D02*
X188594999Y-122174000D01*
X188594999Y-122174000D02*
X187959999Y-121539000D01*
X186054999Y-119634000D02*
X185419999Y-120269000D01*
X185419999Y-121539000D02*
X186054999Y-122174000D01*
X187324999Y-122174000D02*
X186054999Y-122174000D01*
X190499999Y-120269000D02*
X191134999Y-119634000D01*
X191134999Y-119634000D02*
X192404999Y-119634000D01*
X192404999Y-119634000D02*
X193039999Y-120269000D01*
X193039999Y-121539000D02*
X192404999Y-122174000D01*
X192404999Y-122174000D02*
X191134999Y-122174000D01*
X191134999Y-122174000D02*
X190499999Y-121539000D01*
X193674999Y-119634000D02*
X194944999Y-119634000D01*
X194944999Y-119634000D02*
X195579999Y-120269000D01*
X195579999Y-121539000D02*
X194944999Y-122174000D01*
X193674999Y-119634000D02*
X193039999Y-120269000D01*
X193039999Y-121539000D02*
X193674999Y-122174000D01*
X194944999Y-122174000D02*
X193674999Y-122174000D01*
X196214999Y-119634000D02*
X197484999Y-119634000D01*
X197484999Y-119634000D02*
X198119999Y-120269000D01*
X198119999Y-121539000D02*
X197484999Y-122174000D01*
X198119999Y-120269000D02*
X198754999Y-119634000D01*
X198754999Y-119634000D02*
X200024999Y-119634000D01*
X200024999Y-119634000D02*
X200659999Y-120269000D01*
X200659999Y-121539000D02*
X200024999Y-122174000D01*
X200024999Y-122174000D02*
X198754999Y-122174000D01*
X198754999Y-122174000D02*
X198119999Y-121539000D01*
X196214999Y-119634000D02*
X195579999Y-120269000D01*
X195579999Y-121539000D02*
X196214999Y-122174000D01*
X197484999Y-122174000D02*
X196214999Y-122174000D01*
X200659999Y-120269000D02*
X200659999Y-121539000D01*
D13*
X109476000Y-78239500D02*
X109476000Y-79169500D01*
X109476000Y-81399500D02*
X109476000Y-80469500D01*
X109476000Y-81399500D02*
X111636000Y-81399500D01*
X109476000Y-78239500D02*
X110936000Y-78239500D01*
X111136000Y-68811500D02*
X108686000Y-68811500D01*
X109336000Y-72031500D02*
X111136000Y-72031500D01*
X201863000Y-72704000D02*
X201863000Y-70044000D01*
X191643000Y-72704000D02*
X201863000Y-72704000D01*
X191643000Y-70044000D02*
X201863000Y-70044000D01*
X191643000Y-72704000D02*
X191643000Y-70044000D01*
X190373000Y-72704000D02*
X189043000Y-72704000D01*
X189043000Y-72704000D02*
X189043000Y-71374000D01*
X124963422Y-65520500D02*
X125480578Y-65520500D01*
X124963422Y-66940500D02*
X125480578Y-66940500D01*
X124963422Y-82053500D02*
X125480578Y-82053500D01*
X124963422Y-80633500D02*
X125480578Y-80633500D01*
X174397600Y-77728578D02*
X174397600Y-77211422D01*
X175817600Y-77728578D02*
X175817600Y-77211422D01*
X182474800Y-96413822D02*
X182474800Y-96930978D01*
X183894800Y-96413822D02*
X183894800Y-96930978D01*
X134545000Y-116581422D02*
X134545000Y-117098578D01*
X135965000Y-116581422D02*
X135965000Y-117098578D01*
X146125000Y-116581422D02*
X146125000Y-117098578D01*
X144705000Y-116581422D02*
X144705000Y-117098578D01*
X154738000Y-116560422D02*
X154738000Y-117077578D01*
X156158000Y-116560422D02*
X156158000Y-117077578D01*
X166445000Y-116581422D02*
X166445000Y-117098578D01*
X165025000Y-116581422D02*
X165025000Y-117098578D01*
X124963422Y-75490000D02*
X125480578Y-75490000D01*
X124963422Y-76910000D02*
X125480578Y-76910000D01*
X181351422Y-56844000D02*
X181868578Y-56844000D01*
X181351422Y-55424000D02*
X181868578Y-55424000D01*
X158666233Y-129002535D02*
X158924811Y-128554665D01*
X159895989Y-129712535D02*
X160154567Y-129264665D01*
X140835433Y-129264665D02*
X141094011Y-129712535D01*
X142065189Y-128554665D02*
X142323767Y-129002535D01*
X181862800Y-77160622D02*
X181862800Y-77677778D01*
X180442800Y-77160622D02*
X180442800Y-77677778D01*
D17*
X180670200Y-87630000D02*
G75*
G02X180670200Y-88239600I0J-304800D01*
G01*
D16*
X180670200Y-88239600D02*
X180670200Y-88544400D01*
X180670200Y-87630000D02*
X180670200Y-88239600D01*
X180670200Y-87325200D02*
X180670200Y-87630000D01*
D18*
X188336766Y-44567466D02*
X189543266Y-44567466D01*
X189784566Y-44647899D01*
X189945433Y-44808766D01*
X190025866Y-45050066D01*
X190025866Y-45210933D01*
X188336766Y-43923999D02*
X188336766Y-42797933D01*
X190025866Y-43521833D01*
X197798266Y-57407166D02*
X197798266Y-58211499D01*
X196109166Y-58211499D01*
X197717833Y-56200666D02*
X197798266Y-56361533D01*
X197798266Y-56683266D01*
X197717833Y-56844133D01*
X197556966Y-56924566D01*
X196913500Y-56924566D01*
X196752633Y-56844133D01*
X196672200Y-56683266D01*
X196672200Y-56361533D01*
X196752633Y-56200666D01*
X196913500Y-56120233D01*
X197074366Y-56120233D01*
X197235233Y-56924566D01*
X196672200Y-55637633D02*
X196672200Y-54994166D01*
X197798266Y-55396333D02*
X196350466Y-55396333D01*
X196189600Y-55315899D01*
X196109166Y-55155033D01*
X196109166Y-54994166D01*
X196672200Y-54672433D02*
X196672200Y-54028966D01*
X196109166Y-54431133D02*
X197556966Y-54431133D01*
X197717833Y-54350699D01*
X197798266Y-54189833D01*
X197798266Y-54028966D01*
X196913500Y-51615966D02*
X196913500Y-52178999D01*
X197798266Y-52178999D02*
X196109166Y-52178999D01*
X196109166Y-51374666D01*
X197798266Y-50731199D02*
X196109166Y-50731199D01*
X197798266Y-49765999D01*
X196109166Y-49765999D01*
D19*
X124356904Y-69730880D02*
X124356904Y-68730880D01*
X124595000Y-68730880D01*
X124737857Y-68778500D01*
X124833095Y-68873738D01*
X124880714Y-68968976D01*
X124928333Y-69159452D01*
X124928333Y-69302309D01*
X124880714Y-69492785D01*
X124833095Y-69588023D01*
X124737857Y-69683261D01*
X124595000Y-69730880D01*
X124356904Y-69730880D01*
X125833095Y-68730880D02*
X125356904Y-68730880D01*
X125309285Y-69207071D01*
X125356904Y-69159452D01*
X125452142Y-69111833D01*
X125690238Y-69111833D01*
X125785476Y-69159452D01*
X125833095Y-69207071D01*
X125880714Y-69302309D01*
X125880714Y-69540404D01*
X125833095Y-69635642D01*
X125785476Y-69683261D01*
X125690238Y-69730880D01*
X125452142Y-69730880D01*
X125356904Y-69683261D01*
X125309285Y-69635642D01*
D20*
X149406076Y-126350780D02*
X149406076Y-127065066D01*
X149358457Y-127207923D01*
X149263219Y-127303161D01*
X149120361Y-127350780D01*
X149025123Y-127350780D01*
X150406076Y-127350780D02*
X149834647Y-127350780D01*
X150120361Y-127350780D02*
X150120361Y-126350780D01*
X150025123Y-126493638D01*
X149929885Y-126588876D01*
X149834647Y-126636495D01*
X150787028Y-126446019D02*
X150834647Y-126398400D01*
X150929885Y-126350780D01*
X151167980Y-126350780D01*
X151263219Y-126398400D01*
X151310838Y-126446019D01*
X151358457Y-126541257D01*
X151358457Y-126636495D01*
X151310838Y-126779352D01*
X150739409Y-127350780D01*
X151358457Y-127350780D01*
X135593209Y-47678929D02*
X135593209Y-48490436D01*
X135640945Y-48585907D01*
X135688680Y-48633643D01*
X135784152Y-48681378D01*
X135975094Y-48681378D01*
X136070566Y-48633643D01*
X136118301Y-48585907D01*
X136166037Y-48490436D01*
X136166037Y-47678929D01*
X137168486Y-48681378D02*
X136595658Y-48681378D01*
X136882072Y-48681378D02*
X136882072Y-47678929D01*
X136786601Y-47822136D01*
X136691129Y-47917608D01*
X136595658Y-47965343D01*
X174993466Y-63295161D02*
X175136323Y-63342780D01*
X175374419Y-63342780D01*
X175469657Y-63295161D01*
X175517276Y-63247542D01*
X175564895Y-63152304D01*
X175564895Y-63057066D01*
X175517276Y-62961828D01*
X175469657Y-62914209D01*
X175374419Y-62866590D01*
X175183942Y-62818971D01*
X175088704Y-62771352D01*
X175041085Y-62723733D01*
X174993466Y-62628495D01*
X174993466Y-62533257D01*
X175041085Y-62438019D01*
X175088704Y-62390400D01*
X175183942Y-62342780D01*
X175422038Y-62342780D01*
X175564895Y-62390400D01*
X175898228Y-62342780D02*
X176136323Y-63342780D01*
X176326800Y-62628495D01*
X176517276Y-63342780D01*
X176755371Y-62342780D01*
X177660133Y-63342780D02*
X177088704Y-63342780D01*
X177374419Y-63342780D02*
X177374419Y-62342780D01*
X177279180Y-62485638D01*
X177183942Y-62580876D01*
X177088704Y-62628495D01*
D19*
X180863976Y-69937380D02*
X180863976Y-70651666D01*
X180816357Y-70794523D01*
X180721119Y-70889761D01*
X180578261Y-70937380D01*
X180483023Y-70937380D01*
X181863976Y-70937380D02*
X181292547Y-70937380D01*
X181578261Y-70937380D02*
X181578261Y-69937380D01*
X181483023Y-70080238D01*
X181387785Y-70175476D01*
X181292547Y-70223095D01*
X182816357Y-70937380D02*
X182244928Y-70937380D01*
X182530642Y-70937380D02*
X182530642Y-69937380D01*
X182435404Y-70080238D01*
X182340166Y-70175476D01*
X182244928Y-70223095D01*
D18*
X108634366Y-109180200D02*
X109840866Y-109180200D01*
X110082166Y-109260633D01*
X110243033Y-109421500D01*
X110323466Y-109662800D01*
X110323466Y-109823666D01*
X109197400Y-107651966D02*
X110323466Y-107651966D01*
X108553933Y-108054133D02*
X109760433Y-108456300D01*
X109760433Y-107410666D01*
X99652666Y-107828300D02*
X98848333Y-108391333D01*
X99652666Y-108793500D02*
X97963566Y-108793500D01*
X97963566Y-108150033D01*
X98044000Y-107989166D01*
X98124433Y-107908733D01*
X98285300Y-107828300D01*
X98526600Y-107828300D01*
X98687466Y-107908733D01*
X98767900Y-107989166D01*
X98848333Y-108150033D01*
X98848333Y-108793500D01*
X99652666Y-107104400D02*
X98526600Y-107104400D01*
X97963566Y-107104400D02*
X98044000Y-107184833D01*
X98124433Y-107104400D01*
X98044000Y-107023966D01*
X97963566Y-107104400D01*
X98124433Y-107104400D01*
X98526600Y-105576166D02*
X99893966Y-105576166D01*
X100054833Y-105656600D01*
X100135266Y-105737033D01*
X100215700Y-105897900D01*
X100215700Y-106139200D01*
X100135266Y-106300066D01*
X99572233Y-105576166D02*
X99652666Y-105737033D01*
X99652666Y-106058766D01*
X99572233Y-106219633D01*
X99491800Y-106300066D01*
X99330933Y-106380500D01*
X98848333Y-106380500D01*
X98687466Y-106300066D01*
X98607033Y-106219633D01*
X98526600Y-106058766D01*
X98526600Y-105737033D01*
X98607033Y-105576166D01*
X99652666Y-104771833D02*
X97963566Y-104771833D01*
X99652666Y-104047933D02*
X98767900Y-104047933D01*
X98607033Y-104128366D01*
X98526600Y-104289233D01*
X98526600Y-104530533D01*
X98607033Y-104691400D01*
X98687466Y-104771833D01*
X98526600Y-103484900D02*
X98526600Y-102841433D01*
X97963566Y-103243600D02*
X99411366Y-103243600D01*
X99572233Y-103163166D01*
X99652666Y-103002300D01*
X99652666Y-102841433D01*
X99652666Y-100991466D02*
X97963566Y-100991466D01*
X99652666Y-100026266D02*
X98687466Y-100750166D01*
X97963566Y-100026266D02*
X98928766Y-100991466D01*
X99572233Y-98658900D02*
X99652666Y-98819766D01*
X99652666Y-99141500D01*
X99572233Y-99302366D01*
X99411366Y-99382800D01*
X98767900Y-99382800D01*
X98607033Y-99302366D01*
X98526600Y-99141500D01*
X98526600Y-98819766D01*
X98607033Y-98658900D01*
X98767900Y-98578466D01*
X98928766Y-98578466D01*
X99089633Y-99382800D01*
X98526600Y-98015433D02*
X99652666Y-97613266D01*
X98526600Y-97211100D02*
X99652666Y-97613266D01*
X100054833Y-97774133D01*
X100135266Y-97854566D01*
X100215700Y-98015433D01*
X98526600Y-96728500D02*
X99652666Y-96406766D01*
X98848333Y-96085033D01*
X99652666Y-95763300D01*
X98526600Y-95441566D01*
X99572233Y-94154633D02*
X99652666Y-94315500D01*
X99652666Y-94637233D01*
X99572233Y-94798100D01*
X99411366Y-94878533D01*
X98767900Y-94878533D01*
X98607033Y-94798100D01*
X98526600Y-94637233D01*
X98526600Y-94315500D01*
X98607033Y-94154633D01*
X98767900Y-94074200D01*
X98928766Y-94074200D01*
X99089633Y-94878533D01*
X99652666Y-93109000D02*
X99572233Y-93269866D01*
X99411366Y-93350300D01*
X97963566Y-93350300D01*
X99652666Y-92224233D02*
X99572233Y-92385100D01*
X99411366Y-92465533D01*
X97963566Y-92465533D01*
X111044566Y-60248401D02*
X112251066Y-60248401D01*
X112492366Y-60328834D01*
X112653233Y-60489701D01*
X112733666Y-60731001D01*
X112733666Y-60891867D01*
X111044566Y-59604934D02*
X111044566Y-58559301D01*
X111688033Y-59122334D01*
X111688033Y-58881034D01*
X111768466Y-58720167D01*
X111848900Y-58639734D01*
X112009766Y-58559301D01*
X112411933Y-58559301D01*
X112572800Y-58639734D01*
X112653233Y-58720167D01*
X112733666Y-58881034D01*
X112733666Y-59363634D01*
X112653233Y-59524501D01*
X112572800Y-59604934D01*
X104935866Y-57320400D02*
X104131533Y-57883433D01*
X104935866Y-58285600D02*
X103246766Y-58285600D01*
X103246766Y-57642133D01*
X103327200Y-57481266D01*
X103407633Y-57400833D01*
X103568500Y-57320400D01*
X103809800Y-57320400D01*
X103970666Y-57400833D01*
X104051100Y-57481266D01*
X104131533Y-57642133D01*
X104131533Y-58285600D01*
X104935866Y-56596500D02*
X103809800Y-56596500D01*
X103246766Y-56596500D02*
X103327200Y-56676933D01*
X103407633Y-56596500D01*
X103327200Y-56516066D01*
X103246766Y-56596500D01*
X103407633Y-56596500D01*
X103809800Y-55068266D02*
X105177166Y-55068266D01*
X105338033Y-55148700D01*
X105418466Y-55229133D01*
X105498900Y-55390000D01*
X105498900Y-55631300D01*
X105418466Y-55792166D01*
X104855433Y-55068266D02*
X104935866Y-55229133D01*
X104935866Y-55550866D01*
X104855433Y-55711733D01*
X104775000Y-55792166D01*
X104614133Y-55872600D01*
X104131533Y-55872600D01*
X103970666Y-55792166D01*
X103890233Y-55711733D01*
X103809800Y-55550866D01*
X103809800Y-55229133D01*
X103890233Y-55068266D01*
X104935866Y-54263933D02*
X103246766Y-54263933D01*
X104935866Y-53540033D02*
X104051100Y-53540033D01*
X103890233Y-53620466D01*
X103809800Y-53781333D01*
X103809800Y-54022633D01*
X103890233Y-54183500D01*
X103970666Y-54263933D01*
X103809800Y-52977000D02*
X103809800Y-52333533D01*
X103246766Y-52735700D02*
X104694566Y-52735700D01*
X104855433Y-52655266D01*
X104935866Y-52494400D01*
X104935866Y-52333533D01*
X104051100Y-49920533D02*
X104051100Y-50483566D01*
X104935866Y-50483566D02*
X103246766Y-50483566D01*
X103246766Y-49679233D01*
X104935866Y-49035766D02*
X103246766Y-49035766D01*
X104935866Y-48070566D01*
X103246766Y-48070566D01*
X193836933Y-113000366D02*
X193836933Y-114206866D01*
X193756500Y-114448166D01*
X193595633Y-114609033D01*
X193354333Y-114689466D01*
X193193466Y-114689466D01*
X194721700Y-114689466D02*
X195043433Y-114689466D01*
X195204300Y-114609033D01*
X195284733Y-114528600D01*
X195445600Y-114287300D01*
X195526033Y-113965566D01*
X195526033Y-113322100D01*
X195445600Y-113161233D01*
X195365166Y-113080800D01*
X195204300Y-113000366D01*
X194882566Y-113000366D01*
X194721700Y-113080800D01*
X194641266Y-113161233D01*
X194560833Y-113322100D01*
X194560833Y-113724266D01*
X194641266Y-113885133D01*
X194721700Y-113965566D01*
X194882566Y-114046000D01*
X195204300Y-114046000D01*
X195365166Y-113965566D01*
X195445600Y-113885133D01*
X195526033Y-113724266D01*
X177089866Y-124862166D02*
X176285533Y-124862166D01*
X176285533Y-123173066D01*
X178296366Y-124781733D02*
X178135500Y-124862166D01*
X177813766Y-124862166D01*
X177652900Y-124781733D01*
X177572466Y-124620866D01*
X177572466Y-123977400D01*
X177652900Y-123816533D01*
X177813766Y-123736100D01*
X178135500Y-123736100D01*
X178296366Y-123816533D01*
X178376800Y-123977400D01*
X178376800Y-124138266D01*
X177572466Y-124299133D01*
X178859400Y-123736100D02*
X179502866Y-123736100D01*
X179100700Y-124862166D02*
X179100700Y-123414366D01*
X179181133Y-123253500D01*
X179342000Y-123173066D01*
X179502866Y-123173066D01*
X179824600Y-123736100D02*
X180468066Y-123736100D01*
X180065900Y-123173066D02*
X180065900Y-124620866D01*
X180146333Y-124781733D01*
X180307200Y-124862166D01*
X180468066Y-124862166D01*
X182076733Y-123173066D02*
X183041933Y-123173066D01*
X182559333Y-124862166D02*
X182559333Y-123173066D01*
X183604966Y-124862166D02*
X183604966Y-123173066D01*
X184328866Y-124862166D02*
X184328866Y-123977400D01*
X184248433Y-123816533D01*
X184087566Y-123736100D01*
X183846266Y-123736100D01*
X183685400Y-123816533D01*
X183604966Y-123896966D01*
X185857100Y-123736100D02*
X185857100Y-124862166D01*
X185133200Y-123736100D02*
X185133200Y-124620866D01*
X185213633Y-124781733D01*
X185374500Y-124862166D01*
X185615800Y-124862166D01*
X185776666Y-124781733D01*
X185857100Y-124701300D01*
X186661433Y-124862166D02*
X186661433Y-123736100D01*
X186661433Y-123896966D02*
X186741866Y-123816533D01*
X186902733Y-123736100D01*
X187144033Y-123736100D01*
X187304900Y-123816533D01*
X187385333Y-123977400D01*
X187385333Y-124862166D01*
X187385333Y-123977400D02*
X187465766Y-123816533D01*
X187626633Y-123736100D01*
X187867933Y-123736100D01*
X188028800Y-123816533D01*
X188109233Y-123977400D01*
X188109233Y-124862166D01*
X188913566Y-124862166D02*
X188913566Y-123173066D01*
X188913566Y-123816533D02*
X189074433Y-123736100D01*
X189396166Y-123736100D01*
X189557033Y-123816533D01*
X189637466Y-123896966D01*
X189717900Y-124057833D01*
X189717900Y-124540433D01*
X189637466Y-124701300D01*
X189557033Y-124781733D01*
X189396166Y-124862166D01*
X189074433Y-124862166D01*
X188913566Y-124781733D01*
X192693933Y-124701300D02*
X192613500Y-124781733D01*
X192372200Y-124862166D01*
X192211333Y-124862166D01*
X191970033Y-124781733D01*
X191809166Y-124620866D01*
X191728733Y-124460000D01*
X191648300Y-124138266D01*
X191648300Y-123896966D01*
X191728733Y-123575233D01*
X191809166Y-123414366D01*
X191970033Y-123253500D01*
X192211333Y-123173066D01*
X192372200Y-123173066D01*
X192613500Y-123253500D01*
X192693933Y-123333933D01*
X193659133Y-124862166D02*
X193498266Y-124781733D01*
X193417833Y-124620866D01*
X193417833Y-123173066D01*
X195026500Y-123736100D02*
X195026500Y-124862166D01*
X194302600Y-123736100D02*
X194302600Y-124620866D01*
X194383033Y-124781733D01*
X194543900Y-124862166D01*
X194785200Y-124862166D01*
X194946066Y-124781733D01*
X195026500Y-124701300D01*
X195750400Y-124781733D02*
X195911266Y-124862166D01*
X196233000Y-124862166D01*
X196393866Y-124781733D01*
X196474300Y-124620866D01*
X196474300Y-124540433D01*
X196393866Y-124379566D01*
X196233000Y-124299133D01*
X195991700Y-124299133D01*
X195830833Y-124218700D01*
X195750400Y-124057833D01*
X195750400Y-123977400D01*
X195830833Y-123816533D01*
X195991700Y-123736100D01*
X196233000Y-123736100D01*
X196393866Y-123816533D01*
X196956900Y-123736100D02*
X197600366Y-123736100D01*
X197198200Y-123173066D02*
X197198200Y-124620866D01*
X197278633Y-124781733D01*
X197439500Y-124862166D01*
X197600366Y-124862166D01*
X198806866Y-124781733D02*
X198646000Y-124862166D01*
X198324266Y-124862166D01*
X198163400Y-124781733D01*
X198082966Y-124620866D01*
X198082966Y-123977400D01*
X198163400Y-123816533D01*
X198324266Y-123736100D01*
X198646000Y-123736100D01*
X198806866Y-123816533D01*
X198887300Y-123977400D01*
X198887300Y-124138266D01*
X198082966Y-124299133D01*
X199611200Y-124862166D02*
X199611200Y-123736100D01*
X199611200Y-124057833D02*
X199691633Y-123896966D01*
X199772066Y-123816533D01*
X199932933Y-123736100D01*
X200093800Y-123736100D01*
D19*
X198112071Y-87463214D02*
X198159690Y-87320357D01*
X198207309Y-87272738D01*
X198302547Y-87225119D01*
X198445404Y-87225119D01*
X198540642Y-87272738D01*
X198588261Y-87320357D01*
X198635880Y-87415595D01*
X198635880Y-87796547D01*
X197635880Y-87796547D01*
X197635880Y-87463214D01*
X197683500Y-87367976D01*
X197731119Y-87320357D01*
X197826357Y-87272738D01*
X197921595Y-87272738D01*
X198016833Y-87320357D01*
X198064452Y-87367976D01*
X198112071Y-87463214D01*
X198112071Y-87796547D01*
X197635880Y-86939404D02*
X197635880Y-86367976D01*
X198635880Y-86653690D02*
X197635880Y-86653690D01*
X198635880Y-85510833D02*
X198635880Y-86082261D01*
X198635880Y-85796547D02*
X197635880Y-85796547D01*
X197778738Y-85891785D01*
X197873976Y-85987023D01*
X197921595Y-86082261D01*
X131240304Y-123388380D02*
X131240304Y-122388380D01*
X131478400Y-122388380D01*
X131621257Y-122436000D01*
X131716495Y-122531238D01*
X131764114Y-122626476D01*
X131811733Y-122816952D01*
X131811733Y-122959809D01*
X131764114Y-123150285D01*
X131716495Y-123245523D01*
X131621257Y-123340761D01*
X131478400Y-123388380D01*
X131240304Y-123388380D01*
X132764114Y-123388380D02*
X132192685Y-123388380D01*
X132478400Y-123388380D02*
X132478400Y-122388380D01*
X132383161Y-122531238D01*
X132287923Y-122626476D01*
X132192685Y-122674095D01*
X141349504Y-123337580D02*
X141349504Y-122337580D01*
X141587600Y-122337580D01*
X141730457Y-122385200D01*
X141825695Y-122480438D01*
X141873314Y-122575676D01*
X141920933Y-122766152D01*
X141920933Y-122909009D01*
X141873314Y-123099485D01*
X141825695Y-123194723D01*
X141730457Y-123289961D01*
X141587600Y-123337580D01*
X141349504Y-123337580D01*
X142301885Y-122432819D02*
X142349504Y-122385200D01*
X142444742Y-122337580D01*
X142682838Y-122337580D01*
X142778076Y-122385200D01*
X142825695Y-122432819D01*
X142873314Y-122528057D01*
X142873314Y-122623295D01*
X142825695Y-122766152D01*
X142254266Y-123337580D01*
X142873314Y-123337580D01*
X151509504Y-123540780D02*
X151509504Y-122540780D01*
X151747600Y-122540780D01*
X151890457Y-122588400D01*
X151985695Y-122683638D01*
X152033314Y-122778876D01*
X152080933Y-122969352D01*
X152080933Y-123112209D01*
X152033314Y-123302685D01*
X151985695Y-123397923D01*
X151890457Y-123493161D01*
X151747600Y-123540780D01*
X151509504Y-123540780D01*
X152414266Y-122540780D02*
X153033314Y-122540780D01*
X152699980Y-122921733D01*
X152842838Y-122921733D01*
X152938076Y-122969352D01*
X152985695Y-123016971D01*
X153033314Y-123112209D01*
X153033314Y-123350304D01*
X152985695Y-123445542D01*
X152938076Y-123493161D01*
X152842838Y-123540780D01*
X152557123Y-123540780D01*
X152461885Y-123493161D01*
X152414266Y-123445542D01*
X161669504Y-123134380D02*
X161669504Y-122134380D01*
X161907600Y-122134380D01*
X162050457Y-122182000D01*
X162145695Y-122277238D01*
X162193314Y-122372476D01*
X162240933Y-122562952D01*
X162240933Y-122705809D01*
X162193314Y-122896285D01*
X162145695Y-122991523D01*
X162050457Y-123086761D01*
X161907600Y-123134380D01*
X161669504Y-123134380D01*
X163098076Y-122467714D02*
X163098076Y-123134380D01*
X162859980Y-122086761D02*
X162621885Y-122801047D01*
X163240933Y-122801047D01*
X195119666Y-82700880D02*
X195119666Y-83415166D01*
X195072047Y-83558023D01*
X194976809Y-83653261D01*
X194833952Y-83700880D01*
X194738714Y-83700880D01*
X196119666Y-83700880D02*
X195548238Y-83700880D01*
X195833952Y-83700880D02*
X195833952Y-82700880D01*
X195738714Y-82843738D01*
X195643476Y-82938976D01*
X195548238Y-82986595D01*
D18*
X118805333Y-112797166D02*
X118805333Y-114003666D01*
X118724900Y-114244966D01*
X118564033Y-114405833D01*
X118322733Y-114486266D01*
X118161866Y-114486266D01*
X120414000Y-112797166D02*
X119609666Y-112797166D01*
X119529233Y-113601500D01*
X119609666Y-113521066D01*
X119770533Y-113440633D01*
X120172700Y-113440633D01*
X120333566Y-113521066D01*
X120414000Y-113601500D01*
X120494433Y-113762366D01*
X120494433Y-114164533D01*
X120414000Y-114325400D01*
X120333566Y-114405833D01*
X120172700Y-114486266D01*
X119770533Y-114486266D01*
X119609666Y-114405833D01*
X119529233Y-114325400D01*
X100551200Y-125116166D02*
X99988166Y-124311833D01*
X99586000Y-125116166D02*
X99586000Y-123427066D01*
X100229466Y-123427066D01*
X100390333Y-123507500D01*
X100470766Y-123587933D01*
X100551200Y-123748800D01*
X100551200Y-123990100D01*
X100470766Y-124150966D01*
X100390333Y-124231400D01*
X100229466Y-124311833D01*
X99586000Y-124311833D01*
X101275100Y-125116166D02*
X101275100Y-123990100D01*
X101275100Y-123427066D02*
X101194666Y-123507500D01*
X101275100Y-123587933D01*
X101355533Y-123507500D01*
X101275100Y-123427066D01*
X101275100Y-123587933D01*
X102803333Y-123990100D02*
X102803333Y-125357466D01*
X102722900Y-125518333D01*
X102642466Y-125598766D01*
X102481600Y-125679200D01*
X102240300Y-125679200D01*
X102079433Y-125598766D01*
X102803333Y-125035733D02*
X102642466Y-125116166D01*
X102320733Y-125116166D01*
X102159866Y-125035733D01*
X102079433Y-124955300D01*
X101999000Y-124794433D01*
X101999000Y-124311833D01*
X102079433Y-124150966D01*
X102159866Y-124070533D01*
X102320733Y-123990100D01*
X102642466Y-123990100D01*
X102803333Y-124070533D01*
X103607666Y-125116166D02*
X103607666Y-123427066D01*
X104331566Y-125116166D02*
X104331566Y-124231400D01*
X104251133Y-124070533D01*
X104090266Y-123990100D01*
X103848966Y-123990100D01*
X103688100Y-124070533D01*
X103607666Y-124150966D01*
X104894600Y-123990100D02*
X105538066Y-123990100D01*
X105135900Y-123427066D02*
X105135900Y-124874866D01*
X105216333Y-125035733D01*
X105377200Y-125116166D01*
X105538066Y-125116166D01*
X107146733Y-123427066D02*
X108111933Y-123427066D01*
X107629333Y-125116166D02*
X107629333Y-123427066D01*
X108674966Y-125116166D02*
X108674966Y-123427066D01*
X109398866Y-125116166D02*
X109398866Y-124231400D01*
X109318433Y-124070533D01*
X109157566Y-123990100D01*
X108916266Y-123990100D01*
X108755400Y-124070533D01*
X108674966Y-124150966D01*
X110927100Y-123990100D02*
X110927100Y-125116166D01*
X110203200Y-123990100D02*
X110203200Y-124874866D01*
X110283633Y-125035733D01*
X110444500Y-125116166D01*
X110685800Y-125116166D01*
X110846666Y-125035733D01*
X110927100Y-124955300D01*
X111731433Y-125116166D02*
X111731433Y-123990100D01*
X111731433Y-124150966D02*
X111811866Y-124070533D01*
X111972733Y-123990100D01*
X112214033Y-123990100D01*
X112374900Y-124070533D01*
X112455333Y-124231400D01*
X112455333Y-125116166D01*
X112455333Y-124231400D02*
X112535766Y-124070533D01*
X112696633Y-123990100D01*
X112937933Y-123990100D01*
X113098800Y-124070533D01*
X113179233Y-124231400D01*
X113179233Y-125116166D01*
X113983566Y-125116166D02*
X113983566Y-123427066D01*
X113983566Y-124070533D02*
X114144433Y-123990100D01*
X114466166Y-123990100D01*
X114627033Y-124070533D01*
X114707466Y-124150966D01*
X114787900Y-124311833D01*
X114787900Y-124794433D01*
X114707466Y-124955300D01*
X114627033Y-125035733D01*
X114466166Y-125116166D01*
X114144433Y-125116166D01*
X113983566Y-125035733D01*
X117763933Y-124955300D02*
X117683500Y-125035733D01*
X117442200Y-125116166D01*
X117281333Y-125116166D01*
X117040033Y-125035733D01*
X116879166Y-124874866D01*
X116798733Y-124714000D01*
X116718300Y-124392266D01*
X116718300Y-124150966D01*
X116798733Y-123829233D01*
X116879166Y-123668366D01*
X117040033Y-123507500D01*
X117281333Y-123427066D01*
X117442200Y-123427066D01*
X117683500Y-123507500D01*
X117763933Y-123587933D01*
X118729133Y-125116166D02*
X118568266Y-125035733D01*
X118487833Y-124874866D01*
X118487833Y-123427066D01*
X120096500Y-123990100D02*
X120096500Y-125116166D01*
X119372600Y-123990100D02*
X119372600Y-124874866D01*
X119453033Y-125035733D01*
X119613900Y-125116166D01*
X119855200Y-125116166D01*
X120016066Y-125035733D01*
X120096500Y-124955300D01*
X120820400Y-125035733D02*
X120981266Y-125116166D01*
X121303000Y-125116166D01*
X121463866Y-125035733D01*
X121544300Y-124874866D01*
X121544300Y-124794433D01*
X121463866Y-124633566D01*
X121303000Y-124553133D01*
X121061700Y-124553133D01*
X120900833Y-124472700D01*
X120820400Y-124311833D01*
X120820400Y-124231400D01*
X120900833Y-124070533D01*
X121061700Y-123990100D01*
X121303000Y-123990100D01*
X121463866Y-124070533D01*
X122026900Y-123990100D02*
X122670366Y-123990100D01*
X122268200Y-123427066D02*
X122268200Y-124874866D01*
X122348633Y-125035733D01*
X122509500Y-125116166D01*
X122670366Y-125116166D01*
X123876866Y-125035733D02*
X123716000Y-125116166D01*
X123394266Y-125116166D01*
X123233400Y-125035733D01*
X123152966Y-124874866D01*
X123152966Y-124231400D01*
X123233400Y-124070533D01*
X123394266Y-123990100D01*
X123716000Y-123990100D01*
X123876866Y-124070533D01*
X123957300Y-124231400D01*
X123957300Y-124392266D01*
X123152966Y-124553133D01*
X124681200Y-125116166D02*
X124681200Y-123990100D01*
X124681200Y-124311833D02*
X124761633Y-124150966D01*
X124842066Y-124070533D01*
X125002933Y-123990100D01*
X125163800Y-123990100D01*
D21*
X124215266Y-121291047D02*
X124215266Y-122152833D01*
X124157814Y-122325190D01*
X124042909Y-122440095D01*
X123870552Y-122497547D01*
X123755647Y-122497547D01*
X125306862Y-121291047D02*
X125077052Y-121291047D01*
X124962147Y-121348500D01*
X124904695Y-121405952D01*
X124789790Y-121578309D01*
X124732338Y-121808119D01*
X124732338Y-122267738D01*
X124789790Y-122382642D01*
X124847243Y-122440095D01*
X124962147Y-122497547D01*
X125191957Y-122497547D01*
X125306862Y-122440095D01*
X125364314Y-122382642D01*
X125421766Y-122267738D01*
X125421766Y-121980476D01*
X125364314Y-121865571D01*
X125306862Y-121808119D01*
X125191957Y-121750666D01*
X124962147Y-121750666D01*
X124847243Y-121808119D01*
X124789790Y-121865571D01*
X124732338Y-121980476D01*
D15*
X100773591Y-122497547D02*
X100084163Y-122497547D01*
X100428877Y-122497547D02*
X100428877Y-121291047D01*
X100313972Y-121463404D01*
X100199068Y-121578309D01*
X100084163Y-121635761D01*
X101520472Y-121291047D02*
X101635377Y-121291047D01*
X101750282Y-121348500D01*
X101807734Y-121405952D01*
X101865187Y-121520857D01*
X101922639Y-121750666D01*
X101922639Y-122037928D01*
X101865187Y-122267738D01*
X101807734Y-122382642D01*
X101750282Y-122440095D01*
X101635377Y-122497547D01*
X101520472Y-122497547D01*
X101405568Y-122440095D01*
X101348115Y-122382642D01*
X101290663Y-122267738D01*
X101233210Y-122037928D01*
X101233210Y-121750666D01*
X101290663Y-121520857D01*
X101348115Y-121405952D01*
X101405568Y-121348500D01*
X101520472Y-121291047D01*
X124655639Y-117925547D02*
X123966210Y-117925547D01*
X124310925Y-117925547D02*
X124310925Y-116719047D01*
X124196020Y-116891404D01*
X124081115Y-117006309D01*
X123966210Y-117063761D01*
D18*
X192194765Y-94369867D02*
X193401265Y-94369867D01*
X193642565Y-94450300D01*
X193803432Y-94611167D01*
X193883865Y-94852467D01*
X193883865Y-95013334D01*
X192918665Y-93324234D02*
X192838232Y-93485100D01*
X192757799Y-93565534D01*
X192596932Y-93645967D01*
X192516499Y-93645967D01*
X192355632Y-93565534D01*
X192275199Y-93485100D01*
X192194765Y-93324234D01*
X192194765Y-93002500D01*
X192275199Y-92841634D01*
X192355632Y-92761200D01*
X192516499Y-92680767D01*
X192596932Y-92680767D01*
X192757799Y-92761200D01*
X192838232Y-92841634D01*
X192918665Y-93002500D01*
X192918665Y-93324234D01*
X192999099Y-93485100D01*
X193079532Y-93565534D01*
X193240399Y-93645967D01*
X193562132Y-93645967D01*
X193722999Y-93565534D01*
X193803432Y-93485100D01*
X193883865Y-93324234D01*
X193883865Y-93002500D01*
X193803432Y-92841634D01*
X193722999Y-92761200D01*
X193562132Y-92680767D01*
X193240399Y-92680767D01*
X193079532Y-92761200D01*
X192999099Y-92841634D01*
X192918665Y-93002500D01*
X202979866Y-108710933D02*
X202979866Y-109515266D01*
X201290766Y-109515266D01*
X202899433Y-107504433D02*
X202979866Y-107665299D01*
X202979866Y-107987033D01*
X202899433Y-108147899D01*
X202738566Y-108228333D01*
X202095100Y-108228333D01*
X201934233Y-108147899D01*
X201853800Y-107987033D01*
X201853800Y-107665299D01*
X201934233Y-107504433D01*
X202095100Y-107423999D01*
X202255966Y-107423999D01*
X202416833Y-108228333D01*
X201853800Y-106941399D02*
X201853800Y-106297933D01*
X202979866Y-106700099D02*
X201532066Y-106700099D01*
X201371200Y-106619666D01*
X201290766Y-106458799D01*
X201290766Y-106297933D01*
X201853800Y-105976199D02*
X201853800Y-105332733D01*
X201290766Y-105734899D02*
X202738566Y-105734899D01*
X202899433Y-105654466D01*
X202979866Y-105493599D01*
X202979866Y-105332733D01*
X202979866Y-103482766D02*
X201290766Y-103482766D01*
X202979866Y-102517566D02*
X202014666Y-103241466D01*
X201290766Y-102517566D02*
X202255966Y-103482766D01*
X202899433Y-101150199D02*
X202979866Y-101311066D01*
X202979866Y-101632799D01*
X202899433Y-101793666D01*
X202738566Y-101874099D01*
X202095100Y-101874099D01*
X201934233Y-101793666D01*
X201853800Y-101632799D01*
X201853800Y-101311066D01*
X201934233Y-101150199D01*
X202095100Y-101069766D01*
X202255966Y-101069766D01*
X202416833Y-101874099D01*
X201853800Y-100506733D02*
X202979866Y-100104566D01*
X201853800Y-99702399D02*
X202979866Y-100104566D01*
X203382033Y-100265433D01*
X203462466Y-100345866D01*
X203542900Y-100506733D01*
X201853800Y-99219799D02*
X202979866Y-98898066D01*
X202175533Y-98576333D01*
X202979866Y-98254599D01*
X201853800Y-97932866D01*
X202899433Y-96645933D02*
X202979866Y-96806799D01*
X202979866Y-97128533D01*
X202899433Y-97289399D01*
X202738566Y-97369833D01*
X202095100Y-97369833D01*
X201934233Y-97289399D01*
X201853800Y-97128533D01*
X201853800Y-96806799D01*
X201934233Y-96645933D01*
X202095100Y-96565499D01*
X202255966Y-96565499D01*
X202416833Y-97369833D01*
X202979866Y-95600299D02*
X202899433Y-95761166D01*
X202738566Y-95841599D01*
X201290766Y-95841599D01*
X202979866Y-94715533D02*
X202899433Y-94876399D01*
X202738566Y-94956833D01*
X201290766Y-94956833D01*
D21*
X173735198Y-116338047D02*
X173735198Y-117199833D01*
X173677746Y-117372190D01*
X173562841Y-117487095D01*
X173390484Y-117544547D01*
X173275579Y-117544547D01*
X174941698Y-117544547D02*
X174252270Y-117544547D01*
X174596984Y-117544547D02*
X174596984Y-116338047D01*
X174482079Y-116510404D01*
X174367174Y-116625309D01*
X174252270Y-116682761D01*
X175688579Y-116338047D02*
X175803484Y-116338047D01*
X175918389Y-116395500D01*
X175975841Y-116452952D01*
X176033293Y-116567857D01*
X176090746Y-116797666D01*
X176090746Y-117084928D01*
X176033293Y-117314738D01*
X175975841Y-117429642D01*
X175918389Y-117487095D01*
X175803484Y-117544547D01*
X175688579Y-117544547D01*
X175573674Y-117487095D01*
X175516222Y-117429642D01*
X175458770Y-117314738D01*
X175401317Y-117084928D01*
X175401317Y-116797666D01*
X175458770Y-116567857D01*
X175516222Y-116452952D01*
X175573674Y-116395500D01*
X175688579Y-116338047D01*
D15*
X177023787Y-123767547D02*
X176334358Y-123767547D01*
X176679072Y-123767547D02*
X176679072Y-122561047D01*
X176564168Y-122733404D01*
X176449263Y-122848309D01*
X176334358Y-122905761D01*
X199756787Y-119195547D02*
X199067358Y-119195547D01*
X199412072Y-119195547D02*
X199412072Y-117989047D01*
X199297168Y-118161404D01*
X199182263Y-118276309D01*
X199067358Y-118333761D01*
X200503668Y-117989047D02*
X200618572Y-117989047D01*
X200733477Y-118046500D01*
X200790929Y-118103952D01*
X200848382Y-118218857D01*
X200905834Y-118448666D01*
X200905834Y-118735928D01*
X200848382Y-118965738D01*
X200790929Y-119080642D01*
X200733477Y-119138095D01*
X200618572Y-119195547D01*
X200503668Y-119195547D01*
X200388763Y-119138095D01*
X200331310Y-119080642D01*
X200273858Y-118965738D01*
X200216406Y-118735928D01*
X200216406Y-118448666D01*
X200273858Y-118218857D01*
X200331310Y-118103952D01*
X200388763Y-118046500D01*
X200503668Y-117989047D01*
D19*
X110140761Y-82867119D02*
X110045523Y-82819500D01*
X109950285Y-82724261D01*
X109807428Y-82581404D01*
X109712190Y-82533785D01*
X109616952Y-82533785D01*
X109664571Y-82771880D02*
X109569333Y-82724261D01*
X109474095Y-82629023D01*
X109426476Y-82438547D01*
X109426476Y-82105214D01*
X109474095Y-81914738D01*
X109569333Y-81819500D01*
X109664571Y-81771880D01*
X109855047Y-81771880D01*
X109950285Y-81819500D01*
X110045523Y-81914738D01*
X110093142Y-82105214D01*
X110093142Y-82438547D01*
X110045523Y-82629023D01*
X109950285Y-82724261D01*
X109855047Y-82771880D01*
X109664571Y-82771880D01*
X111045523Y-82771880D02*
X110474095Y-82771880D01*
X110759809Y-82771880D02*
X110759809Y-81771880D01*
X110664571Y-81914738D01*
X110569333Y-82009976D01*
X110474095Y-82057595D01*
X109474095Y-66973880D02*
X109474095Y-67783404D01*
X109521714Y-67878642D01*
X109569333Y-67926261D01*
X109664571Y-67973880D01*
X109855047Y-67973880D01*
X109950285Y-67926261D01*
X109997904Y-67878642D01*
X110045523Y-67783404D01*
X110045523Y-66973880D01*
X110474095Y-67069119D02*
X110521714Y-67021500D01*
X110616952Y-66973880D01*
X110855047Y-66973880D01*
X110950285Y-67021500D01*
X110997904Y-67069119D01*
X111045523Y-67164357D01*
X111045523Y-67259595D01*
X110997904Y-67402452D01*
X110426476Y-67973880D01*
X111045523Y-67973880D01*
X187495380Y-71707333D02*
X188209666Y-71707333D01*
X188352523Y-71754952D01*
X188447761Y-71850190D01*
X188495380Y-71993047D01*
X188495380Y-72088285D01*
X187590619Y-71278761D02*
X187543000Y-71231142D01*
X187495380Y-71135904D01*
X187495380Y-70897809D01*
X187543000Y-70802571D01*
X187590619Y-70754952D01*
X187685857Y-70707333D01*
X187781095Y-70707333D01*
X187923952Y-70754952D01*
X188495380Y-71326380D01*
X188495380Y-70707333D01*
X125055333Y-64937642D02*
X125007714Y-64985261D01*
X124864857Y-65032880D01*
X124769619Y-65032880D01*
X124626761Y-64985261D01*
X124531523Y-64890023D01*
X124483904Y-64794785D01*
X124436285Y-64604309D01*
X124436285Y-64461452D01*
X124483904Y-64270976D01*
X124531523Y-64175738D01*
X124626761Y-64080500D01*
X124769619Y-64032880D01*
X124864857Y-64032880D01*
X125007714Y-64080500D01*
X125055333Y-64128119D01*
X126007714Y-65032880D02*
X125436285Y-65032880D01*
X125722000Y-65032880D02*
X125722000Y-64032880D01*
X125626761Y-64175738D01*
X125531523Y-64270976D01*
X125436285Y-64318595D01*
X125055333Y-80050642D02*
X125007714Y-80098261D01*
X124864857Y-80145880D01*
X124769619Y-80145880D01*
X124626761Y-80098261D01*
X124531523Y-80003023D01*
X124483904Y-79907785D01*
X124436285Y-79717309D01*
X124436285Y-79574452D01*
X124483904Y-79383976D01*
X124531523Y-79288738D01*
X124626761Y-79193500D01*
X124769619Y-79145880D01*
X124864857Y-79145880D01*
X125007714Y-79193500D01*
X125055333Y-79241119D01*
X125436285Y-79241119D02*
X125483904Y-79193500D01*
X125579142Y-79145880D01*
X125817238Y-79145880D01*
X125912476Y-79193500D01*
X125960095Y-79241119D01*
X126007714Y-79336357D01*
X126007714Y-79431595D01*
X125960095Y-79574452D01*
X125388666Y-80145880D01*
X126007714Y-80145880D01*
X173814742Y-77636666D02*
X173862361Y-77684285D01*
X173909980Y-77827142D01*
X173909980Y-77922380D01*
X173862361Y-78065238D01*
X173767123Y-78160476D01*
X173671885Y-78208095D01*
X173481409Y-78255714D01*
X173338552Y-78255714D01*
X173148076Y-78208095D01*
X173052838Y-78160476D01*
X172957600Y-78065238D01*
X172909980Y-77922380D01*
X172909980Y-77827142D01*
X172957600Y-77684285D01*
X173005219Y-77636666D01*
X172909980Y-77303333D02*
X172909980Y-76684285D01*
X173290933Y-77017619D01*
X173290933Y-76874761D01*
X173338552Y-76779523D01*
X173386171Y-76731904D01*
X173481409Y-76684285D01*
X173719504Y-76684285D01*
X173814742Y-76731904D01*
X173862361Y-76779523D01*
X173909980Y-76874761D01*
X173909980Y-77160476D01*
X173862361Y-77255714D01*
X173814742Y-77303333D01*
X185191942Y-96839066D02*
X185239561Y-96886685D01*
X185287180Y-97029542D01*
X185287180Y-97124780D01*
X185239561Y-97267638D01*
X185144323Y-97362876D01*
X185049085Y-97410495D01*
X184858609Y-97458114D01*
X184715752Y-97458114D01*
X184525276Y-97410495D01*
X184430038Y-97362876D01*
X184334800Y-97267638D01*
X184287180Y-97124780D01*
X184287180Y-97029542D01*
X184334800Y-96886685D01*
X184382419Y-96839066D01*
X184620514Y-95981923D02*
X185287180Y-95981923D01*
X184239561Y-96220019D02*
X184953847Y-96458114D01*
X184953847Y-95839066D01*
X137357380Y-117006666D02*
X136881190Y-117340000D01*
X137357380Y-117578095D02*
X136357380Y-117578095D01*
X136357380Y-117197142D01*
X136405000Y-117101904D01*
X136452619Y-117054285D01*
X136547857Y-117006666D01*
X136690714Y-117006666D01*
X136785952Y-117054285D01*
X136833571Y-117101904D01*
X136881190Y-117197142D01*
X136881190Y-117578095D01*
X137357380Y-116054285D02*
X137357380Y-116625714D01*
X137357380Y-116340000D02*
X136357380Y-116340000D01*
X136500238Y-116435238D01*
X136595476Y-116530476D01*
X136643095Y-116625714D01*
X147517380Y-117006666D02*
X147041190Y-117340000D01*
X147517380Y-117578095D02*
X146517380Y-117578095D01*
X146517380Y-117197142D01*
X146565000Y-117101904D01*
X146612619Y-117054285D01*
X146707857Y-117006666D01*
X146850714Y-117006666D01*
X146945952Y-117054285D01*
X146993571Y-117101904D01*
X147041190Y-117197142D01*
X147041190Y-117578095D01*
X146612619Y-116625714D02*
X146565000Y-116578095D01*
X146517380Y-116482857D01*
X146517380Y-116244761D01*
X146565000Y-116149523D01*
X146612619Y-116101904D01*
X146707857Y-116054285D01*
X146803095Y-116054285D01*
X146945952Y-116101904D01*
X147517380Y-116673333D01*
X147517380Y-116054285D01*
X157550380Y-116985666D02*
X157074190Y-117319000D01*
X157550380Y-117557095D02*
X156550380Y-117557095D01*
X156550380Y-117176142D01*
X156598000Y-117080904D01*
X156645619Y-117033285D01*
X156740857Y-116985666D01*
X156883714Y-116985666D01*
X156978952Y-117033285D01*
X157026571Y-117080904D01*
X157074190Y-117176142D01*
X157074190Y-117557095D01*
X156550380Y-116652333D02*
X156550380Y-116033285D01*
X156931333Y-116366619D01*
X156931333Y-116223761D01*
X156978952Y-116128523D01*
X157026571Y-116080904D01*
X157121809Y-116033285D01*
X157359904Y-116033285D01*
X157455142Y-116080904D01*
X157502761Y-116128523D01*
X157550380Y-116223761D01*
X157550380Y-116509476D01*
X157502761Y-116604714D01*
X157455142Y-116652333D01*
X167837380Y-117006666D02*
X167361190Y-117340000D01*
X167837380Y-117578095D02*
X166837380Y-117578095D01*
X166837380Y-117197142D01*
X166885000Y-117101904D01*
X166932619Y-117054285D01*
X167027857Y-117006666D01*
X167170714Y-117006666D01*
X167265952Y-117054285D01*
X167313571Y-117101904D01*
X167361190Y-117197142D01*
X167361190Y-117578095D01*
X167170714Y-116149523D02*
X167837380Y-116149523D01*
X166789761Y-116387619D02*
X167504047Y-116625714D01*
X167504047Y-116006666D01*
X125055333Y-75002380D02*
X124722000Y-74526190D01*
X124483904Y-75002380D02*
X124483904Y-74002380D01*
X124864857Y-74002380D01*
X124960095Y-74050000D01*
X125007714Y-74097619D01*
X125055333Y-74192857D01*
X125055333Y-74335714D01*
X125007714Y-74430952D01*
X124960095Y-74478571D01*
X124864857Y-74526190D01*
X124483904Y-74526190D01*
X125960095Y-74002380D02*
X125483904Y-74002380D01*
X125436285Y-74478571D01*
X125483904Y-74430952D01*
X125579142Y-74383333D01*
X125817238Y-74383333D01*
X125912476Y-74430952D01*
X125960095Y-74478571D01*
X126007714Y-74573809D01*
X126007714Y-74811904D01*
X125960095Y-74907142D01*
X125912476Y-74954761D01*
X125817238Y-75002380D01*
X125579142Y-75002380D01*
X125483904Y-74954761D01*
X125436285Y-74907142D01*
X181443333Y-54936380D02*
X181110000Y-54460190D01*
X180871904Y-54936380D02*
X180871904Y-53936380D01*
X181252857Y-53936380D01*
X181348095Y-53984000D01*
X181395714Y-54031619D01*
X181443333Y-54126857D01*
X181443333Y-54269714D01*
X181395714Y-54364952D01*
X181348095Y-54412571D01*
X181252857Y-54460190D01*
X180871904Y-54460190D01*
X182300476Y-53936380D02*
X182110000Y-53936380D01*
X182014761Y-53984000D01*
X181967142Y-54031619D01*
X181871904Y-54174476D01*
X181824285Y-54364952D01*
X181824285Y-54745904D01*
X181871904Y-54841142D01*
X181919523Y-54888761D01*
X182014761Y-54936380D01*
X182205238Y-54936380D01*
X182300476Y-54888761D01*
X182348095Y-54841142D01*
X182395714Y-54745904D01*
X182395714Y-54507809D01*
X182348095Y-54412571D01*
X182300476Y-54364952D01*
X182205238Y-54317333D01*
X182014761Y-54317333D01*
X181919523Y-54364952D01*
X181871904Y-54412571D01*
X181824285Y-54507809D01*
X158289898Y-128679128D02*
X157710838Y-128729707D01*
X158004183Y-129173999D02*
X157138158Y-128673999D01*
X157328634Y-128344085D01*
X157417492Y-128285416D01*
X157482541Y-128267986D01*
X157588829Y-128274366D01*
X157712547Y-128345794D01*
X157771216Y-128434653D01*
X157788646Y-128499701D01*
X157782266Y-128605990D01*
X157591790Y-128935904D01*
X157590539Y-127890452D02*
X157923872Y-127313102D01*
X158575612Y-128184256D01*
X142533435Y-128390452D02*
X142779161Y-127863682D01*
X142247720Y-127895581D02*
X143113746Y-127395581D01*
X143304222Y-127725495D01*
X143310602Y-127831783D01*
X143293172Y-127896832D01*
X143234503Y-127985691D01*
X143110785Y-128057119D01*
X143004497Y-128063499D01*
X142939448Y-128046069D01*
X142850590Y-127987400D01*
X142660114Y-127657486D01*
X143314021Y-128599610D02*
X143307641Y-128493322D01*
X143325071Y-128428273D01*
X143383740Y-128339414D01*
X143424979Y-128315605D01*
X143531267Y-128309225D01*
X143596316Y-128326655D01*
X143685174Y-128385324D01*
X143780413Y-128550281D01*
X143786792Y-128656569D01*
X143769363Y-128721618D01*
X143710693Y-128810477D01*
X143669454Y-128834286D01*
X143563166Y-128840666D01*
X143498117Y-128823236D01*
X143409259Y-128764567D01*
X143314021Y-128599610D01*
X143225162Y-128540941D01*
X143160114Y-128523511D01*
X143053825Y-128529891D01*
X142888868Y-128625129D01*
X142830199Y-128713987D01*
X142812769Y-128779036D01*
X142819149Y-128885324D01*
X142914387Y-129050281D01*
X143003246Y-129108950D01*
X143068294Y-129126380D01*
X143174582Y-129120000D01*
X143339540Y-129024762D01*
X143398209Y-128935904D01*
X143415639Y-128870855D01*
X143409259Y-128764567D01*
X183255180Y-77585866D02*
X182778990Y-77919200D01*
X183255180Y-78157295D02*
X182255180Y-78157295D01*
X182255180Y-77776342D01*
X182302800Y-77681104D01*
X182350419Y-77633485D01*
X182445657Y-77585866D01*
X182588514Y-77585866D01*
X182683752Y-77633485D01*
X182731371Y-77681104D01*
X182778990Y-77776342D01*
X182778990Y-78157295D01*
X183255180Y-77109676D02*
X183255180Y-76919200D01*
X183207561Y-76823961D01*
X183159942Y-76776342D01*
X183017085Y-76681104D01*
X182826609Y-76633485D01*
X182445657Y-76633485D01*
X182350419Y-76681104D01*
X182302800Y-76728723D01*
X182255180Y-76823961D01*
X182255180Y-77014438D01*
X182302800Y-77109676D01*
X182350419Y-77157295D01*
X182445657Y-77204914D01*
X182683752Y-77204914D01*
X182778990Y-77157295D01*
X182826609Y-77109676D01*
X182874228Y-77014438D01*
X182874228Y-76823961D01*
X182826609Y-76728723D01*
X182778990Y-76681104D01*
X182683752Y-76633485D01*
D20*
X178398490Y-88727533D02*
X179726810Y-88727533D01*
X179883083Y-88649397D01*
X179961220Y-88571260D01*
X180039356Y-88414987D01*
X180039356Y-88102441D01*
X179961220Y-87946168D01*
X179883083Y-87868032D01*
X179726810Y-87789895D01*
X178398490Y-87789895D01*
X178398490Y-87164804D02*
X178398490Y-86149029D01*
X179023582Y-86695985D01*
X179023582Y-86461575D01*
X179101718Y-86305302D01*
X179179855Y-86227166D01*
X179336128Y-86149029D01*
X179726810Y-86149029D01*
X179883083Y-86227166D01*
X179961220Y-86305302D01*
X180039356Y-86461575D01*
X180039356Y-86930394D01*
X179961220Y-87086667D01*
X179883083Y-87164804D01*
M02*
