G04 #@! TF.GenerationSoftware,KiCad,Pcbnew,(5.1.4)-1*
G04 #@! TF.CreationDate,2020-08-13T15:15:15-05:00*
G04 #@! TF.ProjectId,Blue_Wizard,426c7565-5f57-4697-9a61-72642e6b6963,rev?*
G04 #@! TF.SameCoordinates,Original*
G04 #@! TF.FileFunction,Legend,Bot*
G04 #@! TF.FilePolarity,Positive*
%FSLAX46Y46*%
G04 Gerber Fmt 4.6, Leading zero omitted, Abs format (unit mm)*
G04 Created by KiCad (PCBNEW (5.1.4)-1) date 2020-08-13 15:15:15*
%MOMM*%
%LPD*%
G04 APERTURE LIST*
%ADD10C,0.120000*%
%ADD11C,0.150000*%
G04 APERTURE END LIST*
D10*
X133695000Y-123380000D02*
X133695000Y-123224000D01*
X133695000Y-125696000D02*
X133695000Y-125540000D01*
X136927335Y-125538608D02*
G75*
G02X133695000Y-125695516I-1672335J1078608D01*
G01*
X136927335Y-123381392D02*
G75*
G03X133695000Y-123224484I-1672335J-1078608D01*
G01*
X136296130Y-125539837D02*
G75*
G02X134214039Y-125540000I-1041130J1079837D01*
G01*
X136296130Y-123380163D02*
G75*
G03X134214039Y-123380000I-1041130J-1079837D01*
G01*
X143855000Y-125696000D02*
X143855000Y-125540000D01*
X143855000Y-123380000D02*
X143855000Y-123224000D01*
X146456130Y-123380163D02*
G75*
G03X144374039Y-123380000I-1041130J-1079837D01*
G01*
X146456130Y-125539837D02*
G75*
G02X144374039Y-125540000I-1041130J1079837D01*
G01*
X147087335Y-123381392D02*
G75*
G03X143855000Y-123224484I-1672335J-1078608D01*
G01*
X147087335Y-125538608D02*
G75*
G02X143855000Y-125695516I-1672335J1078608D01*
G01*
X164175000Y-125696000D02*
X164175000Y-125540000D01*
X164175000Y-123380000D02*
X164175000Y-123224000D01*
X166776130Y-123380163D02*
G75*
G03X164694039Y-123380000I-1041130J-1079837D01*
G01*
X166776130Y-125539837D02*
G75*
G02X164694039Y-125540000I-1041130J1079837D01*
G01*
X167407335Y-123381392D02*
G75*
G03X164175000Y-123224484I-1672335J-1078608D01*
G01*
X167407335Y-125538608D02*
G75*
G02X164175000Y-125695516I-1672335J1078608D01*
G01*
X154015000Y-123380000D02*
X154015000Y-123224000D01*
X154015000Y-125696000D02*
X154015000Y-125540000D01*
X157247335Y-125538608D02*
G75*
G02X154015000Y-125695516I-1672335J1078608D01*
G01*
X157247335Y-123381392D02*
G75*
G03X154015000Y-123224484I-1672335J-1078608D01*
G01*
X156616130Y-125539837D02*
G75*
G02X154534039Y-125540000I-1041130J1079837D01*
G01*
X156616130Y-123380163D02*
G75*
G03X154534039Y-123380000I-1041130J-1079837D01*
G01*
D11*
X132538695Y-123312180D02*
X132538695Y-122312180D01*
X132300600Y-122312180D01*
X132157742Y-122359800D01*
X132062504Y-122455038D01*
X132014885Y-122550276D01*
X131967266Y-122740752D01*
X131967266Y-122883609D01*
X132014885Y-123074085D01*
X132062504Y-123169323D01*
X132157742Y-123264561D01*
X132300600Y-123312180D01*
X132538695Y-123312180D01*
X131014885Y-123312180D02*
X131586314Y-123312180D01*
X131300600Y-123312180D02*
X131300600Y-122312180D01*
X131395838Y-122455038D01*
X131491076Y-122550276D01*
X131586314Y-122597895D01*
X142825695Y-126487180D02*
X142825695Y-125487180D01*
X142587600Y-125487180D01*
X142444742Y-125534800D01*
X142349504Y-125630038D01*
X142301885Y-125725276D01*
X142254266Y-125915752D01*
X142254266Y-126058609D01*
X142301885Y-126249085D01*
X142349504Y-126344323D01*
X142444742Y-126439561D01*
X142587600Y-126487180D01*
X142825695Y-126487180D01*
X141873314Y-125582419D02*
X141825695Y-125534800D01*
X141730457Y-125487180D01*
X141492361Y-125487180D01*
X141397123Y-125534800D01*
X141349504Y-125582419D01*
X141301885Y-125677657D01*
X141301885Y-125772895D01*
X141349504Y-125915752D01*
X141920933Y-126487180D01*
X141301885Y-126487180D01*
X163145695Y-126283980D02*
X163145695Y-125283980D01*
X162907600Y-125283980D01*
X162764742Y-125331600D01*
X162669504Y-125426838D01*
X162621885Y-125522076D01*
X162574266Y-125712552D01*
X162574266Y-125855409D01*
X162621885Y-126045885D01*
X162669504Y-126141123D01*
X162764742Y-126236361D01*
X162907600Y-126283980D01*
X163145695Y-126283980D01*
X161717123Y-125617314D02*
X161717123Y-126283980D01*
X161955219Y-125236361D02*
X162193314Y-125950647D01*
X161574266Y-125950647D01*
X152985695Y-126690380D02*
X152985695Y-125690380D01*
X152747600Y-125690380D01*
X152604742Y-125738000D01*
X152509504Y-125833238D01*
X152461885Y-125928476D01*
X152414266Y-126118952D01*
X152414266Y-126261809D01*
X152461885Y-126452285D01*
X152509504Y-126547523D01*
X152604742Y-126642761D01*
X152747600Y-126690380D01*
X152985695Y-126690380D01*
X152080933Y-125690380D02*
X151461885Y-125690380D01*
X151795219Y-126071333D01*
X151652361Y-126071333D01*
X151557123Y-126118952D01*
X151509504Y-126166571D01*
X151461885Y-126261809D01*
X151461885Y-126499904D01*
X151509504Y-126595142D01*
X151557123Y-126642761D01*
X151652361Y-126690380D01*
X151938076Y-126690380D01*
X152033314Y-126642761D01*
X152080933Y-126595142D01*
M02*
