M48
; DRILL file {KiCad (5.1.6)-1} date 09/05/20 21:17:01
; FORMAT={-:-/ absolute / inch / decimal}
; #@! TF.CreationDate,2020-09-05T21:17:01-05:00
; #@! TF.GenerationSoftware,Kicad,Pcbnew,(5.1.6)-1
; #@! TF.FileFunction,Plated,1,2,PTH
FMAT,2
INCH
T1C0.0118
T2C0.0157
T3C0.0197
T4C0.0315
T5C0.0354
T6C0.0394
T7C0.0400
T8C0.1560
%
G90
G05
T1
X5.9Y-5.04
X5.9152Y-5.0956
X6.0741Y-5.0341
T2
X3.862Y-2.954
X3.862Y-2.99
X3.8968Y-3.605
X3.98Y-2.954
X3.98Y-2.99
X4.1375Y-4.57
X4.25Y-2.888
X4.25Y-4.8422
X4.2569Y-3.7119
X4.2944Y-3.7257
X4.2981Y-3.7629
X4.3205Y-3.9961
X4.3475Y-3.7532
X4.3965Y-3.7531
X4.4425Y-2.7175
X4.6475Y-2.84
X4.71Y-2.565
X4.72Y-2.18
X4.815Y-3.11
X5.04Y-2.16
X5.1501Y-2.1762
X5.155Y-2.114
X5.155Y-1.85
X5.2599Y-3.005
X5.2599Y-3.05
X5.2599Y-3.0975
X5.2599Y-3.3775
X5.2599Y-3.4275
X5.265Y-1.875
X5.2749Y-1.9759
X5.3125Y-1.9735
X5.325Y-4.495
X5.3344Y-2.2
X5.3375Y-1.8375
X5.3853Y-2.1835
X5.4025Y-1.83
X5.47Y-1.9856
X5.4702Y-1.9132
X5.4826Y-3.005
X5.4826Y-3.05
X5.4826Y-3.0975
X5.5109Y-2.2044
X5.52Y-4.99
X5.5556Y-2.2044
X5.61Y-2.315
X5.6182Y-1.8175
X5.6252Y-1.8913
X5.6497Y-1.9746
X5.6683Y-2.2306
X5.67Y-1.8704
X5.6706Y-2.1744
X5.6795Y-2.0183
X5.6863Y-3.005
X5.6863Y-3.05
X5.6863Y-3.0975
X5.725Y-4.5
X5.726Y-2.0063
X5.7381Y-2.0769
X5.79Y-4.55
X5.805Y-4.595
X5.8175Y-5.0375
X5.8744Y-4.0856
X5.9054Y-4.5754
X5.9119Y-4.1031
X5.9417Y-4.6046
X5.956Y-4.1172
X6.0Y-4.115
X6.1121Y-5.0849
X6.121Y-4.508
X6.141Y-5.008
X6.1446Y-2.3993
X6.145Y-2.775
X6.235Y-2.575
X6.292Y-4.1023
X6.292Y-4.33
X6.3214Y-4.9786
X6.336Y-4.1023
X6.336Y-4.33
X6.52Y-2.62
X6.788Y-3.428
X6.858Y-3.378
X6.99Y-2.1
X7.0Y-2.61
X7.022Y-4.02
X7.022Y-4.308
X7.07Y-2.1
X7.07Y-4.022
X7.07Y-4.31
X7.132Y-2.884
X7.1776Y-3.572
X7.212Y-3.972
X7.2864Y-3.3663
X7.2885Y-3.5135
X7.304Y-3.094
X7.397Y-2.595
X7.53Y-4.195
X7.535Y-2.596
X7.5925Y-2.505
X7.6225Y-2.5325
X7.6475Y-3.1975
X7.6925Y-2.4175
X7.6975Y-3.1975
X7.7225Y-2.445
X7.7975Y-3.1975
X7.905Y-3.668
X5.8167Y-5.1251
X5.8325Y-5.1527
X5.864Y-5.1527
X5.8797Y-5.1251
X5.8955Y-5.1527
X5.9112Y-5.1251
X5.9427Y-5.1251
X5.9585Y-5.1527
X5.9742Y-5.1251
X5.99Y-5.1527
X6.0215Y-5.1527
X6.0372Y-5.1251
T3
X5.7482Y-5.3239
X5.7644Y-5.1487
X6.0896Y-5.1487
X6.1018Y-5.3239
T4
X7.6369Y-3.7387
X7.6369Y-3.8371
X7.6369Y-3.9355
X7.6369Y-4.0339
X7.6369Y-4.1324
X7.6369Y-4.2308
X7.7019Y-3.6894
X7.7019Y-3.7879
X7.7019Y-3.8863
X7.7019Y-3.9847
X7.7019Y-4.0831
X7.7019Y-4.1816
X7.7019Y-4.28
X7.82Y-3.6894
X7.82Y-3.7879
X7.82Y-3.8863
X7.82Y-3.9847
X7.82Y-4.0831
X7.82Y-4.1816
X7.82Y-4.28
X7.535Y-1.8342
X7.535Y-1.9326
X7.535Y-2.0311
X7.535Y-2.1295
X7.535Y-2.2279
X7.535Y-2.3263
X7.6Y-1.785
X7.6Y-1.8834
X7.6Y-1.9819
X7.6Y-2.0803
X7.6Y-2.1787
X7.6Y-2.2771
X7.6Y-2.3756
X7.1024Y-4.635
X7.1516Y-4.57
X7.2008Y-4.635
X7.25Y-4.57
X7.2992Y-4.635
X7.3484Y-4.57
X7.3976Y-4.635
X7.4469Y-4.57
X7.4961Y-4.635
X7.5453Y-4.57
X7.5945Y-4.635
X7.6437Y-4.57
X7.6929Y-4.635
X4.1505Y-4.635
X4.1997Y-4.57
X4.2489Y-4.635
X4.2981Y-4.57
X4.3474Y-4.635
X4.3966Y-4.57
X4.4458Y-4.635
X4.495Y-4.57
X4.5442Y-4.635
X4.5934Y-4.57
X4.6426Y-4.635
X4.6919Y-4.57
X4.7411Y-4.635
X4.25Y-1.785
X4.25Y-1.8834
X4.25Y-1.9819
X4.25Y-2.0803
X4.25Y-2.1787
X4.25Y-2.2771
X4.25Y-2.3756
X4.315Y-1.8342
X4.315Y-1.9326
X4.315Y-2.0311
X4.315Y-2.1295
X4.315Y-2.2279
X4.315Y-2.3263
X4.03Y-3.6894
X4.03Y-3.7879
X4.03Y-3.8863
X4.03Y-3.9847
X4.03Y-4.0831
X4.03Y-4.1816
X4.03Y-4.28
X4.1481Y-3.6894
X4.1481Y-3.7879
X4.1481Y-3.8863
X4.1481Y-3.9847
X4.1481Y-4.0831
X4.1481Y-4.1816
X4.1481Y-4.28
X4.2131Y-3.7387
X4.2131Y-3.8371
X4.2131Y-3.9355
X4.2131Y-4.0339
X4.2131Y-4.1324
X4.2131Y-4.2308
T5
X6.075Y-4.9
X6.175Y-4.9
X6.475Y-4.9
X6.575Y-4.9
X5.675Y-4.9
X5.775Y-4.9
X5.275Y-4.9
X5.375Y-4.9
T6
X7.1025Y-2.6775
X7.2025Y-2.6775
X4.1579Y-2.7685
X4.1579Y-2.8685
X7.495Y-2.81
X7.595Y-2.81
X7.695Y-2.81
X7.795Y-2.81
X7.895Y-2.81
X7.8925Y-3.36
X7.8925Y-3.46
T7
X4.0Y-4.76
X4.1Y-4.76
X4.2Y-4.76
X4.3Y-4.76
X4.4Y-4.76
X4.5Y-4.76
X4.6Y-4.76
X4.7Y-4.76
X4.8Y-4.76
X4.9Y-4.76
X6.95Y-4.76
X7.05Y-4.76
X7.15Y-4.76
X7.25Y-4.76
X7.35Y-4.76
X7.45Y-4.76
X7.55Y-4.76
X7.65Y-4.76
X7.75Y-4.76
X7.85Y-4.76
T8
X5.925Y-3.82
T0
M30
