G04 #@! TF.GenerationSoftware,KiCad,Pcbnew,(5.1.4)-1*
G04 #@! TF.CreationDate,2020-06-09T21:04:37-05:00*
G04 #@! TF.ProjectId,Blue_Wizard,426c7565-5f57-4697-9a61-72642e6b6963,rev?*
G04 #@! TF.SameCoordinates,Original*
G04 #@! TF.FileFunction,Legend,Bot*
G04 #@! TF.FilePolarity,Positive*
%FSLAX46Y46*%
G04 Gerber Fmt 4.6, Leading zero omitted, Abs format (unit mm)*
G04 Created by KiCad (PCBNEW (5.1.4)-1) date 2020-06-09 21:04:37*
%MOMM*%
%LPD*%
G04 APERTURE LIST*
%ADD10C,0.300000*%
G04 APERTURE END LIST*
D10*
X173156971Y-48243171D02*
X173656971Y-47528885D01*
X174014114Y-48243171D02*
X174014114Y-46743171D01*
X173442685Y-46743171D01*
X173299828Y-46814600D01*
X173228400Y-46886028D01*
X173156971Y-47028885D01*
X173156971Y-47243171D01*
X173228400Y-47386028D01*
X173299828Y-47457457D01*
X173442685Y-47528885D01*
X174014114Y-47528885D01*
X171728400Y-48243171D02*
X172585542Y-48243171D01*
X172156971Y-48243171D02*
X172156971Y-46743171D01*
X172299828Y-46957457D01*
X172442685Y-47100314D01*
X172585542Y-47171742D01*
X169942685Y-47671742D02*
X168799828Y-47671742D01*
X166085542Y-48243171D02*
X166585542Y-47528885D01*
X166942685Y-48243171D02*
X166942685Y-46743171D01*
X166371257Y-46743171D01*
X166228400Y-46814600D01*
X166156971Y-46886028D01*
X166085542Y-47028885D01*
X166085542Y-47243171D01*
X166156971Y-47386028D01*
X166228400Y-47457457D01*
X166371257Y-47528885D01*
X166942685Y-47528885D01*
X164799828Y-47243171D02*
X164799828Y-48243171D01*
X165156971Y-46671742D02*
X165514114Y-47743171D01*
X164585542Y-47743171D01*
X162085542Y-48243171D02*
X162942685Y-48243171D01*
X162514114Y-48243171D02*
X162514114Y-46743171D01*
X162656971Y-46957457D01*
X162799828Y-47100314D01*
X162942685Y-47171742D01*
X161156971Y-46743171D02*
X161014114Y-46743171D01*
X160871257Y-46814600D01*
X160799828Y-46886028D01*
X160728400Y-47028885D01*
X160656971Y-47314600D01*
X160656971Y-47671742D01*
X160728400Y-47957457D01*
X160799828Y-48100314D01*
X160871257Y-48171742D01*
X161014114Y-48243171D01*
X161156971Y-48243171D01*
X161299828Y-48171742D01*
X161371257Y-48100314D01*
X161442685Y-47957457D01*
X161514114Y-47671742D01*
X161514114Y-47314600D01*
X161442685Y-47028885D01*
X161371257Y-46886028D01*
X161299828Y-46814600D01*
X161156971Y-46743171D01*
X159728400Y-46743171D02*
X159585542Y-46743171D01*
X159442685Y-46814600D01*
X159371257Y-46886028D01*
X159299828Y-47028885D01*
X159228400Y-47314600D01*
X159228400Y-47671742D01*
X159299828Y-47957457D01*
X159371257Y-48100314D01*
X159442685Y-48171742D01*
X159585542Y-48243171D01*
X159728400Y-48243171D01*
X159871257Y-48171742D01*
X159942685Y-48100314D01*
X160014114Y-47957457D01*
X160085542Y-47671742D01*
X160085542Y-47314600D01*
X160014114Y-47028885D01*
X159942685Y-46886028D01*
X159871257Y-46814600D01*
X159728400Y-46743171D01*
X157228400Y-48243171D02*
X157371257Y-48171742D01*
X157442685Y-48100314D01*
X157514114Y-47957457D01*
X157514114Y-47528885D01*
X157442685Y-47386028D01*
X157371257Y-47314600D01*
X157228400Y-47243171D01*
X157014114Y-47243171D01*
X156871257Y-47314600D01*
X156799828Y-47386028D01*
X156728400Y-47528885D01*
X156728400Y-47957457D01*
X156799828Y-48100314D01*
X156871257Y-48171742D01*
X157014114Y-48243171D01*
X157228400Y-48243171D01*
X156085542Y-48243171D02*
X156085542Y-46743171D01*
X155442685Y-48243171D02*
X155442685Y-47457457D01*
X155514114Y-47314600D01*
X155656971Y-47243171D01*
X155871257Y-47243171D01*
X156014114Y-47314600D01*
X156085542Y-47386028D01*
X154728400Y-48243171D02*
X154728400Y-47243171D01*
X154728400Y-47386028D02*
X154656971Y-47314600D01*
X154514114Y-47243171D01*
X154299828Y-47243171D01*
X154156971Y-47314600D01*
X154085542Y-47457457D01*
X154085542Y-48243171D01*
X154085542Y-47457457D02*
X154014114Y-47314600D01*
X153871257Y-47243171D01*
X153656971Y-47243171D01*
X153514114Y-47314600D01*
X153442685Y-47457457D01*
X153442685Y-48243171D01*
X170228400Y-50793171D02*
X170728400Y-50078885D01*
X171085542Y-50793171D02*
X171085542Y-49293171D01*
X170514114Y-49293171D01*
X170371257Y-49364600D01*
X170299828Y-49436028D01*
X170228400Y-49578885D01*
X170228400Y-49793171D01*
X170299828Y-49936028D01*
X170371257Y-50007457D01*
X170514114Y-50078885D01*
X171085542Y-50078885D01*
X168871257Y-49293171D02*
X169585542Y-49293171D01*
X169656971Y-50007457D01*
X169585542Y-49936028D01*
X169442685Y-49864600D01*
X169085542Y-49864600D01*
X168942685Y-49936028D01*
X168871257Y-50007457D01*
X168799828Y-50150314D01*
X168799828Y-50507457D01*
X168871257Y-50650314D01*
X168942685Y-50721742D01*
X169085542Y-50793171D01*
X169442685Y-50793171D01*
X169585542Y-50721742D01*
X169656971Y-50650314D01*
X166228400Y-50793171D02*
X167085542Y-50793171D01*
X166656971Y-50793171D02*
X166656971Y-49293171D01*
X166799828Y-49507457D01*
X166942685Y-49650314D01*
X167085542Y-49721742D01*
X165299828Y-49293171D02*
X165156971Y-49293171D01*
X165014114Y-49364600D01*
X164942685Y-49436028D01*
X164871257Y-49578885D01*
X164799828Y-49864600D01*
X164799828Y-50221742D01*
X164871257Y-50507457D01*
X164942685Y-50650314D01*
X165014114Y-50721742D01*
X165156971Y-50793171D01*
X165299828Y-50793171D01*
X165442685Y-50721742D01*
X165514114Y-50650314D01*
X165585542Y-50507457D01*
X165656971Y-50221742D01*
X165656971Y-49864600D01*
X165585542Y-49578885D01*
X165514114Y-49436028D01*
X165442685Y-49364600D01*
X165299828Y-49293171D01*
X163871257Y-49293171D02*
X163728400Y-49293171D01*
X163585542Y-49364600D01*
X163514114Y-49436028D01*
X163442685Y-49578885D01*
X163371257Y-49864600D01*
X163371257Y-50221742D01*
X163442685Y-50507457D01*
X163514114Y-50650314D01*
X163585542Y-50721742D01*
X163728400Y-50793171D01*
X163871257Y-50793171D01*
X164014114Y-50721742D01*
X164085542Y-50650314D01*
X164156971Y-50507457D01*
X164228400Y-50221742D01*
X164228400Y-49864600D01*
X164156971Y-49578885D01*
X164085542Y-49436028D01*
X164014114Y-49364600D01*
X163871257Y-49293171D01*
X162728400Y-50793171D02*
X162728400Y-49293171D01*
X162585542Y-50221742D02*
X162156971Y-50793171D01*
X162156971Y-49793171D02*
X162728400Y-50364600D01*
X160156971Y-50793171D02*
X160299828Y-50721742D01*
X160371257Y-50650314D01*
X160442685Y-50507457D01*
X160442685Y-50078885D01*
X160371257Y-49936028D01*
X160299828Y-49864600D01*
X160156971Y-49793171D01*
X159942685Y-49793171D01*
X159799828Y-49864600D01*
X159728400Y-49936028D01*
X159656971Y-50078885D01*
X159656971Y-50507457D01*
X159728400Y-50650314D01*
X159799828Y-50721742D01*
X159942685Y-50793171D01*
X160156971Y-50793171D01*
X159014114Y-50793171D02*
X159014114Y-49293171D01*
X158371257Y-50793171D02*
X158371257Y-50007457D01*
X158442685Y-49864600D01*
X158585542Y-49793171D01*
X158799828Y-49793171D01*
X158942685Y-49864600D01*
X159014114Y-49936028D01*
X157656971Y-50793171D02*
X157656971Y-49793171D01*
X157656971Y-49936028D02*
X157585542Y-49864600D01*
X157442685Y-49793171D01*
X157228400Y-49793171D01*
X157085542Y-49864600D01*
X157014114Y-50007457D01*
X157014114Y-50793171D01*
X157014114Y-50007457D02*
X156942685Y-49864600D01*
X156799828Y-49793171D01*
X156585542Y-49793171D01*
X156442685Y-49864600D01*
X156371257Y-50007457D01*
X156371257Y-50793171D01*
X169514114Y-53343171D02*
X170014114Y-52628885D01*
X170371257Y-53343171D02*
X170371257Y-51843171D01*
X169799828Y-51843171D01*
X169656971Y-51914600D01*
X169585542Y-51986028D01*
X169514114Y-52128885D01*
X169514114Y-52343171D01*
X169585542Y-52486028D01*
X169656971Y-52557457D01*
X169799828Y-52628885D01*
X170371257Y-52628885D01*
X168228400Y-51843171D02*
X168514114Y-51843171D01*
X168656971Y-51914600D01*
X168728400Y-51986028D01*
X168871257Y-52200314D01*
X168942685Y-52486028D01*
X168942685Y-53057457D01*
X168871257Y-53200314D01*
X168799828Y-53271742D01*
X168656971Y-53343171D01*
X168371257Y-53343171D01*
X168228400Y-53271742D01*
X168156971Y-53200314D01*
X168085542Y-53057457D01*
X168085542Y-52700314D01*
X168156971Y-52557457D01*
X168228400Y-52486028D01*
X168371257Y-52414600D01*
X168656971Y-52414600D01*
X168799828Y-52486028D01*
X168871257Y-52557457D01*
X168942685Y-52700314D01*
X165514114Y-53343171D02*
X166371257Y-53343171D01*
X165942685Y-53343171D02*
X165942685Y-51843171D01*
X166085542Y-52057457D01*
X166228400Y-52200314D01*
X166371257Y-52271742D01*
X164585542Y-51843171D02*
X164442685Y-51843171D01*
X164299828Y-51914600D01*
X164228400Y-51986028D01*
X164156971Y-52128885D01*
X164085542Y-52414600D01*
X164085542Y-52771742D01*
X164156971Y-53057457D01*
X164228400Y-53200314D01*
X164299828Y-53271742D01*
X164442685Y-53343171D01*
X164585542Y-53343171D01*
X164728400Y-53271742D01*
X164799828Y-53200314D01*
X164871257Y-53057457D01*
X164942685Y-52771742D01*
X164942685Y-52414600D01*
X164871257Y-52128885D01*
X164799828Y-51986028D01*
X164728400Y-51914600D01*
X164585542Y-51843171D01*
X163442685Y-53343171D02*
X163442685Y-51843171D01*
X163299828Y-52771742D02*
X162871257Y-53343171D01*
X162871257Y-52343171D02*
X163442685Y-52914600D01*
X160871257Y-53343171D02*
X161014114Y-53271742D01*
X161085542Y-53200314D01*
X161156971Y-53057457D01*
X161156971Y-52628885D01*
X161085542Y-52486028D01*
X161014114Y-52414600D01*
X160871257Y-52343171D01*
X160656971Y-52343171D01*
X160514114Y-52414600D01*
X160442685Y-52486028D01*
X160371257Y-52628885D01*
X160371257Y-53057457D01*
X160442685Y-53200314D01*
X160514114Y-53271742D01*
X160656971Y-53343171D01*
X160871257Y-53343171D01*
X159728400Y-53343171D02*
X159728400Y-51843171D01*
X159085542Y-53343171D02*
X159085542Y-52557457D01*
X159156971Y-52414600D01*
X159299828Y-52343171D01*
X159514114Y-52343171D01*
X159656971Y-52414600D01*
X159728400Y-52486028D01*
X158371257Y-53343171D02*
X158371257Y-52343171D01*
X158371257Y-52486028D02*
X158299828Y-52414600D01*
X158156971Y-52343171D01*
X157942685Y-52343171D01*
X157799828Y-52414600D01*
X157728400Y-52557457D01*
X157728400Y-53343171D01*
X157728400Y-52557457D02*
X157656971Y-52414600D01*
X157514114Y-52343171D01*
X157299828Y-52343171D01*
X157156971Y-52414600D01*
X157085542Y-52557457D01*
X157085542Y-53343171D01*
X171906971Y-55893171D02*
X172406971Y-55178885D01*
X172764114Y-55893171D02*
X172764114Y-54393171D01*
X172192685Y-54393171D01*
X172049828Y-54464600D01*
X171978400Y-54536028D01*
X171906971Y-54678885D01*
X171906971Y-54893171D01*
X171978400Y-55036028D01*
X172049828Y-55107457D01*
X172192685Y-55178885D01*
X172764114Y-55178885D01*
X171406971Y-54393171D02*
X170406971Y-54393171D01*
X171049828Y-55893171D01*
X167835542Y-55893171D02*
X168335542Y-55178885D01*
X168692685Y-55893171D02*
X168692685Y-54393171D01*
X168121257Y-54393171D01*
X167978400Y-54464600D01*
X167906971Y-54536028D01*
X167835542Y-54678885D01*
X167835542Y-54893171D01*
X167906971Y-55036028D01*
X167978400Y-55107457D01*
X168121257Y-55178885D01*
X168692685Y-55178885D01*
X166978400Y-55036028D02*
X167121257Y-54964600D01*
X167192685Y-54893171D01*
X167264114Y-54750314D01*
X167264114Y-54678885D01*
X167192685Y-54536028D01*
X167121257Y-54464600D01*
X166978400Y-54393171D01*
X166692685Y-54393171D01*
X166549828Y-54464600D01*
X166478400Y-54536028D01*
X166406971Y-54678885D01*
X166406971Y-54750314D01*
X166478400Y-54893171D01*
X166549828Y-54964600D01*
X166692685Y-55036028D01*
X166978400Y-55036028D01*
X167121257Y-55107457D01*
X167192685Y-55178885D01*
X167264114Y-55321742D01*
X167264114Y-55607457D01*
X167192685Y-55750314D01*
X167121257Y-55821742D01*
X166978400Y-55893171D01*
X166692685Y-55893171D01*
X166549828Y-55821742D01*
X166478400Y-55750314D01*
X166406971Y-55607457D01*
X166406971Y-55321742D01*
X166478400Y-55178885D01*
X166549828Y-55107457D01*
X166692685Y-55036028D01*
X163906971Y-54393171D02*
X164621257Y-54393171D01*
X164692685Y-55107457D01*
X164621257Y-55036028D01*
X164478400Y-54964600D01*
X164121257Y-54964600D01*
X163978400Y-55036028D01*
X163906971Y-55107457D01*
X163835542Y-55250314D01*
X163835542Y-55607457D01*
X163906971Y-55750314D01*
X163978400Y-55821742D01*
X164121257Y-55893171D01*
X164478400Y-55893171D01*
X164621257Y-55821742D01*
X164692685Y-55750314D01*
X163192685Y-55750314D02*
X163121257Y-55821742D01*
X163192685Y-55893171D01*
X163264114Y-55821742D01*
X163192685Y-55750314D01*
X163192685Y-55893171D01*
X161692685Y-55893171D02*
X162549828Y-55893171D01*
X162121257Y-55893171D02*
X162121257Y-54393171D01*
X162264114Y-54607457D01*
X162406971Y-54750314D01*
X162549828Y-54821742D01*
X161049828Y-55893171D02*
X161049828Y-54393171D01*
X160906971Y-55321742D02*
X160478400Y-55893171D01*
X160478400Y-54893171D02*
X161049828Y-55464600D01*
X158478400Y-55893171D02*
X158621257Y-55821742D01*
X158692685Y-55750314D01*
X158764114Y-55607457D01*
X158764114Y-55178885D01*
X158692685Y-55036028D01*
X158621257Y-54964600D01*
X158478400Y-54893171D01*
X158264114Y-54893171D01*
X158121257Y-54964600D01*
X158049828Y-55036028D01*
X157978400Y-55178885D01*
X157978400Y-55607457D01*
X158049828Y-55750314D01*
X158121257Y-55821742D01*
X158264114Y-55893171D01*
X158478400Y-55893171D01*
X157335542Y-55893171D02*
X157335542Y-54393171D01*
X156692685Y-55893171D02*
X156692685Y-55107457D01*
X156764114Y-54964600D01*
X156906971Y-54893171D01*
X157121257Y-54893171D01*
X157264114Y-54964600D01*
X157335542Y-55036028D01*
X155978400Y-55893171D02*
X155978400Y-54893171D01*
X155978400Y-55036028D02*
X155906971Y-54964600D01*
X155764114Y-54893171D01*
X155549828Y-54893171D01*
X155406971Y-54964600D01*
X155335542Y-55107457D01*
X155335542Y-55893171D01*
X155335542Y-55107457D02*
X155264114Y-54964600D01*
X155121257Y-54893171D01*
X154906971Y-54893171D01*
X154764114Y-54964600D01*
X154692685Y-55107457D01*
X154692685Y-55893171D01*
X168799828Y-58443171D02*
X169299828Y-57728885D01*
X169656971Y-58443171D02*
X169656971Y-56943171D01*
X169085542Y-56943171D01*
X168942685Y-57014600D01*
X168871257Y-57086028D01*
X168799828Y-57228885D01*
X168799828Y-57443171D01*
X168871257Y-57586028D01*
X168942685Y-57657457D01*
X169085542Y-57728885D01*
X169656971Y-57728885D01*
X168085542Y-58443171D02*
X167799828Y-58443171D01*
X167656971Y-58371742D01*
X167585542Y-58300314D01*
X167442685Y-58086028D01*
X167371257Y-57800314D01*
X167371257Y-57228885D01*
X167442685Y-57086028D01*
X167514114Y-57014600D01*
X167656971Y-56943171D01*
X167942685Y-56943171D01*
X168085542Y-57014600D01*
X168156971Y-57086028D01*
X168228400Y-57228885D01*
X168228400Y-57586028D01*
X168156971Y-57728885D01*
X168085542Y-57800314D01*
X167942685Y-57871742D01*
X167656971Y-57871742D01*
X167514114Y-57800314D01*
X167442685Y-57728885D01*
X167371257Y-57586028D01*
X165656971Y-57086028D02*
X165585542Y-57014600D01*
X165442685Y-56943171D01*
X165085542Y-56943171D01*
X164942685Y-57014600D01*
X164871257Y-57086028D01*
X164799828Y-57228885D01*
X164799828Y-57371742D01*
X164871257Y-57586028D01*
X165728400Y-58443171D01*
X164799828Y-58443171D01*
X164156971Y-58443171D02*
X164156971Y-56943171D01*
X164014114Y-57871742D02*
X163585542Y-58443171D01*
X163585542Y-57443171D02*
X164156971Y-58014600D01*
X161585542Y-58443171D02*
X161728400Y-58371742D01*
X161799828Y-58300314D01*
X161871257Y-58157457D01*
X161871257Y-57728885D01*
X161799828Y-57586028D01*
X161728400Y-57514600D01*
X161585542Y-57443171D01*
X161371257Y-57443171D01*
X161228400Y-57514600D01*
X161156971Y-57586028D01*
X161085542Y-57728885D01*
X161085542Y-58157457D01*
X161156971Y-58300314D01*
X161228400Y-58371742D01*
X161371257Y-58443171D01*
X161585542Y-58443171D01*
X160442685Y-58443171D02*
X160442685Y-56943171D01*
X159799828Y-58443171D02*
X159799828Y-57657457D01*
X159871257Y-57514600D01*
X160014114Y-57443171D01*
X160228400Y-57443171D01*
X160371257Y-57514600D01*
X160442685Y-57586028D01*
X159085542Y-58443171D02*
X159085542Y-57443171D01*
X159085542Y-57586028D02*
X159014114Y-57514600D01*
X158871257Y-57443171D01*
X158656971Y-57443171D01*
X158514114Y-57514600D01*
X158442685Y-57657457D01*
X158442685Y-58443171D01*
X158442685Y-57657457D02*
X158371257Y-57514600D01*
X158228400Y-57443171D01*
X158014114Y-57443171D01*
X157871257Y-57514600D01*
X157799828Y-57657457D01*
X157799828Y-58443171D01*
X168621257Y-60850314D02*
X168692685Y-60921742D01*
X168906971Y-60993171D01*
X169049828Y-60993171D01*
X169264114Y-60921742D01*
X169406971Y-60778885D01*
X169478400Y-60636028D01*
X169549828Y-60350314D01*
X169549828Y-60136028D01*
X169478400Y-59850314D01*
X169406971Y-59707457D01*
X169264114Y-59564600D01*
X169049828Y-59493171D01*
X168906971Y-59493171D01*
X168692685Y-59564600D01*
X168621257Y-59636028D01*
X167192685Y-60993171D02*
X168049828Y-60993171D01*
X167621257Y-60993171D02*
X167621257Y-59493171D01*
X167764114Y-59707457D01*
X167906971Y-59850314D01*
X168049828Y-59921742D01*
X164549828Y-60850314D02*
X164621257Y-60921742D01*
X164835542Y-60993171D01*
X164978400Y-60993171D01*
X165192685Y-60921742D01*
X165335542Y-60778885D01*
X165406971Y-60636028D01*
X165478400Y-60350314D01*
X165478400Y-60136028D01*
X165406971Y-59850314D01*
X165335542Y-59707457D01*
X165192685Y-59564600D01*
X164978400Y-59493171D01*
X164835542Y-59493171D01*
X164621257Y-59564600D01*
X164549828Y-59636028D01*
X163978400Y-59636028D02*
X163906971Y-59564600D01*
X163764114Y-59493171D01*
X163406971Y-59493171D01*
X163264114Y-59564600D01*
X163192685Y-59636028D01*
X163121257Y-59778885D01*
X163121257Y-59921742D01*
X163192685Y-60136028D01*
X164049828Y-60993171D01*
X163121257Y-60993171D01*
X160549828Y-60993171D02*
X161406971Y-60993171D01*
X160978400Y-60993171D02*
X160978400Y-59493171D01*
X161121257Y-59707457D01*
X161264114Y-59850314D01*
X161406971Y-59921742D01*
X159264114Y-59993171D02*
X159264114Y-60993171D01*
X159906971Y-59993171D02*
X159906971Y-60778885D01*
X159835542Y-60921742D01*
X159692685Y-60993171D01*
X159478400Y-60993171D01*
X159335542Y-60921742D01*
X159264114Y-60850314D01*
X158049828Y-60207457D02*
X158549828Y-60207457D01*
X158549828Y-60993171D02*
X158549828Y-59493171D01*
X157835542Y-59493171D01*
X169692685Y-63400314D02*
X169764114Y-63471742D01*
X169978400Y-63543171D01*
X170121257Y-63543171D01*
X170335542Y-63471742D01*
X170478400Y-63328885D01*
X170549828Y-63186028D01*
X170621257Y-62900314D01*
X170621257Y-62686028D01*
X170549828Y-62400314D01*
X170478400Y-62257457D01*
X170335542Y-62114600D01*
X170121257Y-62043171D01*
X169978400Y-62043171D01*
X169764114Y-62114600D01*
X169692685Y-62186028D01*
X169192685Y-62043171D02*
X168264114Y-62043171D01*
X168764114Y-62614600D01*
X168549828Y-62614600D01*
X168406971Y-62686028D01*
X168335542Y-62757457D01*
X168264114Y-62900314D01*
X168264114Y-63257457D01*
X168335542Y-63400314D01*
X168406971Y-63471742D01*
X168549828Y-63543171D01*
X168978400Y-63543171D01*
X169121257Y-63471742D01*
X169192685Y-63400314D01*
X165621257Y-63400314D02*
X165692685Y-63471742D01*
X165906971Y-63543171D01*
X166049828Y-63543171D01*
X166264114Y-63471742D01*
X166406971Y-63328885D01*
X166478400Y-63186028D01*
X166549828Y-62900314D01*
X166549828Y-62686028D01*
X166478400Y-62400314D01*
X166406971Y-62257457D01*
X166264114Y-62114600D01*
X166049828Y-62043171D01*
X165906971Y-62043171D01*
X165692685Y-62114600D01*
X165621257Y-62186028D01*
X164335542Y-62543171D02*
X164335542Y-63543171D01*
X164692685Y-61971742D02*
X165049828Y-63043171D01*
X164121257Y-63043171D01*
X161764114Y-62543171D02*
X161764114Y-63543171D01*
X162121257Y-61971742D02*
X162478400Y-63043171D01*
X161549828Y-63043171D01*
X160978400Y-63400314D02*
X160906971Y-63471742D01*
X160978400Y-63543171D01*
X161049828Y-63471742D01*
X160978400Y-63400314D01*
X160978400Y-63543171D01*
X160406971Y-62043171D02*
X159406971Y-62043171D01*
X160049828Y-63543171D01*
X158192685Y-62543171D02*
X158192685Y-63543171D01*
X158835542Y-62543171D02*
X158835542Y-63328885D01*
X158764114Y-63471742D01*
X158621257Y-63543171D01*
X158406971Y-63543171D01*
X158264114Y-63471742D01*
X158192685Y-63400314D01*
X156978400Y-62757457D02*
X157478400Y-62757457D01*
X157478400Y-63543171D02*
X157478400Y-62043171D01*
X156764114Y-62043171D01*
X169906971Y-66093171D02*
X169906971Y-64593171D01*
X169549828Y-64593171D01*
X169335542Y-64664600D01*
X169192685Y-64807457D01*
X169121257Y-64950314D01*
X169049828Y-65236028D01*
X169049828Y-65450314D01*
X169121257Y-65736028D01*
X169192685Y-65878885D01*
X169335542Y-66021742D01*
X169549828Y-66093171D01*
X169906971Y-66093171D01*
X167692685Y-64593171D02*
X168406971Y-64593171D01*
X168478400Y-65307457D01*
X168406971Y-65236028D01*
X168264114Y-65164600D01*
X167906971Y-65164600D01*
X167764114Y-65236028D01*
X167692685Y-65307457D01*
X167621257Y-65450314D01*
X167621257Y-65807457D01*
X167692685Y-65950314D01*
X167764114Y-66021742D01*
X167906971Y-66093171D01*
X168264114Y-66093171D01*
X168406971Y-66021742D01*
X168478400Y-65950314D01*
X165835542Y-66093171D02*
X165835542Y-64593171D01*
X165335542Y-65664600D01*
X164835542Y-64593171D01*
X164835542Y-66093171D01*
X163621257Y-65307457D02*
X163406971Y-65378885D01*
X163335542Y-65450314D01*
X163264114Y-65593171D01*
X163264114Y-65807457D01*
X163335542Y-65950314D01*
X163406971Y-66021742D01*
X163549828Y-66093171D01*
X164121257Y-66093171D01*
X164121257Y-64593171D01*
X163621257Y-64593171D01*
X163478400Y-64664600D01*
X163406971Y-64736028D01*
X163335542Y-64878885D01*
X163335542Y-65021742D01*
X163406971Y-65164600D01*
X163478400Y-65236028D01*
X163621257Y-65307457D01*
X164121257Y-65307457D01*
X161764114Y-66093171D02*
X162264114Y-65378885D01*
X162621257Y-66093171D02*
X162621257Y-64593171D01*
X162049828Y-64593171D01*
X161906971Y-64664600D01*
X161835542Y-64736028D01*
X161764114Y-64878885D01*
X161764114Y-65093171D01*
X161835542Y-65236028D01*
X161906971Y-65307457D01*
X162049828Y-65378885D01*
X162621257Y-65378885D01*
X160335542Y-66093171D02*
X161192685Y-66093171D01*
X160764114Y-66093171D02*
X160764114Y-64593171D01*
X160906971Y-64807457D01*
X161049828Y-64950314D01*
X161192685Y-65021742D01*
X159764114Y-64736028D02*
X159692685Y-64664600D01*
X159549828Y-64593171D01*
X159192685Y-64593171D01*
X159049828Y-64664600D01*
X158978400Y-64736028D01*
X158906971Y-64878885D01*
X158906971Y-65021742D01*
X158978400Y-65236028D01*
X159835542Y-66093171D01*
X158906971Y-66093171D01*
X157978400Y-64593171D02*
X157835542Y-64593171D01*
X157692685Y-64664600D01*
X157621257Y-64736028D01*
X157549828Y-64878885D01*
X157478400Y-65164600D01*
X157478400Y-65521742D01*
X157549828Y-65807457D01*
X157621257Y-65950314D01*
X157692685Y-66021742D01*
X157835542Y-66093171D01*
X157978400Y-66093171D01*
X158121257Y-66021742D01*
X158192685Y-65950314D01*
X158264114Y-65807457D01*
X158335542Y-65521742D01*
X158335542Y-65164600D01*
X158264114Y-64878885D01*
X158192685Y-64736028D01*
X158121257Y-64664600D01*
X157978400Y-64593171D01*
X157908342Y-69647057D02*
X157694057Y-69718485D01*
X157622628Y-69789914D01*
X157551200Y-69932771D01*
X157551200Y-70147057D01*
X157622628Y-70289914D01*
X157694057Y-70361342D01*
X157836914Y-70432771D01*
X158408342Y-70432771D01*
X158408342Y-68932771D01*
X157908342Y-68932771D01*
X157765485Y-69004200D01*
X157694057Y-69075628D01*
X157622628Y-69218485D01*
X157622628Y-69361342D01*
X157694057Y-69504200D01*
X157765485Y-69575628D01*
X157908342Y-69647057D01*
X158408342Y-69647057D01*
X156694057Y-70432771D02*
X156836914Y-70361342D01*
X156908342Y-70218485D01*
X156908342Y-68932771D01*
X155479771Y-69432771D02*
X155479771Y-70432771D01*
X156122628Y-69432771D02*
X156122628Y-70218485D01*
X156051200Y-70361342D01*
X155908342Y-70432771D01*
X155694057Y-70432771D01*
X155551200Y-70361342D01*
X155479771Y-70289914D01*
X154194057Y-70361342D02*
X154336914Y-70432771D01*
X154622628Y-70432771D01*
X154765485Y-70361342D01*
X154836914Y-70218485D01*
X154836914Y-69647057D01*
X154765485Y-69504200D01*
X154622628Y-69432771D01*
X154336914Y-69432771D01*
X154194057Y-69504200D01*
X154122628Y-69647057D01*
X154122628Y-69789914D01*
X154836914Y-69932771D01*
X152479771Y-68932771D02*
X152122628Y-70432771D01*
X151836914Y-69361342D01*
X151551200Y-70432771D01*
X151194057Y-68932771D01*
X150622628Y-70432771D02*
X150622628Y-69432771D01*
X150622628Y-68932771D02*
X150694057Y-69004200D01*
X150622628Y-69075628D01*
X150551200Y-69004200D01*
X150622628Y-68932771D01*
X150622628Y-69075628D01*
X150051200Y-69432771D02*
X149265485Y-69432771D01*
X150051200Y-70432771D01*
X149265485Y-70432771D01*
X148051200Y-70432771D02*
X148051200Y-69647057D01*
X148122628Y-69504200D01*
X148265485Y-69432771D01*
X148551200Y-69432771D01*
X148694057Y-69504200D01*
X148051200Y-70361342D02*
X148194057Y-70432771D01*
X148551200Y-70432771D01*
X148694057Y-70361342D01*
X148765485Y-70218485D01*
X148765485Y-70075628D01*
X148694057Y-69932771D01*
X148551200Y-69861342D01*
X148194057Y-69861342D01*
X148051200Y-69789914D01*
X147336914Y-70432771D02*
X147336914Y-69432771D01*
X147336914Y-69718485D02*
X147265485Y-69575628D01*
X147194057Y-69504200D01*
X147051200Y-69432771D01*
X146908342Y-69432771D01*
X145765485Y-70432771D02*
X145765485Y-68932771D01*
X145765485Y-70361342D02*
X145908342Y-70432771D01*
X146194057Y-70432771D01*
X146336914Y-70361342D01*
X146408342Y-70289914D01*
X146479771Y-70147057D01*
X146479771Y-69718485D01*
X146408342Y-69575628D01*
X146336914Y-69504200D01*
X146194057Y-69432771D01*
X145908342Y-69432771D01*
X145765485Y-69504200D01*
X143908342Y-70432771D02*
X143908342Y-68932771D01*
X143408342Y-70004200D01*
X142908342Y-68932771D01*
X142908342Y-70432771D01*
X141979771Y-70432771D02*
X142122628Y-70361342D01*
X142194057Y-70289914D01*
X142265485Y-70147057D01*
X142265485Y-69718485D01*
X142194057Y-69575628D01*
X142122628Y-69504200D01*
X141979771Y-69432771D01*
X141765485Y-69432771D01*
X141622628Y-69504200D01*
X141551200Y-69575628D01*
X141479771Y-69718485D01*
X141479771Y-70147057D01*
X141551200Y-70289914D01*
X141622628Y-70361342D01*
X141765485Y-70432771D01*
X141979771Y-70432771D01*
X140194057Y-70432771D02*
X140194057Y-68932771D01*
X140194057Y-70361342D02*
X140336914Y-70432771D01*
X140622628Y-70432771D01*
X140765485Y-70361342D01*
X140836914Y-70289914D01*
X140908342Y-70147057D01*
X140908342Y-69718485D01*
X140836914Y-69575628D01*
X140765485Y-69504200D01*
X140622628Y-69432771D01*
X140336914Y-69432771D01*
X140194057Y-69504200D01*
X167765485Y-71982771D02*
X167765485Y-72982771D01*
X167765485Y-72125628D02*
X167694057Y-72054200D01*
X167551200Y-71982771D01*
X167336914Y-71982771D01*
X167194057Y-72054200D01*
X167122628Y-72197057D01*
X167122628Y-72982771D01*
X165551200Y-72982771D02*
X166051200Y-72268485D01*
X166408342Y-72982771D02*
X166408342Y-71482771D01*
X165836914Y-71482771D01*
X165694057Y-71554200D01*
X165622628Y-71625628D01*
X165551200Y-71768485D01*
X165551200Y-71982771D01*
X165622628Y-72125628D01*
X165694057Y-72197057D01*
X165836914Y-72268485D01*
X166408342Y-72268485D01*
X164408342Y-72197057D02*
X164908342Y-72197057D01*
X164908342Y-72982771D02*
X164908342Y-71482771D01*
X164194057Y-71482771D01*
X162908342Y-71482771D02*
X163622628Y-71482771D01*
X163694057Y-72197057D01*
X163622628Y-72125628D01*
X163479771Y-72054200D01*
X163122628Y-72054200D01*
X162979771Y-72125628D01*
X162908342Y-72197057D01*
X162836914Y-72339914D01*
X162836914Y-72697057D01*
X162908342Y-72839914D01*
X162979771Y-72911342D01*
X163122628Y-72982771D01*
X163479771Y-72982771D01*
X163622628Y-72911342D01*
X163694057Y-72839914D01*
X162265485Y-71625628D02*
X162194057Y-71554200D01*
X162051200Y-71482771D01*
X161694057Y-71482771D01*
X161551200Y-71554200D01*
X161479771Y-71625628D01*
X161408342Y-71768485D01*
X161408342Y-71911342D01*
X161479771Y-72125628D01*
X162336914Y-72982771D01*
X161408342Y-72982771D01*
X160551200Y-72125628D02*
X160694057Y-72054200D01*
X160765485Y-71982771D01*
X160836914Y-71839914D01*
X160836914Y-71768485D01*
X160765485Y-71625628D01*
X160694057Y-71554200D01*
X160551200Y-71482771D01*
X160265485Y-71482771D01*
X160122628Y-71554200D01*
X160051200Y-71625628D01*
X159979771Y-71768485D01*
X159979771Y-71839914D01*
X160051200Y-71982771D01*
X160122628Y-72054200D01*
X160265485Y-72125628D01*
X160551200Y-72125628D01*
X160694057Y-72197057D01*
X160765485Y-72268485D01*
X160836914Y-72411342D01*
X160836914Y-72697057D01*
X160765485Y-72839914D01*
X160694057Y-72911342D01*
X160551200Y-72982771D01*
X160265485Y-72982771D01*
X160122628Y-72911342D01*
X160051200Y-72839914D01*
X159979771Y-72697057D01*
X159979771Y-72411342D01*
X160051200Y-72268485D01*
X160122628Y-72197057D01*
X160265485Y-72125628D01*
X159479771Y-71482771D02*
X158551200Y-71482771D01*
X159051200Y-72054200D01*
X158836914Y-72054200D01*
X158694057Y-72125628D01*
X158622628Y-72197057D01*
X158551200Y-72339914D01*
X158551200Y-72697057D01*
X158622628Y-72839914D01*
X158694057Y-72911342D01*
X158836914Y-72982771D01*
X159265485Y-72982771D01*
X159408342Y-72911342D01*
X159479771Y-72839914D01*
X157979771Y-71625628D02*
X157908342Y-71554200D01*
X157765485Y-71482771D01*
X157408342Y-71482771D01*
X157265485Y-71554200D01*
X157194057Y-71625628D01*
X157122628Y-71768485D01*
X157122628Y-71911342D01*
X157194057Y-72125628D01*
X158051200Y-72982771D01*
X157122628Y-72982771D01*
X155336914Y-72982771D02*
X155336914Y-71482771D01*
X154836914Y-72554200D01*
X154336914Y-71482771D01*
X154336914Y-72982771D01*
X153408342Y-72982771D02*
X153551200Y-72911342D01*
X153622628Y-72839914D01*
X153694057Y-72697057D01*
X153694057Y-72268485D01*
X153622628Y-72125628D01*
X153551200Y-72054200D01*
X153408342Y-71982771D01*
X153194057Y-71982771D01*
X153051200Y-72054200D01*
X152979771Y-72125628D01*
X152908342Y-72268485D01*
X152908342Y-72697057D01*
X152979771Y-72839914D01*
X153051200Y-72911342D01*
X153194057Y-72982771D01*
X153408342Y-72982771D01*
X151622628Y-72982771D02*
X151622628Y-71482771D01*
X151622628Y-72911342D02*
X151765485Y-72982771D01*
X152051200Y-72982771D01*
X152194057Y-72911342D01*
X152265485Y-72839914D01*
X152336914Y-72697057D01*
X152336914Y-72268485D01*
X152265485Y-72125628D01*
X152194057Y-72054200D01*
X152051200Y-71982771D01*
X151765485Y-71982771D01*
X151622628Y-72054200D01*
X150265485Y-71982771D02*
X150265485Y-72982771D01*
X150908342Y-71982771D02*
X150908342Y-72768485D01*
X150836914Y-72911342D01*
X150694057Y-72982771D01*
X150479771Y-72982771D01*
X150336914Y-72911342D01*
X150265485Y-72839914D01*
X149336914Y-72982771D02*
X149479771Y-72911342D01*
X149551200Y-72768485D01*
X149551200Y-71482771D01*
X148194057Y-72911342D02*
X148336914Y-72982771D01*
X148622628Y-72982771D01*
X148765485Y-72911342D01*
X148836914Y-72768485D01*
X148836914Y-72197057D01*
X148765485Y-72054200D01*
X148622628Y-71982771D01*
X148336914Y-71982771D01*
X148194057Y-72054200D01*
X148122628Y-72197057D01*
X148122628Y-72339914D01*
X148836914Y-72482771D01*
X147551200Y-72911342D02*
X147408342Y-72982771D01*
X147122628Y-72982771D01*
X146979771Y-72911342D01*
X146908342Y-72768485D01*
X146908342Y-72697057D01*
X146979771Y-72554200D01*
X147122628Y-72482771D01*
X147336914Y-72482771D01*
X147479771Y-72411342D01*
X147551200Y-72268485D01*
X147551200Y-72197057D01*
X147479771Y-72054200D01*
X147336914Y-71982771D01*
X147122628Y-71982771D01*
X146979771Y-72054200D01*
X145122628Y-72411342D02*
X143979771Y-72411342D01*
X141622628Y-72197057D02*
X141408342Y-72268485D01*
X141336914Y-72339914D01*
X141265485Y-72482771D01*
X141265485Y-72697057D01*
X141336914Y-72839914D01*
X141408342Y-72911342D01*
X141551200Y-72982771D01*
X142122628Y-72982771D01*
X142122628Y-71482771D01*
X141622628Y-71482771D01*
X141479771Y-71554200D01*
X141408342Y-71625628D01*
X141336914Y-71768485D01*
X141336914Y-71911342D01*
X141408342Y-72054200D01*
X141479771Y-72125628D01*
X141622628Y-72197057D01*
X142122628Y-72197057D01*
X140622628Y-72982771D02*
X140622628Y-71482771D01*
X140122628Y-72554200D01*
X139622628Y-71482771D01*
X139622628Y-72982771D01*
X138908342Y-72982771D02*
X138908342Y-71482771D01*
X138551200Y-71482771D01*
X138336914Y-71554200D01*
X138194057Y-71697057D01*
X138122628Y-71839914D01*
X138051200Y-72125628D01*
X138051200Y-72339914D01*
X138122628Y-72625628D01*
X138194057Y-72768485D01*
X138336914Y-72911342D01*
X138551200Y-72982771D01*
X138908342Y-72982771D01*
X137408342Y-72411342D02*
X136265485Y-72411342D01*
X135694057Y-71482771D02*
X134765485Y-71482771D01*
X135265485Y-72054200D01*
X135051200Y-72054200D01*
X134908342Y-72125628D01*
X134836914Y-72197057D01*
X134765485Y-72339914D01*
X134765485Y-72697057D01*
X134836914Y-72839914D01*
X134908342Y-72911342D01*
X135051200Y-72982771D01*
X135479771Y-72982771D01*
X135622628Y-72911342D01*
X135694057Y-72839914D01*
X133836914Y-71482771D02*
X133694057Y-71482771D01*
X133551200Y-71554200D01*
X133479771Y-71625628D01*
X133408342Y-71768485D01*
X133336914Y-72054200D01*
X133336914Y-72411342D01*
X133408342Y-72697057D01*
X133479771Y-72839914D01*
X133551200Y-72911342D01*
X133694057Y-72982771D01*
X133836914Y-72982771D01*
X133979771Y-72911342D01*
X134051200Y-72839914D01*
X134122628Y-72697057D01*
X134194057Y-72411342D01*
X134194057Y-72054200D01*
X134122628Y-71768485D01*
X134051200Y-71625628D01*
X133979771Y-71554200D01*
X133836914Y-71482771D01*
X132408342Y-71482771D02*
X132265485Y-71482771D01*
X132122628Y-71554200D01*
X132051200Y-71625628D01*
X131979771Y-71768485D01*
X131908342Y-72054200D01*
X131908342Y-72411342D01*
X131979771Y-72697057D01*
X132051200Y-72839914D01*
X132122628Y-72911342D01*
X132265485Y-72982771D01*
X132408342Y-72982771D01*
X132551200Y-72911342D01*
X132622628Y-72839914D01*
X132694057Y-72697057D01*
X132765485Y-72411342D01*
X132765485Y-72054200D01*
X132694057Y-71768485D01*
X132622628Y-71625628D01*
X132551200Y-71554200D01*
X132408342Y-71482771D01*
X170301200Y-74032771D02*
X169801200Y-75532771D01*
X169301200Y-74032771D01*
X168229771Y-75461342D02*
X168372628Y-75532771D01*
X168658342Y-75532771D01*
X168801200Y-75461342D01*
X168872628Y-75318485D01*
X168872628Y-74747057D01*
X168801200Y-74604200D01*
X168658342Y-74532771D01*
X168372628Y-74532771D01*
X168229771Y-74604200D01*
X168158342Y-74747057D01*
X168158342Y-74889914D01*
X168872628Y-75032771D01*
X167515485Y-75532771D02*
X167515485Y-74532771D01*
X167515485Y-74818485D02*
X167444057Y-74675628D01*
X167372628Y-74604200D01*
X167229771Y-74532771D01*
X167086914Y-74532771D01*
X166801200Y-74532771D02*
X166229771Y-74532771D01*
X166586914Y-74032771D02*
X166586914Y-75318485D01*
X166515485Y-75461342D01*
X166372628Y-75532771D01*
X166229771Y-75532771D01*
X165729771Y-75532771D02*
X165729771Y-74532771D01*
X165729771Y-74032771D02*
X165801200Y-74104200D01*
X165729771Y-74175628D01*
X165658342Y-74104200D01*
X165729771Y-74032771D01*
X165729771Y-74175628D01*
X164372628Y-75461342D02*
X164515485Y-75532771D01*
X164801200Y-75532771D01*
X164944057Y-75461342D01*
X165015485Y-75389914D01*
X165086914Y-75247057D01*
X165086914Y-74818485D01*
X165015485Y-74675628D01*
X164944057Y-74604200D01*
X164801200Y-74532771D01*
X164515485Y-74532771D01*
X164372628Y-74604200D01*
X163086914Y-75532771D02*
X163086914Y-74747057D01*
X163158342Y-74604200D01*
X163301200Y-74532771D01*
X163586914Y-74532771D01*
X163729771Y-74604200D01*
X163086914Y-75461342D02*
X163229771Y-75532771D01*
X163586914Y-75532771D01*
X163729771Y-75461342D01*
X163801200Y-75318485D01*
X163801200Y-75175628D01*
X163729771Y-75032771D01*
X163586914Y-74961342D01*
X163229771Y-74961342D01*
X163086914Y-74889914D01*
X162158342Y-75532771D02*
X162301200Y-75461342D01*
X162372628Y-75318485D01*
X162372628Y-74032771D01*
X159658342Y-75532771D02*
X160515485Y-75532771D01*
X160086914Y-75532771D02*
X160086914Y-74032771D01*
X160229771Y-74247057D01*
X160372628Y-74389914D01*
X160515485Y-74461342D01*
X159158342Y-74032771D02*
X158229771Y-74032771D01*
X158729771Y-74604200D01*
X158515485Y-74604200D01*
X158372628Y-74675628D01*
X158301200Y-74747057D01*
X158229771Y-74889914D01*
X158229771Y-75247057D01*
X158301200Y-75389914D01*
X158372628Y-75461342D01*
X158515485Y-75532771D01*
X158944057Y-75532771D01*
X159086914Y-75461342D01*
X159158342Y-75389914D01*
X156444057Y-75532771D02*
X156444057Y-74032771D01*
X155872628Y-74032771D01*
X155729771Y-74104200D01*
X155658342Y-74175628D01*
X155586914Y-74318485D01*
X155586914Y-74532771D01*
X155658342Y-74675628D01*
X155729771Y-74747057D01*
X155872628Y-74818485D01*
X156444057Y-74818485D01*
X154729771Y-75532771D02*
X154872628Y-75461342D01*
X154944057Y-75389914D01*
X155015485Y-75247057D01*
X155015485Y-74818485D01*
X154944057Y-74675628D01*
X154872628Y-74604200D01*
X154729771Y-74532771D01*
X154515485Y-74532771D01*
X154372628Y-74604200D01*
X154301200Y-74675628D01*
X154229771Y-74818485D01*
X154229771Y-75247057D01*
X154301200Y-75389914D01*
X154372628Y-75461342D01*
X154515485Y-75532771D01*
X154729771Y-75532771D01*
X153658342Y-75461342D02*
X153515485Y-75532771D01*
X153229771Y-75532771D01*
X153086914Y-75461342D01*
X153015485Y-75318485D01*
X153015485Y-75247057D01*
X153086914Y-75104200D01*
X153229771Y-75032771D01*
X153444057Y-75032771D01*
X153586914Y-74961342D01*
X153658342Y-74818485D01*
X153658342Y-74747057D01*
X153586914Y-74604200D01*
X153444057Y-74532771D01*
X153229771Y-74532771D01*
X153086914Y-74604200D01*
X152372628Y-75532771D02*
X152372628Y-74532771D01*
X152372628Y-74032771D02*
X152444057Y-74104200D01*
X152372628Y-74175628D01*
X152301200Y-74104200D01*
X152372628Y-74032771D01*
X152372628Y-74175628D01*
X151872628Y-74532771D02*
X151301200Y-74532771D01*
X151658342Y-74032771D02*
X151658342Y-75318485D01*
X151586914Y-75461342D01*
X151444057Y-75532771D01*
X151301200Y-75532771D01*
X150801200Y-75532771D02*
X150801200Y-74532771D01*
X150801200Y-74032771D02*
X150872628Y-74104200D01*
X150801200Y-74175628D01*
X150729771Y-74104200D01*
X150801200Y-74032771D01*
X150801200Y-74175628D01*
X149872628Y-75532771D02*
X150015485Y-75461342D01*
X150086914Y-75389914D01*
X150158342Y-75247057D01*
X150158342Y-74818485D01*
X150086914Y-74675628D01*
X150015485Y-74604200D01*
X149872628Y-74532771D01*
X149658342Y-74532771D01*
X149515485Y-74604200D01*
X149444057Y-74675628D01*
X149372628Y-74818485D01*
X149372628Y-75247057D01*
X149444057Y-75389914D01*
X149515485Y-75461342D01*
X149658342Y-75532771D01*
X149872628Y-75532771D01*
X148729771Y-74532771D02*
X148729771Y-75532771D01*
X148729771Y-74675628D02*
X148658342Y-74604200D01*
X148515485Y-74532771D01*
X148301200Y-74532771D01*
X148158342Y-74604200D01*
X148086914Y-74747057D01*
X148086914Y-75532771D01*
X146229771Y-74961342D02*
X145086914Y-74961342D01*
X142944057Y-74032771D02*
X142801200Y-74032771D01*
X142658342Y-74104200D01*
X142586914Y-74175628D01*
X142515485Y-74318485D01*
X142444057Y-74604200D01*
X142444057Y-74961342D01*
X142515485Y-75247057D01*
X142586914Y-75389914D01*
X142658342Y-75461342D01*
X142801200Y-75532771D01*
X142944057Y-75532771D01*
X143086914Y-75461342D01*
X143158342Y-75389914D01*
X143229771Y-75247057D01*
X143301200Y-74961342D01*
X143301200Y-74604200D01*
X143229771Y-74318485D01*
X143158342Y-74175628D01*
X143086914Y-74104200D01*
X142944057Y-74032771D01*
X141515485Y-74032771D02*
X141372628Y-74032771D01*
X141229771Y-74104200D01*
X141158342Y-74175628D01*
X141086914Y-74318485D01*
X141015485Y-74604200D01*
X141015485Y-74961342D01*
X141086914Y-75247057D01*
X141158342Y-75389914D01*
X141229771Y-75461342D01*
X141372628Y-75532771D01*
X141515485Y-75532771D01*
X141658342Y-75461342D01*
X141729771Y-75389914D01*
X141801200Y-75247057D01*
X141872628Y-74961342D01*
X141872628Y-74604200D01*
X141801200Y-74318485D01*
X141729771Y-74175628D01*
X141658342Y-74104200D01*
X141515485Y-74032771D01*
X140515485Y-74032771D02*
X139586914Y-74032771D01*
X140086914Y-74604200D01*
X139872628Y-74604200D01*
X139729771Y-74675628D01*
X139658342Y-74747057D01*
X139586914Y-74889914D01*
X139586914Y-75247057D01*
X139658342Y-75389914D01*
X139729771Y-75461342D01*
X139872628Y-75532771D01*
X140301200Y-75532771D01*
X140444057Y-75461342D01*
X140515485Y-75389914D01*
X138872628Y-75532771D02*
X138586914Y-75532771D01*
X138444057Y-75461342D01*
X138372628Y-75389914D01*
X138229771Y-75175628D01*
X138158342Y-74889914D01*
X138158342Y-74318485D01*
X138229771Y-74175628D01*
X138301200Y-74104200D01*
X138444057Y-74032771D01*
X138729771Y-74032771D01*
X138872628Y-74104200D01*
X138944057Y-74175628D01*
X139015485Y-74318485D01*
X139015485Y-74675628D01*
X138944057Y-74818485D01*
X138872628Y-74889914D01*
X138729771Y-74961342D01*
X138444057Y-74961342D01*
X138301200Y-74889914D01*
X138229771Y-74818485D01*
X138158342Y-74675628D01*
X136801200Y-74032771D02*
X137515485Y-74032771D01*
X137586914Y-74747057D01*
X137515485Y-74675628D01*
X137372628Y-74604200D01*
X137015485Y-74604200D01*
X136872628Y-74675628D01*
X136801200Y-74747057D01*
X136729771Y-74889914D01*
X136729771Y-75247057D01*
X136801200Y-75389914D01*
X136872628Y-75461342D01*
X137015485Y-75532771D01*
X137372628Y-75532771D01*
X137515485Y-75461342D01*
X137586914Y-75389914D01*
X136229771Y-74032771D02*
X135301200Y-74032771D01*
X135801200Y-74604200D01*
X135586914Y-74604200D01*
X135444057Y-74675628D01*
X135372628Y-74747057D01*
X135301200Y-74889914D01*
X135301200Y-75247057D01*
X135372628Y-75389914D01*
X135444057Y-75461342D01*
X135586914Y-75532771D01*
X136015485Y-75532771D01*
X136158342Y-75461342D01*
X136229771Y-75389914D01*
X134729771Y-74175628D02*
X134658342Y-74104200D01*
X134515485Y-74032771D01*
X134158342Y-74032771D01*
X134015485Y-74104200D01*
X133944057Y-74175628D01*
X133872628Y-74318485D01*
X133872628Y-74461342D01*
X133944057Y-74675628D01*
X134801200Y-75532771D01*
X133872628Y-75532771D01*
X132444057Y-75532771D02*
X133301200Y-75532771D01*
X132872628Y-75532771D02*
X132872628Y-74032771D01*
X133015485Y-74247057D01*
X133158342Y-74389914D01*
X133301200Y-74461342D01*
X131944057Y-74032771D02*
X131015485Y-74032771D01*
X131515485Y-74604200D01*
X131301200Y-74604200D01*
X131158342Y-74675628D01*
X131086914Y-74747057D01*
X131015485Y-74889914D01*
X131015485Y-75247057D01*
X131086914Y-75389914D01*
X131158342Y-75461342D01*
X131301200Y-75532771D01*
X131729771Y-75532771D01*
X131872628Y-75461342D01*
X131944057Y-75389914D01*
X129658342Y-74032771D02*
X130372628Y-74032771D01*
X130444057Y-74747057D01*
X130372628Y-74675628D01*
X130229771Y-74604200D01*
X129872628Y-74604200D01*
X129729771Y-74675628D01*
X129658342Y-74747057D01*
X129586914Y-74889914D01*
X129586914Y-75247057D01*
X129658342Y-75389914D01*
X129729771Y-75461342D01*
X129872628Y-75532771D01*
X130229771Y-75532771D01*
X130372628Y-75461342D01*
X130444057Y-75389914D01*
X171015485Y-78082771D02*
X171015485Y-76582771D01*
X171015485Y-77297057D02*
X170158342Y-77297057D01*
X170158342Y-78082771D02*
X170158342Y-76582771D01*
X169229771Y-78082771D02*
X169372628Y-78011342D01*
X169444057Y-77939914D01*
X169515485Y-77797057D01*
X169515485Y-77368485D01*
X169444057Y-77225628D01*
X169372628Y-77154200D01*
X169229771Y-77082771D01*
X169015485Y-77082771D01*
X168872628Y-77154200D01*
X168801200Y-77225628D01*
X168729771Y-77368485D01*
X168729771Y-77797057D01*
X168801200Y-77939914D01*
X168872628Y-78011342D01*
X169015485Y-78082771D01*
X169229771Y-78082771D01*
X168086914Y-78082771D02*
X168086914Y-77082771D01*
X168086914Y-77368485D02*
X168015485Y-77225628D01*
X167944057Y-77154200D01*
X167801200Y-77082771D01*
X167658342Y-77082771D01*
X167158342Y-78082771D02*
X167158342Y-77082771D01*
X167158342Y-76582771D02*
X167229771Y-76654200D01*
X167158342Y-76725628D01*
X167086914Y-76654200D01*
X167158342Y-76582771D01*
X167158342Y-76725628D01*
X166586914Y-77082771D02*
X165801200Y-77082771D01*
X166586914Y-78082771D01*
X165801200Y-78082771D01*
X165015485Y-78082771D02*
X165158342Y-78011342D01*
X165229771Y-77939914D01*
X165301200Y-77797057D01*
X165301200Y-77368485D01*
X165229771Y-77225628D01*
X165158342Y-77154200D01*
X165015485Y-77082771D01*
X164801200Y-77082771D01*
X164658342Y-77154200D01*
X164586914Y-77225628D01*
X164515485Y-77368485D01*
X164515485Y-77797057D01*
X164586914Y-77939914D01*
X164658342Y-78011342D01*
X164801200Y-78082771D01*
X165015485Y-78082771D01*
X163872628Y-77082771D02*
X163872628Y-78082771D01*
X163872628Y-77225628D02*
X163801200Y-77154200D01*
X163658342Y-77082771D01*
X163444057Y-77082771D01*
X163301200Y-77154200D01*
X163229771Y-77297057D01*
X163229771Y-78082771D01*
X162729771Y-77082771D02*
X162158342Y-77082771D01*
X162515485Y-76582771D02*
X162515485Y-77868485D01*
X162444057Y-78011342D01*
X162301200Y-78082771D01*
X162158342Y-78082771D01*
X161015485Y-78082771D02*
X161015485Y-77297057D01*
X161086914Y-77154200D01*
X161229771Y-77082771D01*
X161515485Y-77082771D01*
X161658342Y-77154200D01*
X161015485Y-78011342D02*
X161158342Y-78082771D01*
X161515485Y-78082771D01*
X161658342Y-78011342D01*
X161729771Y-77868485D01*
X161729771Y-77725628D01*
X161658342Y-77582771D01*
X161515485Y-77511342D01*
X161158342Y-77511342D01*
X161015485Y-77439914D01*
X160086914Y-78082771D02*
X160229771Y-78011342D01*
X160301200Y-77868485D01*
X160301200Y-76582771D01*
X157586914Y-78082771D02*
X158444057Y-78082771D01*
X158015485Y-78082771D02*
X158015485Y-76582771D01*
X158158342Y-76797057D01*
X158301200Y-76939914D01*
X158444057Y-77011342D01*
X157086914Y-76582771D02*
X156158342Y-76582771D01*
X156658342Y-77154200D01*
X156444057Y-77154200D01*
X156301200Y-77225628D01*
X156229771Y-77297057D01*
X156158342Y-77439914D01*
X156158342Y-77797057D01*
X156229771Y-77939914D01*
X156301200Y-78011342D01*
X156444057Y-78082771D01*
X156872628Y-78082771D01*
X157015485Y-78011342D01*
X157086914Y-77939914D01*
X154372628Y-78082771D02*
X154372628Y-76582771D01*
X153801200Y-76582771D01*
X153658342Y-76654200D01*
X153586914Y-76725628D01*
X153515485Y-76868485D01*
X153515485Y-77082771D01*
X153586914Y-77225628D01*
X153658342Y-77297057D01*
X153801200Y-77368485D01*
X154372628Y-77368485D01*
X152658342Y-78082771D02*
X152801200Y-78011342D01*
X152872628Y-77939914D01*
X152944057Y-77797057D01*
X152944057Y-77368485D01*
X152872628Y-77225628D01*
X152801200Y-77154200D01*
X152658342Y-77082771D01*
X152444057Y-77082771D01*
X152301200Y-77154200D01*
X152229771Y-77225628D01*
X152158342Y-77368485D01*
X152158342Y-77797057D01*
X152229771Y-77939914D01*
X152301200Y-78011342D01*
X152444057Y-78082771D01*
X152658342Y-78082771D01*
X151586914Y-78011342D02*
X151444057Y-78082771D01*
X151158342Y-78082771D01*
X151015485Y-78011342D01*
X150944057Y-77868485D01*
X150944057Y-77797057D01*
X151015485Y-77654200D01*
X151158342Y-77582771D01*
X151372628Y-77582771D01*
X151515485Y-77511342D01*
X151586914Y-77368485D01*
X151586914Y-77297057D01*
X151515485Y-77154200D01*
X151372628Y-77082771D01*
X151158342Y-77082771D01*
X151015485Y-77154200D01*
X150301200Y-78082771D02*
X150301200Y-77082771D01*
X150301200Y-76582771D02*
X150372628Y-76654200D01*
X150301200Y-76725628D01*
X150229771Y-76654200D01*
X150301200Y-76582771D01*
X150301200Y-76725628D01*
X149801200Y-77082771D02*
X149229771Y-77082771D01*
X149586914Y-76582771D02*
X149586914Y-77868485D01*
X149515485Y-78011342D01*
X149372628Y-78082771D01*
X149229771Y-78082771D01*
X148729771Y-78082771D02*
X148729771Y-77082771D01*
X148729771Y-76582771D02*
X148801200Y-76654200D01*
X148729771Y-76725628D01*
X148658342Y-76654200D01*
X148729771Y-76582771D01*
X148729771Y-76725628D01*
X147801200Y-78082771D02*
X147944057Y-78011342D01*
X148015485Y-77939914D01*
X148086914Y-77797057D01*
X148086914Y-77368485D01*
X148015485Y-77225628D01*
X147944057Y-77154200D01*
X147801200Y-77082771D01*
X147586914Y-77082771D01*
X147444057Y-77154200D01*
X147372628Y-77225628D01*
X147301200Y-77368485D01*
X147301200Y-77797057D01*
X147372628Y-77939914D01*
X147444057Y-78011342D01*
X147586914Y-78082771D01*
X147801200Y-78082771D01*
X146658342Y-77082771D02*
X146658342Y-78082771D01*
X146658342Y-77225628D02*
X146586914Y-77154200D01*
X146444057Y-77082771D01*
X146229771Y-77082771D01*
X146086914Y-77154200D01*
X146015485Y-77297057D01*
X146015485Y-78082771D01*
X144158342Y-77511342D02*
X143015485Y-77511342D01*
X140872628Y-76582771D02*
X140729771Y-76582771D01*
X140586914Y-76654200D01*
X140515485Y-76725628D01*
X140444057Y-76868485D01*
X140372628Y-77154200D01*
X140372628Y-77511342D01*
X140444057Y-77797057D01*
X140515485Y-77939914D01*
X140586914Y-78011342D01*
X140729771Y-78082771D01*
X140872628Y-78082771D01*
X141015485Y-78011342D01*
X141086914Y-77939914D01*
X141158342Y-77797057D01*
X141229771Y-77511342D01*
X141229771Y-77154200D01*
X141158342Y-76868485D01*
X141086914Y-76725628D01*
X141015485Y-76654200D01*
X140872628Y-76582771D01*
X139444057Y-76582771D02*
X139301200Y-76582771D01*
X139158342Y-76654200D01*
X139086914Y-76725628D01*
X139015485Y-76868485D01*
X138944057Y-77154200D01*
X138944057Y-77511342D01*
X139015485Y-77797057D01*
X139086914Y-77939914D01*
X139158342Y-78011342D01*
X139301200Y-78082771D01*
X139444057Y-78082771D01*
X139586914Y-78011342D01*
X139658342Y-77939914D01*
X139729771Y-77797057D01*
X139801200Y-77511342D01*
X139801200Y-77154200D01*
X139729771Y-76868485D01*
X139658342Y-76725628D01*
X139586914Y-76654200D01*
X139444057Y-76582771D01*
X138444057Y-76582771D02*
X137515485Y-76582771D01*
X138015485Y-77154200D01*
X137801200Y-77154200D01*
X137658342Y-77225628D01*
X137586914Y-77297057D01*
X137515485Y-77439914D01*
X137515485Y-77797057D01*
X137586914Y-77939914D01*
X137658342Y-78011342D01*
X137801200Y-78082771D01*
X138229771Y-78082771D01*
X138372628Y-78011342D01*
X138444057Y-77939914D01*
X136801200Y-78082771D02*
X136515485Y-78082771D01*
X136372628Y-78011342D01*
X136301200Y-77939914D01*
X136158342Y-77725628D01*
X136086914Y-77439914D01*
X136086914Y-76868485D01*
X136158342Y-76725628D01*
X136229771Y-76654200D01*
X136372628Y-76582771D01*
X136658342Y-76582771D01*
X136801200Y-76654200D01*
X136872628Y-76725628D01*
X136944057Y-76868485D01*
X136944057Y-77225628D01*
X136872628Y-77368485D01*
X136801200Y-77439914D01*
X136658342Y-77511342D01*
X136372628Y-77511342D01*
X136229771Y-77439914D01*
X136158342Y-77368485D01*
X136086914Y-77225628D01*
X134729771Y-76582771D02*
X135444057Y-76582771D01*
X135515485Y-77297057D01*
X135444057Y-77225628D01*
X135301200Y-77154200D01*
X134944057Y-77154200D01*
X134801200Y-77225628D01*
X134729771Y-77297057D01*
X134658342Y-77439914D01*
X134658342Y-77797057D01*
X134729771Y-77939914D01*
X134801200Y-78011342D01*
X134944057Y-78082771D01*
X135301200Y-78082771D01*
X135444057Y-78011342D01*
X135515485Y-77939914D01*
X134158342Y-76582771D02*
X133229771Y-76582771D01*
X133729771Y-77154200D01*
X133515485Y-77154200D01*
X133372628Y-77225628D01*
X133301200Y-77297057D01*
X133229771Y-77439914D01*
X133229771Y-77797057D01*
X133301200Y-77939914D01*
X133372628Y-78011342D01*
X133515485Y-78082771D01*
X133944057Y-78082771D01*
X134086914Y-78011342D01*
X134158342Y-77939914D01*
X132658342Y-76725628D02*
X132586914Y-76654200D01*
X132444057Y-76582771D01*
X132086914Y-76582771D01*
X131944057Y-76654200D01*
X131872628Y-76725628D01*
X131801200Y-76868485D01*
X131801200Y-77011342D01*
X131872628Y-77225628D01*
X132729771Y-78082771D01*
X131801200Y-78082771D01*
X130372628Y-78082771D02*
X131229771Y-78082771D01*
X130801200Y-78082771D02*
X130801200Y-76582771D01*
X130944057Y-76797057D01*
X131086914Y-76939914D01*
X131229771Y-77011342D01*
X129872628Y-76582771D02*
X128944057Y-76582771D01*
X129444057Y-77154200D01*
X129229771Y-77154200D01*
X129086914Y-77225628D01*
X129015485Y-77297057D01*
X128944057Y-77439914D01*
X128944057Y-77797057D01*
X129015485Y-77939914D01*
X129086914Y-78011342D01*
X129229771Y-78082771D01*
X129658342Y-78082771D01*
X129801200Y-78011342D01*
X129872628Y-77939914D01*
X127658342Y-77082771D02*
X127658342Y-78082771D01*
X128015485Y-76511342D02*
X128372628Y-77582771D01*
X127444057Y-77582771D01*
X174051200Y-79847057D02*
X173836914Y-79918485D01*
X173765485Y-79989914D01*
X173694057Y-80132771D01*
X173694057Y-80347057D01*
X173765485Y-80489914D01*
X173836914Y-80561342D01*
X173979771Y-80632771D01*
X174551200Y-80632771D01*
X174551200Y-79132771D01*
X174051200Y-79132771D01*
X173908342Y-79204200D01*
X173836914Y-79275628D01*
X173765485Y-79418485D01*
X173765485Y-79561342D01*
X173836914Y-79704200D01*
X173908342Y-79775628D01*
X174051200Y-79847057D01*
X174551200Y-79847057D01*
X172408342Y-80632771D02*
X172408342Y-79847057D01*
X172479771Y-79704200D01*
X172622628Y-79632771D01*
X172908342Y-79632771D01*
X173051200Y-79704200D01*
X172408342Y-80561342D02*
X172551200Y-80632771D01*
X172908342Y-80632771D01*
X173051200Y-80561342D01*
X173122628Y-80418485D01*
X173122628Y-80275628D01*
X173051200Y-80132771D01*
X172908342Y-80061342D01*
X172551200Y-80061342D01*
X172408342Y-79989914D01*
X171908342Y-79632771D02*
X171336914Y-79632771D01*
X171694057Y-79132771D02*
X171694057Y-80418485D01*
X171622628Y-80561342D01*
X171479771Y-80632771D01*
X171336914Y-80632771D01*
X171051200Y-79632771D02*
X170479771Y-79632771D01*
X170836914Y-79132771D02*
X170836914Y-80418485D01*
X170765485Y-80561342D01*
X170622628Y-80632771D01*
X170479771Y-80632771D01*
X169408342Y-80561342D02*
X169551200Y-80632771D01*
X169836914Y-80632771D01*
X169979771Y-80561342D01*
X170051200Y-80418485D01*
X170051200Y-79847057D01*
X169979771Y-79704200D01*
X169836914Y-79632771D01*
X169551200Y-79632771D01*
X169408342Y-79704200D01*
X169336914Y-79847057D01*
X169336914Y-79989914D01*
X170051200Y-80132771D01*
X168694057Y-80632771D02*
X168694057Y-79632771D01*
X168694057Y-79918485D02*
X168622628Y-79775628D01*
X168551200Y-79704200D01*
X168408342Y-79632771D01*
X168265485Y-79632771D01*
X167908342Y-79632771D02*
X167551200Y-80632771D01*
X167194057Y-79632771D02*
X167551200Y-80632771D01*
X167694057Y-80989914D01*
X167765485Y-81061342D01*
X167908342Y-81132771D01*
X165479771Y-80632771D02*
X165479771Y-79132771D01*
X164979771Y-80204200D01*
X164479771Y-79132771D01*
X164479771Y-80632771D01*
X163122628Y-80632771D02*
X163122628Y-79847057D01*
X163194057Y-79704200D01*
X163336914Y-79632771D01*
X163622628Y-79632771D01*
X163765485Y-79704200D01*
X163122628Y-80561342D02*
X163265485Y-80632771D01*
X163622628Y-80632771D01*
X163765485Y-80561342D01*
X163836914Y-80418485D01*
X163836914Y-80275628D01*
X163765485Y-80132771D01*
X163622628Y-80061342D01*
X163265485Y-80061342D01*
X163122628Y-79989914D01*
X162408342Y-79632771D02*
X162408342Y-80632771D01*
X162408342Y-79775628D02*
X162336914Y-79704200D01*
X162194057Y-79632771D01*
X161979771Y-79632771D01*
X161836914Y-79704200D01*
X161765485Y-79847057D01*
X161765485Y-80632771D01*
X160408342Y-80632771D02*
X160408342Y-79847057D01*
X160479771Y-79704200D01*
X160622628Y-79632771D01*
X160908342Y-79632771D01*
X161051200Y-79704200D01*
X160408342Y-80561342D02*
X160551200Y-80632771D01*
X160908342Y-80632771D01*
X161051200Y-80561342D01*
X161122628Y-80418485D01*
X161122628Y-80275628D01*
X161051200Y-80132771D01*
X160908342Y-80061342D01*
X160551200Y-80061342D01*
X160408342Y-79989914D01*
X159051200Y-79632771D02*
X159051200Y-80847057D01*
X159122628Y-80989914D01*
X159194057Y-81061342D01*
X159336914Y-81132771D01*
X159551200Y-81132771D01*
X159694057Y-81061342D01*
X159051200Y-80561342D02*
X159194057Y-80632771D01*
X159479771Y-80632771D01*
X159622628Y-80561342D01*
X159694057Y-80489914D01*
X159765485Y-80347057D01*
X159765485Y-79918485D01*
X159694057Y-79775628D01*
X159622628Y-79704200D01*
X159479771Y-79632771D01*
X159194057Y-79632771D01*
X159051200Y-79704200D01*
X157765485Y-80561342D02*
X157908342Y-80632771D01*
X158194057Y-80632771D01*
X158336914Y-80561342D01*
X158408342Y-80418485D01*
X158408342Y-79847057D01*
X158336914Y-79704200D01*
X158194057Y-79632771D01*
X157908342Y-79632771D01*
X157765485Y-79704200D01*
X157694057Y-79847057D01*
X157694057Y-79989914D01*
X158408342Y-80132771D01*
X157051200Y-80632771D02*
X157051200Y-79632771D01*
X157051200Y-79775628D02*
X156979771Y-79704200D01*
X156836914Y-79632771D01*
X156622628Y-79632771D01*
X156479771Y-79704200D01*
X156408342Y-79847057D01*
X156408342Y-80632771D01*
X156408342Y-79847057D02*
X156336914Y-79704200D01*
X156194057Y-79632771D01*
X155979771Y-79632771D01*
X155836914Y-79704200D01*
X155765485Y-79847057D01*
X155765485Y-80632771D01*
X154479771Y-80561342D02*
X154622628Y-80632771D01*
X154908342Y-80632771D01*
X155051200Y-80561342D01*
X155122628Y-80418485D01*
X155122628Y-79847057D01*
X155051200Y-79704200D01*
X154908342Y-79632771D01*
X154622628Y-79632771D01*
X154479771Y-79704200D01*
X154408342Y-79847057D01*
X154408342Y-79989914D01*
X155122628Y-80132771D01*
X153765485Y-79632771D02*
X153765485Y-80632771D01*
X153765485Y-79775628D02*
X153694057Y-79704200D01*
X153551200Y-79632771D01*
X153336914Y-79632771D01*
X153194057Y-79704200D01*
X153122628Y-79847057D01*
X153122628Y-80632771D01*
X152622628Y-79632771D02*
X152051200Y-79632771D01*
X152408342Y-79132771D02*
X152408342Y-80418485D01*
X152336914Y-80561342D01*
X152194057Y-80632771D01*
X152051200Y-80632771D01*
X150408342Y-80061342D02*
X149265485Y-80061342D01*
X147408342Y-80632771D02*
X147408342Y-79132771D01*
X146908342Y-80204200D01*
X146408342Y-79132771D01*
X146408342Y-80632771D01*
X144836914Y-80489914D02*
X144908342Y-80561342D01*
X145122628Y-80632771D01*
X145265485Y-80632771D01*
X145479771Y-80561342D01*
X145622628Y-80418485D01*
X145694057Y-80275628D01*
X145765485Y-79989914D01*
X145765485Y-79775628D01*
X145694057Y-79489914D01*
X145622628Y-79347057D01*
X145479771Y-79204200D01*
X145265485Y-79132771D01*
X145122628Y-79132771D01*
X144908342Y-79204200D01*
X144836914Y-79275628D01*
X144194057Y-80632771D02*
X144194057Y-79132771D01*
X143622628Y-79132771D01*
X143479771Y-79204200D01*
X143408342Y-79275628D01*
X143336914Y-79418485D01*
X143336914Y-79632771D01*
X143408342Y-79775628D01*
X143479771Y-79847057D01*
X143622628Y-79918485D01*
X144194057Y-79918485D01*
X142836914Y-79132771D02*
X141836914Y-79132771D01*
X142479771Y-80632771D01*
X141408342Y-79132771D02*
X140479771Y-79132771D01*
X140979771Y-79704200D01*
X140765485Y-79704200D01*
X140622628Y-79775628D01*
X140551200Y-79847057D01*
X140479771Y-79989914D01*
X140479771Y-80347057D01*
X140551200Y-80489914D01*
X140622628Y-80561342D01*
X140765485Y-80632771D01*
X141194057Y-80632771D01*
X141336914Y-80561342D01*
X141408342Y-80489914D01*
X139622628Y-79775628D02*
X139765485Y-79704200D01*
X139836914Y-79632771D01*
X139908342Y-79489914D01*
X139908342Y-79418485D01*
X139836914Y-79275628D01*
X139765485Y-79204200D01*
X139622628Y-79132771D01*
X139336914Y-79132771D01*
X139194057Y-79204200D01*
X139122628Y-79275628D01*
X139051200Y-79418485D01*
X139051200Y-79489914D01*
X139122628Y-79632771D01*
X139194057Y-79704200D01*
X139336914Y-79775628D01*
X139622628Y-79775628D01*
X139765485Y-79847057D01*
X139836914Y-79918485D01*
X139908342Y-80061342D01*
X139908342Y-80347057D01*
X139836914Y-80489914D01*
X139765485Y-80561342D01*
X139622628Y-80632771D01*
X139336914Y-80632771D01*
X139194057Y-80561342D01*
X139122628Y-80489914D01*
X139051200Y-80347057D01*
X139051200Y-80061342D01*
X139122628Y-79918485D01*
X139194057Y-79847057D01*
X139336914Y-79775628D01*
X138551200Y-79132771D02*
X137622628Y-79132771D01*
X138122628Y-79704200D01*
X137908342Y-79704200D01*
X137765485Y-79775628D01*
X137694057Y-79847057D01*
X137622628Y-79989914D01*
X137622628Y-80347057D01*
X137694057Y-80489914D01*
X137765485Y-80561342D01*
X137908342Y-80632771D01*
X138336914Y-80632771D01*
X138479771Y-80561342D01*
X138551200Y-80489914D01*
X136194057Y-80632771D02*
X137051200Y-80632771D01*
X136622628Y-80632771D02*
X136622628Y-79132771D01*
X136765485Y-79347057D01*
X136908342Y-79489914D01*
X137051200Y-79561342D01*
X135765485Y-79132771D02*
X134908342Y-79132771D01*
X135336914Y-80632771D02*
X135336914Y-79132771D01*
X134408342Y-80061342D02*
X133265485Y-80061342D01*
X132622628Y-79275628D02*
X132551200Y-79204200D01*
X132408342Y-79132771D01*
X132051200Y-79132771D01*
X131908342Y-79204200D01*
X131836914Y-79275628D01*
X131765485Y-79418485D01*
X131765485Y-79561342D01*
X131836914Y-79775628D01*
X132694057Y-80632771D01*
X131765485Y-80632771D01*
X131194057Y-80204200D02*
X130479771Y-80204200D01*
X131336914Y-80632771D02*
X130836914Y-79132771D01*
X130336914Y-80632771D01*
X128979771Y-80489914D02*
X129051200Y-80561342D01*
X129265485Y-80632771D01*
X129408342Y-80632771D01*
X129622628Y-80561342D01*
X129765485Y-80418485D01*
X129836914Y-80275628D01*
X129908342Y-79989914D01*
X129908342Y-79775628D01*
X129836914Y-79489914D01*
X129765485Y-79347057D01*
X129622628Y-79204200D01*
X129408342Y-79132771D01*
X129265485Y-79132771D01*
X129051200Y-79204200D01*
X128979771Y-79275628D01*
X128336914Y-80632771D02*
X128336914Y-79132771D01*
X126551200Y-79061342D02*
X127836914Y-80989914D01*
X125765485Y-79132771D02*
X125479771Y-79132771D01*
X125336914Y-79204200D01*
X125194057Y-79347057D01*
X125122628Y-79632771D01*
X125122628Y-80132771D01*
X125194057Y-80418485D01*
X125336914Y-80561342D01*
X125479771Y-80632771D01*
X125765485Y-80632771D01*
X125908342Y-80561342D01*
X126051200Y-80418485D01*
X126122628Y-80132771D01*
X126122628Y-79632771D01*
X126051200Y-79347057D01*
X125908342Y-79204200D01*
X125765485Y-79132771D01*
X124694057Y-79132771D02*
X123836914Y-79132771D01*
X124265485Y-80632771D02*
X124265485Y-79132771D01*
X170015485Y-83182771D02*
X170729771Y-83182771D01*
X170729771Y-81682771D01*
X169515485Y-83182771D02*
X169515485Y-81682771D01*
X169158342Y-81682771D01*
X168944057Y-81754200D01*
X168801200Y-81897057D01*
X168729771Y-82039914D01*
X168658342Y-82325628D01*
X168658342Y-82539914D01*
X168729771Y-82825628D01*
X168801200Y-82968485D01*
X168944057Y-83111342D01*
X169158342Y-83182771D01*
X169515485Y-83182771D01*
X167729771Y-81682771D02*
X167444057Y-81682771D01*
X167301200Y-81754200D01*
X167158342Y-81897057D01*
X167086914Y-82182771D01*
X167086914Y-82682771D01*
X167158342Y-82968485D01*
X167301200Y-83111342D01*
X167444057Y-83182771D01*
X167729771Y-83182771D01*
X167872628Y-83111342D01*
X168015485Y-82968485D01*
X168086914Y-82682771D01*
X168086914Y-82182771D01*
X168015485Y-81897057D01*
X167872628Y-81754200D01*
X167729771Y-81682771D01*
X164444057Y-83182771D02*
X164944057Y-82468485D01*
X165301200Y-83182771D02*
X165301200Y-81682771D01*
X164729771Y-81682771D01*
X164586914Y-81754200D01*
X164515485Y-81825628D01*
X164444057Y-81968485D01*
X164444057Y-82182771D01*
X164515485Y-82325628D01*
X164586914Y-82397057D01*
X164729771Y-82468485D01*
X165301200Y-82468485D01*
X163229771Y-83111342D02*
X163372628Y-83182771D01*
X163658342Y-83182771D01*
X163801200Y-83111342D01*
X163872628Y-82968485D01*
X163872628Y-82397057D01*
X163801200Y-82254200D01*
X163658342Y-82182771D01*
X163372628Y-82182771D01*
X163229771Y-82254200D01*
X163158342Y-82397057D01*
X163158342Y-82539914D01*
X163872628Y-82682771D01*
X161872628Y-82182771D02*
X161872628Y-83397057D01*
X161944057Y-83539914D01*
X162015485Y-83611342D01*
X162158342Y-83682771D01*
X162372628Y-83682771D01*
X162515485Y-83611342D01*
X161872628Y-83111342D02*
X162015485Y-83182771D01*
X162301200Y-83182771D01*
X162444057Y-83111342D01*
X162515485Y-83039914D01*
X162586914Y-82897057D01*
X162586914Y-82468485D01*
X162515485Y-82325628D01*
X162444057Y-82254200D01*
X162301200Y-82182771D01*
X162015485Y-82182771D01*
X161872628Y-82254200D01*
X160515485Y-82182771D02*
X160515485Y-83182771D01*
X161158342Y-82182771D02*
X161158342Y-82968485D01*
X161086914Y-83111342D01*
X160944057Y-83182771D01*
X160729771Y-83182771D01*
X160586914Y-83111342D01*
X160515485Y-83039914D01*
X159158342Y-83182771D02*
X159158342Y-82397057D01*
X159229771Y-82254200D01*
X159372628Y-82182771D01*
X159658342Y-82182771D01*
X159801200Y-82254200D01*
X159158342Y-83111342D02*
X159301200Y-83182771D01*
X159658342Y-83182771D01*
X159801200Y-83111342D01*
X159872628Y-82968485D01*
X159872628Y-82825628D01*
X159801200Y-82682771D01*
X159658342Y-82611342D01*
X159301200Y-82611342D01*
X159158342Y-82539914D01*
X158658342Y-82182771D02*
X158086914Y-82182771D01*
X158444057Y-81682771D02*
X158444057Y-82968485D01*
X158372628Y-83111342D01*
X158229771Y-83182771D01*
X158086914Y-83182771D01*
X157372628Y-83182771D02*
X157515485Y-83111342D01*
X157586914Y-83039914D01*
X157658342Y-82897057D01*
X157658342Y-82468485D01*
X157586914Y-82325628D01*
X157515485Y-82254200D01*
X157372628Y-82182771D01*
X157158342Y-82182771D01*
X157015485Y-82254200D01*
X156944057Y-82325628D01*
X156872628Y-82468485D01*
X156872628Y-82897057D01*
X156944057Y-83039914D01*
X157015485Y-83111342D01*
X157158342Y-83182771D01*
X157372628Y-83182771D01*
X156229771Y-83182771D02*
X156229771Y-82182771D01*
X156229771Y-82468485D02*
X156158342Y-82325628D01*
X156086914Y-82254200D01*
X155944057Y-82182771D01*
X155801200Y-82182771D01*
X154158342Y-82611342D02*
X153015485Y-82611342D01*
X151158342Y-83182771D02*
X151158342Y-81682771D01*
X150658342Y-82754200D01*
X150158342Y-81682771D01*
X150158342Y-83182771D01*
X149444057Y-83182771D02*
X149444057Y-81682771D01*
X147872628Y-83039914D02*
X147944057Y-83111342D01*
X148158342Y-83182771D01*
X148301200Y-83182771D01*
X148515485Y-83111342D01*
X148658342Y-82968485D01*
X148729771Y-82825628D01*
X148801200Y-82539914D01*
X148801200Y-82325628D01*
X148729771Y-82039914D01*
X148658342Y-81897057D01*
X148515485Y-81754200D01*
X148301200Y-81682771D01*
X148158342Y-81682771D01*
X147944057Y-81754200D01*
X147872628Y-81825628D01*
X146515485Y-81682771D02*
X147229771Y-81682771D01*
X147301200Y-82397057D01*
X147229771Y-82325628D01*
X147086914Y-82254200D01*
X146729771Y-82254200D01*
X146586914Y-82325628D01*
X146515485Y-82397057D01*
X146444057Y-82539914D01*
X146444057Y-82897057D01*
X146515485Y-83039914D01*
X146586914Y-83111342D01*
X146729771Y-83182771D01*
X147086914Y-83182771D01*
X147229771Y-83111342D01*
X147301200Y-83039914D01*
X145086914Y-81682771D02*
X145801200Y-81682771D01*
X145872628Y-82397057D01*
X145801200Y-82325628D01*
X145658342Y-82254200D01*
X145301200Y-82254200D01*
X145158342Y-82325628D01*
X145086914Y-82397057D01*
X145015485Y-82539914D01*
X145015485Y-82897057D01*
X145086914Y-83039914D01*
X145158342Y-83111342D01*
X145301200Y-83182771D01*
X145658342Y-83182771D01*
X145801200Y-83111342D01*
X145872628Y-83039914D01*
X144086914Y-81682771D02*
X143944057Y-81682771D01*
X143801200Y-81754200D01*
X143729771Y-81825628D01*
X143658342Y-81968485D01*
X143586914Y-82254200D01*
X143586914Y-82611342D01*
X143658342Y-82897057D01*
X143729771Y-83039914D01*
X143801200Y-83111342D01*
X143944057Y-83182771D01*
X144086914Y-83182771D01*
X144229771Y-83111342D01*
X144301200Y-83039914D01*
X144372628Y-82897057D01*
X144444057Y-82611342D01*
X144444057Y-82254200D01*
X144372628Y-81968485D01*
X144301200Y-81825628D01*
X144229771Y-81754200D01*
X144086914Y-81682771D01*
X142301200Y-82182771D02*
X142301200Y-83182771D01*
X142658342Y-81611342D02*
X143015485Y-82682771D01*
X142086914Y-82682771D01*
X141515485Y-82611342D02*
X140372628Y-82611342D01*
X139801200Y-81682771D02*
X138872628Y-81682771D01*
X139372628Y-82254200D01*
X139158342Y-82254200D01*
X139015485Y-82325628D01*
X138944057Y-82397057D01*
X138872628Y-82539914D01*
X138872628Y-82897057D01*
X138944057Y-83039914D01*
X139015485Y-83111342D01*
X139158342Y-83182771D01*
X139586914Y-83182771D01*
X139729771Y-83111342D01*
X139801200Y-83039914D01*
X138229771Y-83039914D02*
X138158342Y-83111342D01*
X138229771Y-83182771D01*
X138301200Y-83111342D01*
X138229771Y-83039914D01*
X138229771Y-83182771D01*
X137658342Y-81682771D02*
X136729771Y-81682771D01*
X137229771Y-82254200D01*
X137015485Y-82254200D01*
X136872628Y-82325628D01*
X136801200Y-82397057D01*
X136729771Y-82539914D01*
X136729771Y-82897057D01*
X136801200Y-83039914D01*
X136872628Y-83111342D01*
X137015485Y-83182771D01*
X137444057Y-83182771D01*
X137586914Y-83111342D01*
X137658342Y-83039914D01*
X135801200Y-82468485D02*
X135801200Y-83182771D01*
X136301200Y-81682771D02*
X135801200Y-82468485D01*
X135301200Y-81682771D01*
X134801200Y-83182771D02*
X134801200Y-81682771D01*
X134301200Y-82754200D01*
X133801199Y-81682771D01*
X133801199Y-83182771D01*
X132372628Y-81682771D02*
X133086914Y-81682771D01*
X133158342Y-82397057D01*
X133086914Y-82325628D01*
X132944057Y-82254200D01*
X132586914Y-82254200D01*
X132444057Y-82325628D01*
X132372628Y-82397057D01*
X132301199Y-82539914D01*
X132301199Y-82897057D01*
X132372628Y-83039914D01*
X132444057Y-83111342D01*
X132586914Y-83182771D01*
X132944057Y-83182771D01*
X133086914Y-83111342D01*
X133158342Y-83039914D01*
X131658342Y-82611342D02*
X130515485Y-82611342D01*
X130015485Y-81682771D02*
X129158342Y-81682771D01*
X129586914Y-83182771D02*
X129586914Y-81682771D01*
X127801199Y-83182771D02*
X128301199Y-82468485D01*
X128658342Y-83182771D02*
X128658342Y-81682771D01*
X128086914Y-81682771D01*
X127944057Y-81754200D01*
X127872628Y-81825628D01*
X127801199Y-81968485D01*
X127801199Y-82182771D01*
X127872628Y-82325628D01*
X127944057Y-82397057D01*
X128086914Y-82468485D01*
X128658342Y-82468485D01*
X178801200Y-85661342D02*
X178586914Y-85732771D01*
X178229771Y-85732771D01*
X178086914Y-85661342D01*
X178015485Y-85589914D01*
X177944057Y-85447057D01*
X177944057Y-85304200D01*
X178015485Y-85161342D01*
X178086914Y-85089914D01*
X178229771Y-85018485D01*
X178515485Y-84947057D01*
X178658342Y-84875628D01*
X178729771Y-84804200D01*
X178801200Y-84661342D01*
X178801200Y-84518485D01*
X178729771Y-84375628D01*
X178658342Y-84304200D01*
X178515485Y-84232771D01*
X178158342Y-84232771D01*
X177944057Y-84304200D01*
X177444057Y-84232771D02*
X177086914Y-85732771D01*
X176801200Y-84661342D01*
X176515485Y-85732771D01*
X176158342Y-84232771D01*
X175586914Y-85732771D02*
X175586914Y-84232771D01*
X175229771Y-84232771D01*
X175015485Y-84304200D01*
X174872628Y-84447057D01*
X174801200Y-84589914D01*
X174729771Y-84875628D01*
X174729771Y-85089914D01*
X174801200Y-85375628D01*
X174872628Y-85518485D01*
X175015485Y-85661342D01*
X175229771Y-85732771D01*
X175586914Y-85732771D01*
X172944057Y-85732771D02*
X172944057Y-84232771D01*
X172372628Y-84232771D01*
X172229771Y-84304200D01*
X172158342Y-84375628D01*
X172086914Y-84518485D01*
X172086914Y-84732771D01*
X172158342Y-84875628D01*
X172229771Y-84947057D01*
X172372628Y-85018485D01*
X172944057Y-85018485D01*
X171444057Y-85732771D02*
X171444057Y-84732771D01*
X171444057Y-85018485D02*
X171372628Y-84875628D01*
X171301200Y-84804200D01*
X171158342Y-84732771D01*
X171015485Y-84732771D01*
X170301200Y-85732771D02*
X170444057Y-85661342D01*
X170515485Y-85589914D01*
X170586914Y-85447057D01*
X170586914Y-85018485D01*
X170515485Y-84875628D01*
X170444057Y-84804200D01*
X170301200Y-84732771D01*
X170086914Y-84732771D01*
X169944057Y-84804200D01*
X169872628Y-84875628D01*
X169801200Y-85018485D01*
X169801200Y-85447057D01*
X169872628Y-85589914D01*
X169944057Y-85661342D01*
X170086914Y-85732771D01*
X170301200Y-85732771D01*
X168515485Y-84732771D02*
X168515485Y-85947057D01*
X168586914Y-86089914D01*
X168658342Y-86161342D01*
X168801200Y-86232771D01*
X169015485Y-86232771D01*
X169158342Y-86161342D01*
X168515485Y-85661342D02*
X168658342Y-85732771D01*
X168944057Y-85732771D01*
X169086914Y-85661342D01*
X169158342Y-85589914D01*
X169229771Y-85447057D01*
X169229771Y-85018485D01*
X169158342Y-84875628D01*
X169086914Y-84804200D01*
X168944057Y-84732771D01*
X168658342Y-84732771D01*
X168515485Y-84804200D01*
X167801200Y-85732771D02*
X167801200Y-84732771D01*
X167801200Y-85018485D02*
X167729771Y-84875628D01*
X167658342Y-84804200D01*
X167515485Y-84732771D01*
X167372628Y-84732771D01*
X166229771Y-85732771D02*
X166229771Y-84947057D01*
X166301200Y-84804200D01*
X166444057Y-84732771D01*
X166729771Y-84732771D01*
X166872628Y-84804200D01*
X166229771Y-85661342D02*
X166372628Y-85732771D01*
X166729771Y-85732771D01*
X166872628Y-85661342D01*
X166944057Y-85518485D01*
X166944057Y-85375628D01*
X166872628Y-85232771D01*
X166729771Y-85161342D01*
X166372628Y-85161342D01*
X166229771Y-85089914D01*
X165515485Y-85732771D02*
X165515485Y-84732771D01*
X165515485Y-84875628D02*
X165444057Y-84804200D01*
X165301200Y-84732771D01*
X165086914Y-84732771D01*
X164944057Y-84804200D01*
X164872628Y-84947057D01*
X164872628Y-85732771D01*
X164872628Y-84947057D02*
X164801200Y-84804200D01*
X164658342Y-84732771D01*
X164444057Y-84732771D01*
X164301200Y-84804200D01*
X164229771Y-84947057D01*
X164229771Y-85732771D01*
X163515485Y-85732771D02*
X163515485Y-84732771D01*
X163515485Y-84875628D02*
X163444057Y-84804200D01*
X163301200Y-84732771D01*
X163086914Y-84732771D01*
X162944057Y-84804200D01*
X162872628Y-84947057D01*
X162872628Y-85732771D01*
X162872628Y-84947057D02*
X162801200Y-84804200D01*
X162658342Y-84732771D01*
X162444057Y-84732771D01*
X162301200Y-84804200D01*
X162229771Y-84947057D01*
X162229771Y-85732771D01*
X161515485Y-85732771D02*
X161515485Y-84732771D01*
X161515485Y-84232771D02*
X161586914Y-84304200D01*
X161515485Y-84375628D01*
X161444057Y-84304200D01*
X161515485Y-84232771D01*
X161515485Y-84375628D01*
X160801200Y-84732771D02*
X160801200Y-85732771D01*
X160801200Y-84875628D02*
X160729771Y-84804200D01*
X160586914Y-84732771D01*
X160372628Y-84732771D01*
X160229771Y-84804200D01*
X160158342Y-84947057D01*
X160158342Y-85732771D01*
X158801200Y-84732771D02*
X158801200Y-85947057D01*
X158872628Y-86089914D01*
X158944057Y-86161342D01*
X159086914Y-86232771D01*
X159301200Y-86232771D01*
X159444057Y-86161342D01*
X158801200Y-85661342D02*
X158944057Y-85732771D01*
X159229771Y-85732771D01*
X159372628Y-85661342D01*
X159444057Y-85589914D01*
X159515485Y-85447057D01*
X159515485Y-85018485D01*
X159444057Y-84875628D01*
X159372628Y-84804200D01*
X159229771Y-84732771D01*
X158944057Y-84732771D01*
X158801200Y-84804200D01*
X156944057Y-85732771D02*
X156944057Y-84232771D01*
X156944057Y-84947057D02*
X156086914Y-84947057D01*
X156086914Y-85732771D02*
X156086914Y-84232771D01*
X154801200Y-85661342D02*
X154944057Y-85732771D01*
X155229771Y-85732771D01*
X155372628Y-85661342D01*
X155444057Y-85518485D01*
X155444057Y-84947057D01*
X155372628Y-84804200D01*
X155229771Y-84732771D01*
X154944057Y-84732771D01*
X154801200Y-84804200D01*
X154729771Y-84947057D01*
X154729771Y-85089914D01*
X155444057Y-85232771D01*
X153444057Y-85732771D02*
X153444057Y-84947057D01*
X153515485Y-84804200D01*
X153658342Y-84732771D01*
X153944057Y-84732771D01*
X154086914Y-84804200D01*
X153444057Y-85661342D02*
X153586914Y-85732771D01*
X153944057Y-85732771D01*
X154086914Y-85661342D01*
X154158342Y-85518485D01*
X154158342Y-85375628D01*
X154086914Y-85232771D01*
X153944057Y-85161342D01*
X153586914Y-85161342D01*
X153444057Y-85089914D01*
X152086914Y-85732771D02*
X152086914Y-84232771D01*
X152086914Y-85661342D02*
X152229771Y-85732771D01*
X152515485Y-85732771D01*
X152658342Y-85661342D01*
X152729771Y-85589914D01*
X152801200Y-85447057D01*
X152801200Y-85018485D01*
X152729771Y-84875628D01*
X152658342Y-84804200D01*
X152515485Y-84732771D01*
X152229771Y-84732771D01*
X152086914Y-84804200D01*
X150801200Y-85661342D02*
X150944057Y-85732771D01*
X151229771Y-85732771D01*
X151372628Y-85661342D01*
X151444057Y-85518485D01*
X151444057Y-84947057D01*
X151372628Y-84804200D01*
X151229771Y-84732771D01*
X150944057Y-84732771D01*
X150801200Y-84804200D01*
X150729771Y-84947057D01*
X150729771Y-85089914D01*
X151444057Y-85232771D01*
X150086914Y-85732771D02*
X150086914Y-84732771D01*
X150086914Y-85018485D02*
X150015485Y-84875628D01*
X149944057Y-84804200D01*
X149801200Y-84732771D01*
X149658342Y-84732771D01*
X148015485Y-85161342D02*
X146872628Y-85161342D01*
X145086914Y-84375628D02*
X145015485Y-84304200D01*
X144872628Y-84232771D01*
X144515485Y-84232771D01*
X144372628Y-84304200D01*
X144301200Y-84375628D01*
X144229771Y-84518485D01*
X144229771Y-84661342D01*
X144301200Y-84875628D01*
X145158342Y-85732771D01*
X144229771Y-85732771D01*
X143301200Y-84232771D02*
X143158342Y-84232771D01*
X143015485Y-84304200D01*
X142944057Y-84375628D01*
X142872628Y-84518485D01*
X142801200Y-84804200D01*
X142801200Y-85161342D01*
X142872628Y-85447057D01*
X142944057Y-85589914D01*
X143015485Y-85661342D01*
X143158342Y-85732771D01*
X143301200Y-85732771D01*
X143444057Y-85661342D01*
X143515485Y-85589914D01*
X143586914Y-85447057D01*
X143658342Y-85161342D01*
X143658342Y-84804200D01*
X143586914Y-84518485D01*
X143515485Y-84375628D01*
X143444057Y-84304200D01*
X143301200Y-84232771D01*
X141872628Y-84232771D02*
X141729771Y-84232771D01*
X141586914Y-84304200D01*
X141515485Y-84375628D01*
X141444057Y-84518485D01*
X141372628Y-84804200D01*
X141372628Y-85161342D01*
X141444057Y-85447057D01*
X141515485Y-85589914D01*
X141586914Y-85661342D01*
X141729771Y-85732771D01*
X141872628Y-85732771D01*
X142015485Y-85661342D01*
X142086914Y-85589914D01*
X142158342Y-85447057D01*
X142229771Y-85161342D01*
X142229771Y-84804200D01*
X142158342Y-84518485D01*
X142086914Y-84375628D01*
X142015485Y-84304200D01*
X141872628Y-84232771D01*
X140801200Y-84375628D02*
X140729771Y-84304200D01*
X140586914Y-84232771D01*
X140229771Y-84232771D01*
X140086914Y-84304200D01*
X140015485Y-84375628D01*
X139944057Y-84518485D01*
X139944057Y-84661342D01*
X140015485Y-84875628D01*
X140872628Y-85732771D01*
X139944057Y-85732771D01*
X138515485Y-85732771D02*
X139372628Y-85732771D01*
X138944057Y-85732771D02*
X138944057Y-84232771D01*
X139086914Y-84447057D01*
X139229771Y-84589914D01*
X139372628Y-84661342D01*
X137086914Y-85732771D02*
X137944057Y-85732771D01*
X137515485Y-85732771D02*
X137515485Y-84232771D01*
X137658342Y-84447057D01*
X137801200Y-84589914D01*
X137944057Y-84661342D01*
X136515485Y-84375628D02*
X136444057Y-84304200D01*
X136301200Y-84232771D01*
X135944057Y-84232771D01*
X135801200Y-84304200D01*
X135729771Y-84375628D01*
X135658342Y-84518485D01*
X135658342Y-84661342D01*
X135729771Y-84875628D01*
X136586914Y-85732771D01*
X135658342Y-85732771D01*
X134229771Y-85732771D02*
X135086914Y-85732771D01*
X134658342Y-85732771D02*
X134658342Y-84232771D01*
X134801200Y-84447057D01*
X134944057Y-84589914D01*
X135086914Y-84661342D01*
X133586914Y-85161342D02*
X132444057Y-85161342D01*
X131444057Y-84232771D02*
X131301199Y-84232771D01*
X131158342Y-84304200D01*
X131086914Y-84375628D01*
X131015485Y-84518485D01*
X130944057Y-84804200D01*
X130944057Y-85161342D01*
X131015485Y-85447057D01*
X131086914Y-85589914D01*
X131158342Y-85661342D01*
X131301199Y-85732771D01*
X131444057Y-85732771D01*
X131586914Y-85661342D01*
X131658342Y-85589914D01*
X131729771Y-85447057D01*
X131801199Y-85161342D01*
X131801199Y-84804200D01*
X131729771Y-84518485D01*
X131658342Y-84375628D01*
X131586914Y-84304200D01*
X131444057Y-84232771D01*
X130015485Y-84232771D02*
X129872628Y-84232771D01*
X129729771Y-84304200D01*
X129658342Y-84375628D01*
X129586914Y-84518485D01*
X129515485Y-84804200D01*
X129515485Y-85161342D01*
X129586914Y-85447057D01*
X129658342Y-85589914D01*
X129729771Y-85661342D01*
X129872628Y-85732771D01*
X130015485Y-85732771D01*
X130158342Y-85661342D01*
X130229771Y-85589914D01*
X130301199Y-85447057D01*
X130372628Y-85161342D01*
X130372628Y-84804200D01*
X130301199Y-84518485D01*
X130229771Y-84375628D01*
X130158342Y-84304200D01*
X130015485Y-84232771D01*
X128586914Y-84232771D02*
X128444057Y-84232771D01*
X128301199Y-84304200D01*
X128229771Y-84375628D01*
X128158342Y-84518485D01*
X128086914Y-84804200D01*
X128086914Y-85161342D01*
X128158342Y-85447057D01*
X128229771Y-85589914D01*
X128301199Y-85661342D01*
X128444057Y-85732771D01*
X128586914Y-85732771D01*
X128729771Y-85661342D01*
X128801199Y-85589914D01*
X128872628Y-85447057D01*
X128944057Y-85161342D01*
X128944057Y-84804200D01*
X128872628Y-84518485D01*
X128801199Y-84375628D01*
X128729771Y-84304200D01*
X128586914Y-84232771D01*
X126658342Y-85732771D02*
X127515485Y-85732771D01*
X127086914Y-85732771D02*
X127086914Y-84232771D01*
X127229771Y-84447057D01*
X127372628Y-84589914D01*
X127515485Y-84661342D01*
X125729771Y-84232771D02*
X125586914Y-84232771D01*
X125444057Y-84304200D01*
X125372628Y-84375628D01*
X125301199Y-84518485D01*
X125229771Y-84804200D01*
X125229771Y-85161342D01*
X125301199Y-85447057D01*
X125372628Y-85589914D01*
X125444057Y-85661342D01*
X125586914Y-85732771D01*
X125729771Y-85732771D01*
X125872628Y-85661342D01*
X125944057Y-85589914D01*
X126015485Y-85447057D01*
X126086914Y-85161342D01*
X126086914Y-84804200D01*
X126015485Y-84518485D01*
X125944057Y-84375628D01*
X125872628Y-84304200D01*
X125729771Y-84232771D01*
X123729771Y-85589914D02*
X123801199Y-85661342D01*
X124015485Y-85732771D01*
X124158342Y-85732771D01*
X124372628Y-85661342D01*
X124515485Y-85518485D01*
X124586914Y-85375628D01*
X124658342Y-85089914D01*
X124658342Y-84875628D01*
X124586914Y-84589914D01*
X124515485Y-84447057D01*
X124372628Y-84304200D01*
X124158342Y-84232771D01*
X124015485Y-84232771D01*
X123801199Y-84304200D01*
X123729771Y-84375628D01*
X122444057Y-84732771D02*
X122444057Y-85732771D01*
X122801199Y-84161342D02*
X123158342Y-85232771D01*
X122229771Y-85232771D01*
X120944057Y-85732771D02*
X121658342Y-85732771D01*
X121658342Y-84232771D01*
X119944057Y-84947057D02*
X120444057Y-84947057D01*
X120444057Y-85732771D02*
X120444057Y-84232771D01*
X119729771Y-84232771D01*
X171765485Y-88282771D02*
X172265485Y-87568485D01*
X172622628Y-88282771D02*
X172622628Y-86782771D01*
X172051200Y-86782771D01*
X171908342Y-86854200D01*
X171836914Y-86925628D01*
X171765485Y-87068485D01*
X171765485Y-87282771D01*
X171836914Y-87425628D01*
X171908342Y-87497057D01*
X172051200Y-87568485D01*
X172622628Y-87568485D01*
X170551200Y-88211342D02*
X170694057Y-88282771D01*
X170979771Y-88282771D01*
X171122628Y-88211342D01*
X171194057Y-88068485D01*
X171194057Y-87497057D01*
X171122628Y-87354200D01*
X170979771Y-87282771D01*
X170694057Y-87282771D01*
X170551200Y-87354200D01*
X170479771Y-87497057D01*
X170479771Y-87639914D01*
X171194057Y-87782771D01*
X169908342Y-88211342D02*
X169765485Y-88282771D01*
X169479771Y-88282771D01*
X169336914Y-88211342D01*
X169265485Y-88068485D01*
X169265485Y-87997057D01*
X169336914Y-87854200D01*
X169479771Y-87782771D01*
X169694057Y-87782771D01*
X169836914Y-87711342D01*
X169908342Y-87568485D01*
X169908342Y-87497057D01*
X169836914Y-87354200D01*
X169694057Y-87282771D01*
X169479771Y-87282771D01*
X169336914Y-87354200D01*
X168051200Y-88211342D02*
X168194057Y-88282771D01*
X168479771Y-88282771D01*
X168622628Y-88211342D01*
X168694057Y-88068485D01*
X168694057Y-87497057D01*
X168622628Y-87354200D01*
X168479771Y-87282771D01*
X168194057Y-87282771D01*
X168051200Y-87354200D01*
X167979771Y-87497057D01*
X167979771Y-87639914D01*
X168694057Y-87782771D01*
X167551200Y-87282771D02*
X166979771Y-87282771D01*
X167336914Y-86782771D02*
X167336914Y-88068485D01*
X167265485Y-88211342D01*
X167122628Y-88282771D01*
X166979771Y-88282771D01*
X165408342Y-88211342D02*
X165194057Y-88282771D01*
X164836914Y-88282771D01*
X164694057Y-88211342D01*
X164622628Y-88139914D01*
X164551200Y-87997057D01*
X164551200Y-87854200D01*
X164622628Y-87711342D01*
X164694057Y-87639914D01*
X164836914Y-87568485D01*
X165122628Y-87497057D01*
X165265485Y-87425628D01*
X165336914Y-87354200D01*
X165408342Y-87211342D01*
X165408342Y-87068485D01*
X165336914Y-86925628D01*
X165265485Y-86854200D01*
X165122628Y-86782771D01*
X164765485Y-86782771D01*
X164551200Y-86854200D01*
X164051200Y-87282771D02*
X163765485Y-88282771D01*
X163479771Y-87568485D01*
X163194057Y-88282771D01*
X162908342Y-87282771D01*
X162336914Y-88282771D02*
X162336914Y-87282771D01*
X162336914Y-86782771D02*
X162408342Y-86854200D01*
X162336914Y-86925628D01*
X162265485Y-86854200D01*
X162336914Y-86782771D01*
X162336914Y-86925628D01*
X161836914Y-87282771D02*
X161265485Y-87282771D01*
X161622628Y-86782771D02*
X161622628Y-88068485D01*
X161551200Y-88211342D01*
X161408342Y-88282771D01*
X161265485Y-88282771D01*
X160122628Y-88211342D02*
X160265485Y-88282771D01*
X160551200Y-88282771D01*
X160694057Y-88211342D01*
X160765485Y-88139914D01*
X160836914Y-87997057D01*
X160836914Y-87568485D01*
X160765485Y-87425628D01*
X160694057Y-87354200D01*
X160551200Y-87282771D01*
X160265485Y-87282771D01*
X160122628Y-87354200D01*
X159479771Y-88282771D02*
X159479771Y-86782771D01*
X158836914Y-88282771D02*
X158836914Y-87497057D01*
X158908342Y-87354200D01*
X159051200Y-87282771D01*
X159265485Y-87282771D01*
X159408342Y-87354200D01*
X159479771Y-87425628D01*
X156979771Y-87711342D02*
X155836914Y-87711342D01*
X153979771Y-88282771D02*
X153979771Y-86782771D01*
X153408342Y-86782771D01*
X153265485Y-86854200D01*
X153194057Y-86925628D01*
X153122628Y-87068485D01*
X153122628Y-87282771D01*
X153194057Y-87425628D01*
X153265485Y-87497057D01*
X153408342Y-87568485D01*
X153979771Y-87568485D01*
X152694057Y-86782771D02*
X151836914Y-86782771D01*
X152265485Y-88282771D02*
X152265485Y-86782771D01*
X151408342Y-88211342D02*
X151194057Y-88282771D01*
X150836914Y-88282771D01*
X150694057Y-88211342D01*
X150622628Y-88139914D01*
X150551200Y-87997057D01*
X150551200Y-87854200D01*
X150622628Y-87711342D01*
X150694057Y-87639914D01*
X150836914Y-87568485D01*
X151122628Y-87497057D01*
X151265485Y-87425628D01*
X151336914Y-87354200D01*
X151408342Y-87211342D01*
X151408342Y-87068485D01*
X151336914Y-86925628D01*
X151265485Y-86854200D01*
X151122628Y-86782771D01*
X150765485Y-86782771D01*
X150551200Y-86854200D01*
X149194057Y-86782771D02*
X149908342Y-86782771D01*
X149979771Y-87497057D01*
X149908342Y-87425628D01*
X149765485Y-87354200D01*
X149408342Y-87354200D01*
X149265485Y-87425628D01*
X149194057Y-87497057D01*
X149122628Y-87639914D01*
X149122628Y-87997057D01*
X149194057Y-88139914D01*
X149265485Y-88211342D01*
X149408342Y-88282771D01*
X149765485Y-88282771D01*
X149908342Y-88211342D01*
X149979771Y-88139914D01*
X148551200Y-86925628D02*
X148479771Y-86854200D01*
X148336914Y-86782771D01*
X147979771Y-86782771D01*
X147836914Y-86854200D01*
X147765485Y-86925628D01*
X147694057Y-87068485D01*
X147694057Y-87211342D01*
X147765485Y-87425628D01*
X148622628Y-88282771D01*
X147694057Y-88282771D01*
X146408342Y-86782771D02*
X146694057Y-86782771D01*
X146836914Y-86854200D01*
X146908342Y-86925628D01*
X147051200Y-87139914D01*
X147122628Y-87425628D01*
X147122628Y-87997057D01*
X147051200Y-88139914D01*
X146979771Y-88211342D01*
X146836914Y-88282771D01*
X146551200Y-88282771D01*
X146408342Y-88211342D01*
X146336914Y-88139914D01*
X146265485Y-87997057D01*
X146265485Y-87639914D01*
X146336914Y-87497057D01*
X146408342Y-87425628D01*
X146551200Y-87354200D01*
X146836914Y-87354200D01*
X146979771Y-87425628D01*
X147051200Y-87497057D01*
X147122628Y-87639914D01*
X144551200Y-88211342D02*
X144336914Y-88282771D01*
X143979771Y-88282771D01*
X143836914Y-88211342D01*
X143765485Y-88139914D01*
X143694057Y-87997057D01*
X143694057Y-87854200D01*
X143765485Y-87711342D01*
X143836914Y-87639914D01*
X143979771Y-87568485D01*
X144265485Y-87497057D01*
X144408342Y-87425628D01*
X144479771Y-87354200D01*
X144551200Y-87211342D01*
X144551200Y-87068485D01*
X144479771Y-86925628D01*
X144408342Y-86854200D01*
X144265485Y-86782771D01*
X143908342Y-86782771D01*
X143694057Y-86854200D01*
X143051200Y-88282771D02*
X143051200Y-86782771D01*
X142194057Y-88282771D02*
X142836914Y-87425628D01*
X142194057Y-86782771D02*
X143051200Y-87639914D01*
X141265485Y-86782771D02*
X141122628Y-86782771D01*
X140979771Y-86854200D01*
X140908342Y-86925628D01*
X140836914Y-87068485D01*
X140765485Y-87354200D01*
X140765485Y-87711342D01*
X140836914Y-87997057D01*
X140908342Y-88139914D01*
X140979771Y-88211342D01*
X141122628Y-88282771D01*
X141265485Y-88282771D01*
X141408342Y-88211342D01*
X141479771Y-88139914D01*
X141551200Y-87997057D01*
X141622628Y-87711342D01*
X141622628Y-87354200D01*
X141551200Y-87068485D01*
X141479771Y-86925628D01*
X141408342Y-86854200D01*
X141265485Y-86782771D01*
X139908342Y-87425628D02*
X140051200Y-87354200D01*
X140122628Y-87282771D01*
X140194057Y-87139914D01*
X140194057Y-87068485D01*
X140122628Y-86925628D01*
X140051200Y-86854200D01*
X139908342Y-86782771D01*
X139622628Y-86782771D01*
X139479771Y-86854200D01*
X139408342Y-86925628D01*
X139336914Y-87068485D01*
X139336914Y-87139914D01*
X139408342Y-87282771D01*
X139479771Y-87354200D01*
X139622628Y-87425628D01*
X139908342Y-87425628D01*
X140051200Y-87497057D01*
X140122628Y-87568485D01*
X140194057Y-87711342D01*
X140194057Y-87997057D01*
X140122628Y-88139914D01*
X140051200Y-88211342D01*
X139908342Y-88282771D01*
X139622628Y-88282771D01*
X139479771Y-88211342D01*
X139408342Y-88139914D01*
X139336914Y-87997057D01*
X139336914Y-87711342D01*
X139408342Y-87568485D01*
X139479771Y-87497057D01*
X139622628Y-87425628D01*
X137622628Y-88211342D02*
X137408342Y-88282771D01*
X137051200Y-88282771D01*
X136908342Y-88211342D01*
X136836914Y-88139914D01*
X136765485Y-87997057D01*
X136765485Y-87854200D01*
X136836914Y-87711342D01*
X136908342Y-87639914D01*
X137051200Y-87568485D01*
X137336914Y-87497057D01*
X137479771Y-87425628D01*
X137551200Y-87354200D01*
X137622628Y-87211342D01*
X137622628Y-87068485D01*
X137551200Y-86925628D01*
X137479771Y-86854200D01*
X137336914Y-86782771D01*
X136979771Y-86782771D01*
X136765485Y-86854200D01*
X136122628Y-88282771D02*
X136122628Y-86782771D01*
X135622628Y-87854200D01*
X135122628Y-86782771D01*
X135122628Y-88282771D01*
X134622628Y-86782771D02*
X133765485Y-86782771D01*
X134194057Y-88282771D02*
X134194057Y-86782771D01*
X132408342Y-88282771D02*
X132908342Y-87568485D01*
X133265485Y-88282771D02*
X133265485Y-86782771D01*
X132694057Y-86782771D01*
X132551200Y-86854200D01*
X132479771Y-86925628D01*
X132408342Y-87068485D01*
X132408342Y-87282771D01*
X132479771Y-87425628D01*
X132551200Y-87497057D01*
X132694057Y-87568485D01*
X133265485Y-87568485D01*
X131836914Y-86925628D02*
X131765485Y-86854200D01*
X131622628Y-86782771D01*
X131265485Y-86782771D01*
X131122628Y-86854200D01*
X131051200Y-86925628D01*
X130979771Y-87068485D01*
X130979771Y-87211342D01*
X131051200Y-87425628D01*
X131908342Y-88282771D01*
X130979771Y-88282771D01*
X128479771Y-88282771D02*
X129194057Y-88282771D01*
X129194057Y-86782771D01*
X127479771Y-87497057D02*
X127979771Y-87497057D01*
X127979771Y-88282771D02*
X127979771Y-86782771D01*
X127265485Y-86782771D01*
X126765485Y-88211342D02*
X126551200Y-88282771D01*
X126194057Y-88282771D01*
X126051200Y-88211342D01*
X125979771Y-88139914D01*
X125908342Y-87997057D01*
X125908342Y-87854200D01*
X125979771Y-87711342D01*
X126051200Y-87639914D01*
X126194057Y-87568485D01*
X126479771Y-87497057D01*
X126622628Y-87425628D01*
X126694057Y-87354200D01*
X126765485Y-87211342D01*
X126765485Y-87068485D01*
X126694057Y-86925628D01*
X126622628Y-86854200D01*
X126479771Y-86782771D01*
X126122628Y-86782771D01*
X125908342Y-86854200D01*
X169122628Y-89332771D02*
X169122628Y-90547057D01*
X169051200Y-90689914D01*
X168979771Y-90761342D01*
X168836914Y-90832771D01*
X168551200Y-90832771D01*
X168408342Y-90761342D01*
X168336914Y-90689914D01*
X168265485Y-90547057D01*
X168265485Y-89332771D01*
X167622628Y-90761342D02*
X167408342Y-90832771D01*
X167051200Y-90832771D01*
X166908342Y-90761342D01*
X166836914Y-90689914D01*
X166765485Y-90547057D01*
X166765485Y-90404200D01*
X166836914Y-90261342D01*
X166908342Y-90189914D01*
X167051200Y-90118485D01*
X167336914Y-90047057D01*
X167479771Y-89975628D01*
X167551200Y-89904200D01*
X167622628Y-89761342D01*
X167622628Y-89618485D01*
X167551200Y-89475628D01*
X167479771Y-89404200D01*
X167336914Y-89332771D01*
X166979771Y-89332771D01*
X166765485Y-89404200D01*
X165622628Y-90047057D02*
X165408342Y-90118485D01*
X165336914Y-90189914D01*
X165265485Y-90332771D01*
X165265485Y-90547057D01*
X165336914Y-90689914D01*
X165408342Y-90761342D01*
X165551200Y-90832771D01*
X166122628Y-90832771D01*
X166122628Y-89332771D01*
X165622628Y-89332771D01*
X165479771Y-89404200D01*
X165408342Y-89475628D01*
X165336914Y-89618485D01*
X165336914Y-89761342D01*
X165408342Y-89904200D01*
X165479771Y-89975628D01*
X165622628Y-90047057D01*
X166122628Y-90047057D01*
X162622628Y-90689914D02*
X162694057Y-90761342D01*
X162908342Y-90832771D01*
X163051200Y-90832771D01*
X163265485Y-90761342D01*
X163408342Y-90618485D01*
X163479771Y-90475628D01*
X163551200Y-90189914D01*
X163551200Y-89975628D01*
X163479771Y-89689914D01*
X163408342Y-89547057D01*
X163265485Y-89404200D01*
X163051200Y-89332771D01*
X162908342Y-89332771D01*
X162694057Y-89404200D01*
X162622628Y-89475628D01*
X160408342Y-89332771D02*
X160408342Y-90404200D01*
X160479771Y-90618485D01*
X160622628Y-90761342D01*
X160836914Y-90832771D01*
X160979771Y-90832771D01*
X159051200Y-90832771D02*
X159051200Y-90047057D01*
X159122628Y-89904200D01*
X159265485Y-89832771D01*
X159551200Y-89832771D01*
X159694057Y-89904200D01*
X159051200Y-90761342D02*
X159194057Y-90832771D01*
X159551200Y-90832771D01*
X159694057Y-90761342D01*
X159765485Y-90618485D01*
X159765485Y-90475628D01*
X159694057Y-90332771D01*
X159551200Y-90261342D01*
X159194057Y-90261342D01*
X159051200Y-90189914D01*
X157694057Y-90761342D02*
X157836914Y-90832771D01*
X158122628Y-90832771D01*
X158265485Y-90761342D01*
X158336914Y-90689914D01*
X158408342Y-90547057D01*
X158408342Y-90118485D01*
X158336914Y-89975628D01*
X158265485Y-89904200D01*
X158122628Y-89832771D01*
X157836914Y-89832771D01*
X157694057Y-89904200D01*
X157051200Y-90832771D02*
X157051200Y-89332771D01*
X156908342Y-90261342D02*
X156479771Y-90832771D01*
X156479771Y-89832771D02*
X157051200Y-90404200D01*
X154694057Y-90261342D02*
X153551200Y-90261342D01*
X150908342Y-90832771D02*
X151765485Y-90832771D01*
X151336914Y-90832771D02*
X151336914Y-89332771D01*
X151479771Y-89547057D01*
X151622628Y-89689914D01*
X151765485Y-89761342D01*
X149979771Y-89332771D02*
X149836914Y-89332771D01*
X149694057Y-89404200D01*
X149622628Y-89475628D01*
X149551200Y-89618485D01*
X149479771Y-89904200D01*
X149479771Y-90261342D01*
X149551200Y-90547057D01*
X149622628Y-90689914D01*
X149694057Y-90761342D01*
X149836914Y-90832771D01*
X149979771Y-90832771D01*
X150122628Y-90761342D01*
X150194057Y-90689914D01*
X150265485Y-90547057D01*
X150336914Y-90261342D01*
X150336914Y-89904200D01*
X150265485Y-89618485D01*
X150194057Y-89475628D01*
X150122628Y-89404200D01*
X149979771Y-89332771D01*
X148051200Y-90832771D02*
X148908342Y-90832771D01*
X148479771Y-90832771D02*
X148479771Y-89332771D01*
X148622628Y-89547057D01*
X148765485Y-89689914D01*
X148908342Y-89761342D01*
X147551200Y-89332771D02*
X146622628Y-89332771D01*
X147122628Y-89904200D01*
X146908342Y-89904200D01*
X146765485Y-89975628D01*
X146694057Y-90047057D01*
X146622628Y-90189914D01*
X146622628Y-90547057D01*
X146694057Y-90689914D01*
X146765485Y-90761342D01*
X146908342Y-90832771D01*
X147336914Y-90832771D01*
X147479771Y-90761342D01*
X147551200Y-90689914D01*
X146122628Y-89332771D02*
X145122628Y-89332771D01*
X145765485Y-90832771D01*
X144265485Y-89332771D02*
X144122628Y-89332771D01*
X143979771Y-89404200D01*
X143908342Y-89475628D01*
X143836914Y-89618485D01*
X143765485Y-89904200D01*
X143765485Y-90261342D01*
X143836914Y-90547057D01*
X143908342Y-90689914D01*
X143979771Y-90761342D01*
X144122628Y-90832771D01*
X144265485Y-90832771D01*
X144408342Y-90761342D01*
X144479771Y-90689914D01*
X144551200Y-90547057D01*
X144622628Y-90261342D01*
X144622628Y-89904200D01*
X144551200Y-89618485D01*
X144479771Y-89475628D01*
X144408342Y-89404200D01*
X144265485Y-89332771D01*
X142479771Y-89332771D02*
X142765485Y-89332771D01*
X142908342Y-89404200D01*
X142979771Y-89475628D01*
X143122628Y-89689914D01*
X143194057Y-89975628D01*
X143194057Y-90547057D01*
X143122628Y-90689914D01*
X143051200Y-90761342D01*
X142908342Y-90832771D01*
X142622628Y-90832771D01*
X142479771Y-90761342D01*
X142408342Y-90689914D01*
X142336914Y-90547057D01*
X142336914Y-90189914D01*
X142408342Y-90047057D01*
X142479771Y-89975628D01*
X142622628Y-89904200D01*
X142908342Y-89904200D01*
X143051200Y-89975628D01*
X143122628Y-90047057D01*
X143194057Y-90189914D01*
X141765485Y-89475628D02*
X141694057Y-89404200D01*
X141551200Y-89332771D01*
X141194057Y-89332771D01*
X141051200Y-89404200D01*
X140979771Y-89475628D01*
X140908342Y-89618485D01*
X140908342Y-89761342D01*
X140979771Y-89975628D01*
X141836914Y-90832771D01*
X140908342Y-90832771D01*
X140265485Y-90261342D02*
X139122628Y-90261342D01*
X138122628Y-89332771D02*
X137979771Y-89332771D01*
X137836914Y-89404200D01*
X137765485Y-89475628D01*
X137694057Y-89618485D01*
X137622628Y-89904200D01*
X137622628Y-90261342D01*
X137694057Y-90547057D01*
X137765485Y-90689914D01*
X137836914Y-90761342D01*
X137979771Y-90832771D01*
X138122628Y-90832771D01*
X138265485Y-90761342D01*
X138336914Y-90689914D01*
X138408342Y-90547057D01*
X138479771Y-90261342D01*
X138479771Y-89904200D01*
X138408342Y-89618485D01*
X138336914Y-89475628D01*
X138265485Y-89404200D01*
X138122628Y-89332771D01*
X136694057Y-89332771D02*
X136551200Y-89332771D01*
X136408342Y-89404200D01*
X136336914Y-89475628D01*
X136265485Y-89618485D01*
X136194057Y-89904200D01*
X136194057Y-90261342D01*
X136265485Y-90547057D01*
X136336914Y-90689914D01*
X136408342Y-90761342D01*
X136551200Y-90832771D01*
X136694057Y-90832771D01*
X136836914Y-90761342D01*
X136908342Y-90689914D01*
X136979771Y-90547057D01*
X137051200Y-90261342D01*
X137051200Y-89904200D01*
X136979771Y-89618485D01*
X136908342Y-89475628D01*
X136836914Y-89404200D01*
X136694057Y-89332771D01*
X135265485Y-89332771D02*
X135122628Y-89332771D01*
X134979771Y-89404200D01*
X134908342Y-89475628D01*
X134836914Y-89618485D01*
X134765485Y-89904200D01*
X134765485Y-90261342D01*
X134836914Y-90547057D01*
X134908342Y-90689914D01*
X134979771Y-90761342D01*
X135122628Y-90832771D01*
X135265485Y-90832771D01*
X135408342Y-90761342D01*
X135479771Y-90689914D01*
X135551200Y-90547057D01*
X135622628Y-90261342D01*
X135622628Y-89904200D01*
X135551200Y-89618485D01*
X135479771Y-89475628D01*
X135408342Y-89404200D01*
X135265485Y-89332771D01*
X134194057Y-89475628D02*
X134122628Y-89404200D01*
X133979771Y-89332771D01*
X133622628Y-89332771D01*
X133479771Y-89404200D01*
X133408342Y-89475628D01*
X133336914Y-89618485D01*
X133336914Y-89761342D01*
X133408342Y-89975628D01*
X134265485Y-90832771D01*
X133336914Y-90832771D01*
X131908342Y-90832771D02*
X132765485Y-90832771D01*
X132336914Y-90832771D02*
X132336914Y-89332771D01*
X132479771Y-89547057D01*
X132622628Y-89689914D01*
X132765485Y-89761342D01*
X130551200Y-90832771D02*
X131265485Y-90832771D01*
X131265485Y-89332771D01*
X129551200Y-90047057D02*
X130051200Y-90047057D01*
X130051200Y-90832771D02*
X130051200Y-89332771D01*
X129336914Y-89332771D01*
X165658342Y-91954200D02*
X165801200Y-91882771D01*
X166015485Y-91882771D01*
X166229771Y-91954200D01*
X166372628Y-92097057D01*
X166444057Y-92239914D01*
X166515485Y-92525628D01*
X166515485Y-92739914D01*
X166444057Y-93025628D01*
X166372628Y-93168485D01*
X166229771Y-93311342D01*
X166015485Y-93382771D01*
X165872628Y-93382771D01*
X165658342Y-93311342D01*
X165586914Y-93239914D01*
X165586914Y-92739914D01*
X165872628Y-92739914D01*
X164944057Y-93382771D02*
X164944057Y-92382771D01*
X164944057Y-92668485D02*
X164872628Y-92525628D01*
X164801200Y-92454200D01*
X164658342Y-92382771D01*
X164515485Y-92382771D01*
X163444057Y-93311342D02*
X163586914Y-93382771D01*
X163872628Y-93382771D01*
X164015485Y-93311342D01*
X164086914Y-93168485D01*
X164086914Y-92597057D01*
X164015485Y-92454200D01*
X163872628Y-92382771D01*
X163586914Y-92382771D01*
X163444057Y-92454200D01*
X163372628Y-92597057D01*
X163372628Y-92739914D01*
X164086914Y-92882771D01*
X162158342Y-93311342D02*
X162301200Y-93382771D01*
X162586914Y-93382771D01*
X162729771Y-93311342D01*
X162801200Y-93168485D01*
X162801200Y-92597057D01*
X162729771Y-92454200D01*
X162586914Y-92382771D01*
X162301200Y-92382771D01*
X162158342Y-92454200D01*
X162086914Y-92597057D01*
X162086914Y-92739914D01*
X162801200Y-92882771D01*
X161444057Y-92382771D02*
X161444057Y-93382771D01*
X161444057Y-92525628D02*
X161372628Y-92454200D01*
X161229771Y-92382771D01*
X161015485Y-92382771D01*
X160872628Y-92454200D01*
X160801200Y-92597057D01*
X160801200Y-93382771D01*
X159086914Y-91882771D02*
X158158342Y-91882771D01*
X158658342Y-92454200D01*
X158444057Y-92454200D01*
X158301200Y-92525628D01*
X158229771Y-92597057D01*
X158158342Y-92739914D01*
X158158342Y-93097057D01*
X158229771Y-93239914D01*
X158301200Y-93311342D01*
X158444057Y-93382771D01*
X158872628Y-93382771D01*
X159015485Y-93311342D01*
X159086914Y-93239914D01*
X157515485Y-93382771D02*
X157515485Y-92382771D01*
X157515485Y-92525628D02*
X157444057Y-92454200D01*
X157301200Y-92382771D01*
X157086914Y-92382771D01*
X156944057Y-92454200D01*
X156872628Y-92597057D01*
X156872628Y-93382771D01*
X156872628Y-92597057D02*
X156801200Y-92454200D01*
X156658342Y-92382771D01*
X156444057Y-92382771D01*
X156301200Y-92454200D01*
X156229771Y-92597057D01*
X156229771Y-93382771D01*
X155515485Y-93382771D02*
X155515485Y-92382771D01*
X155515485Y-92525628D02*
X155444057Y-92454200D01*
X155301200Y-92382771D01*
X155086914Y-92382771D01*
X154944057Y-92454200D01*
X154872628Y-92597057D01*
X154872628Y-93382771D01*
X154872628Y-92597057D02*
X154801200Y-92454200D01*
X154658342Y-92382771D01*
X154444057Y-92382771D01*
X154301200Y-92454200D01*
X154229771Y-92597057D01*
X154229771Y-93382771D01*
X151658342Y-93382771D02*
X152372628Y-93382771D01*
X152372628Y-91882771D01*
X151158342Y-92597057D02*
X150658342Y-92597057D01*
X150444057Y-93382771D02*
X151158342Y-93382771D01*
X151158342Y-91882771D01*
X150444057Y-91882771D01*
X149801200Y-93382771D02*
X149801200Y-91882771D01*
X149444057Y-91882771D01*
X149229771Y-91954200D01*
X149086914Y-92097057D01*
X149015485Y-92239914D01*
X148944057Y-92525628D01*
X148944057Y-92739914D01*
X149015485Y-93025628D01*
X149086914Y-93168485D01*
X149229771Y-93311342D01*
X149444057Y-93382771D01*
X149801200Y-93382771D01*
X147158342Y-92811342D02*
X146015485Y-92811342D01*
X143444057Y-93382771D02*
X144158342Y-93382771D01*
X144158342Y-91882771D01*
X143158342Y-91882771D02*
X142301200Y-91882771D01*
X142729771Y-93382771D02*
X142729771Y-91882771D01*
X141086914Y-93382771D02*
X141801200Y-93382771D01*
X141801200Y-91882771D01*
X140586914Y-92811342D02*
X139444057Y-92811342D01*
X138086914Y-92382771D02*
X138086914Y-93382771D01*
X138444057Y-91811342D02*
X138801200Y-92882771D01*
X137872628Y-92882771D01*
X137372628Y-92025628D02*
X137301200Y-91954200D01*
X137158342Y-91882771D01*
X136801200Y-91882771D01*
X136658342Y-91954200D01*
X136586914Y-92025628D01*
X136515485Y-92168485D01*
X136515485Y-92311342D01*
X136586914Y-92525628D01*
X137444057Y-93382771D01*
X136515485Y-93382771D01*
X136015485Y-91882771D02*
X135086914Y-91882771D01*
X135586914Y-92454200D01*
X135372628Y-92454200D01*
X135229771Y-92525628D01*
X135158342Y-92597057D01*
X135086914Y-92739914D01*
X135086914Y-93097057D01*
X135158342Y-93239914D01*
X135229771Y-93311342D01*
X135372628Y-93382771D01*
X135801200Y-93382771D01*
X135944057Y-93311342D01*
X136015485Y-93239914D01*
X133658342Y-93382771D02*
X134515485Y-93382771D01*
X134086914Y-93382771D02*
X134086914Y-91882771D01*
X134229771Y-92097057D01*
X134372628Y-92239914D01*
X134515485Y-92311342D01*
X133015485Y-93382771D02*
X133015485Y-91882771D01*
X132158342Y-93382771D01*
X132158342Y-91882771D01*
M02*
