G04 #@! TF.GenerationSoftware,KiCad,Pcbnew,(5.1.4)-1*
G04 #@! TF.CreationDate,2020-08-13T15:15:15-05:00*
G04 #@! TF.ProjectId,Blue_Wizard,426c7565-5f57-4697-9a61-72642e6b6963,rev?*
G04 #@! TF.SameCoordinates,Original*
G04 #@! TF.FileFunction,Soldermask,Bot*
G04 #@! TF.FilePolarity,Negative*
%FSLAX46Y46*%
G04 Gerber Fmt 4.6, Leading zero omitted, Abs format (unit mm)*
G04 Created by KiCad (PCBNEW (5.1.4)-1) date 2020-08-13 15:15:15*
%MOMM*%
%LPD*%
G04 APERTURE LIST*
%ADD10C,0.100000*%
G04 APERTURE END LIST*
D10*
G36*
X146113014Y-134184973D02*
G01*
X146216878Y-134216479D01*
X146260907Y-134240013D01*
X146312599Y-134267643D01*
X146312601Y-134267644D01*
X146312600Y-134267644D01*
X146396501Y-134336499D01*
X146465356Y-134420400D01*
X146516521Y-134516121D01*
X146548027Y-134619985D01*
X146556000Y-134700933D01*
X146556000Y-135755067D01*
X146548027Y-135836015D01*
X146516521Y-135939879D01*
X146516519Y-135939882D01*
X146465357Y-136035600D01*
X146396501Y-136119501D01*
X146312600Y-136188357D01*
X146244055Y-136224995D01*
X146216879Y-136239521D01*
X146113015Y-136271027D01*
X146005000Y-136281666D01*
X145896986Y-136271027D01*
X145793122Y-136239521D01*
X145765946Y-136224995D01*
X145697401Y-136188357D01*
X145613500Y-136119501D01*
X145544644Y-136035600D01*
X145493482Y-135939882D01*
X145493480Y-135939879D01*
X145461974Y-135836015D01*
X145454001Y-135755067D01*
X145454000Y-134700934D01*
X145461973Y-134619986D01*
X145493479Y-134516122D01*
X145544644Y-134420400D01*
X145613499Y-134336499D01*
X145697400Y-134267644D01*
X145697399Y-134267644D01*
X145697401Y-134267643D01*
X145749093Y-134240013D01*
X145793121Y-134216479D01*
X145896985Y-134184973D01*
X146005000Y-134174334D01*
X146113014Y-134184973D01*
X146113014Y-134184973D01*
G37*
G36*
X155093014Y-134184973D02*
G01*
X155196878Y-134216479D01*
X155240907Y-134240013D01*
X155292599Y-134267643D01*
X155292601Y-134267644D01*
X155292600Y-134267644D01*
X155376501Y-134336499D01*
X155445356Y-134420400D01*
X155496521Y-134516121D01*
X155528027Y-134619985D01*
X155536000Y-134700933D01*
X155536000Y-135755067D01*
X155528027Y-135836015D01*
X155496521Y-135939879D01*
X155496519Y-135939882D01*
X155445357Y-136035600D01*
X155376501Y-136119501D01*
X155292600Y-136188357D01*
X155224055Y-136224995D01*
X155196879Y-136239521D01*
X155093015Y-136271027D01*
X154985000Y-136281666D01*
X154876986Y-136271027D01*
X154773122Y-136239521D01*
X154745946Y-136224995D01*
X154677401Y-136188357D01*
X154593500Y-136119501D01*
X154524644Y-136035600D01*
X154473482Y-135939882D01*
X154473480Y-135939879D01*
X154441974Y-135836015D01*
X154434001Y-135755067D01*
X154434000Y-134700934D01*
X154441973Y-134619986D01*
X154473479Y-134516122D01*
X154524644Y-134420400D01*
X154593499Y-134336499D01*
X154677400Y-134267644D01*
X154677399Y-134267644D01*
X154677401Y-134267643D01*
X154729093Y-134240013D01*
X154773121Y-134216479D01*
X154876985Y-134184973D01*
X154985000Y-134174334D01*
X155093014Y-134184973D01*
X155093014Y-134184973D01*
G37*
G36*
X154254672Y-129166449D02*
G01*
X154254674Y-129166450D01*
X154254675Y-129166450D01*
X154323103Y-129194793D01*
X154384686Y-129235942D01*
X154437058Y-129288314D01*
X154478207Y-129349897D01*
X154506550Y-129418325D01*
X154521000Y-129490967D01*
X154521000Y-129565033D01*
X154506550Y-129637675D01*
X154478207Y-129706103D01*
X154454148Y-129742109D01*
X154442601Y-129763713D01*
X154435488Y-129787162D01*
X154433086Y-129811548D01*
X154435488Y-129835934D01*
X154442601Y-129859383D01*
X154454152Y-129880994D01*
X154469697Y-129899936D01*
X154488639Y-129915481D01*
X154510250Y-129927032D01*
X154533699Y-129934145D01*
X154558085Y-129936547D01*
X154574278Y-129934145D01*
X154574336Y-129934732D01*
X154675000Y-129924818D01*
X154763409Y-129933525D01*
X154848425Y-129959314D01*
X154926774Y-130001193D01*
X154995449Y-130057552D01*
X155051807Y-130126225D01*
X155093686Y-130204574D01*
X155119475Y-130289590D01*
X155126000Y-130355842D01*
X155126000Y-131200158D01*
X155119475Y-131266410D01*
X155093686Y-131351426D01*
X155051807Y-131429775D01*
X154995449Y-131498449D01*
X154926775Y-131554807D01*
X154848426Y-131596686D01*
X154763410Y-131622475D01*
X154675000Y-131631182D01*
X154586591Y-131622475D01*
X154501575Y-131596686D01*
X154423226Y-131554807D01*
X154354552Y-131498449D01*
X154298194Y-131429775D01*
X154256313Y-131351422D01*
X154230525Y-131266413D01*
X154224000Y-131200158D01*
X154224000Y-130355843D01*
X154230525Y-130289591D01*
X154256314Y-130204575D01*
X154298195Y-130126223D01*
X154317187Y-130103080D01*
X154330801Y-130082706D01*
X154340177Y-130060067D01*
X154344957Y-130036033D01*
X154344957Y-130011529D01*
X154340176Y-129987496D01*
X154330798Y-129964857D01*
X154317184Y-129944483D01*
X154299856Y-129927157D01*
X154279482Y-129913543D01*
X154256843Y-129904167D01*
X154232809Y-129899387D01*
X154196175Y-129901187D01*
X154182033Y-129904000D01*
X154107966Y-129904000D01*
X154035328Y-129889551D01*
X154035326Y-129889550D01*
X154035325Y-129889550D01*
X153966897Y-129861207D01*
X153905314Y-129820058D01*
X153852942Y-129767686D01*
X153811793Y-129706103D01*
X153783450Y-129637675D01*
X153769000Y-129565033D01*
X153769000Y-129490967D01*
X153783450Y-129418325D01*
X153811793Y-129349897D01*
X153852942Y-129288314D01*
X153905314Y-129235942D01*
X153966897Y-129194793D01*
X154035325Y-129166450D01*
X154035326Y-129166450D01*
X154035328Y-129166449D01*
X154107966Y-129152000D01*
X154182034Y-129152000D01*
X154254672Y-129166449D01*
X154254672Y-129166449D01*
G37*
G36*
X147054672Y-129166449D02*
G01*
X147054674Y-129166450D01*
X147054675Y-129166450D01*
X147123103Y-129194793D01*
X147184686Y-129235942D01*
X147237058Y-129288314D01*
X147278207Y-129349897D01*
X147306550Y-129418325D01*
X147321000Y-129490967D01*
X147321000Y-129565033D01*
X147306550Y-129637675D01*
X147278207Y-129706103D01*
X147237058Y-129767686D01*
X147184686Y-129820058D01*
X147123103Y-129861207D01*
X147054675Y-129889550D01*
X147054674Y-129889550D01*
X147054672Y-129889551D01*
X146982034Y-129904000D01*
X146907967Y-129904000D01*
X146893823Y-129901187D01*
X146869441Y-129898785D01*
X146845055Y-129901187D01*
X146821606Y-129908299D01*
X146799995Y-129919850D01*
X146781053Y-129935395D01*
X146765508Y-129954337D01*
X146753957Y-129975948D01*
X146746843Y-129999396D01*
X146744441Y-130023783D01*
X146746843Y-130048169D01*
X146753955Y-130071618D01*
X146765506Y-130093229D01*
X146772814Y-130103082D01*
X146791807Y-130126225D01*
X146833686Y-130204574D01*
X146859475Y-130289590D01*
X146866000Y-130355842D01*
X146866000Y-131200158D01*
X146859475Y-131266410D01*
X146833686Y-131351426D01*
X146791807Y-131429775D01*
X146735449Y-131498449D01*
X146666775Y-131554807D01*
X146588426Y-131596686D01*
X146503410Y-131622475D01*
X146415000Y-131631182D01*
X146326591Y-131622475D01*
X146241575Y-131596686D01*
X146163226Y-131554807D01*
X146094552Y-131498449D01*
X146038194Y-131429775D01*
X145996313Y-131351422D01*
X145970525Y-131266413D01*
X145964000Y-131200158D01*
X145964000Y-130355843D01*
X145970525Y-130289591D01*
X145996314Y-130204575D01*
X146038193Y-130126226D01*
X146094552Y-130057551D01*
X146163225Y-130001193D01*
X146241574Y-129959314D01*
X146326590Y-129933525D01*
X146415000Y-129924818D01*
X146511510Y-129934323D01*
X146519674Y-129935946D01*
X146544178Y-129935944D01*
X146568211Y-129931161D01*
X146590849Y-129921782D01*
X146611222Y-129908167D01*
X146628548Y-129890838D01*
X146642159Y-129870462D01*
X146651535Y-129847823D01*
X146656313Y-129823789D01*
X146656311Y-129799285D01*
X146651528Y-129775252D01*
X146635850Y-129742107D01*
X146611793Y-129706103D01*
X146583450Y-129637675D01*
X146569000Y-129565033D01*
X146569000Y-129490967D01*
X146583450Y-129418325D01*
X146611793Y-129349897D01*
X146652942Y-129288314D01*
X146705314Y-129235942D01*
X146766897Y-129194793D01*
X146835325Y-129166450D01*
X146835326Y-129166450D01*
X146835328Y-129166449D01*
X146907966Y-129152000D01*
X146982034Y-129152000D01*
X147054672Y-129166449D01*
X147054672Y-129166449D01*
G37*
G36*
X147847383Y-129840489D02*
G01*
X147847386Y-129840490D01*
X147847385Y-129840490D01*
X147911258Y-129866946D01*
X147968748Y-129905360D01*
X148017640Y-129954252D01*
X148056054Y-130011742D01*
X148066115Y-130036033D01*
X148082511Y-130075617D01*
X148096000Y-130143430D01*
X148096000Y-130212570D01*
X148082511Y-130280383D01*
X148069774Y-130311134D01*
X148051949Y-130354166D01*
X148044836Y-130377615D01*
X148042434Y-130402001D01*
X148044836Y-130426387D01*
X148051949Y-130449836D01*
X148063500Y-130471447D01*
X148079046Y-130490389D01*
X148097987Y-130505934D01*
X148119598Y-130517485D01*
X148143047Y-130524598D01*
X148167433Y-130527000D01*
X148179570Y-130527000D01*
X148247383Y-130540489D01*
X148247386Y-130540490D01*
X148247385Y-130540490D01*
X148311258Y-130566946D01*
X148368748Y-130605360D01*
X148417640Y-130654252D01*
X148441067Y-130689313D01*
X148456613Y-130708255D01*
X148475555Y-130723800D01*
X148497165Y-130735351D01*
X148520614Y-130742464D01*
X148545000Y-130744866D01*
X148569386Y-130742464D01*
X148592835Y-130735351D01*
X148614446Y-130723800D01*
X148633388Y-130708254D01*
X148648933Y-130689313D01*
X148672360Y-130654252D01*
X148721252Y-130605360D01*
X148778742Y-130566946D01*
X148842615Y-130540490D01*
X148842614Y-130540490D01*
X148842617Y-130540489D01*
X148910430Y-130527000D01*
X148922567Y-130527000D01*
X148946953Y-130524598D01*
X148970402Y-130517485D01*
X148992013Y-130505934D01*
X149010955Y-130490389D01*
X149026500Y-130471447D01*
X149038051Y-130449836D01*
X149045164Y-130426387D01*
X149047566Y-130402001D01*
X149045164Y-130377615D01*
X149038051Y-130354166D01*
X149020227Y-130311134D01*
X149007489Y-130280383D01*
X148994000Y-130212570D01*
X148994000Y-130143430D01*
X149007489Y-130075617D01*
X149023885Y-130036033D01*
X149033946Y-130011742D01*
X149072360Y-129954252D01*
X149121252Y-129905360D01*
X149178742Y-129866946D01*
X149242615Y-129840490D01*
X149242614Y-129840490D01*
X149242617Y-129840489D01*
X149310430Y-129827000D01*
X149379570Y-129827000D01*
X149447383Y-129840489D01*
X149447386Y-129840490D01*
X149447385Y-129840490D01*
X149511258Y-129866946D01*
X149568748Y-129905360D01*
X149617640Y-129954252D01*
X149641067Y-129989313D01*
X149656613Y-130008255D01*
X149675555Y-130023800D01*
X149697165Y-130035351D01*
X149720614Y-130042464D01*
X149745000Y-130044866D01*
X149769386Y-130042464D01*
X149792835Y-130035351D01*
X149814446Y-130023800D01*
X149833388Y-130008254D01*
X149848933Y-129989313D01*
X149872360Y-129954252D01*
X149921252Y-129905360D01*
X149978742Y-129866946D01*
X150042615Y-129840490D01*
X150042614Y-129840490D01*
X150042617Y-129840489D01*
X150110430Y-129827000D01*
X150179570Y-129827000D01*
X150247383Y-129840489D01*
X150247386Y-129840490D01*
X150247385Y-129840490D01*
X150311258Y-129866946D01*
X150368748Y-129905360D01*
X150417640Y-129954252D01*
X150441067Y-129989313D01*
X150456613Y-130008255D01*
X150475555Y-130023800D01*
X150497165Y-130035351D01*
X150520614Y-130042464D01*
X150545000Y-130044866D01*
X150569386Y-130042464D01*
X150592835Y-130035351D01*
X150614446Y-130023800D01*
X150633388Y-130008254D01*
X150648933Y-129989313D01*
X150672360Y-129954252D01*
X150721252Y-129905360D01*
X150778742Y-129866946D01*
X150842615Y-129840490D01*
X150842614Y-129840490D01*
X150842617Y-129840489D01*
X150910430Y-129827000D01*
X150979570Y-129827000D01*
X151047383Y-129840489D01*
X151047386Y-129840490D01*
X151047385Y-129840490D01*
X151111258Y-129866946D01*
X151168748Y-129905360D01*
X151217640Y-129954252D01*
X151241067Y-129989313D01*
X151256613Y-130008255D01*
X151275555Y-130023800D01*
X151297165Y-130035351D01*
X151320614Y-130042464D01*
X151345000Y-130044866D01*
X151369386Y-130042464D01*
X151392835Y-130035351D01*
X151414446Y-130023800D01*
X151433388Y-130008254D01*
X151448933Y-129989313D01*
X151472360Y-129954252D01*
X151521252Y-129905360D01*
X151578742Y-129866946D01*
X151642615Y-129840490D01*
X151642614Y-129840490D01*
X151642617Y-129840489D01*
X151710430Y-129827000D01*
X151779570Y-129827000D01*
X151847383Y-129840489D01*
X151847386Y-129840490D01*
X151847385Y-129840490D01*
X151911258Y-129866946D01*
X151968748Y-129905360D01*
X152017640Y-129954252D01*
X152056054Y-130011742D01*
X152066115Y-130036033D01*
X152082511Y-130075617D01*
X152096000Y-130143430D01*
X152096000Y-130212570D01*
X152082511Y-130280383D01*
X152069774Y-130311134D01*
X152051949Y-130354166D01*
X152044836Y-130377615D01*
X152042434Y-130402001D01*
X152044836Y-130426387D01*
X152051949Y-130449836D01*
X152063500Y-130471447D01*
X152079046Y-130490389D01*
X152097987Y-130505934D01*
X152119598Y-130517485D01*
X152143047Y-130524598D01*
X152167433Y-130527000D01*
X152179570Y-130527000D01*
X152247383Y-130540489D01*
X152247386Y-130540490D01*
X152247385Y-130540490D01*
X152311258Y-130566946D01*
X152368748Y-130605360D01*
X152417640Y-130654252D01*
X152441067Y-130689313D01*
X152456613Y-130708255D01*
X152475555Y-130723800D01*
X152497165Y-130735351D01*
X152520614Y-130742464D01*
X152545000Y-130744866D01*
X152569386Y-130742464D01*
X152592835Y-130735351D01*
X152614446Y-130723800D01*
X152633388Y-130708254D01*
X152648933Y-130689313D01*
X152672360Y-130654252D01*
X152721252Y-130605360D01*
X152778742Y-130566946D01*
X152842615Y-130540490D01*
X152842614Y-130540490D01*
X152842617Y-130540489D01*
X152910430Y-130527000D01*
X152922567Y-130527000D01*
X152946953Y-130524598D01*
X152970402Y-130517485D01*
X152992013Y-130505934D01*
X153010955Y-130490389D01*
X153026500Y-130471447D01*
X153038051Y-130449836D01*
X153045164Y-130426387D01*
X153047566Y-130402001D01*
X153045164Y-130377615D01*
X153038051Y-130354166D01*
X153020227Y-130311134D01*
X153007489Y-130280383D01*
X152994000Y-130212570D01*
X152994000Y-130143430D01*
X153007489Y-130075617D01*
X153023885Y-130036033D01*
X153033946Y-130011742D01*
X153072360Y-129954252D01*
X153121252Y-129905360D01*
X153178742Y-129866946D01*
X153242615Y-129840490D01*
X153242614Y-129840490D01*
X153242617Y-129840489D01*
X153310430Y-129827000D01*
X153379570Y-129827000D01*
X153447383Y-129840489D01*
X153447386Y-129840490D01*
X153447385Y-129840490D01*
X153511258Y-129866946D01*
X153568748Y-129905360D01*
X153617640Y-129954252D01*
X153656054Y-130011742D01*
X153666115Y-130036033D01*
X153682511Y-130075617D01*
X153696000Y-130143430D01*
X153696000Y-130212570D01*
X153682511Y-130280383D01*
X153682510Y-130280385D01*
X153656054Y-130344258D01*
X153617640Y-130401748D01*
X153568748Y-130450640D01*
X153511258Y-130489054D01*
X153470504Y-130505934D01*
X153447383Y-130515511D01*
X153379570Y-130529000D01*
X153367433Y-130529000D01*
X153343047Y-130531402D01*
X153319598Y-130538515D01*
X153297987Y-130550066D01*
X153279045Y-130565611D01*
X153263500Y-130584553D01*
X153251949Y-130606164D01*
X153244836Y-130629613D01*
X153242434Y-130653999D01*
X153244836Y-130678385D01*
X153251949Y-130701834D01*
X153256051Y-130711738D01*
X153256052Y-130711739D01*
X153282511Y-130775617D01*
X153296000Y-130843430D01*
X153296000Y-130912570D01*
X153282511Y-130980383D01*
X153282510Y-130980385D01*
X153256054Y-131044258D01*
X153217640Y-131101748D01*
X153168748Y-131150640D01*
X153111258Y-131189054D01*
X153084449Y-131200158D01*
X153047383Y-131215511D01*
X152979570Y-131229000D01*
X152910430Y-131229000D01*
X152842617Y-131215511D01*
X152805551Y-131200158D01*
X152778742Y-131189054D01*
X152721252Y-131150640D01*
X152672360Y-131101748D01*
X152648933Y-131066687D01*
X152633387Y-131047745D01*
X152614445Y-131032200D01*
X152592835Y-131020649D01*
X152569386Y-131013536D01*
X152545000Y-131011134D01*
X152520614Y-131013536D01*
X152497165Y-131020649D01*
X152475554Y-131032200D01*
X152456612Y-131047746D01*
X152441067Y-131066687D01*
X152417640Y-131101748D01*
X152368748Y-131150640D01*
X152311258Y-131189054D01*
X152284449Y-131200158D01*
X152247383Y-131215511D01*
X152179570Y-131229000D01*
X152110430Y-131229000D01*
X152042617Y-131215511D01*
X152005551Y-131200158D01*
X151978742Y-131189054D01*
X151921252Y-131150640D01*
X151872360Y-131101748D01*
X151848933Y-131066687D01*
X151833387Y-131047745D01*
X151814445Y-131032200D01*
X151792835Y-131020649D01*
X151769386Y-131013536D01*
X151745000Y-131011134D01*
X151720614Y-131013536D01*
X151697165Y-131020649D01*
X151675554Y-131032200D01*
X151656612Y-131047746D01*
X151641067Y-131066687D01*
X151617640Y-131101748D01*
X151568748Y-131150640D01*
X151511258Y-131189054D01*
X151484449Y-131200158D01*
X151447383Y-131215511D01*
X151379570Y-131229000D01*
X151310430Y-131229000D01*
X151242617Y-131215511D01*
X151205551Y-131200158D01*
X151178742Y-131189054D01*
X151121252Y-131150640D01*
X151072360Y-131101748D01*
X151033946Y-131044258D01*
X151007490Y-130980385D01*
X151007489Y-130980383D01*
X150994000Y-130912570D01*
X150994000Y-130843430D01*
X151007489Y-130775617D01*
X151033948Y-130711739D01*
X151033949Y-130711738D01*
X151038051Y-130701834D01*
X151045164Y-130678385D01*
X151047566Y-130653999D01*
X151045164Y-130629613D01*
X151038051Y-130606164D01*
X151026500Y-130584553D01*
X151010954Y-130565611D01*
X150992013Y-130550066D01*
X150970402Y-130538515D01*
X150946953Y-130531402D01*
X150922567Y-130529000D01*
X150910430Y-130529000D01*
X150842617Y-130515511D01*
X150819496Y-130505934D01*
X150778742Y-130489054D01*
X150721252Y-130450640D01*
X150672360Y-130401748D01*
X150648933Y-130366687D01*
X150633387Y-130347745D01*
X150614445Y-130332200D01*
X150592835Y-130320649D01*
X150569386Y-130313536D01*
X150545000Y-130311134D01*
X150520614Y-130313536D01*
X150497165Y-130320649D01*
X150475554Y-130332200D01*
X150456612Y-130347746D01*
X150441067Y-130366687D01*
X150417640Y-130401748D01*
X150368748Y-130450640D01*
X150311258Y-130489054D01*
X150270504Y-130505934D01*
X150247383Y-130515511D01*
X150179570Y-130529000D01*
X150167433Y-130529000D01*
X150143047Y-130531402D01*
X150119598Y-130538515D01*
X150097987Y-130550066D01*
X150079045Y-130565611D01*
X150063500Y-130584553D01*
X150051949Y-130606164D01*
X150044836Y-130629613D01*
X150042434Y-130653999D01*
X150044836Y-130678385D01*
X150051949Y-130701834D01*
X150056051Y-130711738D01*
X150056052Y-130711739D01*
X150082511Y-130775617D01*
X150096000Y-130843430D01*
X150096000Y-130912570D01*
X150082511Y-130980383D01*
X150082510Y-130980385D01*
X150056054Y-131044258D01*
X150017640Y-131101748D01*
X149968748Y-131150640D01*
X149911258Y-131189054D01*
X149884449Y-131200158D01*
X149847383Y-131215511D01*
X149779570Y-131229000D01*
X149710430Y-131229000D01*
X149642617Y-131215511D01*
X149605551Y-131200158D01*
X149578742Y-131189054D01*
X149521252Y-131150640D01*
X149472360Y-131101748D01*
X149448933Y-131066687D01*
X149433387Y-131047745D01*
X149414445Y-131032200D01*
X149392835Y-131020649D01*
X149369386Y-131013536D01*
X149345000Y-131011134D01*
X149320614Y-131013536D01*
X149297165Y-131020649D01*
X149275554Y-131032200D01*
X149256612Y-131047746D01*
X149241067Y-131066687D01*
X149217640Y-131101748D01*
X149168748Y-131150640D01*
X149111258Y-131189054D01*
X149084449Y-131200158D01*
X149047383Y-131215511D01*
X148979570Y-131229000D01*
X148910430Y-131229000D01*
X148842617Y-131215511D01*
X148805551Y-131200158D01*
X148778742Y-131189054D01*
X148721252Y-131150640D01*
X148672360Y-131101748D01*
X148648933Y-131066687D01*
X148633387Y-131047745D01*
X148614445Y-131032200D01*
X148592835Y-131020649D01*
X148569386Y-131013536D01*
X148545000Y-131011134D01*
X148520614Y-131013536D01*
X148497165Y-131020649D01*
X148475554Y-131032200D01*
X148456612Y-131047746D01*
X148441067Y-131066687D01*
X148417640Y-131101748D01*
X148368748Y-131150640D01*
X148311258Y-131189054D01*
X148284449Y-131200158D01*
X148247383Y-131215511D01*
X148179570Y-131229000D01*
X148110430Y-131229000D01*
X148042617Y-131215511D01*
X148005551Y-131200158D01*
X147978742Y-131189054D01*
X147921252Y-131150640D01*
X147872360Y-131101748D01*
X147833946Y-131044258D01*
X147807490Y-130980385D01*
X147807489Y-130980383D01*
X147794000Y-130912570D01*
X147794000Y-130843430D01*
X147807489Y-130775617D01*
X147833948Y-130711739D01*
X147833949Y-130711738D01*
X147838051Y-130701834D01*
X147845164Y-130678385D01*
X147847566Y-130653999D01*
X147845164Y-130629613D01*
X147838051Y-130606164D01*
X147826500Y-130584553D01*
X147810954Y-130565611D01*
X147792013Y-130550066D01*
X147770402Y-130538515D01*
X147746953Y-130531402D01*
X147722567Y-130529000D01*
X147710430Y-130529000D01*
X147642617Y-130515511D01*
X147619496Y-130505934D01*
X147578742Y-130489054D01*
X147521252Y-130450640D01*
X147472360Y-130401748D01*
X147433946Y-130344258D01*
X147407490Y-130280385D01*
X147407489Y-130280383D01*
X147394000Y-130212570D01*
X147394000Y-130143430D01*
X147407489Y-130075617D01*
X147423885Y-130036033D01*
X147433946Y-130011742D01*
X147472360Y-129954252D01*
X147521252Y-129905360D01*
X147578742Y-129866946D01*
X147642615Y-129840490D01*
X147642614Y-129840490D01*
X147642617Y-129840489D01*
X147710430Y-129827000D01*
X147779570Y-129827000D01*
X147847383Y-129840489D01*
X147847383Y-129840489D01*
G37*
G36*
X157122395Y-123545546D02*
G01*
X157295466Y-123617234D01*
X157295467Y-123617235D01*
X157451227Y-123721310D01*
X157583690Y-123853773D01*
X157583691Y-123853775D01*
X157687766Y-124009534D01*
X157759454Y-124182605D01*
X157796000Y-124366333D01*
X157796000Y-124553667D01*
X157759454Y-124737395D01*
X157687766Y-124910466D01*
X157687765Y-124910467D01*
X157583690Y-125066227D01*
X157451227Y-125198690D01*
X157372818Y-125251081D01*
X157295466Y-125302766D01*
X157122395Y-125374454D01*
X156938667Y-125411000D01*
X156751333Y-125411000D01*
X156567605Y-125374454D01*
X156394534Y-125302766D01*
X156317182Y-125251081D01*
X156238773Y-125198690D01*
X156106310Y-125066227D01*
X156002235Y-124910467D01*
X156002234Y-124910466D01*
X155930546Y-124737395D01*
X155894000Y-124553667D01*
X155894000Y-124366333D01*
X155930546Y-124182605D01*
X156002234Y-124009534D01*
X156106309Y-123853775D01*
X156106310Y-123853773D01*
X156238773Y-123721310D01*
X156394533Y-123617235D01*
X156394534Y-123617234D01*
X156567605Y-123545546D01*
X156751333Y-123509000D01*
X156938667Y-123509000D01*
X157122395Y-123545546D01*
X157122395Y-123545546D01*
G37*
G36*
X136802395Y-123545546D02*
G01*
X136975466Y-123617234D01*
X136975467Y-123617235D01*
X137131227Y-123721310D01*
X137263690Y-123853773D01*
X137263691Y-123853775D01*
X137367766Y-124009534D01*
X137439454Y-124182605D01*
X137476000Y-124366333D01*
X137476000Y-124553667D01*
X137439454Y-124737395D01*
X137367766Y-124910466D01*
X137367765Y-124910467D01*
X137263690Y-125066227D01*
X137131227Y-125198690D01*
X137052818Y-125251081D01*
X136975466Y-125302766D01*
X136802395Y-125374454D01*
X136618667Y-125411000D01*
X136431333Y-125411000D01*
X136247605Y-125374454D01*
X136074534Y-125302766D01*
X135997182Y-125251081D01*
X135918773Y-125198690D01*
X135786310Y-125066227D01*
X135682235Y-124910467D01*
X135682234Y-124910466D01*
X135610546Y-124737395D01*
X135574000Y-124553667D01*
X135574000Y-124366333D01*
X135610546Y-124182605D01*
X135682234Y-124009534D01*
X135786309Y-123853775D01*
X135786310Y-123853773D01*
X135918773Y-123721310D01*
X136074533Y-123617235D01*
X136074534Y-123617234D01*
X136247605Y-123545546D01*
X136431333Y-123509000D01*
X136618667Y-123509000D01*
X136802395Y-123545546D01*
X136802395Y-123545546D01*
G37*
G36*
X134936000Y-125411000D02*
G01*
X133034000Y-125411000D01*
X133034000Y-123509000D01*
X134936000Y-123509000D01*
X134936000Y-125411000D01*
X134936000Y-125411000D01*
G37*
G36*
X146962395Y-123545546D02*
G01*
X147135466Y-123617234D01*
X147135467Y-123617235D01*
X147291227Y-123721310D01*
X147423690Y-123853773D01*
X147423691Y-123853775D01*
X147527766Y-124009534D01*
X147599454Y-124182605D01*
X147636000Y-124366333D01*
X147636000Y-124553667D01*
X147599454Y-124737395D01*
X147527766Y-124910466D01*
X147527765Y-124910467D01*
X147423690Y-125066227D01*
X147291227Y-125198690D01*
X147212818Y-125251081D01*
X147135466Y-125302766D01*
X146962395Y-125374454D01*
X146778667Y-125411000D01*
X146591333Y-125411000D01*
X146407605Y-125374454D01*
X146234534Y-125302766D01*
X146157182Y-125251081D01*
X146078773Y-125198690D01*
X145946310Y-125066227D01*
X145842235Y-124910467D01*
X145842234Y-124910466D01*
X145770546Y-124737395D01*
X145734000Y-124553667D01*
X145734000Y-124366333D01*
X145770546Y-124182605D01*
X145842234Y-124009534D01*
X145946309Y-123853775D01*
X145946310Y-123853773D01*
X146078773Y-123721310D01*
X146234533Y-123617235D01*
X146234534Y-123617234D01*
X146407605Y-123545546D01*
X146591333Y-123509000D01*
X146778667Y-123509000D01*
X146962395Y-123545546D01*
X146962395Y-123545546D01*
G37*
G36*
X145096000Y-125411000D02*
G01*
X143194000Y-125411000D01*
X143194000Y-123509000D01*
X145096000Y-123509000D01*
X145096000Y-125411000D01*
X145096000Y-125411000D01*
G37*
G36*
X167282395Y-123545546D02*
G01*
X167455466Y-123617234D01*
X167455467Y-123617235D01*
X167611227Y-123721310D01*
X167743690Y-123853773D01*
X167743691Y-123853775D01*
X167847766Y-124009534D01*
X167919454Y-124182605D01*
X167956000Y-124366333D01*
X167956000Y-124553667D01*
X167919454Y-124737395D01*
X167847766Y-124910466D01*
X167847765Y-124910467D01*
X167743690Y-125066227D01*
X167611227Y-125198690D01*
X167532818Y-125251081D01*
X167455466Y-125302766D01*
X167282395Y-125374454D01*
X167098667Y-125411000D01*
X166911333Y-125411000D01*
X166727605Y-125374454D01*
X166554534Y-125302766D01*
X166477182Y-125251081D01*
X166398773Y-125198690D01*
X166266310Y-125066227D01*
X166162235Y-124910467D01*
X166162234Y-124910466D01*
X166090546Y-124737395D01*
X166054000Y-124553667D01*
X166054000Y-124366333D01*
X166090546Y-124182605D01*
X166162234Y-124009534D01*
X166266309Y-123853775D01*
X166266310Y-123853773D01*
X166398773Y-123721310D01*
X166554533Y-123617235D01*
X166554534Y-123617234D01*
X166727605Y-123545546D01*
X166911333Y-123509000D01*
X167098667Y-123509000D01*
X167282395Y-123545546D01*
X167282395Y-123545546D01*
G37*
G36*
X165416000Y-125411000D02*
G01*
X163514000Y-125411000D01*
X163514000Y-123509000D01*
X165416000Y-123509000D01*
X165416000Y-125411000D01*
X165416000Y-125411000D01*
G37*
G36*
X155256000Y-125411000D02*
G01*
X153354000Y-125411000D01*
X153354000Y-123509000D01*
X155256000Y-123509000D01*
X155256000Y-125411000D01*
X155256000Y-125411000D01*
G37*
G36*
X101789209Y-119089165D02*
G01*
X101971155Y-119144358D01*
X102138826Y-119233980D01*
X102138829Y-119233982D01*
X102138830Y-119233983D01*
X102285801Y-119354598D01*
X102406416Y-119501569D01*
X102406419Y-119501573D01*
X102496041Y-119669244D01*
X102551234Y-119851190D01*
X102565199Y-119992982D01*
X102565199Y-121815018D01*
X102551234Y-121956810D01*
X102496041Y-122138756D01*
X102406419Y-122306427D01*
X102406417Y-122306430D01*
X102406416Y-122306431D01*
X102285801Y-122453402D01*
X102138830Y-122574017D01*
X102138826Y-122574020D01*
X101971154Y-122663642D01*
X101789208Y-122718835D01*
X101599999Y-122737470D01*
X101410789Y-122718835D01*
X101228843Y-122663642D01*
X101061172Y-122574020D01*
X101061168Y-122574017D01*
X100914197Y-122453402D01*
X100793582Y-122306431D01*
X100793581Y-122306430D01*
X100793579Y-122306427D01*
X100703957Y-122138755D01*
X100648764Y-121956809D01*
X100634799Y-121815017D01*
X100634799Y-119992983D01*
X100648765Y-119851190D01*
X100703958Y-119669244D01*
X100793580Y-119501573D01*
X100793583Y-119501569D01*
X100914198Y-119354598D01*
X101061169Y-119233983D01*
X101061170Y-119233982D01*
X101061173Y-119233980D01*
X101228844Y-119144358D01*
X101410790Y-119089165D01*
X101599999Y-119070530D01*
X101789209Y-119089165D01*
X101789209Y-119089165D01*
G37*
G36*
X106869209Y-119089165D02*
G01*
X107051155Y-119144358D01*
X107218826Y-119233980D01*
X107218829Y-119233982D01*
X107218830Y-119233983D01*
X107365801Y-119354598D01*
X107486416Y-119501569D01*
X107486419Y-119501573D01*
X107576041Y-119669244D01*
X107631234Y-119851190D01*
X107645199Y-119992982D01*
X107645199Y-121815018D01*
X107631234Y-121956810D01*
X107576041Y-122138756D01*
X107486419Y-122306427D01*
X107486417Y-122306430D01*
X107486416Y-122306431D01*
X107365801Y-122453402D01*
X107218830Y-122574017D01*
X107218826Y-122574020D01*
X107051154Y-122663642D01*
X106869208Y-122718835D01*
X106679999Y-122737470D01*
X106490789Y-122718835D01*
X106308843Y-122663642D01*
X106141172Y-122574020D01*
X106141168Y-122574017D01*
X105994197Y-122453402D01*
X105873582Y-122306431D01*
X105873581Y-122306430D01*
X105873579Y-122306427D01*
X105783957Y-122138755D01*
X105728764Y-121956809D01*
X105714799Y-121815017D01*
X105714799Y-119992983D01*
X105728765Y-119851190D01*
X105783958Y-119669244D01*
X105873580Y-119501573D01*
X105873583Y-119501569D01*
X105994198Y-119354598D01*
X106141169Y-119233983D01*
X106141170Y-119233982D01*
X106141173Y-119233980D01*
X106308844Y-119144358D01*
X106490790Y-119089165D01*
X106679999Y-119070530D01*
X106869209Y-119089165D01*
X106869209Y-119089165D01*
G37*
G36*
X109409209Y-119089165D02*
G01*
X109591155Y-119144358D01*
X109758826Y-119233980D01*
X109758829Y-119233982D01*
X109758830Y-119233983D01*
X109905801Y-119354598D01*
X110026416Y-119501569D01*
X110026419Y-119501573D01*
X110116041Y-119669244D01*
X110171234Y-119851190D01*
X110185199Y-119992982D01*
X110185199Y-121815018D01*
X110171234Y-121956810D01*
X110116041Y-122138756D01*
X110026419Y-122306427D01*
X110026417Y-122306430D01*
X110026416Y-122306431D01*
X109905801Y-122453402D01*
X109758830Y-122574017D01*
X109758826Y-122574020D01*
X109591154Y-122663642D01*
X109409208Y-122718835D01*
X109219999Y-122737470D01*
X109030789Y-122718835D01*
X108848843Y-122663642D01*
X108681172Y-122574020D01*
X108681168Y-122574017D01*
X108534197Y-122453402D01*
X108413582Y-122306431D01*
X108413581Y-122306430D01*
X108413579Y-122306427D01*
X108323957Y-122138755D01*
X108268764Y-121956809D01*
X108254799Y-121815017D01*
X108254799Y-119992983D01*
X108268765Y-119851190D01*
X108323958Y-119669244D01*
X108413580Y-119501573D01*
X108413583Y-119501569D01*
X108534198Y-119354598D01*
X108681169Y-119233983D01*
X108681170Y-119233982D01*
X108681173Y-119233980D01*
X108848844Y-119144358D01*
X109030790Y-119089165D01*
X109219999Y-119070530D01*
X109409209Y-119089165D01*
X109409209Y-119089165D01*
G37*
G36*
X111949209Y-119089165D02*
G01*
X112131155Y-119144358D01*
X112298826Y-119233980D01*
X112298829Y-119233982D01*
X112298830Y-119233983D01*
X112445801Y-119354598D01*
X112566416Y-119501569D01*
X112566419Y-119501573D01*
X112656041Y-119669244D01*
X112711234Y-119851190D01*
X112725199Y-119992982D01*
X112725199Y-121815018D01*
X112711234Y-121956810D01*
X112656041Y-122138756D01*
X112566419Y-122306427D01*
X112566417Y-122306430D01*
X112566416Y-122306431D01*
X112445801Y-122453402D01*
X112298830Y-122574017D01*
X112298826Y-122574020D01*
X112131154Y-122663642D01*
X111949208Y-122718835D01*
X111759999Y-122737470D01*
X111570789Y-122718835D01*
X111388843Y-122663642D01*
X111221172Y-122574020D01*
X111221168Y-122574017D01*
X111074197Y-122453402D01*
X110953582Y-122306431D01*
X110953581Y-122306430D01*
X110953579Y-122306427D01*
X110863957Y-122138755D01*
X110808764Y-121956809D01*
X110794799Y-121815017D01*
X110794799Y-119992983D01*
X110808765Y-119851190D01*
X110863958Y-119669244D01*
X110953580Y-119501573D01*
X110953583Y-119501569D01*
X111074198Y-119354598D01*
X111221169Y-119233983D01*
X111221170Y-119233982D01*
X111221173Y-119233980D01*
X111388844Y-119144358D01*
X111570790Y-119089165D01*
X111759999Y-119070530D01*
X111949209Y-119089165D01*
X111949209Y-119089165D01*
G37*
G36*
X114489209Y-119089165D02*
G01*
X114671155Y-119144358D01*
X114838826Y-119233980D01*
X114838829Y-119233982D01*
X114838830Y-119233983D01*
X114985801Y-119354598D01*
X115106416Y-119501569D01*
X115106419Y-119501573D01*
X115196041Y-119669244D01*
X115251234Y-119851190D01*
X115265199Y-119992982D01*
X115265199Y-121815018D01*
X115251234Y-121956810D01*
X115196041Y-122138756D01*
X115106419Y-122306427D01*
X115106417Y-122306430D01*
X115106416Y-122306431D01*
X114985801Y-122453402D01*
X114838830Y-122574017D01*
X114838826Y-122574020D01*
X114671154Y-122663642D01*
X114489208Y-122718835D01*
X114299999Y-122737470D01*
X114110789Y-122718835D01*
X113928843Y-122663642D01*
X113761172Y-122574020D01*
X113761168Y-122574017D01*
X113614197Y-122453402D01*
X113493582Y-122306431D01*
X113493581Y-122306430D01*
X113493579Y-122306427D01*
X113403957Y-122138755D01*
X113348764Y-121956809D01*
X113334799Y-121815017D01*
X113334799Y-119992983D01*
X113348765Y-119851190D01*
X113403958Y-119669244D01*
X113493580Y-119501573D01*
X113493583Y-119501569D01*
X113614198Y-119354598D01*
X113761169Y-119233983D01*
X113761170Y-119233982D01*
X113761173Y-119233980D01*
X113928844Y-119144358D01*
X114110790Y-119089165D01*
X114299999Y-119070530D01*
X114489209Y-119089165D01*
X114489209Y-119089165D01*
G37*
G36*
X199579208Y-119089165D02*
G01*
X199761154Y-119144358D01*
X199928826Y-119233980D01*
X199928829Y-119233982D01*
X199928830Y-119233983D01*
X200075801Y-119354598D01*
X200196416Y-119501569D01*
X200196419Y-119501573D01*
X200286041Y-119669244D01*
X200341234Y-119851190D01*
X200355199Y-119992982D01*
X200355199Y-121815018D01*
X200341234Y-121956810D01*
X200286041Y-122138756D01*
X200196419Y-122306427D01*
X200196417Y-122306430D01*
X200196416Y-122306431D01*
X200075801Y-122453402D01*
X199928830Y-122574017D01*
X199928826Y-122574020D01*
X199761155Y-122663642D01*
X199579209Y-122718835D01*
X199389999Y-122737470D01*
X199200790Y-122718835D01*
X199018844Y-122663642D01*
X198851173Y-122574020D01*
X198851169Y-122574017D01*
X198704198Y-122453402D01*
X198583583Y-122306431D01*
X198583582Y-122306430D01*
X198583580Y-122306427D01*
X198493958Y-122138756D01*
X198438765Y-121956810D01*
X198424799Y-121815017D01*
X198424799Y-119992983D01*
X198438764Y-119851191D01*
X198493957Y-119669245D01*
X198583579Y-119501573D01*
X198583582Y-119501569D01*
X198704197Y-119354598D01*
X198851168Y-119233983D01*
X198851169Y-119233982D01*
X198851172Y-119233980D01*
X199018843Y-119144358D01*
X199200789Y-119089165D01*
X199389999Y-119070530D01*
X199579208Y-119089165D01*
X199579208Y-119089165D01*
G37*
G36*
X197039208Y-119089165D02*
G01*
X197221154Y-119144358D01*
X197388826Y-119233980D01*
X197388829Y-119233982D01*
X197388830Y-119233983D01*
X197535801Y-119354598D01*
X197656416Y-119501569D01*
X197656419Y-119501573D01*
X197746041Y-119669244D01*
X197801234Y-119851190D01*
X197815199Y-119992982D01*
X197815199Y-121815018D01*
X197801234Y-121956810D01*
X197746041Y-122138756D01*
X197656419Y-122306427D01*
X197656417Y-122306430D01*
X197656416Y-122306431D01*
X197535801Y-122453402D01*
X197388830Y-122574017D01*
X197388826Y-122574020D01*
X197221155Y-122663642D01*
X197039209Y-122718835D01*
X196849999Y-122737470D01*
X196660790Y-122718835D01*
X196478844Y-122663642D01*
X196311173Y-122574020D01*
X196311169Y-122574017D01*
X196164198Y-122453402D01*
X196043583Y-122306431D01*
X196043582Y-122306430D01*
X196043580Y-122306427D01*
X195953958Y-122138756D01*
X195898765Y-121956810D01*
X195884799Y-121815017D01*
X195884799Y-119992983D01*
X195898764Y-119851191D01*
X195953957Y-119669245D01*
X196043579Y-119501573D01*
X196043582Y-119501569D01*
X196164197Y-119354598D01*
X196311168Y-119233983D01*
X196311169Y-119233982D01*
X196311172Y-119233980D01*
X196478843Y-119144358D01*
X196660789Y-119089165D01*
X196849999Y-119070530D01*
X197039208Y-119089165D01*
X197039208Y-119089165D01*
G37*
G36*
X194499208Y-119089165D02*
G01*
X194681154Y-119144358D01*
X194848826Y-119233980D01*
X194848829Y-119233982D01*
X194848830Y-119233983D01*
X194995801Y-119354598D01*
X195116416Y-119501569D01*
X195116419Y-119501573D01*
X195206041Y-119669244D01*
X195261234Y-119851190D01*
X195275199Y-119992982D01*
X195275199Y-121815018D01*
X195261234Y-121956810D01*
X195206041Y-122138756D01*
X195116419Y-122306427D01*
X195116417Y-122306430D01*
X195116416Y-122306431D01*
X194995801Y-122453402D01*
X194848830Y-122574017D01*
X194848826Y-122574020D01*
X194681155Y-122663642D01*
X194499209Y-122718835D01*
X194309999Y-122737470D01*
X194120790Y-122718835D01*
X193938844Y-122663642D01*
X193771173Y-122574020D01*
X193771169Y-122574017D01*
X193624198Y-122453402D01*
X193503583Y-122306431D01*
X193503582Y-122306430D01*
X193503580Y-122306427D01*
X193413958Y-122138756D01*
X193358765Y-121956810D01*
X193344799Y-121815017D01*
X193344799Y-119992983D01*
X193358764Y-119851191D01*
X193413957Y-119669245D01*
X193503579Y-119501573D01*
X193503582Y-119501569D01*
X193624197Y-119354598D01*
X193771168Y-119233983D01*
X193771169Y-119233982D01*
X193771172Y-119233980D01*
X193938843Y-119144358D01*
X194120789Y-119089165D01*
X194309999Y-119070530D01*
X194499208Y-119089165D01*
X194499208Y-119089165D01*
G37*
G36*
X191959208Y-119089165D02*
G01*
X192141154Y-119144358D01*
X192308826Y-119233980D01*
X192308829Y-119233982D01*
X192308830Y-119233983D01*
X192455801Y-119354598D01*
X192576416Y-119501569D01*
X192576419Y-119501573D01*
X192666041Y-119669244D01*
X192721234Y-119851190D01*
X192735199Y-119992982D01*
X192735199Y-121815018D01*
X192721234Y-121956810D01*
X192666041Y-122138756D01*
X192576419Y-122306427D01*
X192576417Y-122306430D01*
X192576416Y-122306431D01*
X192455801Y-122453402D01*
X192308830Y-122574017D01*
X192308826Y-122574020D01*
X192141155Y-122663642D01*
X191959209Y-122718835D01*
X191769999Y-122737470D01*
X191580790Y-122718835D01*
X191398844Y-122663642D01*
X191231173Y-122574020D01*
X191231169Y-122574017D01*
X191084198Y-122453402D01*
X190963583Y-122306431D01*
X190963582Y-122306430D01*
X190963580Y-122306427D01*
X190873958Y-122138756D01*
X190818765Y-121956810D01*
X190804799Y-121815017D01*
X190804799Y-119992983D01*
X190818764Y-119851191D01*
X190873957Y-119669245D01*
X190963579Y-119501573D01*
X190963582Y-119501569D01*
X191084197Y-119354598D01*
X191231168Y-119233983D01*
X191231169Y-119233982D01*
X191231172Y-119233980D01*
X191398843Y-119144358D01*
X191580789Y-119089165D01*
X191769999Y-119070530D01*
X191959208Y-119089165D01*
X191959208Y-119089165D01*
G37*
G36*
X189419208Y-119089165D02*
G01*
X189601154Y-119144358D01*
X189768826Y-119233980D01*
X189768829Y-119233982D01*
X189768830Y-119233983D01*
X189915801Y-119354598D01*
X190036416Y-119501569D01*
X190036419Y-119501573D01*
X190126041Y-119669244D01*
X190181234Y-119851190D01*
X190195199Y-119992982D01*
X190195199Y-121815018D01*
X190181234Y-121956810D01*
X190126041Y-122138756D01*
X190036419Y-122306427D01*
X190036417Y-122306430D01*
X190036416Y-122306431D01*
X189915801Y-122453402D01*
X189768830Y-122574017D01*
X189768826Y-122574020D01*
X189601155Y-122663642D01*
X189419209Y-122718835D01*
X189229999Y-122737470D01*
X189040790Y-122718835D01*
X188858844Y-122663642D01*
X188691173Y-122574020D01*
X188691169Y-122574017D01*
X188544198Y-122453402D01*
X188423583Y-122306431D01*
X188423582Y-122306430D01*
X188423580Y-122306427D01*
X188333958Y-122138756D01*
X188278765Y-121956810D01*
X188264799Y-121815017D01*
X188264799Y-119992983D01*
X188278764Y-119851191D01*
X188333957Y-119669245D01*
X188423579Y-119501573D01*
X188423582Y-119501569D01*
X188544197Y-119354598D01*
X188691168Y-119233983D01*
X188691169Y-119233982D01*
X188691172Y-119233980D01*
X188858843Y-119144358D01*
X189040789Y-119089165D01*
X189229999Y-119070530D01*
X189419208Y-119089165D01*
X189419208Y-119089165D01*
G37*
G36*
X184339208Y-119089165D02*
G01*
X184521154Y-119144358D01*
X184688826Y-119233980D01*
X184688829Y-119233982D01*
X184688830Y-119233983D01*
X184835801Y-119354598D01*
X184956416Y-119501569D01*
X184956419Y-119501573D01*
X185046041Y-119669244D01*
X185101234Y-119851190D01*
X185115199Y-119992982D01*
X185115199Y-121815018D01*
X185101234Y-121956810D01*
X185046041Y-122138756D01*
X184956419Y-122306427D01*
X184956417Y-122306430D01*
X184956416Y-122306431D01*
X184835801Y-122453402D01*
X184688830Y-122574017D01*
X184688826Y-122574020D01*
X184521155Y-122663642D01*
X184339209Y-122718835D01*
X184149999Y-122737470D01*
X183960790Y-122718835D01*
X183778844Y-122663642D01*
X183611173Y-122574020D01*
X183611169Y-122574017D01*
X183464198Y-122453402D01*
X183343583Y-122306431D01*
X183343582Y-122306430D01*
X183343580Y-122306427D01*
X183253958Y-122138756D01*
X183198765Y-121956810D01*
X183184799Y-121815017D01*
X183184799Y-119992983D01*
X183198764Y-119851191D01*
X183253957Y-119669245D01*
X183343579Y-119501573D01*
X183343582Y-119501569D01*
X183464197Y-119354598D01*
X183611168Y-119233983D01*
X183611169Y-119233982D01*
X183611172Y-119233980D01*
X183778843Y-119144358D01*
X183960789Y-119089165D01*
X184149999Y-119070530D01*
X184339208Y-119089165D01*
X184339208Y-119089165D01*
G37*
G36*
X186879208Y-119089165D02*
G01*
X187061154Y-119144358D01*
X187228826Y-119233980D01*
X187228829Y-119233982D01*
X187228830Y-119233983D01*
X187375801Y-119354598D01*
X187496416Y-119501569D01*
X187496419Y-119501573D01*
X187586041Y-119669244D01*
X187641234Y-119851190D01*
X187655199Y-119992982D01*
X187655199Y-121815018D01*
X187641234Y-121956810D01*
X187586041Y-122138756D01*
X187496419Y-122306427D01*
X187496417Y-122306430D01*
X187496416Y-122306431D01*
X187375801Y-122453402D01*
X187228830Y-122574017D01*
X187228826Y-122574020D01*
X187061155Y-122663642D01*
X186879209Y-122718835D01*
X186689999Y-122737470D01*
X186500790Y-122718835D01*
X186318844Y-122663642D01*
X186151173Y-122574020D01*
X186151169Y-122574017D01*
X186004198Y-122453402D01*
X185883583Y-122306431D01*
X185883582Y-122306430D01*
X185883580Y-122306427D01*
X185793958Y-122138756D01*
X185738765Y-121956810D01*
X185724799Y-121815017D01*
X185724799Y-119992983D01*
X185738764Y-119851191D01*
X185793957Y-119669245D01*
X185883579Y-119501573D01*
X185883582Y-119501569D01*
X186004197Y-119354598D01*
X186151168Y-119233983D01*
X186151169Y-119233982D01*
X186151172Y-119233980D01*
X186318843Y-119144358D01*
X186500789Y-119089165D01*
X186689999Y-119070530D01*
X186879208Y-119089165D01*
X186879208Y-119089165D01*
G37*
G36*
X179259208Y-119089165D02*
G01*
X179441154Y-119144358D01*
X179608826Y-119233980D01*
X179608829Y-119233982D01*
X179608830Y-119233983D01*
X179755801Y-119354598D01*
X179876416Y-119501569D01*
X179876419Y-119501573D01*
X179966041Y-119669244D01*
X180021234Y-119851190D01*
X180035199Y-119992982D01*
X180035199Y-121815018D01*
X180021234Y-121956810D01*
X179966041Y-122138756D01*
X179876419Y-122306427D01*
X179876417Y-122306430D01*
X179876416Y-122306431D01*
X179755801Y-122453402D01*
X179608830Y-122574017D01*
X179608826Y-122574020D01*
X179441155Y-122663642D01*
X179259209Y-122718835D01*
X179069999Y-122737470D01*
X178880790Y-122718835D01*
X178698844Y-122663642D01*
X178531173Y-122574020D01*
X178531169Y-122574017D01*
X178384198Y-122453402D01*
X178263583Y-122306431D01*
X178263582Y-122306430D01*
X178263580Y-122306427D01*
X178173958Y-122138756D01*
X178118765Y-121956810D01*
X178104799Y-121815017D01*
X178104799Y-119992983D01*
X178118764Y-119851191D01*
X178173957Y-119669245D01*
X178263579Y-119501573D01*
X178263582Y-119501569D01*
X178384197Y-119354598D01*
X178531168Y-119233983D01*
X178531169Y-119233982D01*
X178531172Y-119233980D01*
X178698843Y-119144358D01*
X178880789Y-119089165D01*
X179069999Y-119070530D01*
X179259208Y-119089165D01*
X179259208Y-119089165D01*
G37*
G36*
X124649209Y-119089165D02*
G01*
X124831155Y-119144358D01*
X124998826Y-119233980D01*
X124998829Y-119233982D01*
X124998830Y-119233983D01*
X125145801Y-119354598D01*
X125266416Y-119501569D01*
X125266419Y-119501573D01*
X125356041Y-119669244D01*
X125411234Y-119851190D01*
X125425199Y-119992982D01*
X125425199Y-121815018D01*
X125411234Y-121956810D01*
X125356041Y-122138756D01*
X125266419Y-122306427D01*
X125266417Y-122306430D01*
X125266416Y-122306431D01*
X125145801Y-122453402D01*
X124998830Y-122574017D01*
X124998826Y-122574020D01*
X124831154Y-122663642D01*
X124649208Y-122718835D01*
X124459999Y-122737470D01*
X124270789Y-122718835D01*
X124088843Y-122663642D01*
X123921172Y-122574020D01*
X123921168Y-122574017D01*
X123774197Y-122453402D01*
X123653582Y-122306431D01*
X123653581Y-122306430D01*
X123653579Y-122306427D01*
X123563957Y-122138755D01*
X123508764Y-121956809D01*
X123494799Y-121815017D01*
X123494799Y-119992983D01*
X123508765Y-119851190D01*
X123563958Y-119669244D01*
X123653580Y-119501573D01*
X123653583Y-119501569D01*
X123774198Y-119354598D01*
X123921169Y-119233983D01*
X123921170Y-119233982D01*
X123921173Y-119233980D01*
X124088844Y-119144358D01*
X124270790Y-119089165D01*
X124459999Y-119070530D01*
X124649209Y-119089165D01*
X124649209Y-119089165D01*
G37*
G36*
X122109209Y-119089165D02*
G01*
X122291155Y-119144358D01*
X122458826Y-119233980D01*
X122458829Y-119233982D01*
X122458830Y-119233983D01*
X122605801Y-119354598D01*
X122726416Y-119501569D01*
X122726419Y-119501573D01*
X122816041Y-119669244D01*
X122871234Y-119851190D01*
X122885199Y-119992982D01*
X122885199Y-121815018D01*
X122871234Y-121956810D01*
X122816041Y-122138756D01*
X122726419Y-122306427D01*
X122726417Y-122306430D01*
X122726416Y-122306431D01*
X122605801Y-122453402D01*
X122458830Y-122574017D01*
X122458826Y-122574020D01*
X122291154Y-122663642D01*
X122109208Y-122718835D01*
X121919999Y-122737470D01*
X121730789Y-122718835D01*
X121548843Y-122663642D01*
X121381172Y-122574020D01*
X121381168Y-122574017D01*
X121234197Y-122453402D01*
X121113582Y-122306431D01*
X121113581Y-122306430D01*
X121113579Y-122306427D01*
X121023957Y-122138755D01*
X120968764Y-121956809D01*
X120954799Y-121815017D01*
X120954799Y-119992983D01*
X120968765Y-119851190D01*
X121023958Y-119669244D01*
X121113580Y-119501573D01*
X121113583Y-119501569D01*
X121234198Y-119354598D01*
X121381169Y-119233983D01*
X121381170Y-119233982D01*
X121381173Y-119233980D01*
X121548844Y-119144358D01*
X121730790Y-119089165D01*
X121919999Y-119070530D01*
X122109209Y-119089165D01*
X122109209Y-119089165D01*
G37*
G36*
X119569209Y-119089165D02*
G01*
X119751155Y-119144358D01*
X119918826Y-119233980D01*
X119918829Y-119233982D01*
X119918830Y-119233983D01*
X120065801Y-119354598D01*
X120186416Y-119501569D01*
X120186419Y-119501573D01*
X120276041Y-119669244D01*
X120331234Y-119851190D01*
X120345199Y-119992982D01*
X120345199Y-121815018D01*
X120331234Y-121956810D01*
X120276041Y-122138756D01*
X120186419Y-122306427D01*
X120186417Y-122306430D01*
X120186416Y-122306431D01*
X120065801Y-122453402D01*
X119918830Y-122574017D01*
X119918826Y-122574020D01*
X119751154Y-122663642D01*
X119569208Y-122718835D01*
X119379999Y-122737470D01*
X119190789Y-122718835D01*
X119008843Y-122663642D01*
X118841172Y-122574020D01*
X118841168Y-122574017D01*
X118694197Y-122453402D01*
X118573582Y-122306431D01*
X118573581Y-122306430D01*
X118573579Y-122306427D01*
X118483957Y-122138755D01*
X118428764Y-121956809D01*
X118414799Y-121815017D01*
X118414799Y-119992983D01*
X118428765Y-119851190D01*
X118483958Y-119669244D01*
X118573580Y-119501573D01*
X118573583Y-119501569D01*
X118694198Y-119354598D01*
X118841169Y-119233983D01*
X118841170Y-119233982D01*
X118841173Y-119233980D01*
X119008844Y-119144358D01*
X119190790Y-119089165D01*
X119379999Y-119070530D01*
X119569209Y-119089165D01*
X119569209Y-119089165D01*
G37*
G36*
X117029209Y-119089165D02*
G01*
X117211155Y-119144358D01*
X117378826Y-119233980D01*
X117378829Y-119233982D01*
X117378830Y-119233983D01*
X117525801Y-119354598D01*
X117646416Y-119501569D01*
X117646419Y-119501573D01*
X117736041Y-119669244D01*
X117791234Y-119851190D01*
X117805199Y-119992982D01*
X117805199Y-121815018D01*
X117791234Y-121956810D01*
X117736041Y-122138756D01*
X117646419Y-122306427D01*
X117646417Y-122306430D01*
X117646416Y-122306431D01*
X117525801Y-122453402D01*
X117378830Y-122574017D01*
X117378826Y-122574020D01*
X117211154Y-122663642D01*
X117029208Y-122718835D01*
X116839999Y-122737470D01*
X116650789Y-122718835D01*
X116468843Y-122663642D01*
X116301172Y-122574020D01*
X116301168Y-122574017D01*
X116154197Y-122453402D01*
X116033582Y-122306431D01*
X116033581Y-122306430D01*
X116033579Y-122306427D01*
X115943957Y-122138755D01*
X115888764Y-121956809D01*
X115874799Y-121815017D01*
X115874799Y-119992983D01*
X115888765Y-119851190D01*
X115943958Y-119669244D01*
X116033580Y-119501573D01*
X116033583Y-119501569D01*
X116154198Y-119354598D01*
X116301169Y-119233983D01*
X116301170Y-119233982D01*
X116301173Y-119233980D01*
X116468844Y-119144358D01*
X116650790Y-119089165D01*
X116839999Y-119070530D01*
X117029209Y-119089165D01*
X117029209Y-119089165D01*
G37*
G36*
X176719208Y-119089165D02*
G01*
X176901154Y-119144358D01*
X177068826Y-119233980D01*
X177068829Y-119233982D01*
X177068830Y-119233983D01*
X177215801Y-119354598D01*
X177336416Y-119501569D01*
X177336419Y-119501573D01*
X177426041Y-119669244D01*
X177481234Y-119851190D01*
X177495199Y-119992982D01*
X177495199Y-121815018D01*
X177481234Y-121956810D01*
X177426041Y-122138756D01*
X177336419Y-122306427D01*
X177336417Y-122306430D01*
X177336416Y-122306431D01*
X177215801Y-122453402D01*
X177068830Y-122574017D01*
X177068826Y-122574020D01*
X176901155Y-122663642D01*
X176719209Y-122718835D01*
X176529999Y-122737470D01*
X176340790Y-122718835D01*
X176158844Y-122663642D01*
X175991173Y-122574020D01*
X175991169Y-122574017D01*
X175844198Y-122453402D01*
X175723583Y-122306431D01*
X175723582Y-122306430D01*
X175723580Y-122306427D01*
X175633958Y-122138756D01*
X175578765Y-121956810D01*
X175564799Y-121815017D01*
X175564799Y-119992983D01*
X175578764Y-119851191D01*
X175633957Y-119669245D01*
X175723579Y-119501573D01*
X175723582Y-119501569D01*
X175844197Y-119354598D01*
X175991168Y-119233983D01*
X175991169Y-119233982D01*
X175991172Y-119233980D01*
X176158843Y-119144358D01*
X176340789Y-119089165D01*
X176529999Y-119070530D01*
X176719208Y-119089165D01*
X176719208Y-119089165D01*
G37*
G36*
X104329209Y-119089165D02*
G01*
X104511155Y-119144358D01*
X104678826Y-119233980D01*
X104678829Y-119233982D01*
X104678830Y-119233983D01*
X104825801Y-119354598D01*
X104946416Y-119501569D01*
X104946419Y-119501573D01*
X105036041Y-119669244D01*
X105091234Y-119851190D01*
X105105199Y-119992982D01*
X105105199Y-121815018D01*
X105091234Y-121956810D01*
X105036041Y-122138756D01*
X104946419Y-122306427D01*
X104946417Y-122306430D01*
X104946416Y-122306431D01*
X104825801Y-122453402D01*
X104678830Y-122574017D01*
X104678826Y-122574020D01*
X104511154Y-122663642D01*
X104329208Y-122718835D01*
X104139999Y-122737470D01*
X103950789Y-122718835D01*
X103768843Y-122663642D01*
X103601172Y-122574020D01*
X103601168Y-122574017D01*
X103454197Y-122453402D01*
X103333582Y-122306431D01*
X103333581Y-122306430D01*
X103333579Y-122306427D01*
X103243957Y-122138755D01*
X103188764Y-121956809D01*
X103174799Y-121815017D01*
X103174799Y-119992983D01*
X103188765Y-119851190D01*
X103243958Y-119669244D01*
X103333580Y-119501573D01*
X103333583Y-119501569D01*
X103454198Y-119354598D01*
X103601169Y-119233983D01*
X103601170Y-119233982D01*
X103601173Y-119233980D01*
X103768844Y-119144358D01*
X103950790Y-119089165D01*
X104139999Y-119070530D01*
X104329209Y-119089165D01*
X104329209Y-119089165D01*
G37*
G36*
X181799208Y-119089165D02*
G01*
X181981154Y-119144358D01*
X182148826Y-119233980D01*
X182148829Y-119233982D01*
X182148830Y-119233983D01*
X182295801Y-119354598D01*
X182416416Y-119501569D01*
X182416419Y-119501573D01*
X182506041Y-119669244D01*
X182561234Y-119851190D01*
X182575199Y-119992982D01*
X182575199Y-121815018D01*
X182561234Y-121956810D01*
X182506041Y-122138756D01*
X182416419Y-122306427D01*
X182416417Y-122306430D01*
X182416416Y-122306431D01*
X182295801Y-122453402D01*
X182148830Y-122574017D01*
X182148826Y-122574020D01*
X181981155Y-122663642D01*
X181799209Y-122718835D01*
X181609999Y-122737470D01*
X181420790Y-122718835D01*
X181238844Y-122663642D01*
X181071173Y-122574020D01*
X181071169Y-122574017D01*
X180924198Y-122453402D01*
X180803583Y-122306431D01*
X180803582Y-122306430D01*
X180803580Y-122306427D01*
X180713958Y-122138756D01*
X180658765Y-121956810D01*
X180644799Y-121815017D01*
X180644799Y-119992983D01*
X180658764Y-119851191D01*
X180713957Y-119669245D01*
X180803579Y-119501573D01*
X180803582Y-119501569D01*
X180924197Y-119354598D01*
X181071168Y-119233983D01*
X181071169Y-119233982D01*
X181071172Y-119233980D01*
X181238843Y-119144358D01*
X181420789Y-119089165D01*
X181609999Y-119070530D01*
X181799208Y-119089165D01*
X181799208Y-119089165D01*
G37*
G36*
X180635277Y-116952396D02*
G01*
X180782067Y-117013199D01*
X180782068Y-117013200D01*
X180914178Y-117101473D01*
X181026527Y-117213822D01*
X181026528Y-117213824D01*
X181114801Y-117345933D01*
X181175604Y-117492723D01*
X181206600Y-117648555D01*
X181206600Y-117807445D01*
X181175604Y-117963277D01*
X181114801Y-118110067D01*
X181114800Y-118110068D01*
X181026527Y-118242178D01*
X180914178Y-118354527D01*
X180847673Y-118398964D01*
X180782067Y-118442801D01*
X180635277Y-118503604D01*
X180479445Y-118534600D01*
X180320555Y-118534600D01*
X180164723Y-118503604D01*
X180017933Y-118442801D01*
X179952327Y-118398964D01*
X179885822Y-118354527D01*
X179773473Y-118242178D01*
X179685200Y-118110068D01*
X179685199Y-118110067D01*
X179624396Y-117963277D01*
X179593400Y-117807445D01*
X179593400Y-117648555D01*
X179624396Y-117492723D01*
X179685199Y-117345933D01*
X179773472Y-117213824D01*
X179773473Y-117213822D01*
X179885822Y-117101473D01*
X180017932Y-117013200D01*
X180017933Y-117013199D01*
X180164723Y-116952396D01*
X180320555Y-116921400D01*
X180479445Y-116921400D01*
X180635277Y-116952396D01*
X180635277Y-116952396D01*
G37*
G36*
X183135277Y-116952396D02*
G01*
X183282067Y-117013199D01*
X183282068Y-117013200D01*
X183414178Y-117101473D01*
X183526527Y-117213822D01*
X183526528Y-117213824D01*
X183614801Y-117345933D01*
X183675604Y-117492723D01*
X183706600Y-117648555D01*
X183706600Y-117807445D01*
X183675604Y-117963277D01*
X183614801Y-118110067D01*
X183614800Y-118110068D01*
X183526527Y-118242178D01*
X183414178Y-118354527D01*
X183347673Y-118398964D01*
X183282067Y-118442801D01*
X183135277Y-118503604D01*
X182979445Y-118534600D01*
X182820555Y-118534600D01*
X182664723Y-118503604D01*
X182517933Y-118442801D01*
X182452327Y-118398964D01*
X182385822Y-118354527D01*
X182273473Y-118242178D01*
X182185200Y-118110068D01*
X182185199Y-118110067D01*
X182124396Y-117963277D01*
X182093400Y-117807445D01*
X182093400Y-117648555D01*
X182124396Y-117492723D01*
X182185199Y-117345933D01*
X182273472Y-117213824D01*
X182273473Y-117213822D01*
X182385822Y-117101473D01*
X182517932Y-117013200D01*
X182517933Y-117013199D01*
X182664723Y-116952396D01*
X182820555Y-116921400D01*
X182979445Y-116921400D01*
X183135277Y-116952396D01*
X183135277Y-116952396D01*
G37*
G36*
X193135277Y-116952396D02*
G01*
X193282067Y-117013199D01*
X193282068Y-117013200D01*
X193414178Y-117101473D01*
X193526527Y-117213822D01*
X193526528Y-117213824D01*
X193614801Y-117345933D01*
X193675604Y-117492723D01*
X193706600Y-117648555D01*
X193706600Y-117807445D01*
X193675604Y-117963277D01*
X193614801Y-118110067D01*
X193614800Y-118110068D01*
X193526527Y-118242178D01*
X193414178Y-118354527D01*
X193347673Y-118398964D01*
X193282067Y-118442801D01*
X193135277Y-118503604D01*
X192979445Y-118534600D01*
X192820555Y-118534600D01*
X192664723Y-118503604D01*
X192517933Y-118442801D01*
X192452327Y-118398964D01*
X192385822Y-118354527D01*
X192273473Y-118242178D01*
X192185200Y-118110068D01*
X192185199Y-118110067D01*
X192124396Y-117963277D01*
X192093400Y-117807445D01*
X192093400Y-117648555D01*
X192124396Y-117492723D01*
X192185199Y-117345933D01*
X192273472Y-117213824D01*
X192273473Y-117213822D01*
X192385822Y-117101473D01*
X192517932Y-117013200D01*
X192517933Y-117013199D01*
X192664723Y-116952396D01*
X192820555Y-116921400D01*
X192979445Y-116921400D01*
X193135277Y-116952396D01*
X193135277Y-116952396D01*
G37*
G36*
X188135277Y-116952396D02*
G01*
X188282067Y-117013199D01*
X188282068Y-117013200D01*
X188414178Y-117101473D01*
X188526527Y-117213822D01*
X188526528Y-117213824D01*
X188614801Y-117345933D01*
X188675604Y-117492723D01*
X188706600Y-117648555D01*
X188706600Y-117807445D01*
X188675604Y-117963277D01*
X188614801Y-118110067D01*
X188614800Y-118110068D01*
X188526527Y-118242178D01*
X188414178Y-118354527D01*
X188347673Y-118398964D01*
X188282067Y-118442801D01*
X188135277Y-118503604D01*
X187979445Y-118534600D01*
X187820555Y-118534600D01*
X187664723Y-118503604D01*
X187517933Y-118442801D01*
X187452327Y-118398964D01*
X187385822Y-118354527D01*
X187273473Y-118242178D01*
X187185200Y-118110068D01*
X187185199Y-118110067D01*
X187124396Y-117963277D01*
X187093400Y-117807445D01*
X187093400Y-117648555D01*
X187124396Y-117492723D01*
X187185199Y-117345933D01*
X187273472Y-117213824D01*
X187273473Y-117213822D01*
X187385822Y-117101473D01*
X187517932Y-117013200D01*
X187517933Y-117013199D01*
X187664723Y-116952396D01*
X187820555Y-116921400D01*
X187979445Y-116921400D01*
X188135277Y-116952396D01*
X188135277Y-116952396D01*
G37*
G36*
X185635277Y-116952396D02*
G01*
X185782067Y-117013199D01*
X185782068Y-117013200D01*
X185914178Y-117101473D01*
X186026527Y-117213822D01*
X186026528Y-117213824D01*
X186114801Y-117345933D01*
X186175604Y-117492723D01*
X186206600Y-117648555D01*
X186206600Y-117807445D01*
X186175604Y-117963277D01*
X186114801Y-118110067D01*
X186114800Y-118110068D01*
X186026527Y-118242178D01*
X185914178Y-118354527D01*
X185847673Y-118398964D01*
X185782067Y-118442801D01*
X185635277Y-118503604D01*
X185479445Y-118534600D01*
X185320555Y-118534600D01*
X185164723Y-118503604D01*
X185017933Y-118442801D01*
X184952327Y-118398964D01*
X184885822Y-118354527D01*
X184773473Y-118242178D01*
X184685200Y-118110068D01*
X184685199Y-118110067D01*
X184624396Y-117963277D01*
X184593400Y-117807445D01*
X184593400Y-117648555D01*
X184624396Y-117492723D01*
X184685199Y-117345933D01*
X184773472Y-117213824D01*
X184773473Y-117213822D01*
X184885822Y-117101473D01*
X185017932Y-117013200D01*
X185017933Y-117013199D01*
X185164723Y-116952396D01*
X185320555Y-116921400D01*
X185479445Y-116921400D01*
X185635277Y-116952396D01*
X185635277Y-116952396D01*
G37*
G36*
X190635277Y-116952396D02*
G01*
X190782067Y-117013199D01*
X190782068Y-117013200D01*
X190914178Y-117101473D01*
X191026527Y-117213822D01*
X191026528Y-117213824D01*
X191114801Y-117345933D01*
X191175604Y-117492723D01*
X191206600Y-117648555D01*
X191206600Y-117807445D01*
X191175604Y-117963277D01*
X191114801Y-118110067D01*
X191114800Y-118110068D01*
X191026527Y-118242178D01*
X190914178Y-118354527D01*
X190847673Y-118398964D01*
X190782067Y-118442801D01*
X190635277Y-118503604D01*
X190479445Y-118534600D01*
X190320555Y-118534600D01*
X190164723Y-118503604D01*
X190017933Y-118442801D01*
X189952327Y-118398964D01*
X189885822Y-118354527D01*
X189773473Y-118242178D01*
X189685200Y-118110068D01*
X189685199Y-118110067D01*
X189624396Y-117963277D01*
X189593400Y-117807445D01*
X189593400Y-117648555D01*
X189624396Y-117492723D01*
X189685199Y-117345933D01*
X189773472Y-117213824D01*
X189773473Y-117213822D01*
X189885822Y-117101473D01*
X190017932Y-117013200D01*
X190017933Y-117013199D01*
X190164723Y-116952396D01*
X190320555Y-116921400D01*
X190479445Y-116921400D01*
X190635277Y-116952396D01*
X190635277Y-116952396D01*
G37*
G36*
X120658277Y-116952396D02*
G01*
X120805067Y-117013199D01*
X120805068Y-117013200D01*
X120937178Y-117101473D01*
X121049527Y-117213822D01*
X121049528Y-117213824D01*
X121137801Y-117345933D01*
X121198604Y-117492723D01*
X121229600Y-117648555D01*
X121229600Y-117807445D01*
X121198604Y-117963277D01*
X121137801Y-118110067D01*
X121137800Y-118110068D01*
X121049527Y-118242178D01*
X120937178Y-118354527D01*
X120870673Y-118398964D01*
X120805067Y-118442801D01*
X120658277Y-118503604D01*
X120502445Y-118534600D01*
X120343555Y-118534600D01*
X120187723Y-118503604D01*
X120040933Y-118442801D01*
X119975327Y-118398964D01*
X119908822Y-118354527D01*
X119796473Y-118242178D01*
X119708200Y-118110068D01*
X119708199Y-118110067D01*
X119647396Y-117963277D01*
X119616400Y-117807445D01*
X119616400Y-117648555D01*
X119647396Y-117492723D01*
X119708199Y-117345933D01*
X119796472Y-117213824D01*
X119796473Y-117213822D01*
X119908822Y-117101473D01*
X120040932Y-117013200D01*
X120040933Y-117013199D01*
X120187723Y-116952396D01*
X120343555Y-116921400D01*
X120502445Y-116921400D01*
X120658277Y-116952396D01*
X120658277Y-116952396D01*
G37*
G36*
X115658277Y-116952396D02*
G01*
X115805067Y-117013199D01*
X115805068Y-117013200D01*
X115937178Y-117101473D01*
X116049527Y-117213822D01*
X116049528Y-117213824D01*
X116137801Y-117345933D01*
X116198604Y-117492723D01*
X116229600Y-117648555D01*
X116229600Y-117807445D01*
X116198604Y-117963277D01*
X116137801Y-118110067D01*
X116137800Y-118110068D01*
X116049527Y-118242178D01*
X115937178Y-118354527D01*
X115870673Y-118398964D01*
X115805067Y-118442801D01*
X115658277Y-118503604D01*
X115502445Y-118534600D01*
X115343555Y-118534600D01*
X115187723Y-118503604D01*
X115040933Y-118442801D01*
X114975327Y-118398964D01*
X114908822Y-118354527D01*
X114796473Y-118242178D01*
X114708200Y-118110068D01*
X114708199Y-118110067D01*
X114647396Y-117963277D01*
X114616400Y-117807445D01*
X114616400Y-117648555D01*
X114647396Y-117492723D01*
X114708199Y-117345933D01*
X114796472Y-117213824D01*
X114796473Y-117213822D01*
X114908822Y-117101473D01*
X115040932Y-117013200D01*
X115040933Y-117013199D01*
X115187723Y-116952396D01*
X115343555Y-116921400D01*
X115502445Y-116921400D01*
X115658277Y-116952396D01*
X115658277Y-116952396D01*
G37*
G36*
X113158277Y-116952396D02*
G01*
X113305067Y-117013199D01*
X113305068Y-117013200D01*
X113437178Y-117101473D01*
X113549527Y-117213822D01*
X113549528Y-117213824D01*
X113637801Y-117345933D01*
X113698604Y-117492723D01*
X113729600Y-117648555D01*
X113729600Y-117807445D01*
X113698604Y-117963277D01*
X113637801Y-118110067D01*
X113637800Y-118110068D01*
X113549527Y-118242178D01*
X113437178Y-118354527D01*
X113370673Y-118398964D01*
X113305067Y-118442801D01*
X113158277Y-118503604D01*
X113002445Y-118534600D01*
X112843555Y-118534600D01*
X112687723Y-118503604D01*
X112540933Y-118442801D01*
X112475327Y-118398964D01*
X112408822Y-118354527D01*
X112296473Y-118242178D01*
X112208200Y-118110068D01*
X112208199Y-118110067D01*
X112147396Y-117963277D01*
X112116400Y-117807445D01*
X112116400Y-117648555D01*
X112147396Y-117492723D01*
X112208199Y-117345933D01*
X112296472Y-117213824D01*
X112296473Y-117213822D01*
X112408822Y-117101473D01*
X112540932Y-117013200D01*
X112540933Y-117013199D01*
X112687723Y-116952396D01*
X112843555Y-116921400D01*
X113002445Y-116921400D01*
X113158277Y-116952396D01*
X113158277Y-116952396D01*
G37*
G36*
X110658277Y-116952396D02*
G01*
X110805067Y-117013199D01*
X110805068Y-117013200D01*
X110937178Y-117101473D01*
X111049527Y-117213822D01*
X111049528Y-117213824D01*
X111137801Y-117345933D01*
X111198604Y-117492723D01*
X111229600Y-117648555D01*
X111229600Y-117807445D01*
X111198604Y-117963277D01*
X111137801Y-118110067D01*
X111137800Y-118110068D01*
X111049527Y-118242178D01*
X110937178Y-118354527D01*
X110870673Y-118398964D01*
X110805067Y-118442801D01*
X110658277Y-118503604D01*
X110502445Y-118534600D01*
X110343555Y-118534600D01*
X110187723Y-118503604D01*
X110040933Y-118442801D01*
X109975327Y-118398964D01*
X109908822Y-118354527D01*
X109796473Y-118242178D01*
X109708200Y-118110068D01*
X109708199Y-118110067D01*
X109647396Y-117963277D01*
X109616400Y-117807445D01*
X109616400Y-117648555D01*
X109647396Y-117492723D01*
X109708199Y-117345933D01*
X109796472Y-117213824D01*
X109796473Y-117213822D01*
X109908822Y-117101473D01*
X110040932Y-117013200D01*
X110040933Y-117013199D01*
X110187723Y-116952396D01*
X110343555Y-116921400D01*
X110502445Y-116921400D01*
X110658277Y-116952396D01*
X110658277Y-116952396D01*
G37*
G36*
X108158277Y-116952396D02*
G01*
X108305067Y-117013199D01*
X108305068Y-117013200D01*
X108437178Y-117101473D01*
X108549527Y-117213822D01*
X108549528Y-117213824D01*
X108637801Y-117345933D01*
X108698604Y-117492723D01*
X108729600Y-117648555D01*
X108729600Y-117807445D01*
X108698604Y-117963277D01*
X108637801Y-118110067D01*
X108637800Y-118110068D01*
X108549527Y-118242178D01*
X108437178Y-118354527D01*
X108370673Y-118398964D01*
X108305067Y-118442801D01*
X108158277Y-118503604D01*
X108002445Y-118534600D01*
X107843555Y-118534600D01*
X107687723Y-118503604D01*
X107540933Y-118442801D01*
X107475327Y-118398964D01*
X107408822Y-118354527D01*
X107296473Y-118242178D01*
X107208200Y-118110068D01*
X107208199Y-118110067D01*
X107147396Y-117963277D01*
X107116400Y-117807445D01*
X107116400Y-117648555D01*
X107147396Y-117492723D01*
X107208199Y-117345933D01*
X107296472Y-117213824D01*
X107296473Y-117213822D01*
X107408822Y-117101473D01*
X107540932Y-117013200D01*
X107540933Y-117013199D01*
X107687723Y-116952396D01*
X107843555Y-116921400D01*
X108002445Y-116921400D01*
X108158277Y-116952396D01*
X108158277Y-116952396D01*
G37*
G36*
X105658277Y-116952396D02*
G01*
X105805067Y-117013199D01*
X105805068Y-117013200D01*
X105937178Y-117101473D01*
X106049527Y-117213822D01*
X106049528Y-117213824D01*
X106137801Y-117345933D01*
X106198604Y-117492723D01*
X106229600Y-117648555D01*
X106229600Y-117807445D01*
X106198604Y-117963277D01*
X106137801Y-118110067D01*
X106137800Y-118110068D01*
X106049527Y-118242178D01*
X105937178Y-118354527D01*
X105870673Y-118398964D01*
X105805067Y-118442801D01*
X105658277Y-118503604D01*
X105502445Y-118534600D01*
X105343555Y-118534600D01*
X105187723Y-118503604D01*
X105040933Y-118442801D01*
X104975327Y-118398964D01*
X104908822Y-118354527D01*
X104796473Y-118242178D01*
X104708200Y-118110068D01*
X104708199Y-118110067D01*
X104647396Y-117963277D01*
X104616400Y-117807445D01*
X104616400Y-117648555D01*
X104647396Y-117492723D01*
X104708199Y-117345933D01*
X104796472Y-117213824D01*
X104796473Y-117213822D01*
X104908822Y-117101473D01*
X105040932Y-117013200D01*
X105040933Y-117013199D01*
X105187723Y-116952396D01*
X105343555Y-116921400D01*
X105502445Y-116921400D01*
X105658277Y-116952396D01*
X105658277Y-116952396D01*
G37*
G36*
X195635277Y-116952396D02*
G01*
X195782067Y-117013199D01*
X195782068Y-117013200D01*
X195914178Y-117101473D01*
X196026527Y-117213822D01*
X196026528Y-117213824D01*
X196114801Y-117345933D01*
X196175604Y-117492723D01*
X196206600Y-117648555D01*
X196206600Y-117807445D01*
X196175604Y-117963277D01*
X196114801Y-118110067D01*
X196114800Y-118110068D01*
X196026527Y-118242178D01*
X195914178Y-118354527D01*
X195847673Y-118398964D01*
X195782067Y-118442801D01*
X195635277Y-118503604D01*
X195479445Y-118534600D01*
X195320555Y-118534600D01*
X195164723Y-118503604D01*
X195017933Y-118442801D01*
X194952327Y-118398964D01*
X194885822Y-118354527D01*
X194773473Y-118242178D01*
X194685200Y-118110068D01*
X194685199Y-118110067D01*
X194624396Y-117963277D01*
X194593400Y-117807445D01*
X194593400Y-117648555D01*
X194624396Y-117492723D01*
X194685199Y-117345933D01*
X194773472Y-117213824D01*
X194773473Y-117213822D01*
X194885822Y-117101473D01*
X195017932Y-117013200D01*
X195017933Y-117013199D01*
X195164723Y-116952396D01*
X195320555Y-116921400D01*
X195479445Y-116921400D01*
X195635277Y-116952396D01*
X195635277Y-116952396D01*
G37*
G36*
X118158277Y-116952396D02*
G01*
X118305067Y-117013199D01*
X118305068Y-117013200D01*
X118437178Y-117101473D01*
X118549527Y-117213822D01*
X118549528Y-117213824D01*
X118637801Y-117345933D01*
X118698604Y-117492723D01*
X118729600Y-117648555D01*
X118729600Y-117807445D01*
X118698604Y-117963277D01*
X118637801Y-118110067D01*
X118637800Y-118110068D01*
X118549527Y-118242178D01*
X118437178Y-118354527D01*
X118370673Y-118398964D01*
X118305067Y-118442801D01*
X118158277Y-118503604D01*
X118002445Y-118534600D01*
X117843555Y-118534600D01*
X117687723Y-118503604D01*
X117540933Y-118442801D01*
X117475327Y-118398964D01*
X117408822Y-118354527D01*
X117296473Y-118242178D01*
X117208200Y-118110068D01*
X117208199Y-118110067D01*
X117147396Y-117963277D01*
X117116400Y-117807445D01*
X117116400Y-117648555D01*
X117147396Y-117492723D01*
X117208199Y-117345933D01*
X117296472Y-117213824D01*
X117296473Y-117213822D01*
X117408822Y-117101473D01*
X117540932Y-117013200D01*
X117540933Y-117013199D01*
X117687723Y-116952396D01*
X117843555Y-116921400D01*
X118002445Y-116921400D01*
X118158277Y-116952396D01*
X118158277Y-116952396D01*
G37*
G36*
X111908277Y-115302396D02*
G01*
X112055067Y-115363199D01*
X112055068Y-115363200D01*
X112187178Y-115451473D01*
X112299527Y-115563822D01*
X112299528Y-115563824D01*
X112387801Y-115695933D01*
X112448604Y-115842723D01*
X112479600Y-115998555D01*
X112479600Y-116157445D01*
X112448604Y-116313277D01*
X112387801Y-116460067D01*
X112387800Y-116460068D01*
X112299527Y-116592178D01*
X112187178Y-116704527D01*
X112120673Y-116748964D01*
X112055067Y-116792801D01*
X111908277Y-116853604D01*
X111752445Y-116884600D01*
X111593555Y-116884600D01*
X111437723Y-116853604D01*
X111290933Y-116792801D01*
X111225327Y-116748964D01*
X111158822Y-116704527D01*
X111046473Y-116592178D01*
X110958200Y-116460068D01*
X110958199Y-116460067D01*
X110897396Y-116313277D01*
X110866400Y-116157445D01*
X110866400Y-115998555D01*
X110897396Y-115842723D01*
X110958199Y-115695933D01*
X111046472Y-115563824D01*
X111046473Y-115563822D01*
X111158822Y-115451473D01*
X111290932Y-115363200D01*
X111290933Y-115363199D01*
X111437723Y-115302396D01*
X111593555Y-115271400D01*
X111752445Y-115271400D01*
X111908277Y-115302396D01*
X111908277Y-115302396D01*
G37*
G36*
X181885277Y-115302396D02*
G01*
X182032067Y-115363199D01*
X182032068Y-115363200D01*
X182164178Y-115451473D01*
X182276527Y-115563822D01*
X182276528Y-115563824D01*
X182364801Y-115695933D01*
X182425604Y-115842723D01*
X182456600Y-115998555D01*
X182456600Y-116157445D01*
X182425604Y-116313277D01*
X182364801Y-116460067D01*
X182364800Y-116460068D01*
X182276527Y-116592178D01*
X182164178Y-116704527D01*
X182097673Y-116748964D01*
X182032067Y-116792801D01*
X181885277Y-116853604D01*
X181729445Y-116884600D01*
X181570555Y-116884600D01*
X181414723Y-116853604D01*
X181267933Y-116792801D01*
X181202327Y-116748964D01*
X181135822Y-116704527D01*
X181023473Y-116592178D01*
X180935200Y-116460068D01*
X180935199Y-116460067D01*
X180874396Y-116313277D01*
X180843400Y-116157445D01*
X180843400Y-115998555D01*
X180874396Y-115842723D01*
X180935199Y-115695933D01*
X181023472Y-115563824D01*
X181023473Y-115563822D01*
X181135822Y-115451473D01*
X181267932Y-115363200D01*
X181267933Y-115363199D01*
X181414723Y-115302396D01*
X181570555Y-115271400D01*
X181729445Y-115271400D01*
X181885277Y-115302396D01*
X181885277Y-115302396D01*
G37*
G36*
X184385277Y-115302396D02*
G01*
X184532067Y-115363199D01*
X184532068Y-115363200D01*
X184664178Y-115451473D01*
X184776527Y-115563822D01*
X184776528Y-115563824D01*
X184864801Y-115695933D01*
X184925604Y-115842723D01*
X184956600Y-115998555D01*
X184956600Y-116157445D01*
X184925604Y-116313277D01*
X184864801Y-116460067D01*
X184864800Y-116460068D01*
X184776527Y-116592178D01*
X184664178Y-116704527D01*
X184597673Y-116748964D01*
X184532067Y-116792801D01*
X184385277Y-116853604D01*
X184229445Y-116884600D01*
X184070555Y-116884600D01*
X183914723Y-116853604D01*
X183767933Y-116792801D01*
X183702327Y-116748964D01*
X183635822Y-116704527D01*
X183523473Y-116592178D01*
X183435200Y-116460068D01*
X183435199Y-116460067D01*
X183374396Y-116313277D01*
X183343400Y-116157445D01*
X183343400Y-115998555D01*
X183374396Y-115842723D01*
X183435199Y-115695933D01*
X183523472Y-115563824D01*
X183523473Y-115563822D01*
X183635822Y-115451473D01*
X183767932Y-115363200D01*
X183767933Y-115363199D01*
X183914723Y-115302396D01*
X184070555Y-115271400D01*
X184229445Y-115271400D01*
X184385277Y-115302396D01*
X184385277Y-115302396D01*
G37*
G36*
X191885277Y-115302396D02*
G01*
X192032067Y-115363199D01*
X192032068Y-115363200D01*
X192164178Y-115451473D01*
X192276527Y-115563822D01*
X192276528Y-115563824D01*
X192364801Y-115695933D01*
X192425604Y-115842723D01*
X192456600Y-115998555D01*
X192456600Y-116157445D01*
X192425604Y-116313277D01*
X192364801Y-116460067D01*
X192364800Y-116460068D01*
X192276527Y-116592178D01*
X192164178Y-116704527D01*
X192097673Y-116748964D01*
X192032067Y-116792801D01*
X191885277Y-116853604D01*
X191729445Y-116884600D01*
X191570555Y-116884600D01*
X191414723Y-116853604D01*
X191267933Y-116792801D01*
X191202327Y-116748964D01*
X191135822Y-116704527D01*
X191023473Y-116592178D01*
X190935200Y-116460068D01*
X190935199Y-116460067D01*
X190874396Y-116313277D01*
X190843400Y-116157445D01*
X190843400Y-115998555D01*
X190874396Y-115842723D01*
X190935199Y-115695933D01*
X191023472Y-115563824D01*
X191023473Y-115563822D01*
X191135822Y-115451473D01*
X191267932Y-115363200D01*
X191267933Y-115363199D01*
X191414723Y-115302396D01*
X191570555Y-115271400D01*
X191729445Y-115271400D01*
X191885277Y-115302396D01*
X191885277Y-115302396D01*
G37*
G36*
X194385277Y-115302396D02*
G01*
X194532067Y-115363199D01*
X194532068Y-115363200D01*
X194664178Y-115451473D01*
X194776527Y-115563822D01*
X194776528Y-115563824D01*
X194864801Y-115695933D01*
X194925604Y-115842723D01*
X194956600Y-115998555D01*
X194956600Y-116157445D01*
X194925604Y-116313277D01*
X194864801Y-116460067D01*
X194864800Y-116460068D01*
X194776527Y-116592178D01*
X194664178Y-116704527D01*
X194597673Y-116748964D01*
X194532067Y-116792801D01*
X194385277Y-116853604D01*
X194229445Y-116884600D01*
X194070555Y-116884600D01*
X193914723Y-116853604D01*
X193767933Y-116792801D01*
X193702327Y-116748964D01*
X193635822Y-116704527D01*
X193523473Y-116592178D01*
X193435200Y-116460068D01*
X193435199Y-116460067D01*
X193374396Y-116313277D01*
X193343400Y-116157445D01*
X193343400Y-115998555D01*
X193374396Y-115842723D01*
X193435199Y-115695933D01*
X193523472Y-115563824D01*
X193523473Y-115563822D01*
X193635822Y-115451473D01*
X193767932Y-115363200D01*
X193767933Y-115363199D01*
X193914723Y-115302396D01*
X194070555Y-115271400D01*
X194229445Y-115271400D01*
X194385277Y-115302396D01*
X194385277Y-115302396D01*
G37*
G36*
X119408277Y-115302396D02*
G01*
X119555067Y-115363199D01*
X119555068Y-115363200D01*
X119687178Y-115451473D01*
X119799527Y-115563822D01*
X119799528Y-115563824D01*
X119887801Y-115695933D01*
X119948604Y-115842723D01*
X119979600Y-115998555D01*
X119979600Y-116157445D01*
X119948604Y-116313277D01*
X119887801Y-116460067D01*
X119887800Y-116460068D01*
X119799527Y-116592178D01*
X119687178Y-116704527D01*
X119620673Y-116748964D01*
X119555067Y-116792801D01*
X119408277Y-116853604D01*
X119252445Y-116884600D01*
X119093555Y-116884600D01*
X118937723Y-116853604D01*
X118790933Y-116792801D01*
X118725327Y-116748964D01*
X118658822Y-116704527D01*
X118546473Y-116592178D01*
X118458200Y-116460068D01*
X118458199Y-116460067D01*
X118397396Y-116313277D01*
X118366400Y-116157445D01*
X118366400Y-115998555D01*
X118397396Y-115842723D01*
X118458199Y-115695933D01*
X118546472Y-115563824D01*
X118546473Y-115563822D01*
X118658822Y-115451473D01*
X118790932Y-115363200D01*
X118790933Y-115363199D01*
X118937723Y-115302396D01*
X119093555Y-115271400D01*
X119252445Y-115271400D01*
X119408277Y-115302396D01*
X119408277Y-115302396D01*
G37*
G36*
X116908277Y-115302396D02*
G01*
X117055067Y-115363199D01*
X117055068Y-115363200D01*
X117187178Y-115451473D01*
X117299527Y-115563822D01*
X117299528Y-115563824D01*
X117387801Y-115695933D01*
X117448604Y-115842723D01*
X117479600Y-115998555D01*
X117479600Y-116157445D01*
X117448604Y-116313277D01*
X117387801Y-116460067D01*
X117387800Y-116460068D01*
X117299527Y-116592178D01*
X117187178Y-116704527D01*
X117120673Y-116748964D01*
X117055067Y-116792801D01*
X116908277Y-116853604D01*
X116752445Y-116884600D01*
X116593555Y-116884600D01*
X116437723Y-116853604D01*
X116290933Y-116792801D01*
X116225327Y-116748964D01*
X116158822Y-116704527D01*
X116046473Y-116592178D01*
X115958200Y-116460068D01*
X115958199Y-116460067D01*
X115897396Y-116313277D01*
X115866400Y-116157445D01*
X115866400Y-115998555D01*
X115897396Y-115842723D01*
X115958199Y-115695933D01*
X116046472Y-115563824D01*
X116046473Y-115563822D01*
X116158822Y-115451473D01*
X116290932Y-115363200D01*
X116290933Y-115363199D01*
X116437723Y-115302396D01*
X116593555Y-115271400D01*
X116752445Y-115271400D01*
X116908277Y-115302396D01*
X116908277Y-115302396D01*
G37*
G36*
X114408277Y-115302396D02*
G01*
X114555067Y-115363199D01*
X114555068Y-115363200D01*
X114687178Y-115451473D01*
X114799527Y-115563822D01*
X114799528Y-115563824D01*
X114887801Y-115695933D01*
X114948604Y-115842723D01*
X114979600Y-115998555D01*
X114979600Y-116157445D01*
X114948604Y-116313277D01*
X114887801Y-116460067D01*
X114887800Y-116460068D01*
X114799527Y-116592178D01*
X114687178Y-116704527D01*
X114620673Y-116748964D01*
X114555067Y-116792801D01*
X114408277Y-116853604D01*
X114252445Y-116884600D01*
X114093555Y-116884600D01*
X113937723Y-116853604D01*
X113790933Y-116792801D01*
X113725327Y-116748964D01*
X113658822Y-116704527D01*
X113546473Y-116592178D01*
X113458200Y-116460068D01*
X113458199Y-116460067D01*
X113397396Y-116313277D01*
X113366400Y-116157445D01*
X113366400Y-115998555D01*
X113397396Y-115842723D01*
X113458199Y-115695933D01*
X113546472Y-115563824D01*
X113546473Y-115563822D01*
X113658822Y-115451473D01*
X113790932Y-115363200D01*
X113790933Y-115363199D01*
X113937723Y-115302396D01*
X114093555Y-115271400D01*
X114252445Y-115271400D01*
X114408277Y-115302396D01*
X114408277Y-115302396D01*
G37*
G36*
X109408277Y-115302396D02*
G01*
X109555067Y-115363199D01*
X109555068Y-115363200D01*
X109687178Y-115451473D01*
X109799527Y-115563822D01*
X109799528Y-115563824D01*
X109887801Y-115695933D01*
X109948604Y-115842723D01*
X109979600Y-115998555D01*
X109979600Y-116157445D01*
X109948604Y-116313277D01*
X109887801Y-116460067D01*
X109887800Y-116460068D01*
X109799527Y-116592178D01*
X109687178Y-116704527D01*
X109620673Y-116748964D01*
X109555067Y-116792801D01*
X109408277Y-116853604D01*
X109252445Y-116884600D01*
X109093555Y-116884600D01*
X108937723Y-116853604D01*
X108790933Y-116792801D01*
X108725327Y-116748964D01*
X108658822Y-116704527D01*
X108546473Y-116592178D01*
X108458200Y-116460068D01*
X108458199Y-116460067D01*
X108397396Y-116313277D01*
X108366400Y-116157445D01*
X108366400Y-115998555D01*
X108397396Y-115842723D01*
X108458199Y-115695933D01*
X108546472Y-115563824D01*
X108546473Y-115563822D01*
X108658822Y-115451473D01*
X108790932Y-115363200D01*
X108790933Y-115363199D01*
X108937723Y-115302396D01*
X109093555Y-115271400D01*
X109252445Y-115271400D01*
X109408277Y-115302396D01*
X109408277Y-115302396D01*
G37*
G36*
X106908277Y-115302396D02*
G01*
X107055067Y-115363199D01*
X107055068Y-115363200D01*
X107187178Y-115451473D01*
X107299527Y-115563822D01*
X107299528Y-115563824D01*
X107387801Y-115695933D01*
X107448604Y-115842723D01*
X107479600Y-115998555D01*
X107479600Y-116157445D01*
X107448604Y-116313277D01*
X107387801Y-116460067D01*
X107387800Y-116460068D01*
X107299527Y-116592178D01*
X107187178Y-116704527D01*
X107120673Y-116748964D01*
X107055067Y-116792801D01*
X106908277Y-116853604D01*
X106752445Y-116884600D01*
X106593555Y-116884600D01*
X106437723Y-116853604D01*
X106290933Y-116792801D01*
X106225327Y-116748964D01*
X106158822Y-116704527D01*
X106046473Y-116592178D01*
X105958200Y-116460068D01*
X105958199Y-116460067D01*
X105897396Y-116313277D01*
X105866400Y-116157445D01*
X105866400Y-115998555D01*
X105897396Y-115842723D01*
X105958199Y-115695933D01*
X106046472Y-115563824D01*
X106046473Y-115563822D01*
X106158822Y-115451473D01*
X106290932Y-115363200D01*
X106290933Y-115363199D01*
X106437723Y-115302396D01*
X106593555Y-115271400D01*
X106752445Y-115271400D01*
X106908277Y-115302396D01*
X106908277Y-115302396D01*
G37*
G36*
X189385277Y-115302396D02*
G01*
X189532067Y-115363199D01*
X189532068Y-115363200D01*
X189664178Y-115451473D01*
X189776527Y-115563822D01*
X189776528Y-115563824D01*
X189864801Y-115695933D01*
X189925604Y-115842723D01*
X189956600Y-115998555D01*
X189956600Y-116157445D01*
X189925604Y-116313277D01*
X189864801Y-116460067D01*
X189864800Y-116460068D01*
X189776527Y-116592178D01*
X189664178Y-116704527D01*
X189597673Y-116748964D01*
X189532067Y-116792801D01*
X189385277Y-116853604D01*
X189229445Y-116884600D01*
X189070555Y-116884600D01*
X188914723Y-116853604D01*
X188767933Y-116792801D01*
X188702327Y-116748964D01*
X188635822Y-116704527D01*
X188523473Y-116592178D01*
X188435200Y-116460068D01*
X188435199Y-116460067D01*
X188374396Y-116313277D01*
X188343400Y-116157445D01*
X188343400Y-115998555D01*
X188374396Y-115842723D01*
X188435199Y-115695933D01*
X188523472Y-115563824D01*
X188523473Y-115563822D01*
X188635822Y-115451473D01*
X188767932Y-115363200D01*
X188767933Y-115363199D01*
X188914723Y-115302396D01*
X189070555Y-115271400D01*
X189229445Y-115271400D01*
X189385277Y-115302396D01*
X189385277Y-115302396D01*
G37*
G36*
X186885277Y-115302396D02*
G01*
X187032067Y-115363199D01*
X187032068Y-115363200D01*
X187164178Y-115451473D01*
X187276527Y-115563822D01*
X187276528Y-115563824D01*
X187364801Y-115695933D01*
X187425604Y-115842723D01*
X187456600Y-115998555D01*
X187456600Y-116157445D01*
X187425604Y-116313277D01*
X187364801Y-116460067D01*
X187364800Y-116460068D01*
X187276527Y-116592178D01*
X187164178Y-116704527D01*
X187097673Y-116748964D01*
X187032067Y-116792801D01*
X186885277Y-116853604D01*
X186729445Y-116884600D01*
X186570555Y-116884600D01*
X186414723Y-116853604D01*
X186267933Y-116792801D01*
X186202327Y-116748964D01*
X186135822Y-116704527D01*
X186023473Y-116592178D01*
X185935200Y-116460068D01*
X185935199Y-116460067D01*
X185874396Y-116313277D01*
X185843400Y-116157445D01*
X185843400Y-115998555D01*
X185874396Y-115842723D01*
X185935199Y-115695933D01*
X186023472Y-115563824D01*
X186023473Y-115563822D01*
X186135822Y-115451473D01*
X186267932Y-115363200D01*
X186267933Y-115363199D01*
X186414723Y-115302396D01*
X186570555Y-115271400D01*
X186729445Y-115271400D01*
X186885277Y-115302396D01*
X186885277Y-115302396D01*
G37*
G36*
X198863276Y-107936397D02*
G01*
X199010066Y-107997200D01*
X199010067Y-107997201D01*
X199142177Y-108085474D01*
X199254526Y-108197823D01*
X199254527Y-108197825D01*
X199342800Y-108329934D01*
X199403603Y-108476724D01*
X199434599Y-108632556D01*
X199434599Y-108791446D01*
X199403603Y-108947278D01*
X199342800Y-109094068D01*
X199342799Y-109094069D01*
X199254526Y-109226179D01*
X199142177Y-109338528D01*
X199075672Y-109382965D01*
X199010066Y-109426802D01*
X198863276Y-109487605D01*
X198707444Y-109518601D01*
X198548554Y-109518601D01*
X198392722Y-109487605D01*
X198245932Y-109426802D01*
X198180326Y-109382965D01*
X198113821Y-109338528D01*
X198001472Y-109226179D01*
X197913199Y-109094069D01*
X197913198Y-109094068D01*
X197852395Y-108947278D01*
X197821399Y-108791446D01*
X197821399Y-108632556D01*
X197852395Y-108476724D01*
X197913198Y-108329934D01*
X198001471Y-108197825D01*
X198001472Y-108197823D01*
X198113821Y-108085474D01*
X198245931Y-107997201D01*
X198245932Y-107997200D01*
X198392722Y-107936397D01*
X198548554Y-107905401D01*
X198707444Y-107905401D01*
X198863276Y-107936397D01*
X198863276Y-107936397D01*
G37*
G36*
X195863276Y-107936397D02*
G01*
X196010066Y-107997200D01*
X196010067Y-107997201D01*
X196142177Y-108085474D01*
X196254526Y-108197823D01*
X196254527Y-108197825D01*
X196342800Y-108329934D01*
X196403603Y-108476724D01*
X196434599Y-108632556D01*
X196434599Y-108791446D01*
X196403603Y-108947278D01*
X196342800Y-109094068D01*
X196342799Y-109094069D01*
X196254526Y-109226179D01*
X196142177Y-109338528D01*
X196075672Y-109382965D01*
X196010066Y-109426802D01*
X195863276Y-109487605D01*
X195707444Y-109518601D01*
X195548554Y-109518601D01*
X195392722Y-109487605D01*
X195245932Y-109426802D01*
X195180326Y-109382965D01*
X195113821Y-109338528D01*
X195001472Y-109226179D01*
X194913199Y-109094069D01*
X194913198Y-109094068D01*
X194852395Y-108947278D01*
X194821399Y-108791446D01*
X194821399Y-108632556D01*
X194852395Y-108476724D01*
X194913198Y-108329934D01*
X195001471Y-108197825D01*
X195001472Y-108197823D01*
X195113821Y-108085474D01*
X195245931Y-107997201D01*
X195245932Y-107997200D01*
X195392722Y-107936397D01*
X195548554Y-107905401D01*
X195707444Y-107905401D01*
X195863276Y-107936397D01*
X195863276Y-107936397D01*
G37*
G36*
X105597277Y-107936396D02*
G01*
X105744067Y-107997199D01*
X105809673Y-108041036D01*
X105876178Y-108085473D01*
X105988527Y-108197822D01*
X105988528Y-108197824D01*
X106076801Y-108329933D01*
X106137604Y-108476723D01*
X106168600Y-108632555D01*
X106168600Y-108791445D01*
X106137604Y-108947277D01*
X106076801Y-109094067D01*
X106032964Y-109159673D01*
X105988527Y-109226178D01*
X105876178Y-109338527D01*
X105876175Y-109338529D01*
X105744067Y-109426801D01*
X105597277Y-109487604D01*
X105441445Y-109518600D01*
X105282555Y-109518600D01*
X105126723Y-109487604D01*
X104979933Y-109426801D01*
X104847825Y-109338529D01*
X104847822Y-109338527D01*
X104735473Y-109226178D01*
X104691036Y-109159673D01*
X104647199Y-109094067D01*
X104586396Y-108947277D01*
X104555400Y-108791445D01*
X104555400Y-108632555D01*
X104586396Y-108476723D01*
X104647199Y-108329933D01*
X104735472Y-108197824D01*
X104735473Y-108197822D01*
X104847822Y-108085473D01*
X104914327Y-108041036D01*
X104979933Y-107997199D01*
X105126723Y-107936396D01*
X105282555Y-107905400D01*
X105441445Y-107905400D01*
X105597277Y-107936396D01*
X105597277Y-107936396D01*
G37*
G36*
X102597277Y-107936396D02*
G01*
X102744067Y-107997199D01*
X102809673Y-108041036D01*
X102876178Y-108085473D01*
X102988527Y-108197822D01*
X102988528Y-108197824D01*
X103076801Y-108329933D01*
X103137604Y-108476723D01*
X103168600Y-108632555D01*
X103168600Y-108791445D01*
X103137604Y-108947277D01*
X103076801Y-109094067D01*
X103032964Y-109159673D01*
X102988527Y-109226178D01*
X102876178Y-109338527D01*
X102876175Y-109338529D01*
X102744067Y-109426801D01*
X102597277Y-109487604D01*
X102441445Y-109518600D01*
X102282555Y-109518600D01*
X102126723Y-109487604D01*
X101979933Y-109426801D01*
X101847825Y-109338529D01*
X101847822Y-109338527D01*
X101735473Y-109226178D01*
X101691036Y-109159673D01*
X101647199Y-109094067D01*
X101586396Y-108947277D01*
X101555400Y-108791445D01*
X101555400Y-108632555D01*
X101586396Y-108476723D01*
X101647199Y-108329933D01*
X101735472Y-108197824D01*
X101735473Y-108197822D01*
X101847822Y-108085473D01*
X101914327Y-108041036D01*
X101979933Y-107997199D01*
X102126723Y-107936396D01*
X102282555Y-107905400D01*
X102441445Y-107905400D01*
X102597277Y-107936396D01*
X102597277Y-107936396D01*
G37*
G36*
X194213276Y-106686397D02*
G01*
X194360066Y-106747200D01*
X194360067Y-106747201D01*
X194492177Y-106835474D01*
X194604526Y-106947823D01*
X194604527Y-106947825D01*
X194692800Y-107079934D01*
X194753603Y-107226724D01*
X194784599Y-107382556D01*
X194784599Y-107541446D01*
X194753603Y-107697278D01*
X194692800Y-107844068D01*
X194692799Y-107844069D01*
X194604526Y-107976179D01*
X194492177Y-108088528D01*
X194425672Y-108132965D01*
X194360066Y-108176802D01*
X194213276Y-108237605D01*
X194057444Y-108268601D01*
X193898554Y-108268601D01*
X193742722Y-108237605D01*
X193595932Y-108176802D01*
X193530326Y-108132965D01*
X193463821Y-108088528D01*
X193351472Y-107976179D01*
X193263199Y-107844069D01*
X193263198Y-107844068D01*
X193202395Y-107697278D01*
X193171399Y-107541446D01*
X193171399Y-107382556D01*
X193202395Y-107226724D01*
X193263198Y-107079934D01*
X193351471Y-106947825D01*
X193351472Y-106947823D01*
X193463821Y-106835474D01*
X193595931Y-106747201D01*
X193595932Y-106747200D01*
X193742722Y-106686397D01*
X193898554Y-106655401D01*
X194057444Y-106655401D01*
X194213276Y-106686397D01*
X194213276Y-106686397D01*
G37*
G36*
X107247277Y-106686396D02*
G01*
X107394067Y-106747199D01*
X107459673Y-106791036D01*
X107526178Y-106835473D01*
X107638527Y-106947822D01*
X107638528Y-106947824D01*
X107726801Y-107079933D01*
X107787604Y-107226723D01*
X107818600Y-107382555D01*
X107818600Y-107541445D01*
X107787604Y-107697277D01*
X107726801Y-107844067D01*
X107685819Y-107905400D01*
X107638527Y-107976178D01*
X107526178Y-108088527D01*
X107526175Y-108088529D01*
X107394067Y-108176801D01*
X107247277Y-108237604D01*
X107091445Y-108268600D01*
X106932555Y-108268600D01*
X106776723Y-108237604D01*
X106629933Y-108176801D01*
X106497825Y-108088529D01*
X106497822Y-108088527D01*
X106385473Y-107976178D01*
X106338181Y-107905400D01*
X106297199Y-107844067D01*
X106236396Y-107697277D01*
X106205400Y-107541445D01*
X106205400Y-107382555D01*
X106236396Y-107226723D01*
X106297199Y-107079933D01*
X106385472Y-106947824D01*
X106385473Y-106947822D01*
X106497822Y-106835473D01*
X106564327Y-106791036D01*
X106629933Y-106747199D01*
X106776723Y-106686396D01*
X106932555Y-106655400D01*
X107091445Y-106655400D01*
X107247277Y-106686396D01*
X107247277Y-106686396D01*
G37*
G36*
X198863276Y-105436397D02*
G01*
X199010066Y-105497200D01*
X199010067Y-105497201D01*
X199142177Y-105585474D01*
X199254526Y-105697823D01*
X199254527Y-105697825D01*
X199342800Y-105829934D01*
X199403603Y-105976724D01*
X199434599Y-106132556D01*
X199434599Y-106291446D01*
X199403603Y-106447278D01*
X199342800Y-106594068D01*
X199342799Y-106594069D01*
X199254526Y-106726179D01*
X199142177Y-106838528D01*
X199075672Y-106882965D01*
X199010066Y-106926802D01*
X198863276Y-106987605D01*
X198707444Y-107018601D01*
X198548554Y-107018601D01*
X198392722Y-106987605D01*
X198245932Y-106926802D01*
X198180326Y-106882965D01*
X198113821Y-106838528D01*
X198001472Y-106726179D01*
X197913199Y-106594069D01*
X197913198Y-106594068D01*
X197852395Y-106447278D01*
X197821399Y-106291446D01*
X197821399Y-106132556D01*
X197852395Y-105976724D01*
X197913198Y-105829934D01*
X198001471Y-105697825D01*
X198001472Y-105697823D01*
X198113821Y-105585474D01*
X198245931Y-105497201D01*
X198245932Y-105497200D01*
X198392722Y-105436397D01*
X198548554Y-105405401D01*
X198707444Y-105405401D01*
X198863276Y-105436397D01*
X198863276Y-105436397D01*
G37*
G36*
X195863276Y-105436397D02*
G01*
X196010066Y-105497200D01*
X196010067Y-105497201D01*
X196142177Y-105585474D01*
X196254526Y-105697823D01*
X196254527Y-105697825D01*
X196342800Y-105829934D01*
X196403603Y-105976724D01*
X196434599Y-106132556D01*
X196434599Y-106291446D01*
X196403603Y-106447278D01*
X196342800Y-106594068D01*
X196342799Y-106594069D01*
X196254526Y-106726179D01*
X196142177Y-106838528D01*
X196075672Y-106882965D01*
X196010066Y-106926802D01*
X195863276Y-106987605D01*
X195707444Y-107018601D01*
X195548554Y-107018601D01*
X195392722Y-106987605D01*
X195245932Y-106926802D01*
X195180326Y-106882965D01*
X195113821Y-106838528D01*
X195001472Y-106726179D01*
X194913199Y-106594069D01*
X194913198Y-106594068D01*
X194852395Y-106447278D01*
X194821399Y-106291446D01*
X194821399Y-106132556D01*
X194852395Y-105976724D01*
X194913198Y-105829934D01*
X195001471Y-105697825D01*
X195001472Y-105697823D01*
X195113821Y-105585474D01*
X195245931Y-105497201D01*
X195245932Y-105497200D01*
X195392722Y-105436397D01*
X195548554Y-105405401D01*
X195707444Y-105405401D01*
X195863276Y-105436397D01*
X195863276Y-105436397D01*
G37*
G36*
X102597277Y-105436396D02*
G01*
X102744067Y-105497199D01*
X102809673Y-105541036D01*
X102876178Y-105585473D01*
X102988527Y-105697822D01*
X102988528Y-105697824D01*
X103076801Y-105829933D01*
X103137604Y-105976723D01*
X103168600Y-106132555D01*
X103168600Y-106291445D01*
X103137604Y-106447277D01*
X103076801Y-106594067D01*
X103035819Y-106655400D01*
X102988527Y-106726178D01*
X102876178Y-106838527D01*
X102876175Y-106838529D01*
X102744067Y-106926801D01*
X102597277Y-106987604D01*
X102441445Y-107018600D01*
X102282555Y-107018600D01*
X102126723Y-106987604D01*
X101979933Y-106926801D01*
X101847825Y-106838529D01*
X101847822Y-106838527D01*
X101735473Y-106726178D01*
X101688181Y-106655400D01*
X101647199Y-106594067D01*
X101586396Y-106447277D01*
X101555400Y-106291445D01*
X101555400Y-106132555D01*
X101586396Y-105976723D01*
X101647199Y-105829933D01*
X101735472Y-105697824D01*
X101735473Y-105697822D01*
X101847822Y-105585473D01*
X101914327Y-105541036D01*
X101979933Y-105497199D01*
X102126723Y-105436396D01*
X102282555Y-105405400D01*
X102441445Y-105405400D01*
X102597277Y-105436396D01*
X102597277Y-105436396D01*
G37*
G36*
X105597277Y-105436396D02*
G01*
X105744067Y-105497199D01*
X105809673Y-105541036D01*
X105876178Y-105585473D01*
X105988527Y-105697822D01*
X105988528Y-105697824D01*
X106076801Y-105829933D01*
X106137604Y-105976723D01*
X106168600Y-106132555D01*
X106168600Y-106291445D01*
X106137604Y-106447277D01*
X106076801Y-106594067D01*
X106035819Y-106655400D01*
X105988527Y-106726178D01*
X105876178Y-106838527D01*
X105876175Y-106838529D01*
X105744067Y-106926801D01*
X105597277Y-106987604D01*
X105441445Y-107018600D01*
X105282555Y-107018600D01*
X105126723Y-106987604D01*
X104979933Y-106926801D01*
X104847825Y-106838529D01*
X104847822Y-106838527D01*
X104735473Y-106726178D01*
X104688181Y-106655400D01*
X104647199Y-106594067D01*
X104586396Y-106447277D01*
X104555400Y-106291445D01*
X104555400Y-106132555D01*
X104586396Y-105976723D01*
X104647199Y-105829933D01*
X104735472Y-105697824D01*
X104735473Y-105697822D01*
X104847822Y-105585473D01*
X104914327Y-105541036D01*
X104979933Y-105497199D01*
X105126723Y-105436396D01*
X105282555Y-105405400D01*
X105441445Y-105405400D01*
X105597277Y-105436396D01*
X105597277Y-105436396D01*
G37*
G36*
X194213276Y-104186397D02*
G01*
X194360066Y-104247200D01*
X194360067Y-104247201D01*
X194492177Y-104335474D01*
X194604526Y-104447823D01*
X194604527Y-104447825D01*
X194692800Y-104579934D01*
X194753603Y-104726724D01*
X194784599Y-104882556D01*
X194784599Y-105041446D01*
X194753603Y-105197278D01*
X194692800Y-105344068D01*
X194692799Y-105344069D01*
X194604526Y-105476179D01*
X194492177Y-105588528D01*
X194425672Y-105632965D01*
X194360066Y-105676802D01*
X194213276Y-105737605D01*
X194057444Y-105768601D01*
X193898554Y-105768601D01*
X193742722Y-105737605D01*
X193595932Y-105676802D01*
X193530326Y-105632965D01*
X193463821Y-105588528D01*
X193351472Y-105476179D01*
X193263199Y-105344069D01*
X193263198Y-105344068D01*
X193202395Y-105197278D01*
X193171399Y-105041446D01*
X193171399Y-104882556D01*
X193202395Y-104726724D01*
X193263198Y-104579934D01*
X193351471Y-104447825D01*
X193351472Y-104447823D01*
X193463821Y-104335474D01*
X193595931Y-104247201D01*
X193595932Y-104247200D01*
X193742722Y-104186397D01*
X193898554Y-104155401D01*
X194057444Y-104155401D01*
X194213276Y-104186397D01*
X194213276Y-104186397D01*
G37*
G36*
X107247277Y-104186396D02*
G01*
X107394067Y-104247199D01*
X107459673Y-104291036D01*
X107526178Y-104335473D01*
X107638527Y-104447822D01*
X107638528Y-104447824D01*
X107726801Y-104579933D01*
X107787604Y-104726723D01*
X107818600Y-104882555D01*
X107818600Y-105041445D01*
X107787604Y-105197277D01*
X107726801Y-105344067D01*
X107685819Y-105405400D01*
X107638527Y-105476178D01*
X107526178Y-105588527D01*
X107526175Y-105588529D01*
X107394067Y-105676801D01*
X107247277Y-105737604D01*
X107091445Y-105768600D01*
X106932555Y-105768600D01*
X106776723Y-105737604D01*
X106629933Y-105676801D01*
X106497825Y-105588529D01*
X106497822Y-105588527D01*
X106385473Y-105476178D01*
X106338181Y-105405400D01*
X106297199Y-105344067D01*
X106236396Y-105197277D01*
X106205400Y-105041445D01*
X106205400Y-104882555D01*
X106236396Y-104726723D01*
X106297199Y-104579933D01*
X106385472Y-104447824D01*
X106385473Y-104447822D01*
X106497822Y-104335473D01*
X106564327Y-104291036D01*
X106629933Y-104247199D01*
X106776723Y-104186396D01*
X106932555Y-104155400D01*
X107091445Y-104155400D01*
X107247277Y-104186396D01*
X107247277Y-104186396D01*
G37*
G36*
X198863276Y-102936397D02*
G01*
X199010066Y-102997200D01*
X199010067Y-102997201D01*
X199142177Y-103085474D01*
X199254526Y-103197823D01*
X199254527Y-103197825D01*
X199342800Y-103329934D01*
X199403603Y-103476724D01*
X199434599Y-103632556D01*
X199434599Y-103791446D01*
X199403603Y-103947278D01*
X199342800Y-104094068D01*
X199342799Y-104094069D01*
X199254526Y-104226179D01*
X199142177Y-104338528D01*
X199075672Y-104382965D01*
X199010066Y-104426802D01*
X198863276Y-104487605D01*
X198707444Y-104518601D01*
X198548554Y-104518601D01*
X198392722Y-104487605D01*
X198245932Y-104426802D01*
X198180326Y-104382965D01*
X198113821Y-104338528D01*
X198001472Y-104226179D01*
X197913199Y-104094069D01*
X197913198Y-104094068D01*
X197852395Y-103947278D01*
X197821399Y-103791446D01*
X197821399Y-103632556D01*
X197852395Y-103476724D01*
X197913198Y-103329934D01*
X198001471Y-103197825D01*
X198001472Y-103197823D01*
X198113821Y-103085474D01*
X198245931Y-102997201D01*
X198245932Y-102997200D01*
X198392722Y-102936397D01*
X198548554Y-102905401D01*
X198707444Y-102905401D01*
X198863276Y-102936397D01*
X198863276Y-102936397D01*
G37*
G36*
X195863276Y-102936397D02*
G01*
X196010066Y-102997200D01*
X196010067Y-102997201D01*
X196142177Y-103085474D01*
X196254526Y-103197823D01*
X196254527Y-103197825D01*
X196342800Y-103329934D01*
X196403603Y-103476724D01*
X196434599Y-103632556D01*
X196434599Y-103791446D01*
X196403603Y-103947278D01*
X196342800Y-104094068D01*
X196342799Y-104094069D01*
X196254526Y-104226179D01*
X196142177Y-104338528D01*
X196075672Y-104382965D01*
X196010066Y-104426802D01*
X195863276Y-104487605D01*
X195707444Y-104518601D01*
X195548554Y-104518601D01*
X195392722Y-104487605D01*
X195245932Y-104426802D01*
X195180326Y-104382965D01*
X195113821Y-104338528D01*
X195001472Y-104226179D01*
X194913199Y-104094069D01*
X194913198Y-104094068D01*
X194852395Y-103947278D01*
X194821399Y-103791446D01*
X194821399Y-103632556D01*
X194852395Y-103476724D01*
X194913198Y-103329934D01*
X195001471Y-103197825D01*
X195001472Y-103197823D01*
X195113821Y-103085474D01*
X195245931Y-102997201D01*
X195245932Y-102997200D01*
X195392722Y-102936397D01*
X195548554Y-102905401D01*
X195707444Y-102905401D01*
X195863276Y-102936397D01*
X195863276Y-102936397D01*
G37*
G36*
X105597277Y-102936396D02*
G01*
X105744067Y-102997199D01*
X105809673Y-103041036D01*
X105876178Y-103085473D01*
X105988527Y-103197822D01*
X105988528Y-103197824D01*
X106076801Y-103329933D01*
X106137604Y-103476723D01*
X106168600Y-103632555D01*
X106168600Y-103791445D01*
X106137604Y-103947277D01*
X106076801Y-104094067D01*
X106035819Y-104155400D01*
X105988527Y-104226178D01*
X105876178Y-104338527D01*
X105876175Y-104338529D01*
X105744067Y-104426801D01*
X105597277Y-104487604D01*
X105441445Y-104518600D01*
X105282555Y-104518600D01*
X105126723Y-104487604D01*
X104979933Y-104426801D01*
X104847825Y-104338529D01*
X104847822Y-104338527D01*
X104735473Y-104226178D01*
X104688181Y-104155400D01*
X104647199Y-104094067D01*
X104586396Y-103947277D01*
X104555400Y-103791445D01*
X104555400Y-103632555D01*
X104586396Y-103476723D01*
X104647199Y-103329933D01*
X104735472Y-103197824D01*
X104735473Y-103197822D01*
X104847822Y-103085473D01*
X104914327Y-103041036D01*
X104979933Y-102997199D01*
X105126723Y-102936396D01*
X105282555Y-102905400D01*
X105441445Y-102905400D01*
X105597277Y-102936396D01*
X105597277Y-102936396D01*
G37*
G36*
X102597277Y-102936396D02*
G01*
X102744067Y-102997199D01*
X102809673Y-103041036D01*
X102876178Y-103085473D01*
X102988527Y-103197822D01*
X102988528Y-103197824D01*
X103076801Y-103329933D01*
X103137604Y-103476723D01*
X103168600Y-103632555D01*
X103168600Y-103791445D01*
X103137604Y-103947277D01*
X103076801Y-104094067D01*
X103035819Y-104155400D01*
X102988527Y-104226178D01*
X102876178Y-104338527D01*
X102876175Y-104338529D01*
X102744067Y-104426801D01*
X102597277Y-104487604D01*
X102441445Y-104518600D01*
X102282555Y-104518600D01*
X102126723Y-104487604D01*
X101979933Y-104426801D01*
X101847825Y-104338529D01*
X101847822Y-104338527D01*
X101735473Y-104226178D01*
X101688181Y-104155400D01*
X101647199Y-104094067D01*
X101586396Y-103947277D01*
X101555400Y-103791445D01*
X101555400Y-103632555D01*
X101586396Y-103476723D01*
X101647199Y-103329933D01*
X101735472Y-103197824D01*
X101735473Y-103197822D01*
X101847822Y-103085473D01*
X101914327Y-103041036D01*
X101979933Y-102997199D01*
X102126723Y-102936396D01*
X102282555Y-102905400D01*
X102441445Y-102905400D01*
X102597277Y-102936396D01*
X102597277Y-102936396D01*
G37*
G36*
X194213276Y-101686397D02*
G01*
X194360066Y-101747200D01*
X194360067Y-101747201D01*
X194492177Y-101835474D01*
X194604526Y-101947823D01*
X194604527Y-101947825D01*
X194692800Y-102079934D01*
X194753603Y-102226724D01*
X194784599Y-102382556D01*
X194784599Y-102541446D01*
X194753603Y-102697278D01*
X194692800Y-102844068D01*
X194692799Y-102844069D01*
X194604526Y-102976179D01*
X194492177Y-103088528D01*
X194425672Y-103132965D01*
X194360066Y-103176802D01*
X194213276Y-103237605D01*
X194057444Y-103268601D01*
X193898554Y-103268601D01*
X193742722Y-103237605D01*
X193595932Y-103176802D01*
X193530326Y-103132965D01*
X193463821Y-103088528D01*
X193351472Y-102976179D01*
X193263199Y-102844069D01*
X193263198Y-102844068D01*
X193202395Y-102697278D01*
X193171399Y-102541446D01*
X193171399Y-102382556D01*
X193202395Y-102226724D01*
X193263198Y-102079934D01*
X193351471Y-101947825D01*
X193351472Y-101947823D01*
X193463821Y-101835474D01*
X193595931Y-101747201D01*
X193595932Y-101747200D01*
X193742722Y-101686397D01*
X193898554Y-101655401D01*
X194057444Y-101655401D01*
X194213276Y-101686397D01*
X194213276Y-101686397D01*
G37*
G36*
X107247277Y-101686396D02*
G01*
X107394067Y-101747199D01*
X107459673Y-101791036D01*
X107526178Y-101835473D01*
X107638527Y-101947822D01*
X107638528Y-101947824D01*
X107726801Y-102079933D01*
X107787604Y-102226723D01*
X107818600Y-102382555D01*
X107818600Y-102541445D01*
X107787604Y-102697277D01*
X107726801Y-102844067D01*
X107685819Y-102905400D01*
X107638527Y-102976178D01*
X107526178Y-103088527D01*
X107526175Y-103088529D01*
X107394067Y-103176801D01*
X107247277Y-103237604D01*
X107091445Y-103268600D01*
X106932555Y-103268600D01*
X106776723Y-103237604D01*
X106629933Y-103176801D01*
X106497825Y-103088529D01*
X106497822Y-103088527D01*
X106385473Y-102976178D01*
X106338181Y-102905400D01*
X106297199Y-102844067D01*
X106236396Y-102697277D01*
X106205400Y-102541445D01*
X106205400Y-102382555D01*
X106236396Y-102226723D01*
X106297199Y-102079933D01*
X106385472Y-101947824D01*
X106385473Y-101947822D01*
X106497822Y-101835473D01*
X106564327Y-101791036D01*
X106629933Y-101747199D01*
X106776723Y-101686396D01*
X106932555Y-101655400D01*
X107091445Y-101655400D01*
X107247277Y-101686396D01*
X107247277Y-101686396D01*
G37*
G36*
X198863276Y-100436397D02*
G01*
X199010066Y-100497200D01*
X199010067Y-100497201D01*
X199142177Y-100585474D01*
X199254526Y-100697823D01*
X199254527Y-100697825D01*
X199342800Y-100829934D01*
X199403603Y-100976724D01*
X199434599Y-101132556D01*
X199434599Y-101291446D01*
X199403603Y-101447278D01*
X199342800Y-101594068D01*
X199342799Y-101594069D01*
X199254526Y-101726179D01*
X199142177Y-101838528D01*
X199075672Y-101882965D01*
X199010066Y-101926802D01*
X198863276Y-101987605D01*
X198707444Y-102018601D01*
X198548554Y-102018601D01*
X198392722Y-101987605D01*
X198245932Y-101926802D01*
X198180326Y-101882965D01*
X198113821Y-101838528D01*
X198001472Y-101726179D01*
X197913199Y-101594069D01*
X197913198Y-101594068D01*
X197852395Y-101447278D01*
X197821399Y-101291446D01*
X197821399Y-101132556D01*
X197852395Y-100976724D01*
X197913198Y-100829934D01*
X198001471Y-100697825D01*
X198001472Y-100697823D01*
X198113821Y-100585474D01*
X198245931Y-100497201D01*
X198245932Y-100497200D01*
X198392722Y-100436397D01*
X198548554Y-100405401D01*
X198707444Y-100405401D01*
X198863276Y-100436397D01*
X198863276Y-100436397D01*
G37*
G36*
X195863276Y-100436397D02*
G01*
X196010066Y-100497200D01*
X196010067Y-100497201D01*
X196142177Y-100585474D01*
X196254526Y-100697823D01*
X196254527Y-100697825D01*
X196342800Y-100829934D01*
X196403603Y-100976724D01*
X196434599Y-101132556D01*
X196434599Y-101291446D01*
X196403603Y-101447278D01*
X196342800Y-101594068D01*
X196342799Y-101594069D01*
X196254526Y-101726179D01*
X196142177Y-101838528D01*
X196075672Y-101882965D01*
X196010066Y-101926802D01*
X195863276Y-101987605D01*
X195707444Y-102018601D01*
X195548554Y-102018601D01*
X195392722Y-101987605D01*
X195245932Y-101926802D01*
X195180326Y-101882965D01*
X195113821Y-101838528D01*
X195001472Y-101726179D01*
X194913199Y-101594069D01*
X194913198Y-101594068D01*
X194852395Y-101447278D01*
X194821399Y-101291446D01*
X194821399Y-101132556D01*
X194852395Y-100976724D01*
X194913198Y-100829934D01*
X195001471Y-100697825D01*
X195001472Y-100697823D01*
X195113821Y-100585474D01*
X195245931Y-100497201D01*
X195245932Y-100497200D01*
X195392722Y-100436397D01*
X195548554Y-100405401D01*
X195707444Y-100405401D01*
X195863276Y-100436397D01*
X195863276Y-100436397D01*
G37*
G36*
X105597277Y-100436396D02*
G01*
X105744067Y-100497199D01*
X105809673Y-100541036D01*
X105876178Y-100585473D01*
X105988527Y-100697822D01*
X105988528Y-100697824D01*
X106076801Y-100829933D01*
X106137604Y-100976723D01*
X106168600Y-101132555D01*
X106168600Y-101291445D01*
X106137604Y-101447277D01*
X106076801Y-101594067D01*
X106035819Y-101655400D01*
X105988527Y-101726178D01*
X105876178Y-101838527D01*
X105876175Y-101838529D01*
X105744067Y-101926801D01*
X105597277Y-101987604D01*
X105441445Y-102018600D01*
X105282555Y-102018600D01*
X105126723Y-101987604D01*
X104979933Y-101926801D01*
X104847825Y-101838529D01*
X104847822Y-101838527D01*
X104735473Y-101726178D01*
X104688181Y-101655400D01*
X104647199Y-101594067D01*
X104586396Y-101447277D01*
X104555400Y-101291445D01*
X104555400Y-101132555D01*
X104586396Y-100976723D01*
X104647199Y-100829933D01*
X104735472Y-100697824D01*
X104735473Y-100697822D01*
X104847822Y-100585473D01*
X104914327Y-100541036D01*
X104979933Y-100497199D01*
X105126723Y-100436396D01*
X105282555Y-100405400D01*
X105441445Y-100405400D01*
X105597277Y-100436396D01*
X105597277Y-100436396D01*
G37*
G36*
X102597277Y-100436396D02*
G01*
X102744067Y-100497199D01*
X102809673Y-100541036D01*
X102876178Y-100585473D01*
X102988527Y-100697822D01*
X102988528Y-100697824D01*
X103076801Y-100829933D01*
X103137604Y-100976723D01*
X103168600Y-101132555D01*
X103168600Y-101291445D01*
X103137604Y-101447277D01*
X103076801Y-101594067D01*
X103035819Y-101655400D01*
X102988527Y-101726178D01*
X102876178Y-101838527D01*
X102876175Y-101838529D01*
X102744067Y-101926801D01*
X102597277Y-101987604D01*
X102441445Y-102018600D01*
X102282555Y-102018600D01*
X102126723Y-101987604D01*
X101979933Y-101926801D01*
X101847825Y-101838529D01*
X101847822Y-101838527D01*
X101735473Y-101726178D01*
X101688181Y-101655400D01*
X101647199Y-101594067D01*
X101586396Y-101447277D01*
X101555400Y-101291445D01*
X101555400Y-101132555D01*
X101586396Y-100976723D01*
X101647199Y-100829933D01*
X101735472Y-100697824D01*
X101735473Y-100697822D01*
X101847822Y-100585473D01*
X101914327Y-100541036D01*
X101979933Y-100497199D01*
X102126723Y-100436396D01*
X102282555Y-100405400D01*
X102441445Y-100405400D01*
X102597277Y-100436396D01*
X102597277Y-100436396D01*
G37*
G36*
X194213276Y-99186397D02*
G01*
X194360066Y-99247200D01*
X194360067Y-99247201D01*
X194492177Y-99335474D01*
X194604526Y-99447823D01*
X194604527Y-99447825D01*
X194692800Y-99579934D01*
X194753603Y-99726724D01*
X194784599Y-99882556D01*
X194784599Y-100041446D01*
X194753603Y-100197278D01*
X194692800Y-100344068D01*
X194692799Y-100344069D01*
X194604526Y-100476179D01*
X194492177Y-100588528D01*
X194425672Y-100632965D01*
X194360066Y-100676802D01*
X194213276Y-100737605D01*
X194057444Y-100768601D01*
X193898554Y-100768601D01*
X193742722Y-100737605D01*
X193595932Y-100676802D01*
X193530326Y-100632965D01*
X193463821Y-100588528D01*
X193351472Y-100476179D01*
X193263199Y-100344069D01*
X193263198Y-100344068D01*
X193202395Y-100197278D01*
X193171399Y-100041446D01*
X193171399Y-99882556D01*
X193202395Y-99726724D01*
X193263198Y-99579934D01*
X193351471Y-99447825D01*
X193351472Y-99447823D01*
X193463821Y-99335474D01*
X193595931Y-99247201D01*
X193595932Y-99247200D01*
X193742722Y-99186397D01*
X193898554Y-99155401D01*
X194057444Y-99155401D01*
X194213276Y-99186397D01*
X194213276Y-99186397D01*
G37*
G36*
X107247277Y-99186396D02*
G01*
X107394067Y-99247199D01*
X107459673Y-99291036D01*
X107526178Y-99335473D01*
X107638527Y-99447822D01*
X107638528Y-99447824D01*
X107726801Y-99579933D01*
X107787604Y-99726723D01*
X107818600Y-99882555D01*
X107818600Y-100041445D01*
X107787604Y-100197277D01*
X107726801Y-100344067D01*
X107685819Y-100405400D01*
X107638527Y-100476178D01*
X107526178Y-100588527D01*
X107526175Y-100588529D01*
X107394067Y-100676801D01*
X107247277Y-100737604D01*
X107091445Y-100768600D01*
X106932555Y-100768600D01*
X106776723Y-100737604D01*
X106629933Y-100676801D01*
X106497825Y-100588529D01*
X106497822Y-100588527D01*
X106385473Y-100476178D01*
X106338181Y-100405400D01*
X106297199Y-100344067D01*
X106236396Y-100197277D01*
X106205400Y-100041445D01*
X106205400Y-99882555D01*
X106236396Y-99726723D01*
X106297199Y-99579933D01*
X106385472Y-99447824D01*
X106385473Y-99447822D01*
X106497822Y-99335473D01*
X106564327Y-99291036D01*
X106629933Y-99247199D01*
X106776723Y-99186396D01*
X106932555Y-99155400D01*
X107091445Y-99155400D01*
X107247277Y-99186396D01*
X107247277Y-99186396D01*
G37*
G36*
X151435988Y-93925973D02*
G01*
X152023082Y-94169155D01*
X152023084Y-94169156D01*
X152551455Y-94522202D01*
X153000798Y-94971545D01*
X153352029Y-95497200D01*
X153353845Y-95499918D01*
X153597027Y-96087012D01*
X153721000Y-96710265D01*
X153721000Y-97345735D01*
X153597027Y-97968988D01*
X153386716Y-98476724D01*
X153353844Y-98556084D01*
X153000798Y-99084455D01*
X152551455Y-99533798D01*
X152023084Y-99886844D01*
X152023083Y-99886845D01*
X152023082Y-99886845D01*
X151435988Y-100130027D01*
X150812735Y-100254000D01*
X150177265Y-100254000D01*
X149554012Y-100130027D01*
X148966918Y-99886845D01*
X148966917Y-99886845D01*
X148966916Y-99886844D01*
X148438545Y-99533798D01*
X147989202Y-99084455D01*
X147636156Y-98556084D01*
X147603284Y-98476724D01*
X147392973Y-97968988D01*
X147269000Y-97345735D01*
X147269000Y-96710265D01*
X147392973Y-96087012D01*
X147636155Y-95499918D01*
X147637971Y-95497200D01*
X147989202Y-94971545D01*
X148438545Y-94522202D01*
X148966916Y-94169156D01*
X148966918Y-94169155D01*
X149554012Y-93925973D01*
X150177265Y-93802000D01*
X150812735Y-93802000D01*
X151435988Y-93925973D01*
X151435988Y-93925973D01*
G37*
G36*
X198863276Y-97936397D02*
G01*
X199010066Y-97997200D01*
X199010067Y-97997201D01*
X199142177Y-98085474D01*
X199254526Y-98197823D01*
X199254527Y-98197825D01*
X199342800Y-98329934D01*
X199403603Y-98476724D01*
X199434599Y-98632556D01*
X199434599Y-98791446D01*
X199403603Y-98947278D01*
X199342800Y-99094068D01*
X199342799Y-99094069D01*
X199254526Y-99226179D01*
X199142177Y-99338528D01*
X199075672Y-99382965D01*
X199010066Y-99426802D01*
X198863276Y-99487605D01*
X198707444Y-99518601D01*
X198548554Y-99518601D01*
X198392722Y-99487605D01*
X198245932Y-99426802D01*
X198180326Y-99382965D01*
X198113821Y-99338528D01*
X198001472Y-99226179D01*
X197913199Y-99094069D01*
X197913198Y-99094068D01*
X197852395Y-98947278D01*
X197821399Y-98791446D01*
X197821399Y-98632556D01*
X197852395Y-98476724D01*
X197913198Y-98329934D01*
X198001471Y-98197825D01*
X198001472Y-98197823D01*
X198113821Y-98085474D01*
X198245931Y-97997201D01*
X198245932Y-97997200D01*
X198392722Y-97936397D01*
X198548554Y-97905401D01*
X198707444Y-97905401D01*
X198863276Y-97936397D01*
X198863276Y-97936397D01*
G37*
G36*
X195863276Y-97936397D02*
G01*
X196010066Y-97997200D01*
X196010067Y-97997201D01*
X196142177Y-98085474D01*
X196254526Y-98197823D01*
X196254527Y-98197825D01*
X196342800Y-98329934D01*
X196403603Y-98476724D01*
X196434599Y-98632556D01*
X196434599Y-98791446D01*
X196403603Y-98947278D01*
X196342800Y-99094068D01*
X196342799Y-99094069D01*
X196254526Y-99226179D01*
X196142177Y-99338528D01*
X196075672Y-99382965D01*
X196010066Y-99426802D01*
X195863276Y-99487605D01*
X195707444Y-99518601D01*
X195548554Y-99518601D01*
X195392722Y-99487605D01*
X195245932Y-99426802D01*
X195180326Y-99382965D01*
X195113821Y-99338528D01*
X195001472Y-99226179D01*
X194913199Y-99094069D01*
X194913198Y-99094068D01*
X194852395Y-98947278D01*
X194821399Y-98791446D01*
X194821399Y-98632556D01*
X194852395Y-98476724D01*
X194913198Y-98329934D01*
X195001471Y-98197825D01*
X195001472Y-98197823D01*
X195113821Y-98085474D01*
X195245931Y-97997201D01*
X195245932Y-97997200D01*
X195392722Y-97936397D01*
X195548554Y-97905401D01*
X195707444Y-97905401D01*
X195863276Y-97936397D01*
X195863276Y-97936397D01*
G37*
G36*
X105597277Y-97936396D02*
G01*
X105744067Y-97997199D01*
X105809673Y-98041036D01*
X105876178Y-98085473D01*
X105988527Y-98197822D01*
X105988528Y-98197824D01*
X106076801Y-98329933D01*
X106137604Y-98476723D01*
X106168600Y-98632555D01*
X106168600Y-98791445D01*
X106137604Y-98947277D01*
X106076801Y-99094067D01*
X106035819Y-99155400D01*
X105988527Y-99226178D01*
X105876178Y-99338527D01*
X105876175Y-99338529D01*
X105744067Y-99426801D01*
X105597277Y-99487604D01*
X105441445Y-99518600D01*
X105282555Y-99518600D01*
X105126723Y-99487604D01*
X104979933Y-99426801D01*
X104847825Y-99338529D01*
X104847822Y-99338527D01*
X104735473Y-99226178D01*
X104688181Y-99155400D01*
X104647199Y-99094067D01*
X104586396Y-98947277D01*
X104555400Y-98791445D01*
X104555400Y-98632555D01*
X104586396Y-98476723D01*
X104647199Y-98329933D01*
X104735472Y-98197824D01*
X104735473Y-98197822D01*
X104847822Y-98085473D01*
X104914327Y-98041036D01*
X104979933Y-97997199D01*
X105126723Y-97936396D01*
X105282555Y-97905400D01*
X105441445Y-97905400D01*
X105597277Y-97936396D01*
X105597277Y-97936396D01*
G37*
G36*
X102597277Y-97936396D02*
G01*
X102744067Y-97997199D01*
X102809673Y-98041036D01*
X102876178Y-98085473D01*
X102988527Y-98197822D01*
X102988528Y-98197824D01*
X103076801Y-98329933D01*
X103137604Y-98476723D01*
X103168600Y-98632555D01*
X103168600Y-98791445D01*
X103137604Y-98947277D01*
X103076801Y-99094067D01*
X103035819Y-99155400D01*
X102988527Y-99226178D01*
X102876178Y-99338527D01*
X102876175Y-99338529D01*
X102744067Y-99426801D01*
X102597277Y-99487604D01*
X102441445Y-99518600D01*
X102282555Y-99518600D01*
X102126723Y-99487604D01*
X101979933Y-99426801D01*
X101847825Y-99338529D01*
X101847822Y-99338527D01*
X101735473Y-99226178D01*
X101688181Y-99155400D01*
X101647199Y-99094067D01*
X101586396Y-98947277D01*
X101555400Y-98791445D01*
X101555400Y-98632555D01*
X101586396Y-98476723D01*
X101647199Y-98329933D01*
X101735472Y-98197824D01*
X101735473Y-98197822D01*
X101847822Y-98085473D01*
X101914327Y-98041036D01*
X101979933Y-97997199D01*
X102126723Y-97936396D01*
X102282555Y-97905400D01*
X102441445Y-97905400D01*
X102597277Y-97936396D01*
X102597277Y-97936396D01*
G37*
G36*
X194213276Y-96686397D02*
G01*
X194360066Y-96747200D01*
X194360067Y-96747201D01*
X194492177Y-96835474D01*
X194604526Y-96947823D01*
X194604527Y-96947825D01*
X194692800Y-97079934D01*
X194753603Y-97226724D01*
X194784599Y-97382556D01*
X194784599Y-97541446D01*
X194753603Y-97697278D01*
X194692800Y-97844068D01*
X194692799Y-97844069D01*
X194604526Y-97976179D01*
X194492177Y-98088528D01*
X194425672Y-98132965D01*
X194360066Y-98176802D01*
X194213276Y-98237605D01*
X194057444Y-98268601D01*
X193898554Y-98268601D01*
X193742722Y-98237605D01*
X193595932Y-98176802D01*
X193530326Y-98132965D01*
X193463821Y-98088528D01*
X193351472Y-97976179D01*
X193263199Y-97844069D01*
X193263198Y-97844068D01*
X193202395Y-97697278D01*
X193171399Y-97541446D01*
X193171399Y-97382556D01*
X193202395Y-97226724D01*
X193263198Y-97079934D01*
X193351471Y-96947825D01*
X193351472Y-96947823D01*
X193463821Y-96835474D01*
X193595931Y-96747201D01*
X193595932Y-96747200D01*
X193742722Y-96686397D01*
X193898554Y-96655401D01*
X194057444Y-96655401D01*
X194213276Y-96686397D01*
X194213276Y-96686397D01*
G37*
G36*
X107247277Y-96686396D02*
G01*
X107394067Y-96747199D01*
X107459673Y-96791036D01*
X107526178Y-96835473D01*
X107638527Y-96947822D01*
X107638528Y-96947824D01*
X107726801Y-97079933D01*
X107787604Y-97226723D01*
X107818600Y-97382555D01*
X107818600Y-97541445D01*
X107787604Y-97697277D01*
X107726801Y-97844067D01*
X107685819Y-97905400D01*
X107638527Y-97976178D01*
X107526178Y-98088527D01*
X107526175Y-98088529D01*
X107394067Y-98176801D01*
X107247277Y-98237604D01*
X107091445Y-98268600D01*
X106932555Y-98268600D01*
X106776723Y-98237604D01*
X106629933Y-98176801D01*
X106497825Y-98088529D01*
X106497822Y-98088527D01*
X106385473Y-97976178D01*
X106338181Y-97905400D01*
X106297199Y-97844067D01*
X106236396Y-97697277D01*
X106205400Y-97541445D01*
X106205400Y-97382555D01*
X106236396Y-97226723D01*
X106297199Y-97079933D01*
X106385472Y-96947824D01*
X106385473Y-96947822D01*
X106497822Y-96835473D01*
X106564327Y-96791036D01*
X106629933Y-96747199D01*
X106776723Y-96686396D01*
X106932555Y-96655400D01*
X107091445Y-96655400D01*
X107247277Y-96686396D01*
X107247277Y-96686396D01*
G37*
G36*
X195863276Y-95436397D02*
G01*
X196010066Y-95497200D01*
X196075672Y-95541037D01*
X196142177Y-95585474D01*
X196254526Y-95697823D01*
X196254527Y-95697825D01*
X196342800Y-95829934D01*
X196403603Y-95976724D01*
X196434599Y-96132556D01*
X196434599Y-96291446D01*
X196403603Y-96447278D01*
X196342800Y-96594068D01*
X196342799Y-96594069D01*
X196254526Y-96726179D01*
X196142177Y-96838528D01*
X196075672Y-96882965D01*
X196010066Y-96926802D01*
X195863276Y-96987605D01*
X195707444Y-97018601D01*
X195548554Y-97018601D01*
X195392722Y-96987605D01*
X195245932Y-96926802D01*
X195180326Y-96882965D01*
X195113821Y-96838528D01*
X195001472Y-96726179D01*
X194913199Y-96594069D01*
X194913198Y-96594068D01*
X194852395Y-96447278D01*
X194821399Y-96291446D01*
X194821399Y-96132556D01*
X194852395Y-95976724D01*
X194913198Y-95829934D01*
X195001471Y-95697825D01*
X195001472Y-95697823D01*
X195113821Y-95585474D01*
X195180326Y-95541037D01*
X195245932Y-95497200D01*
X195392722Y-95436397D01*
X195548554Y-95405401D01*
X195707444Y-95405401D01*
X195863276Y-95436397D01*
X195863276Y-95436397D01*
G37*
G36*
X198863276Y-95436397D02*
G01*
X199010066Y-95497200D01*
X199075672Y-95541037D01*
X199142177Y-95585474D01*
X199254526Y-95697823D01*
X199254527Y-95697825D01*
X199342800Y-95829934D01*
X199403603Y-95976724D01*
X199434599Y-96132556D01*
X199434599Y-96291446D01*
X199403603Y-96447278D01*
X199342800Y-96594068D01*
X199342799Y-96594069D01*
X199254526Y-96726179D01*
X199142177Y-96838528D01*
X199075672Y-96882965D01*
X199010066Y-96926802D01*
X198863276Y-96987605D01*
X198707444Y-97018601D01*
X198548554Y-97018601D01*
X198392722Y-96987605D01*
X198245932Y-96926802D01*
X198180326Y-96882965D01*
X198113821Y-96838528D01*
X198001472Y-96726179D01*
X197913199Y-96594069D01*
X197913198Y-96594068D01*
X197852395Y-96447278D01*
X197821399Y-96291446D01*
X197821399Y-96132556D01*
X197852395Y-95976724D01*
X197913198Y-95829934D01*
X198001471Y-95697825D01*
X198001472Y-95697823D01*
X198113821Y-95585474D01*
X198180326Y-95541037D01*
X198245932Y-95497200D01*
X198392722Y-95436397D01*
X198548554Y-95405401D01*
X198707444Y-95405401D01*
X198863276Y-95436397D01*
X198863276Y-95436397D01*
G37*
G36*
X102597277Y-95436396D02*
G01*
X102744067Y-95497199D01*
X102748133Y-95499916D01*
X102876178Y-95585473D01*
X102988527Y-95697822D01*
X102988528Y-95697824D01*
X103076801Y-95829933D01*
X103137604Y-95976723D01*
X103168600Y-96132555D01*
X103168600Y-96291445D01*
X103137604Y-96447277D01*
X103076801Y-96594067D01*
X103035819Y-96655400D01*
X102988527Y-96726178D01*
X102876178Y-96838527D01*
X102876175Y-96838529D01*
X102744067Y-96926801D01*
X102597277Y-96987604D01*
X102441445Y-97018600D01*
X102282555Y-97018600D01*
X102126723Y-96987604D01*
X101979933Y-96926801D01*
X101847825Y-96838529D01*
X101847822Y-96838527D01*
X101735473Y-96726178D01*
X101688181Y-96655400D01*
X101647199Y-96594067D01*
X101586396Y-96447277D01*
X101555400Y-96291445D01*
X101555400Y-96132555D01*
X101586396Y-95976723D01*
X101647199Y-95829933D01*
X101735472Y-95697824D01*
X101735473Y-95697822D01*
X101847822Y-95585473D01*
X101975867Y-95499916D01*
X101979933Y-95497199D01*
X102126723Y-95436396D01*
X102282555Y-95405400D01*
X102441445Y-95405400D01*
X102597277Y-95436396D01*
X102597277Y-95436396D01*
G37*
G36*
X105597277Y-95436396D02*
G01*
X105744067Y-95497199D01*
X105748133Y-95499916D01*
X105876178Y-95585473D01*
X105988527Y-95697822D01*
X105988528Y-95697824D01*
X106076801Y-95829933D01*
X106137604Y-95976723D01*
X106168600Y-96132555D01*
X106168600Y-96291445D01*
X106137604Y-96447277D01*
X106076801Y-96594067D01*
X106035819Y-96655400D01*
X105988527Y-96726178D01*
X105876178Y-96838527D01*
X105876175Y-96838529D01*
X105744067Y-96926801D01*
X105597277Y-96987604D01*
X105441445Y-97018600D01*
X105282555Y-97018600D01*
X105126723Y-96987604D01*
X104979933Y-96926801D01*
X104847825Y-96838529D01*
X104847822Y-96838527D01*
X104735473Y-96726178D01*
X104688181Y-96655400D01*
X104647199Y-96594067D01*
X104586396Y-96447277D01*
X104555400Y-96291445D01*
X104555400Y-96132555D01*
X104586396Y-95976723D01*
X104647199Y-95829933D01*
X104735472Y-95697824D01*
X104735473Y-95697822D01*
X104847822Y-95585473D01*
X104975867Y-95499916D01*
X104979933Y-95497199D01*
X105126723Y-95436396D01*
X105282555Y-95405400D01*
X105441445Y-95405400D01*
X105597277Y-95436396D01*
X105597277Y-95436396D01*
G37*
G36*
X194213276Y-94186397D02*
G01*
X194360066Y-94247200D01*
X194360067Y-94247201D01*
X194492177Y-94335474D01*
X194604526Y-94447823D01*
X194604527Y-94447825D01*
X194692800Y-94579934D01*
X194753603Y-94726724D01*
X194784599Y-94882556D01*
X194784599Y-95041446D01*
X194753603Y-95197278D01*
X194692800Y-95344068D01*
X194692799Y-95344069D01*
X194604526Y-95476179D01*
X194492177Y-95588528D01*
X194425672Y-95632965D01*
X194360066Y-95676802D01*
X194213276Y-95737605D01*
X194057444Y-95768601D01*
X193898554Y-95768601D01*
X193742722Y-95737605D01*
X193595932Y-95676802D01*
X193530326Y-95632965D01*
X193463821Y-95588528D01*
X193351472Y-95476179D01*
X193263199Y-95344069D01*
X193263198Y-95344068D01*
X193202395Y-95197278D01*
X193171399Y-95041446D01*
X193171399Y-94882556D01*
X193202395Y-94726724D01*
X193263198Y-94579934D01*
X193351471Y-94447825D01*
X193351472Y-94447823D01*
X193463821Y-94335474D01*
X193595931Y-94247201D01*
X193595932Y-94247200D01*
X193742722Y-94186397D01*
X193898554Y-94155401D01*
X194057444Y-94155401D01*
X194213276Y-94186397D01*
X194213276Y-94186397D01*
G37*
G36*
X107247277Y-94186396D02*
G01*
X107394067Y-94247199D01*
X107459673Y-94291036D01*
X107526178Y-94335473D01*
X107638527Y-94447822D01*
X107638528Y-94447824D01*
X107726801Y-94579933D01*
X107787604Y-94726723D01*
X107818600Y-94882555D01*
X107818600Y-95041445D01*
X107787604Y-95197277D01*
X107726801Y-95344067D01*
X107685819Y-95405400D01*
X107638527Y-95476178D01*
X107526178Y-95588527D01*
X107526175Y-95588529D01*
X107394067Y-95676801D01*
X107247277Y-95737604D01*
X107091445Y-95768600D01*
X106932555Y-95768600D01*
X106776723Y-95737604D01*
X106629933Y-95676801D01*
X106497825Y-95588529D01*
X106497822Y-95588527D01*
X106385473Y-95476178D01*
X106338181Y-95405400D01*
X106297199Y-95344067D01*
X106236396Y-95197277D01*
X106205400Y-95041445D01*
X106205400Y-94882555D01*
X106236396Y-94726723D01*
X106297199Y-94579933D01*
X106385472Y-94447824D01*
X106385473Y-94447822D01*
X106497822Y-94335473D01*
X106564327Y-94291036D01*
X106629933Y-94247199D01*
X106776723Y-94186396D01*
X106932555Y-94155400D01*
X107091445Y-94155400D01*
X107247277Y-94186396D01*
X107247277Y-94186396D01*
G37*
G36*
X198863276Y-92936397D02*
G01*
X199010066Y-92997200D01*
X199010067Y-92997201D01*
X199142177Y-93085474D01*
X199254526Y-93197823D01*
X199254527Y-93197825D01*
X199342800Y-93329934D01*
X199403603Y-93476724D01*
X199434599Y-93632556D01*
X199434599Y-93791446D01*
X199403603Y-93947278D01*
X199342800Y-94094068D01*
X199342799Y-94094069D01*
X199254526Y-94226179D01*
X199142177Y-94338528D01*
X199075672Y-94382965D01*
X199010066Y-94426802D01*
X198863276Y-94487605D01*
X198707444Y-94518601D01*
X198548554Y-94518601D01*
X198392722Y-94487605D01*
X198245932Y-94426802D01*
X198180326Y-94382965D01*
X198113821Y-94338528D01*
X198001472Y-94226179D01*
X197913199Y-94094069D01*
X197913198Y-94094068D01*
X197852395Y-93947278D01*
X197821399Y-93791446D01*
X197821399Y-93632556D01*
X197852395Y-93476724D01*
X197913198Y-93329934D01*
X198001471Y-93197825D01*
X198001472Y-93197823D01*
X198113821Y-93085474D01*
X198245931Y-92997201D01*
X198245932Y-92997200D01*
X198392722Y-92936397D01*
X198548554Y-92905401D01*
X198707444Y-92905401D01*
X198863276Y-92936397D01*
X198863276Y-92936397D01*
G37*
G36*
X195863276Y-92936397D02*
G01*
X196010066Y-92997200D01*
X196010067Y-92997201D01*
X196142177Y-93085474D01*
X196254526Y-93197823D01*
X196254527Y-93197825D01*
X196342800Y-93329934D01*
X196403603Y-93476724D01*
X196434599Y-93632556D01*
X196434599Y-93791446D01*
X196403603Y-93947278D01*
X196342800Y-94094068D01*
X196342799Y-94094069D01*
X196254526Y-94226179D01*
X196142177Y-94338528D01*
X196075672Y-94382965D01*
X196010066Y-94426802D01*
X195863276Y-94487605D01*
X195707444Y-94518601D01*
X195548554Y-94518601D01*
X195392722Y-94487605D01*
X195245932Y-94426802D01*
X195180326Y-94382965D01*
X195113821Y-94338528D01*
X195001472Y-94226179D01*
X194913199Y-94094069D01*
X194913198Y-94094068D01*
X194852395Y-93947278D01*
X194821399Y-93791446D01*
X194821399Y-93632556D01*
X194852395Y-93476724D01*
X194913198Y-93329934D01*
X195001471Y-93197825D01*
X195001472Y-93197823D01*
X195113821Y-93085474D01*
X195245931Y-92997201D01*
X195245932Y-92997200D01*
X195392722Y-92936397D01*
X195548554Y-92905401D01*
X195707444Y-92905401D01*
X195863276Y-92936397D01*
X195863276Y-92936397D01*
G37*
G36*
X102597277Y-92936396D02*
G01*
X102744067Y-92997199D01*
X102809673Y-93041036D01*
X102876178Y-93085473D01*
X102988527Y-93197822D01*
X102988528Y-93197824D01*
X103076801Y-93329933D01*
X103137604Y-93476723D01*
X103168600Y-93632555D01*
X103168600Y-93791445D01*
X103137604Y-93947277D01*
X103076801Y-94094067D01*
X103035819Y-94155400D01*
X102988527Y-94226178D01*
X102876178Y-94338527D01*
X102876175Y-94338529D01*
X102744067Y-94426801D01*
X102597277Y-94487604D01*
X102441445Y-94518600D01*
X102282555Y-94518600D01*
X102126723Y-94487604D01*
X101979933Y-94426801D01*
X101847825Y-94338529D01*
X101847822Y-94338527D01*
X101735473Y-94226178D01*
X101688181Y-94155400D01*
X101647199Y-94094067D01*
X101586396Y-93947277D01*
X101555400Y-93791445D01*
X101555400Y-93632555D01*
X101586396Y-93476723D01*
X101647199Y-93329933D01*
X101735472Y-93197824D01*
X101735473Y-93197822D01*
X101847822Y-93085473D01*
X101914327Y-93041036D01*
X101979933Y-92997199D01*
X102126723Y-92936396D01*
X102282555Y-92905400D01*
X102441445Y-92905400D01*
X102597277Y-92936396D01*
X102597277Y-92936396D01*
G37*
G36*
X105597277Y-92936396D02*
G01*
X105744067Y-92997199D01*
X105809673Y-93041036D01*
X105876178Y-93085473D01*
X105988527Y-93197822D01*
X105988528Y-93197824D01*
X106076801Y-93329933D01*
X106137604Y-93476723D01*
X106168600Y-93632555D01*
X106168600Y-93791445D01*
X106137604Y-93947277D01*
X106076801Y-94094067D01*
X106035819Y-94155400D01*
X105988527Y-94226178D01*
X105876178Y-94338527D01*
X105876175Y-94338529D01*
X105744067Y-94426801D01*
X105597277Y-94487604D01*
X105441445Y-94518600D01*
X105282555Y-94518600D01*
X105126723Y-94487604D01*
X104979933Y-94426801D01*
X104847825Y-94338529D01*
X104847822Y-94338527D01*
X104735473Y-94226178D01*
X104688181Y-94155400D01*
X104647199Y-94094067D01*
X104586396Y-93947277D01*
X104555400Y-93791445D01*
X104555400Y-93632555D01*
X104586396Y-93476723D01*
X104647199Y-93329933D01*
X104735472Y-93197824D01*
X104735473Y-93197822D01*
X104847822Y-93085473D01*
X104914327Y-93041036D01*
X104979933Y-92997199D01*
X105126723Y-92936396D01*
X105282555Y-92905400D01*
X105441445Y-92905400D01*
X105597277Y-92936396D01*
X105597277Y-92936396D01*
G37*
G36*
X200579943Y-86989519D02*
G01*
X200646127Y-86996037D01*
X200815966Y-87047557D01*
X200972491Y-87131222D01*
X201008229Y-87160552D01*
X201109686Y-87243814D01*
X201192948Y-87345271D01*
X201222278Y-87381009D01*
X201305943Y-87537534D01*
X201357463Y-87707373D01*
X201374859Y-87884000D01*
X201357463Y-88060627D01*
X201305943Y-88230466D01*
X201222278Y-88386991D01*
X201192948Y-88422729D01*
X201109686Y-88524186D01*
X201008229Y-88607448D01*
X200972491Y-88636778D01*
X200815966Y-88720443D01*
X200646127Y-88771963D01*
X200579942Y-88778482D01*
X200513760Y-88785000D01*
X200425240Y-88785000D01*
X200359058Y-88778482D01*
X200292873Y-88771963D01*
X200123034Y-88720443D01*
X199966509Y-88636778D01*
X199930771Y-88607448D01*
X199829314Y-88524186D01*
X199746052Y-88422729D01*
X199716722Y-88386991D01*
X199633057Y-88230466D01*
X199581537Y-88060627D01*
X199564141Y-87884000D01*
X199581537Y-87707373D01*
X199633057Y-87537534D01*
X199716722Y-87381009D01*
X199746052Y-87345271D01*
X199829314Y-87243814D01*
X199930771Y-87160552D01*
X199966509Y-87131222D01*
X200123034Y-87047557D01*
X200292873Y-86996037D01*
X200359057Y-86989519D01*
X200425240Y-86983000D01*
X200513760Y-86983000D01*
X200579943Y-86989519D01*
X200579943Y-86989519D01*
G37*
G36*
X201370500Y-86245000D02*
G01*
X199568500Y-86245000D01*
X199568500Y-84443000D01*
X201370500Y-84443000D01*
X201370500Y-86245000D01*
X201370500Y-86245000D01*
G37*
G36*
X106028442Y-74162518D02*
G01*
X106094627Y-74169037D01*
X106264466Y-74220557D01*
X106420991Y-74304222D01*
X106456729Y-74333552D01*
X106558186Y-74416814D01*
X106641448Y-74518271D01*
X106670778Y-74554009D01*
X106754443Y-74710534D01*
X106805963Y-74880373D01*
X106823359Y-75057000D01*
X106805963Y-75233627D01*
X106754443Y-75403466D01*
X106670778Y-75559991D01*
X106641448Y-75595729D01*
X106558186Y-75697186D01*
X106456729Y-75780448D01*
X106420991Y-75809778D01*
X106264466Y-75893443D01*
X106094627Y-75944963D01*
X106028442Y-75951482D01*
X105962260Y-75958000D01*
X105873740Y-75958000D01*
X105807558Y-75951482D01*
X105741373Y-75944963D01*
X105571534Y-75893443D01*
X105415009Y-75809778D01*
X105379271Y-75780448D01*
X105277814Y-75697186D01*
X105194552Y-75595729D01*
X105165222Y-75559991D01*
X105081557Y-75403466D01*
X105030037Y-75233627D01*
X105012641Y-75057000D01*
X105030037Y-74880373D01*
X105081557Y-74710534D01*
X105165222Y-74554009D01*
X105194552Y-74518271D01*
X105277814Y-74416814D01*
X105379271Y-74333552D01*
X105415009Y-74304222D01*
X105571534Y-74220557D01*
X105741373Y-74169037D01*
X105807558Y-74162518D01*
X105873740Y-74156000D01*
X105962260Y-74156000D01*
X106028442Y-74162518D01*
X106028442Y-74162518D01*
G37*
G36*
X106819000Y-73418000D02*
G01*
X105017000Y-73418000D01*
X105017000Y-71616000D01*
X106819000Y-71616000D01*
X106819000Y-73418000D01*
X106819000Y-73418000D01*
G37*
G36*
X200643443Y-70479519D02*
G01*
X200709627Y-70486037D01*
X200879466Y-70537557D01*
X201035991Y-70621222D01*
X201071729Y-70650552D01*
X201173186Y-70733814D01*
X201256448Y-70835271D01*
X201285778Y-70871009D01*
X201369443Y-71027534D01*
X201420963Y-71197373D01*
X201438359Y-71374000D01*
X201420963Y-71550627D01*
X201369443Y-71720466D01*
X201285778Y-71876991D01*
X201256448Y-71912729D01*
X201173186Y-72014186D01*
X201071729Y-72097448D01*
X201035991Y-72126778D01*
X200879466Y-72210443D01*
X200709627Y-72261963D01*
X200643443Y-72268481D01*
X200577260Y-72275000D01*
X200488740Y-72275000D01*
X200422557Y-72268481D01*
X200356373Y-72261963D01*
X200186534Y-72210443D01*
X200030009Y-72126778D01*
X199994271Y-72097448D01*
X199892814Y-72014186D01*
X199809552Y-71912729D01*
X199780222Y-71876991D01*
X199696557Y-71720466D01*
X199645037Y-71550627D01*
X199627641Y-71374000D01*
X199645037Y-71197373D01*
X199696557Y-71027534D01*
X199780222Y-70871009D01*
X199809552Y-70835271D01*
X199892814Y-70733814D01*
X199994271Y-70650552D01*
X200030009Y-70621222D01*
X200186534Y-70537557D01*
X200356373Y-70486037D01*
X200422557Y-70479519D01*
X200488740Y-70473000D01*
X200577260Y-70473000D01*
X200643443Y-70479519D01*
X200643443Y-70479519D01*
G37*
G36*
X198103443Y-70479519D02*
G01*
X198169627Y-70486037D01*
X198339466Y-70537557D01*
X198495991Y-70621222D01*
X198531729Y-70650552D01*
X198633186Y-70733814D01*
X198716448Y-70835271D01*
X198745778Y-70871009D01*
X198829443Y-71027534D01*
X198880963Y-71197373D01*
X198898359Y-71374000D01*
X198880963Y-71550627D01*
X198829443Y-71720466D01*
X198745778Y-71876991D01*
X198716448Y-71912729D01*
X198633186Y-72014186D01*
X198531729Y-72097448D01*
X198495991Y-72126778D01*
X198339466Y-72210443D01*
X198169627Y-72261963D01*
X198103443Y-72268481D01*
X198037260Y-72275000D01*
X197948740Y-72275000D01*
X197882557Y-72268481D01*
X197816373Y-72261963D01*
X197646534Y-72210443D01*
X197490009Y-72126778D01*
X197454271Y-72097448D01*
X197352814Y-72014186D01*
X197269552Y-71912729D01*
X197240222Y-71876991D01*
X197156557Y-71720466D01*
X197105037Y-71550627D01*
X197087641Y-71374000D01*
X197105037Y-71197373D01*
X197156557Y-71027534D01*
X197240222Y-70871009D01*
X197269552Y-70835271D01*
X197352814Y-70733814D01*
X197454271Y-70650552D01*
X197490009Y-70621222D01*
X197646534Y-70537557D01*
X197816373Y-70486037D01*
X197882557Y-70479519D01*
X197948740Y-70473000D01*
X198037260Y-70473000D01*
X198103443Y-70479519D01*
X198103443Y-70479519D01*
G37*
G36*
X195563443Y-70479519D02*
G01*
X195629627Y-70486037D01*
X195799466Y-70537557D01*
X195955991Y-70621222D01*
X195991729Y-70650552D01*
X196093186Y-70733814D01*
X196176448Y-70835271D01*
X196205778Y-70871009D01*
X196289443Y-71027534D01*
X196340963Y-71197373D01*
X196358359Y-71374000D01*
X196340963Y-71550627D01*
X196289443Y-71720466D01*
X196205778Y-71876991D01*
X196176448Y-71912729D01*
X196093186Y-72014186D01*
X195991729Y-72097448D01*
X195955991Y-72126778D01*
X195799466Y-72210443D01*
X195629627Y-72261963D01*
X195563443Y-72268481D01*
X195497260Y-72275000D01*
X195408740Y-72275000D01*
X195342557Y-72268481D01*
X195276373Y-72261963D01*
X195106534Y-72210443D01*
X194950009Y-72126778D01*
X194914271Y-72097448D01*
X194812814Y-72014186D01*
X194729552Y-71912729D01*
X194700222Y-71876991D01*
X194616557Y-71720466D01*
X194565037Y-71550627D01*
X194547641Y-71374000D01*
X194565037Y-71197373D01*
X194616557Y-71027534D01*
X194700222Y-70871009D01*
X194729552Y-70835271D01*
X194812814Y-70733814D01*
X194914271Y-70650552D01*
X194950009Y-70621222D01*
X195106534Y-70537557D01*
X195276373Y-70486037D01*
X195342557Y-70479519D01*
X195408740Y-70473000D01*
X195497260Y-70473000D01*
X195563443Y-70479519D01*
X195563443Y-70479519D01*
G37*
G36*
X191274000Y-72275000D02*
G01*
X189472000Y-72275000D01*
X189472000Y-70473000D01*
X191274000Y-70473000D01*
X191274000Y-72275000D01*
X191274000Y-72275000D01*
G37*
G36*
X193023443Y-70479519D02*
G01*
X193089627Y-70486037D01*
X193259466Y-70537557D01*
X193415991Y-70621222D01*
X193451729Y-70650552D01*
X193553186Y-70733814D01*
X193636448Y-70835271D01*
X193665778Y-70871009D01*
X193749443Y-71027534D01*
X193800963Y-71197373D01*
X193818359Y-71374000D01*
X193800963Y-71550627D01*
X193749443Y-71720466D01*
X193665778Y-71876991D01*
X193636448Y-71912729D01*
X193553186Y-72014186D01*
X193451729Y-72097448D01*
X193415991Y-72126778D01*
X193259466Y-72210443D01*
X193089627Y-72261963D01*
X193023443Y-72268481D01*
X192957260Y-72275000D01*
X192868740Y-72275000D01*
X192802557Y-72268481D01*
X192736373Y-72261963D01*
X192566534Y-72210443D01*
X192410009Y-72126778D01*
X192374271Y-72097448D01*
X192272814Y-72014186D01*
X192189552Y-71912729D01*
X192160222Y-71876991D01*
X192076557Y-71720466D01*
X192025037Y-71550627D01*
X192007641Y-71374000D01*
X192025037Y-71197373D01*
X192076557Y-71027534D01*
X192160222Y-70871009D01*
X192189552Y-70835271D01*
X192272814Y-70733814D01*
X192374271Y-70650552D01*
X192410009Y-70621222D01*
X192566534Y-70537557D01*
X192736373Y-70486037D01*
X192802557Y-70479519D01*
X192868740Y-70473000D01*
X192957260Y-70473000D01*
X193023443Y-70479519D01*
X193023443Y-70479519D01*
G37*
G36*
X181304500Y-68909500D02*
G01*
X179502500Y-68909500D01*
X179502500Y-67107500D01*
X181304500Y-67107500D01*
X181304500Y-68909500D01*
X181304500Y-68909500D01*
G37*
G36*
X183053943Y-67114019D02*
G01*
X183120127Y-67120537D01*
X183289966Y-67172057D01*
X183446491Y-67255722D01*
X183482229Y-67285052D01*
X183583686Y-67368314D01*
X183666948Y-67469771D01*
X183696278Y-67505509D01*
X183779943Y-67662034D01*
X183831463Y-67831873D01*
X183848859Y-68008500D01*
X183831463Y-68185127D01*
X183779943Y-68354966D01*
X183696278Y-68511491D01*
X183666948Y-68547229D01*
X183583686Y-68648686D01*
X183482229Y-68731948D01*
X183446491Y-68761278D01*
X183289966Y-68844943D01*
X183120127Y-68896463D01*
X183053942Y-68902982D01*
X182987760Y-68909500D01*
X182899240Y-68909500D01*
X182833058Y-68902982D01*
X182766873Y-68896463D01*
X182597034Y-68844943D01*
X182440509Y-68761278D01*
X182404771Y-68731948D01*
X182303314Y-68648686D01*
X182220052Y-68547229D01*
X182190722Y-68511491D01*
X182107057Y-68354966D01*
X182055537Y-68185127D01*
X182038141Y-68008500D01*
X182055537Y-67831873D01*
X182107057Y-67662034D01*
X182190722Y-67505509D01*
X182220052Y-67469771D01*
X182303314Y-67368314D01*
X182404771Y-67285052D01*
X182440509Y-67255722D01*
X182597034Y-67172057D01*
X182766873Y-67120537D01*
X182833057Y-67114019D01*
X182899240Y-67107500D01*
X182987760Y-67107500D01*
X183053943Y-67114019D01*
X183053943Y-67114019D01*
G37*
G36*
X193275276Y-59563397D02*
G01*
X193422066Y-59624200D01*
X193422067Y-59624201D01*
X193554177Y-59712474D01*
X193666526Y-59824823D01*
X193666527Y-59824825D01*
X193754800Y-59956934D01*
X193815603Y-60103724D01*
X193846599Y-60259556D01*
X193846599Y-60418446D01*
X193815603Y-60574278D01*
X193754800Y-60721068D01*
X193754799Y-60721069D01*
X193666526Y-60853179D01*
X193554177Y-60965528D01*
X193487672Y-61009965D01*
X193422066Y-61053802D01*
X193275276Y-61114605D01*
X193119444Y-61145601D01*
X192960554Y-61145601D01*
X192804722Y-61114605D01*
X192657932Y-61053802D01*
X192592326Y-61009965D01*
X192525821Y-60965528D01*
X192413472Y-60853179D01*
X192325199Y-60721069D01*
X192325198Y-60721068D01*
X192264395Y-60574278D01*
X192233399Y-60418446D01*
X192233399Y-60259556D01*
X192264395Y-60103724D01*
X192325198Y-59956934D01*
X192413471Y-59824825D01*
X192413472Y-59824823D01*
X192525821Y-59712474D01*
X192657931Y-59624201D01*
X192657932Y-59624200D01*
X192804722Y-59563397D01*
X192960554Y-59532401D01*
X193119444Y-59532401D01*
X193275276Y-59563397D01*
X193275276Y-59563397D01*
G37*
G36*
X108185277Y-59563397D02*
G01*
X108332067Y-59624200D01*
X108332068Y-59624201D01*
X108464178Y-59712474D01*
X108576527Y-59824823D01*
X108576528Y-59824825D01*
X108664801Y-59956934D01*
X108725604Y-60103724D01*
X108756600Y-60259556D01*
X108756600Y-60418446D01*
X108725604Y-60574278D01*
X108664801Y-60721068D01*
X108664800Y-60721069D01*
X108576527Y-60853179D01*
X108464178Y-60965528D01*
X108397673Y-61009965D01*
X108332067Y-61053802D01*
X108185277Y-61114605D01*
X108029445Y-61145601D01*
X107870555Y-61145601D01*
X107714723Y-61114605D01*
X107567933Y-61053802D01*
X107502327Y-61009965D01*
X107435822Y-60965528D01*
X107323473Y-60853179D01*
X107235200Y-60721069D01*
X107235199Y-60721068D01*
X107174396Y-60574278D01*
X107143400Y-60418446D01*
X107143400Y-60259556D01*
X107174396Y-60103724D01*
X107235199Y-59956934D01*
X107323472Y-59824825D01*
X107323473Y-59824823D01*
X107435822Y-59712474D01*
X107567932Y-59624201D01*
X107567933Y-59624200D01*
X107714723Y-59563397D01*
X107870555Y-59532401D01*
X108029445Y-59532401D01*
X108185277Y-59563397D01*
X108185277Y-59563397D01*
G37*
G36*
X191625276Y-58313397D02*
G01*
X191772066Y-58374200D01*
X191772067Y-58374201D01*
X191904177Y-58462474D01*
X192016526Y-58574823D01*
X192016527Y-58574825D01*
X192104800Y-58706934D01*
X192165603Y-58853724D01*
X192196599Y-59009556D01*
X192196599Y-59168446D01*
X192165603Y-59324278D01*
X192104800Y-59471068D01*
X192104799Y-59471069D01*
X192016526Y-59603179D01*
X191904177Y-59715528D01*
X191837672Y-59759965D01*
X191772066Y-59803802D01*
X191625276Y-59864605D01*
X191469444Y-59895601D01*
X191310554Y-59895601D01*
X191154722Y-59864605D01*
X191007932Y-59803802D01*
X190942326Y-59759965D01*
X190875821Y-59715528D01*
X190763472Y-59603179D01*
X190675199Y-59471069D01*
X190675198Y-59471068D01*
X190614395Y-59324278D01*
X190583399Y-59168446D01*
X190583399Y-59009556D01*
X190614395Y-58853724D01*
X190675198Y-58706934D01*
X190763471Y-58574825D01*
X190763472Y-58574823D01*
X190875821Y-58462474D01*
X191007931Y-58374201D01*
X191007932Y-58374200D01*
X191154722Y-58313397D01*
X191310554Y-58282401D01*
X191469444Y-58282401D01*
X191625276Y-58313397D01*
X191625276Y-58313397D01*
G37*
G36*
X109835277Y-58313397D02*
G01*
X109982067Y-58374200D01*
X109982068Y-58374201D01*
X110114178Y-58462474D01*
X110226527Y-58574823D01*
X110226528Y-58574825D01*
X110314801Y-58706934D01*
X110375604Y-58853724D01*
X110406600Y-59009556D01*
X110406600Y-59168446D01*
X110375604Y-59324278D01*
X110314801Y-59471068D01*
X110314800Y-59471069D01*
X110226527Y-59603179D01*
X110114178Y-59715528D01*
X110047673Y-59759965D01*
X109982067Y-59803802D01*
X109835277Y-59864605D01*
X109679445Y-59895601D01*
X109520555Y-59895601D01*
X109364723Y-59864605D01*
X109217933Y-59803802D01*
X109152327Y-59759965D01*
X109085822Y-59715528D01*
X108973473Y-59603179D01*
X108885200Y-59471069D01*
X108885199Y-59471068D01*
X108824396Y-59324278D01*
X108793400Y-59168446D01*
X108793400Y-59009556D01*
X108824396Y-58853724D01*
X108885199Y-58706934D01*
X108973472Y-58574825D01*
X108973473Y-58574823D01*
X109085822Y-58462474D01*
X109217932Y-58374201D01*
X109217933Y-58374200D01*
X109364723Y-58313397D01*
X109520555Y-58282401D01*
X109679445Y-58282401D01*
X109835277Y-58313397D01*
X109835277Y-58313397D01*
G37*
G36*
X108185277Y-57063397D02*
G01*
X108332067Y-57124200D01*
X108332068Y-57124201D01*
X108464178Y-57212474D01*
X108576527Y-57324823D01*
X108576528Y-57324825D01*
X108664801Y-57456934D01*
X108725604Y-57603724D01*
X108756600Y-57759556D01*
X108756600Y-57918446D01*
X108725604Y-58074278D01*
X108664801Y-58221068D01*
X108664800Y-58221069D01*
X108576527Y-58353179D01*
X108464178Y-58465528D01*
X108397673Y-58509965D01*
X108332067Y-58553802D01*
X108185277Y-58614605D01*
X108029445Y-58645601D01*
X107870555Y-58645601D01*
X107714723Y-58614605D01*
X107567933Y-58553802D01*
X107502327Y-58509965D01*
X107435822Y-58465528D01*
X107323473Y-58353179D01*
X107235200Y-58221069D01*
X107235199Y-58221068D01*
X107174396Y-58074278D01*
X107143400Y-57918446D01*
X107143400Y-57759556D01*
X107174396Y-57603724D01*
X107235199Y-57456934D01*
X107323472Y-57324825D01*
X107323473Y-57324823D01*
X107435822Y-57212474D01*
X107567932Y-57124201D01*
X107567933Y-57124200D01*
X107714723Y-57063397D01*
X107870555Y-57032401D01*
X108029445Y-57032401D01*
X108185277Y-57063397D01*
X108185277Y-57063397D01*
G37*
G36*
X193275276Y-57063397D02*
G01*
X193422066Y-57124200D01*
X193422067Y-57124201D01*
X193554177Y-57212474D01*
X193666526Y-57324823D01*
X193666527Y-57324825D01*
X193754800Y-57456934D01*
X193815603Y-57603724D01*
X193846599Y-57759556D01*
X193846599Y-57918446D01*
X193815603Y-58074278D01*
X193754800Y-58221068D01*
X193754799Y-58221069D01*
X193666526Y-58353179D01*
X193554177Y-58465528D01*
X193487672Y-58509965D01*
X193422066Y-58553802D01*
X193275276Y-58614605D01*
X193119444Y-58645601D01*
X192960554Y-58645601D01*
X192804722Y-58614605D01*
X192657932Y-58553802D01*
X192592326Y-58509965D01*
X192525821Y-58465528D01*
X192413472Y-58353179D01*
X192325199Y-58221069D01*
X192325198Y-58221068D01*
X192264395Y-58074278D01*
X192233399Y-57918446D01*
X192233399Y-57759556D01*
X192264395Y-57603724D01*
X192325198Y-57456934D01*
X192413471Y-57324825D01*
X192413472Y-57324823D01*
X192525821Y-57212474D01*
X192657931Y-57124201D01*
X192657932Y-57124200D01*
X192804722Y-57063397D01*
X192960554Y-57032401D01*
X193119444Y-57032401D01*
X193275276Y-57063397D01*
X193275276Y-57063397D01*
G37*
G36*
X191625276Y-55813397D02*
G01*
X191772066Y-55874200D01*
X191772067Y-55874201D01*
X191904177Y-55962474D01*
X192016526Y-56074823D01*
X192016527Y-56074825D01*
X192104800Y-56206934D01*
X192165603Y-56353724D01*
X192196599Y-56509556D01*
X192196599Y-56668446D01*
X192165603Y-56824278D01*
X192104800Y-56971068D01*
X192104799Y-56971069D01*
X192016526Y-57103179D01*
X191904177Y-57215528D01*
X191837672Y-57259965D01*
X191772066Y-57303802D01*
X191625276Y-57364605D01*
X191469444Y-57395601D01*
X191310554Y-57395601D01*
X191154722Y-57364605D01*
X191007932Y-57303802D01*
X190942326Y-57259965D01*
X190875821Y-57215528D01*
X190763472Y-57103179D01*
X190675199Y-56971069D01*
X190675198Y-56971068D01*
X190614395Y-56824278D01*
X190583399Y-56668446D01*
X190583399Y-56509556D01*
X190614395Y-56353724D01*
X190675198Y-56206934D01*
X190763471Y-56074825D01*
X190763472Y-56074823D01*
X190875821Y-55962474D01*
X191007931Y-55874201D01*
X191007932Y-55874200D01*
X191154722Y-55813397D01*
X191310554Y-55782401D01*
X191469444Y-55782401D01*
X191625276Y-55813397D01*
X191625276Y-55813397D01*
G37*
G36*
X109835277Y-55813397D02*
G01*
X109982067Y-55874200D01*
X109982068Y-55874201D01*
X110114178Y-55962474D01*
X110226527Y-56074823D01*
X110226528Y-56074825D01*
X110314801Y-56206934D01*
X110375604Y-56353724D01*
X110406600Y-56509556D01*
X110406600Y-56668446D01*
X110375604Y-56824278D01*
X110314801Y-56971068D01*
X110314800Y-56971069D01*
X110226527Y-57103179D01*
X110114178Y-57215528D01*
X110047673Y-57259965D01*
X109982067Y-57303802D01*
X109835277Y-57364605D01*
X109679445Y-57395601D01*
X109520555Y-57395601D01*
X109364723Y-57364605D01*
X109217933Y-57303802D01*
X109152327Y-57259965D01*
X109085822Y-57215528D01*
X108973473Y-57103179D01*
X108885200Y-56971069D01*
X108885199Y-56971068D01*
X108824396Y-56824278D01*
X108793400Y-56668446D01*
X108793400Y-56509556D01*
X108824396Y-56353724D01*
X108885199Y-56206934D01*
X108973472Y-56074825D01*
X108973473Y-56074823D01*
X109085822Y-55962474D01*
X109217932Y-55874201D01*
X109217933Y-55874200D01*
X109364723Y-55813397D01*
X109520555Y-55782401D01*
X109679445Y-55782401D01*
X109835277Y-55813397D01*
X109835277Y-55813397D01*
G37*
G36*
X108185277Y-54563397D02*
G01*
X108332067Y-54624200D01*
X108332068Y-54624201D01*
X108464178Y-54712474D01*
X108576527Y-54824823D01*
X108576528Y-54824825D01*
X108664801Y-54956934D01*
X108725604Y-55103724D01*
X108756600Y-55259556D01*
X108756600Y-55418446D01*
X108725604Y-55574278D01*
X108664801Y-55721068D01*
X108664800Y-55721069D01*
X108576527Y-55853179D01*
X108464178Y-55965528D01*
X108397673Y-56009965D01*
X108332067Y-56053802D01*
X108185277Y-56114605D01*
X108029445Y-56145601D01*
X107870555Y-56145601D01*
X107714723Y-56114605D01*
X107567933Y-56053802D01*
X107502327Y-56009965D01*
X107435822Y-55965528D01*
X107323473Y-55853179D01*
X107235200Y-55721069D01*
X107235199Y-55721068D01*
X107174396Y-55574278D01*
X107143400Y-55418446D01*
X107143400Y-55259556D01*
X107174396Y-55103724D01*
X107235199Y-54956934D01*
X107323472Y-54824825D01*
X107323473Y-54824823D01*
X107435822Y-54712474D01*
X107567932Y-54624201D01*
X107567933Y-54624200D01*
X107714723Y-54563397D01*
X107870555Y-54532401D01*
X108029445Y-54532401D01*
X108185277Y-54563397D01*
X108185277Y-54563397D01*
G37*
G36*
X193275276Y-54563397D02*
G01*
X193422066Y-54624200D01*
X193422067Y-54624201D01*
X193554177Y-54712474D01*
X193666526Y-54824823D01*
X193666527Y-54824825D01*
X193754800Y-54956934D01*
X193815603Y-55103724D01*
X193846599Y-55259556D01*
X193846599Y-55418446D01*
X193815603Y-55574278D01*
X193754800Y-55721068D01*
X193754799Y-55721069D01*
X193666526Y-55853179D01*
X193554177Y-55965528D01*
X193487672Y-56009965D01*
X193422066Y-56053802D01*
X193275276Y-56114605D01*
X193119444Y-56145601D01*
X192960554Y-56145601D01*
X192804722Y-56114605D01*
X192657932Y-56053802D01*
X192592326Y-56009965D01*
X192525821Y-55965528D01*
X192413472Y-55853179D01*
X192325199Y-55721069D01*
X192325198Y-55721068D01*
X192264395Y-55574278D01*
X192233399Y-55418446D01*
X192233399Y-55259556D01*
X192264395Y-55103724D01*
X192325198Y-54956934D01*
X192413471Y-54824825D01*
X192413472Y-54824823D01*
X192525821Y-54712474D01*
X192657931Y-54624201D01*
X192657932Y-54624200D01*
X192804722Y-54563397D01*
X192960554Y-54532401D01*
X193119444Y-54532401D01*
X193275276Y-54563397D01*
X193275276Y-54563397D01*
G37*
G36*
X109835277Y-53313397D02*
G01*
X109982067Y-53374200D01*
X109982068Y-53374201D01*
X110114178Y-53462474D01*
X110226527Y-53574823D01*
X110226528Y-53574825D01*
X110314801Y-53706934D01*
X110375604Y-53853724D01*
X110406600Y-54009556D01*
X110406600Y-54168446D01*
X110375604Y-54324278D01*
X110314801Y-54471068D01*
X110314800Y-54471069D01*
X110226527Y-54603179D01*
X110114178Y-54715528D01*
X110047673Y-54759965D01*
X109982067Y-54803802D01*
X109835277Y-54864605D01*
X109679445Y-54895601D01*
X109520555Y-54895601D01*
X109364723Y-54864605D01*
X109217933Y-54803802D01*
X109152327Y-54759965D01*
X109085822Y-54715528D01*
X108973473Y-54603179D01*
X108885200Y-54471069D01*
X108885199Y-54471068D01*
X108824396Y-54324278D01*
X108793400Y-54168446D01*
X108793400Y-54009556D01*
X108824396Y-53853724D01*
X108885199Y-53706934D01*
X108973472Y-53574825D01*
X108973473Y-53574823D01*
X109085822Y-53462474D01*
X109217932Y-53374201D01*
X109217933Y-53374200D01*
X109364723Y-53313397D01*
X109520555Y-53282401D01*
X109679445Y-53282401D01*
X109835277Y-53313397D01*
X109835277Y-53313397D01*
G37*
G36*
X191625276Y-53313397D02*
G01*
X191772066Y-53374200D01*
X191772067Y-53374201D01*
X191904177Y-53462474D01*
X192016526Y-53574823D01*
X192016527Y-53574825D01*
X192104800Y-53706934D01*
X192165603Y-53853724D01*
X192196599Y-54009556D01*
X192196599Y-54168446D01*
X192165603Y-54324278D01*
X192104800Y-54471068D01*
X192104799Y-54471069D01*
X192016526Y-54603179D01*
X191904177Y-54715528D01*
X191837672Y-54759965D01*
X191772066Y-54803802D01*
X191625276Y-54864605D01*
X191469444Y-54895601D01*
X191310554Y-54895601D01*
X191154722Y-54864605D01*
X191007932Y-54803802D01*
X190942326Y-54759965D01*
X190875821Y-54715528D01*
X190763472Y-54603179D01*
X190675199Y-54471069D01*
X190675198Y-54471068D01*
X190614395Y-54324278D01*
X190583399Y-54168446D01*
X190583399Y-54009556D01*
X190614395Y-53853724D01*
X190675198Y-53706934D01*
X190763471Y-53574825D01*
X190763472Y-53574823D01*
X190875821Y-53462474D01*
X191007931Y-53374201D01*
X191007932Y-53374200D01*
X191154722Y-53313397D01*
X191310554Y-53282401D01*
X191469444Y-53282401D01*
X191625276Y-53313397D01*
X191625276Y-53313397D01*
G37*
G36*
X108185277Y-52063397D02*
G01*
X108332067Y-52124200D01*
X108332068Y-52124201D01*
X108464178Y-52212474D01*
X108576527Y-52324823D01*
X108576528Y-52324825D01*
X108664801Y-52456934D01*
X108725604Y-52603724D01*
X108756600Y-52759556D01*
X108756600Y-52918446D01*
X108725604Y-53074278D01*
X108664801Y-53221068D01*
X108664800Y-53221069D01*
X108576527Y-53353179D01*
X108464178Y-53465528D01*
X108397673Y-53509965D01*
X108332067Y-53553802D01*
X108185277Y-53614605D01*
X108029445Y-53645601D01*
X107870555Y-53645601D01*
X107714723Y-53614605D01*
X107567933Y-53553802D01*
X107502327Y-53509965D01*
X107435822Y-53465528D01*
X107323473Y-53353179D01*
X107235200Y-53221069D01*
X107235199Y-53221068D01*
X107174396Y-53074278D01*
X107143400Y-52918446D01*
X107143400Y-52759556D01*
X107174396Y-52603724D01*
X107235199Y-52456934D01*
X107323472Y-52324825D01*
X107323473Y-52324823D01*
X107435822Y-52212474D01*
X107567932Y-52124201D01*
X107567933Y-52124200D01*
X107714723Y-52063397D01*
X107870555Y-52032401D01*
X108029445Y-52032401D01*
X108185277Y-52063397D01*
X108185277Y-52063397D01*
G37*
G36*
X193275276Y-52063397D02*
G01*
X193422066Y-52124200D01*
X193422067Y-52124201D01*
X193554177Y-52212474D01*
X193666526Y-52324823D01*
X193666527Y-52324825D01*
X193754800Y-52456934D01*
X193815603Y-52603724D01*
X193846599Y-52759556D01*
X193846599Y-52918446D01*
X193815603Y-53074278D01*
X193754800Y-53221068D01*
X193754799Y-53221069D01*
X193666526Y-53353179D01*
X193554177Y-53465528D01*
X193487672Y-53509965D01*
X193422066Y-53553802D01*
X193275276Y-53614605D01*
X193119444Y-53645601D01*
X192960554Y-53645601D01*
X192804722Y-53614605D01*
X192657932Y-53553802D01*
X192592326Y-53509965D01*
X192525821Y-53465528D01*
X192413472Y-53353179D01*
X192325199Y-53221069D01*
X192325198Y-53221068D01*
X192264395Y-53074278D01*
X192233399Y-52918446D01*
X192233399Y-52759556D01*
X192264395Y-52603724D01*
X192325198Y-52456934D01*
X192413471Y-52324825D01*
X192413472Y-52324823D01*
X192525821Y-52212474D01*
X192657931Y-52124201D01*
X192657932Y-52124200D01*
X192804722Y-52063397D01*
X192960554Y-52032401D01*
X193119444Y-52032401D01*
X193275276Y-52063397D01*
X193275276Y-52063397D01*
G37*
G36*
X109835277Y-50813397D02*
G01*
X109982067Y-50874200D01*
X109982068Y-50874201D01*
X110114178Y-50962474D01*
X110226527Y-51074823D01*
X110226528Y-51074825D01*
X110314801Y-51206934D01*
X110375604Y-51353724D01*
X110406600Y-51509556D01*
X110406600Y-51668446D01*
X110375604Y-51824278D01*
X110314801Y-51971068D01*
X110314800Y-51971069D01*
X110226527Y-52103179D01*
X110114178Y-52215528D01*
X110047673Y-52259965D01*
X109982067Y-52303802D01*
X109835277Y-52364605D01*
X109679445Y-52395601D01*
X109520555Y-52395601D01*
X109364723Y-52364605D01*
X109217933Y-52303802D01*
X109152327Y-52259965D01*
X109085822Y-52215528D01*
X108973473Y-52103179D01*
X108885200Y-51971069D01*
X108885199Y-51971068D01*
X108824396Y-51824278D01*
X108793400Y-51668446D01*
X108793400Y-51509556D01*
X108824396Y-51353724D01*
X108885199Y-51206934D01*
X108973472Y-51074825D01*
X108973473Y-51074823D01*
X109085822Y-50962474D01*
X109217932Y-50874201D01*
X109217933Y-50874200D01*
X109364723Y-50813397D01*
X109520555Y-50782401D01*
X109679445Y-50782401D01*
X109835277Y-50813397D01*
X109835277Y-50813397D01*
G37*
G36*
X191625276Y-50813397D02*
G01*
X191772066Y-50874200D01*
X191772067Y-50874201D01*
X191904177Y-50962474D01*
X192016526Y-51074823D01*
X192016527Y-51074825D01*
X192104800Y-51206934D01*
X192165603Y-51353724D01*
X192196599Y-51509556D01*
X192196599Y-51668446D01*
X192165603Y-51824278D01*
X192104800Y-51971068D01*
X192104799Y-51971069D01*
X192016526Y-52103179D01*
X191904177Y-52215528D01*
X191837672Y-52259965D01*
X191772066Y-52303802D01*
X191625276Y-52364605D01*
X191469444Y-52395601D01*
X191310554Y-52395601D01*
X191154722Y-52364605D01*
X191007932Y-52303802D01*
X190942326Y-52259965D01*
X190875821Y-52215528D01*
X190763472Y-52103179D01*
X190675199Y-51971069D01*
X190675198Y-51971068D01*
X190614395Y-51824278D01*
X190583399Y-51668446D01*
X190583399Y-51509556D01*
X190614395Y-51353724D01*
X190675198Y-51206934D01*
X190763471Y-51074825D01*
X190763472Y-51074823D01*
X190875821Y-50962474D01*
X191007931Y-50874201D01*
X191007932Y-50874200D01*
X191154722Y-50813397D01*
X191310554Y-50782401D01*
X191469444Y-50782401D01*
X191625276Y-50813397D01*
X191625276Y-50813397D01*
G37*
G36*
X193275276Y-49563397D02*
G01*
X193422066Y-49624200D01*
X193422067Y-49624201D01*
X193554177Y-49712474D01*
X193666526Y-49824823D01*
X193666527Y-49824825D01*
X193754800Y-49956934D01*
X193815603Y-50103724D01*
X193846599Y-50259556D01*
X193846599Y-50418446D01*
X193815603Y-50574278D01*
X193754800Y-50721068D01*
X193754799Y-50721069D01*
X193666526Y-50853179D01*
X193554177Y-50965528D01*
X193487672Y-51009965D01*
X193422066Y-51053802D01*
X193275276Y-51114605D01*
X193119444Y-51145601D01*
X192960554Y-51145601D01*
X192804722Y-51114605D01*
X192657932Y-51053802D01*
X192592326Y-51009965D01*
X192525821Y-50965528D01*
X192413472Y-50853179D01*
X192325199Y-50721069D01*
X192325198Y-50721068D01*
X192264395Y-50574278D01*
X192233399Y-50418446D01*
X192233399Y-50259556D01*
X192264395Y-50103724D01*
X192325198Y-49956934D01*
X192413471Y-49824825D01*
X192413472Y-49824823D01*
X192525821Y-49712474D01*
X192657931Y-49624201D01*
X192657932Y-49624200D01*
X192804722Y-49563397D01*
X192960554Y-49532401D01*
X193119444Y-49532401D01*
X193275276Y-49563397D01*
X193275276Y-49563397D01*
G37*
G36*
X108185277Y-49563397D02*
G01*
X108332067Y-49624200D01*
X108332068Y-49624201D01*
X108464178Y-49712474D01*
X108576527Y-49824823D01*
X108576528Y-49824825D01*
X108664801Y-49956934D01*
X108725604Y-50103724D01*
X108756600Y-50259556D01*
X108756600Y-50418446D01*
X108725604Y-50574278D01*
X108664801Y-50721068D01*
X108664800Y-50721069D01*
X108576527Y-50853179D01*
X108464178Y-50965528D01*
X108397673Y-51009965D01*
X108332067Y-51053802D01*
X108185277Y-51114605D01*
X108029445Y-51145601D01*
X107870555Y-51145601D01*
X107714723Y-51114605D01*
X107567933Y-51053802D01*
X107502327Y-51009965D01*
X107435822Y-50965528D01*
X107323473Y-50853179D01*
X107235200Y-50721069D01*
X107235199Y-50721068D01*
X107174396Y-50574278D01*
X107143400Y-50418446D01*
X107143400Y-50259556D01*
X107174396Y-50103724D01*
X107235199Y-49956934D01*
X107323472Y-49824825D01*
X107323473Y-49824823D01*
X107435822Y-49712474D01*
X107567932Y-49624201D01*
X107567933Y-49624200D01*
X107714723Y-49563397D01*
X107870555Y-49532401D01*
X108029445Y-49532401D01*
X108185277Y-49563397D01*
X108185277Y-49563397D01*
G37*
G36*
X109835277Y-48313397D02*
G01*
X109982067Y-48374200D01*
X109982068Y-48374201D01*
X110114178Y-48462474D01*
X110226527Y-48574823D01*
X110226528Y-48574825D01*
X110314801Y-48706934D01*
X110375604Y-48853724D01*
X110406600Y-49009556D01*
X110406600Y-49168446D01*
X110375604Y-49324278D01*
X110314801Y-49471068D01*
X110314800Y-49471069D01*
X110226527Y-49603179D01*
X110114178Y-49715528D01*
X110047673Y-49759965D01*
X109982067Y-49803802D01*
X109835277Y-49864605D01*
X109679445Y-49895601D01*
X109520555Y-49895601D01*
X109364723Y-49864605D01*
X109217933Y-49803802D01*
X109152327Y-49759965D01*
X109085822Y-49715528D01*
X108973473Y-49603179D01*
X108885200Y-49471069D01*
X108885199Y-49471068D01*
X108824396Y-49324278D01*
X108793400Y-49168446D01*
X108793400Y-49009556D01*
X108824396Y-48853724D01*
X108885199Y-48706934D01*
X108973472Y-48574825D01*
X108973473Y-48574823D01*
X109085822Y-48462474D01*
X109217932Y-48374201D01*
X109217933Y-48374200D01*
X109364723Y-48313397D01*
X109520555Y-48282401D01*
X109679445Y-48282401D01*
X109835277Y-48313397D01*
X109835277Y-48313397D01*
G37*
G36*
X191625276Y-48313397D02*
G01*
X191772066Y-48374200D01*
X191772067Y-48374201D01*
X191904177Y-48462474D01*
X192016526Y-48574823D01*
X192016527Y-48574825D01*
X192104800Y-48706934D01*
X192165603Y-48853724D01*
X192196599Y-49009556D01*
X192196599Y-49168446D01*
X192165603Y-49324278D01*
X192104800Y-49471068D01*
X192104799Y-49471069D01*
X192016526Y-49603179D01*
X191904177Y-49715528D01*
X191837672Y-49759965D01*
X191772066Y-49803802D01*
X191625276Y-49864605D01*
X191469444Y-49895601D01*
X191310554Y-49895601D01*
X191154722Y-49864605D01*
X191007932Y-49803802D01*
X190942326Y-49759965D01*
X190875821Y-49715528D01*
X190763472Y-49603179D01*
X190675199Y-49471069D01*
X190675198Y-49471068D01*
X190614395Y-49324278D01*
X190583399Y-49168446D01*
X190583399Y-49009556D01*
X190614395Y-48853724D01*
X190675198Y-48706934D01*
X190763471Y-48574825D01*
X190763472Y-48574823D01*
X190875821Y-48462474D01*
X191007931Y-48374201D01*
X191007932Y-48374200D01*
X191154722Y-48313397D01*
X191310554Y-48282401D01*
X191469444Y-48282401D01*
X191625276Y-48313397D01*
X191625276Y-48313397D01*
G37*
G36*
X108185277Y-47063397D02*
G01*
X108332067Y-47124200D01*
X108332068Y-47124201D01*
X108464178Y-47212474D01*
X108576527Y-47324823D01*
X108576528Y-47324825D01*
X108664801Y-47456934D01*
X108725604Y-47603724D01*
X108756600Y-47759556D01*
X108756600Y-47918446D01*
X108725604Y-48074278D01*
X108664801Y-48221068D01*
X108664800Y-48221069D01*
X108576527Y-48353179D01*
X108464178Y-48465528D01*
X108397673Y-48509965D01*
X108332067Y-48553802D01*
X108185277Y-48614605D01*
X108029445Y-48645601D01*
X107870555Y-48645601D01*
X107714723Y-48614605D01*
X107567933Y-48553802D01*
X107502327Y-48509965D01*
X107435822Y-48465528D01*
X107323473Y-48353179D01*
X107235200Y-48221069D01*
X107235199Y-48221068D01*
X107174396Y-48074278D01*
X107143400Y-47918446D01*
X107143400Y-47759556D01*
X107174396Y-47603724D01*
X107235199Y-47456934D01*
X107323472Y-47324825D01*
X107323473Y-47324823D01*
X107435822Y-47212474D01*
X107567932Y-47124201D01*
X107567933Y-47124200D01*
X107714723Y-47063397D01*
X107870555Y-47032401D01*
X108029445Y-47032401D01*
X108185277Y-47063397D01*
X108185277Y-47063397D01*
G37*
G36*
X193275276Y-47063397D02*
G01*
X193422066Y-47124200D01*
X193422067Y-47124201D01*
X193554177Y-47212474D01*
X193666526Y-47324823D01*
X193666527Y-47324825D01*
X193754800Y-47456934D01*
X193815603Y-47603724D01*
X193846599Y-47759556D01*
X193846599Y-47918446D01*
X193815603Y-48074278D01*
X193754800Y-48221068D01*
X193754799Y-48221069D01*
X193666526Y-48353179D01*
X193554177Y-48465528D01*
X193487672Y-48509965D01*
X193422066Y-48553802D01*
X193275276Y-48614605D01*
X193119444Y-48645601D01*
X192960554Y-48645601D01*
X192804722Y-48614605D01*
X192657932Y-48553802D01*
X192592326Y-48509965D01*
X192525821Y-48465528D01*
X192413472Y-48353179D01*
X192325199Y-48221069D01*
X192325198Y-48221068D01*
X192264395Y-48074278D01*
X192233399Y-47918446D01*
X192233399Y-47759556D01*
X192264395Y-47603724D01*
X192325198Y-47456934D01*
X192413471Y-47324825D01*
X192413472Y-47324823D01*
X192525821Y-47212474D01*
X192657931Y-47124201D01*
X192657932Y-47124200D01*
X192804722Y-47063397D01*
X192960554Y-47032401D01*
X193119444Y-47032401D01*
X193275276Y-47063397D01*
X193275276Y-47063397D01*
G37*
G36*
X109835277Y-45813397D02*
G01*
X109982067Y-45874200D01*
X109982068Y-45874201D01*
X110114178Y-45962474D01*
X110226527Y-46074823D01*
X110226528Y-46074825D01*
X110314801Y-46206934D01*
X110375604Y-46353724D01*
X110406600Y-46509556D01*
X110406600Y-46668446D01*
X110375604Y-46824278D01*
X110314801Y-46971068D01*
X110314800Y-46971069D01*
X110226527Y-47103179D01*
X110114178Y-47215528D01*
X110047673Y-47259965D01*
X109982067Y-47303802D01*
X109835277Y-47364605D01*
X109679445Y-47395601D01*
X109520555Y-47395601D01*
X109364723Y-47364605D01*
X109217933Y-47303802D01*
X109152327Y-47259965D01*
X109085822Y-47215528D01*
X108973473Y-47103179D01*
X108885200Y-46971069D01*
X108885199Y-46971068D01*
X108824396Y-46824278D01*
X108793400Y-46668446D01*
X108793400Y-46509556D01*
X108824396Y-46353724D01*
X108885199Y-46206934D01*
X108973472Y-46074825D01*
X108973473Y-46074823D01*
X109085822Y-45962474D01*
X109217932Y-45874201D01*
X109217933Y-45874200D01*
X109364723Y-45813397D01*
X109520555Y-45782401D01*
X109679445Y-45782401D01*
X109835277Y-45813397D01*
X109835277Y-45813397D01*
G37*
G36*
X191625276Y-45813397D02*
G01*
X191772066Y-45874200D01*
X191772067Y-45874201D01*
X191904177Y-45962474D01*
X192016526Y-46074823D01*
X192016527Y-46074825D01*
X192104800Y-46206934D01*
X192165603Y-46353724D01*
X192196599Y-46509556D01*
X192196599Y-46668446D01*
X192165603Y-46824278D01*
X192104800Y-46971068D01*
X192104799Y-46971069D01*
X192016526Y-47103179D01*
X191904177Y-47215528D01*
X191837672Y-47259965D01*
X191772066Y-47303802D01*
X191625276Y-47364605D01*
X191469444Y-47395601D01*
X191310554Y-47395601D01*
X191154722Y-47364605D01*
X191007932Y-47303802D01*
X190942326Y-47259965D01*
X190875821Y-47215528D01*
X190763472Y-47103179D01*
X190675199Y-46971069D01*
X190675198Y-46971068D01*
X190614395Y-46824278D01*
X190583399Y-46668446D01*
X190583399Y-46509556D01*
X190614395Y-46353724D01*
X190675198Y-46206934D01*
X190763471Y-46074825D01*
X190763472Y-46074823D01*
X190875821Y-45962474D01*
X191007931Y-45874201D01*
X191007932Y-45874200D01*
X191154722Y-45813397D01*
X191310554Y-45782401D01*
X191469444Y-45782401D01*
X191625276Y-45813397D01*
X191625276Y-45813397D01*
G37*
G36*
X193275276Y-44563397D02*
G01*
X193422066Y-44624200D01*
X193422067Y-44624201D01*
X193554177Y-44712474D01*
X193666526Y-44824823D01*
X193666527Y-44824825D01*
X193754800Y-44956934D01*
X193815603Y-45103724D01*
X193846599Y-45259556D01*
X193846599Y-45418446D01*
X193815603Y-45574278D01*
X193754800Y-45721068D01*
X193754799Y-45721069D01*
X193666526Y-45853179D01*
X193554177Y-45965528D01*
X193487672Y-46009965D01*
X193422066Y-46053802D01*
X193275276Y-46114605D01*
X193119444Y-46145601D01*
X192960554Y-46145601D01*
X192804722Y-46114605D01*
X192657932Y-46053802D01*
X192592326Y-46009965D01*
X192525821Y-45965528D01*
X192413472Y-45853179D01*
X192325199Y-45721069D01*
X192325198Y-45721068D01*
X192264395Y-45574278D01*
X192233399Y-45418446D01*
X192233399Y-45259556D01*
X192264395Y-45103724D01*
X192325198Y-44956934D01*
X192413471Y-44824825D01*
X192413472Y-44824823D01*
X192525821Y-44712474D01*
X192657931Y-44624201D01*
X192657932Y-44624200D01*
X192804722Y-44563397D01*
X192960554Y-44532401D01*
X193119444Y-44532401D01*
X193275276Y-44563397D01*
X193275276Y-44563397D01*
G37*
G36*
X108185277Y-44563397D02*
G01*
X108332067Y-44624200D01*
X108332068Y-44624201D01*
X108464178Y-44712474D01*
X108576527Y-44824823D01*
X108576528Y-44824825D01*
X108664801Y-44956934D01*
X108725604Y-45103724D01*
X108756600Y-45259556D01*
X108756600Y-45418446D01*
X108725604Y-45574278D01*
X108664801Y-45721068D01*
X108664800Y-45721069D01*
X108576527Y-45853179D01*
X108464178Y-45965528D01*
X108397673Y-46009965D01*
X108332067Y-46053802D01*
X108185277Y-46114605D01*
X108029445Y-46145601D01*
X107870555Y-46145601D01*
X107714723Y-46114605D01*
X107567933Y-46053802D01*
X107502327Y-46009965D01*
X107435822Y-45965528D01*
X107323473Y-45853179D01*
X107235200Y-45721069D01*
X107235199Y-45721068D01*
X107174396Y-45574278D01*
X107143400Y-45418446D01*
X107143400Y-45259556D01*
X107174396Y-45103724D01*
X107235199Y-44956934D01*
X107323472Y-44824825D01*
X107323473Y-44824823D01*
X107435822Y-44712474D01*
X107567932Y-44624201D01*
X107567933Y-44624200D01*
X107714723Y-44563397D01*
X107870555Y-44532401D01*
X108029445Y-44532401D01*
X108185277Y-44563397D01*
X108185277Y-44563397D01*
G37*
M02*
