G04 #@! TF.GenerationSoftware,KiCad,Pcbnew,(5.1.4)-1*
G04 #@! TF.CreationDate,2020-06-09T21:04:36-05:00*
G04 #@! TF.ProjectId,Blue_Wizard,426c7565-5f57-4697-9a61-72642e6b6963,rev?*
G04 #@! TF.SameCoordinates,Original*
G04 #@! TF.FileFunction,Copper,L2,Bot*
G04 #@! TF.FilePolarity,Positive*
%FSLAX46Y46*%
G04 Gerber Fmt 4.6, Leading zero omitted, Abs format (unit mm)*
G04 Created by KiCad (PCBNEW (5.1.4)-1) date 2020-06-09 21:04:36*
%MOMM*%
%LPD*%
G04 APERTURE LIST*
%ADD10C,6.350000*%
%ADD11C,1.511200*%
%ADD12C,0.600000*%
%ADD13O,0.800000X1.600000*%
%ADD14O,1.000000X2.000000*%
%ADD15R,1.700000X1.700000*%
%ADD16O,1.700000X1.700000*%
%ADD17R,1.800000X1.800000*%
%ADD18C,1.800000*%
%ADD19O,1.727200X3.454400*%
%ADD20C,0.800000*%
%ADD21C,0.500000*%
%ADD22C,0.200000*%
%ADD23C,0.254000*%
G04 APERTURE END LIST*
D10*
X150495000Y-97028000D03*
D11*
X193039999Y-45339001D03*
X193039999Y-47839001D03*
X193039999Y-50339001D03*
X193039999Y-52839001D03*
X193039999Y-55339001D03*
X193039999Y-57839001D03*
X193039999Y-60339001D03*
X191389999Y-46589001D03*
X191389999Y-49089001D03*
X191389999Y-51589001D03*
X191389999Y-54089001D03*
X191389999Y-56589001D03*
X191389999Y-59089001D03*
D12*
X153345000Y-130178000D03*
X152945000Y-130878000D03*
X152145000Y-130878000D03*
X151745000Y-130178000D03*
X151345000Y-130878000D03*
X150945000Y-130178000D03*
X150145000Y-130178000D03*
X149745000Y-130878000D03*
X149345000Y-130178000D03*
X148945000Y-130878000D03*
X148145000Y-130878000D03*
X147745000Y-130178000D03*
D13*
X146415000Y-130778000D03*
X154675000Y-130778000D03*
D14*
X146005000Y-135228000D03*
X154985000Y-135228000D03*
D15*
X180403500Y-68008500D03*
D16*
X182943500Y-68008500D03*
D11*
X102362000Y-108712000D03*
X107012000Y-94962000D03*
X107012000Y-97462000D03*
X107012000Y-99962000D03*
X107012000Y-102462000D03*
X107012000Y-104962000D03*
X107012000Y-107462000D03*
X105362000Y-93712000D03*
X105362000Y-96212000D03*
X105362000Y-98712000D03*
X105362000Y-101212000D03*
X105362000Y-103712000D03*
X105362000Y-106212000D03*
X105362000Y-108712000D03*
X102362000Y-106212000D03*
X102362000Y-103712000D03*
X102362000Y-101212000D03*
X102362000Y-98712000D03*
X102362000Y-96212000D03*
X102362000Y-93712000D03*
X109600000Y-46589001D03*
X109600000Y-49089001D03*
X109600000Y-51589001D03*
X109600000Y-54089001D03*
X109600000Y-56589001D03*
X109600000Y-59089001D03*
X107950000Y-45339001D03*
X107950000Y-47839001D03*
X107950000Y-50339001D03*
X107950000Y-52839001D03*
X107950000Y-55339001D03*
X107950000Y-57839001D03*
X107950000Y-60339001D03*
X195400000Y-117728000D03*
X192900000Y-117728000D03*
X190400000Y-117728000D03*
X187900000Y-117728000D03*
X185400000Y-117728000D03*
X182900000Y-117728000D03*
X180400000Y-117728000D03*
X194150000Y-116078000D03*
X191650000Y-116078000D03*
X189150000Y-116078000D03*
X186650000Y-116078000D03*
X184150000Y-116078000D03*
X181650000Y-116078000D03*
D16*
X200469500Y-87884000D03*
D15*
X200469500Y-85344000D03*
D17*
X133985000Y-124460000D03*
D18*
X136525000Y-124460000D03*
X146685000Y-124460000D03*
D17*
X144145000Y-124460000D03*
D18*
X156845000Y-124460000D03*
D17*
X154305000Y-124460000D03*
X164465000Y-124460000D03*
D18*
X167005000Y-124460000D03*
D11*
X106673000Y-116078000D03*
X109173000Y-116078000D03*
X111673000Y-116078000D03*
X114173000Y-116078000D03*
X116673000Y-116078000D03*
X119173000Y-116078000D03*
X105423000Y-117728000D03*
X107923000Y-117728000D03*
X110423000Y-117728000D03*
X112923000Y-117728000D03*
X115423000Y-117728000D03*
X117923000Y-117728000D03*
X120423000Y-117728000D03*
D19*
X101599999Y-120904000D03*
X104139999Y-120904000D03*
X106679999Y-120904000D03*
X109219999Y-120904000D03*
X111759999Y-120904000D03*
X114299999Y-120904000D03*
X116839999Y-120904000D03*
X119379999Y-120904000D03*
X121919999Y-120904000D03*
X124459999Y-120904000D03*
D11*
X198627999Y-108712001D03*
X198627999Y-106212001D03*
X198627999Y-103712001D03*
X198627999Y-101212001D03*
X198627999Y-98712001D03*
X198627999Y-96212001D03*
X195627999Y-93712001D03*
X195627999Y-96212001D03*
X195627999Y-98712001D03*
X195627999Y-101212001D03*
X195627999Y-103712001D03*
X195627999Y-106212001D03*
X195627999Y-108712001D03*
X193977999Y-94962001D03*
X193977999Y-97462001D03*
X193977999Y-99962001D03*
X193977999Y-102462001D03*
X193977999Y-104962001D03*
X193977999Y-107462001D03*
X198627999Y-93712001D03*
D19*
X176529999Y-120904000D03*
X179069999Y-120904000D03*
X181609999Y-120904000D03*
X184149999Y-120904000D03*
X186689999Y-120904000D03*
X189229999Y-120904000D03*
X191769999Y-120904000D03*
X194309999Y-120904000D03*
X196849999Y-120904000D03*
X199389999Y-120904000D03*
D15*
X190373000Y-71374000D03*
D16*
X192913000Y-71374000D03*
X195453000Y-71374000D03*
X197993000Y-71374000D03*
X200533000Y-71374000D03*
D20*
X133667500Y-87058500D03*
X172415200Y-87071200D03*
X183184800Y-100888800D03*
X181152800Y-73253600D03*
X175107600Y-73253600D03*
X140208000Y-126746000D03*
X161544000Y-125425200D03*
X198056500Y-81216500D03*
X195516500Y-81216500D03*
X194246500Y-81216500D03*
X128333500Y-66230500D03*
X128206500Y-81407000D03*
X122301000Y-76200000D03*
X107886500Y-70421500D03*
X142702987Y-46163249D03*
X137223500Y-46482000D03*
X135572500Y-46672500D03*
X130937000Y-46990000D03*
X133858000Y-47561500D03*
X134112000Y-52768500D03*
X130812032Y-55275652D03*
X147764500Y-127952500D03*
X155257500Y-128968500D03*
X182310810Y-90728800D03*
X140955104Y-55562500D03*
X139655092Y-55795439D03*
X186700390Y-60086089D03*
X134112000Y-76327000D03*
X144081500Y-76327000D03*
X134112000Y-77470000D03*
X144081500Y-77470000D03*
X134112000Y-78676500D03*
X144081500Y-78676500D03*
X139255500Y-76327000D03*
X139255500Y-77470000D03*
X139255500Y-78676500D03*
X192849500Y-63627000D03*
X195389500Y-61404500D03*
X196151500Y-62103000D03*
X193611500Y-64325500D03*
X203657200Y-75641200D03*
X201117200Y-75641200D03*
X102768400Y-75031600D03*
X102768400Y-75946000D03*
X98094800Y-75946000D03*
X98094800Y-75031600D03*
X159816800Y-104394000D03*
X160934400Y-104394000D03*
X159816800Y-109982000D03*
X160934400Y-109982000D03*
X133731000Y-85788500D03*
X174193200Y-85801194D03*
X158902400Y-124053600D03*
X179578000Y-109474000D03*
X179578000Y-102158800D03*
X125526800Y-47447200D03*
X144018000Y-47508390D03*
X142901675Y-48387829D03*
X144068800Y-51257200D03*
X142545145Y-50415112D03*
X126390400Y-55981600D03*
X125120400Y-53289200D03*
X107950003Y-122991740D03*
X134692609Y-49655737D03*
X130936996Y-53695010D03*
X111672025Y-95329479D03*
X105092500Y-116078000D03*
X203057021Y-93535500D03*
X138005061Y-55896477D03*
X138582400Y-48564800D03*
X108126253Y-94281513D03*
X109172628Y-95576861D03*
X134264400Y-50850800D03*
X145389600Y-51069979D03*
X109078433Y-94631530D03*
X110427385Y-95331552D03*
X139395200Y-60198000D03*
X126034802Y-50556390D03*
X178358800Y-102108000D03*
X178358800Y-109423200D03*
D21*
X133667500Y-87058500D02*
X172466000Y-87058500D01*
X134112000Y-76327000D02*
X139255500Y-76327000D01*
X134112000Y-77470000D02*
X139255500Y-77470000D01*
X134112000Y-78676500D02*
X139255500Y-78676500D01*
X139255500Y-76327000D02*
X144081500Y-76327000D01*
X139255500Y-77470000D02*
X144081500Y-77470000D01*
X139255500Y-78676500D02*
X144081500Y-78676500D01*
X193167000Y-63627000D02*
X195389500Y-61404500D01*
X192849500Y-63627000D02*
X193167000Y-63627000D01*
X193611500Y-64325500D02*
X193929000Y-64325500D01*
X193929000Y-64325500D02*
X196151500Y-62103000D01*
X201117200Y-75641200D02*
X203657200Y-75641200D01*
X98094800Y-75031600D02*
X102768400Y-75031600D01*
X98094800Y-75946000D02*
X102768400Y-75946000D01*
X159816800Y-104394000D02*
X159816800Y-109982000D01*
X160934400Y-104394000D02*
X160934400Y-109982000D01*
D22*
X151445001Y-129878001D02*
X151745000Y-130178000D01*
X151194999Y-129627999D02*
X151445001Y-129878001D01*
X149895001Y-129627999D02*
X151194999Y-129627999D01*
X149345000Y-130178000D02*
X149895001Y-129627999D01*
D21*
X133731000Y-85788500D02*
X174180506Y-85788500D01*
X174180506Y-85788500D02*
X174193200Y-85801194D01*
D22*
X158496000Y-124460000D02*
X156845000Y-124460000D01*
D21*
X179578000Y-109474000D02*
X179578000Y-102158800D01*
D22*
X153794242Y-128863710D02*
X154110016Y-128845983D01*
X151745000Y-130178000D02*
X153020010Y-128902990D01*
X153710272Y-128902990D02*
X153714088Y-128900283D01*
X153714088Y-128900283D02*
X153721122Y-128890369D01*
X154110016Y-128845983D02*
X158902400Y-124053600D01*
X153721122Y-128890369D02*
X153779242Y-128880494D01*
X153020010Y-128902990D02*
X153710272Y-128902990D01*
X153779242Y-128880494D02*
X153794242Y-128863710D01*
X189992000Y-49492210D02*
X188302590Y-47802800D01*
X190373000Y-71374000D02*
X190373000Y-70323998D01*
X190373000Y-70323998D02*
X189992001Y-69942999D01*
X189992001Y-69942999D02*
X189992000Y-49492210D01*
X144312410Y-47802800D02*
X144018000Y-47508390D01*
X188302590Y-47802800D02*
X144312410Y-47802800D01*
X143131104Y-48158400D02*
X142901675Y-48387829D01*
X188163200Y-48158400D02*
X143131104Y-48158400D01*
X189641990Y-49637190D02*
X188163200Y-48158400D01*
X189322999Y-72474001D02*
X189272999Y-72424001D01*
X189687200Y-70133188D02*
X189641990Y-70087978D01*
X192913000Y-71374000D02*
X191812999Y-72474001D01*
X191812999Y-72474001D02*
X189322999Y-72474001D01*
X189272999Y-72424001D02*
X189272999Y-70323999D01*
X189272999Y-70323999D02*
X189322999Y-70273999D01*
X189322999Y-70273999D02*
X189687200Y-70273999D01*
X189687200Y-70273999D02*
X189687200Y-70133188D01*
X189641990Y-70087978D02*
X189641990Y-49637190D01*
X143387233Y-51257200D02*
X142945144Y-50815111D01*
X144068800Y-51257200D02*
X143387233Y-51257200D01*
X142945144Y-50815111D02*
X142545145Y-50415112D01*
X107194401Y-52083402D02*
X107950000Y-52839001D01*
X106944399Y-51833400D02*
X107194401Y-52083402D01*
X106944399Y-47356312D02*
X106944399Y-51833400D01*
X107711710Y-46589001D02*
X106944399Y-47356312D01*
X109600000Y-46589001D02*
X107711710Y-46589001D01*
X109600000Y-57657580D02*
X109600000Y-56589001D01*
X107487209Y-58864500D02*
X108394500Y-58864500D01*
X109600000Y-57659000D02*
X109600000Y-57657580D01*
X106520489Y-57897780D02*
X107487209Y-58864500D01*
X106520489Y-54268512D02*
X106520489Y-57897780D01*
X108394500Y-58864500D02*
X109600000Y-57659000D01*
X107950000Y-52839001D02*
X106520489Y-54268512D01*
X194045600Y-56833400D02*
X193795598Y-57083402D01*
X194045600Y-54856312D02*
X194045600Y-56833400D01*
X193522688Y-54333400D02*
X194045600Y-54856312D01*
X193084298Y-54333400D02*
X193522688Y-54333400D01*
X191894400Y-53143502D02*
X193084298Y-54333400D01*
X191389999Y-49089001D02*
X191389999Y-50157580D01*
X191389999Y-50157580D02*
X190384398Y-51163181D01*
X193795598Y-57083402D02*
X193039999Y-57839001D01*
X190384398Y-51163181D02*
X190384398Y-52071690D01*
X190384398Y-52071690D02*
X191396108Y-53083400D01*
X191396108Y-53083400D02*
X191894400Y-53083400D01*
X191894400Y-53083400D02*
X191894400Y-53143502D01*
X193704600Y-46833400D02*
X192577021Y-46833400D01*
X134235629Y-48655725D02*
X136485495Y-48655725D01*
X143561019Y-46508377D02*
X144474982Y-46508378D01*
X194469510Y-44785232D02*
X194469510Y-46068490D01*
X111105001Y-46589001D02*
X111887000Y-47371000D01*
X111887000Y-47371000D02*
X111887000Y-48450500D01*
X191389999Y-48020422D02*
X191389999Y-49089001D01*
X111887000Y-48450500D02*
X112204500Y-48768000D01*
X193667668Y-43983390D02*
X194469510Y-44785232D01*
X138038441Y-47102779D02*
X142966617Y-47102779D01*
X142966617Y-47102779D02*
X143561019Y-46508377D01*
X194469510Y-46068490D02*
X193704600Y-46833400D01*
X134123354Y-48768000D02*
X134235629Y-48655725D01*
X112204500Y-48768000D02*
X134123354Y-48768000D01*
X188397952Y-47102779D02*
X191517342Y-43983389D01*
X191517342Y-43983389D02*
X193667668Y-43983390D01*
X136485495Y-48655725D02*
X138038441Y-47102779D01*
X192577021Y-46833400D02*
X191389999Y-48020422D01*
X144474982Y-46508378D02*
X145069383Y-47102779D01*
X109600000Y-46589001D02*
X111105001Y-46589001D01*
X145069383Y-47102779D02*
X188397952Y-47102779D01*
X111673000Y-117146579D02*
X111673000Y-116078000D01*
X111673000Y-118552517D02*
X111673000Y-117146579D01*
X111846998Y-118552517D02*
X111673000Y-118552517D01*
X112873609Y-119579128D02*
X111846998Y-118552517D01*
X113838727Y-122881210D02*
X112873609Y-121916092D01*
X128875691Y-118926790D02*
X124921271Y-122881210D01*
X112873609Y-121916092D02*
X112873609Y-119579128D01*
X181027668Y-119083612D02*
X179772331Y-119083611D01*
X182272331Y-119083611D02*
X181650000Y-118461280D01*
X184883280Y-117728000D02*
X183527668Y-119083612D01*
X179615510Y-118926790D02*
X128875691Y-118926790D01*
X179772331Y-119083611D02*
X179615510Y-118926790D01*
X183527668Y-119083612D02*
X182272331Y-119083611D01*
X185400000Y-117728000D02*
X184883280Y-117728000D01*
X124921271Y-122881210D02*
X113838727Y-122881210D01*
X181650000Y-118461280D02*
X181027668Y-119083612D01*
X111673000Y-118552517D02*
X110646389Y-119579128D01*
X110646389Y-119579128D02*
X110646389Y-121922329D01*
X110646389Y-121922329D02*
X109576978Y-122991740D01*
X109576978Y-122991740D02*
X108515688Y-122991740D01*
X108515688Y-122991740D02*
X107950003Y-122991740D01*
X107711710Y-54089001D02*
X106944399Y-54856312D01*
X109600000Y-54089001D02*
X107711710Y-54089001D01*
X107194401Y-57083402D02*
X107950000Y-57839001D01*
X106944399Y-56833400D02*
X107194401Y-57083402D01*
X106944399Y-54856312D02*
X106944399Y-56833400D01*
X193039999Y-48907580D02*
X191960500Y-49987079D01*
X193039999Y-47839001D02*
X193039999Y-48907580D01*
X191960500Y-51018500D02*
X191389999Y-51589001D01*
X191960500Y-49987079D02*
X191960500Y-51018500D01*
X110605601Y-53083400D02*
X110605601Y-51156591D01*
X110605601Y-51156591D02*
X110083649Y-50634639D01*
X110083649Y-50584360D02*
X111138009Y-49530000D01*
X109600000Y-54089001D02*
X110605601Y-53083400D01*
X134001187Y-49530000D02*
X134126924Y-49655737D01*
X111138009Y-49530000D02*
X134001187Y-49530000D01*
X134126924Y-49655737D02*
X134692609Y-49655737D01*
X110083649Y-50634639D02*
X110083649Y-50584360D01*
X107950000Y-49270422D02*
X109468422Y-47752000D01*
X144330002Y-46858388D02*
X144924404Y-47452790D01*
X136630474Y-49005736D02*
X138183420Y-47452790D01*
X111442500Y-48641000D02*
X111950500Y-49149000D01*
X191495611Y-46483389D02*
X191389999Y-46589001D01*
X134237344Y-49149000D02*
X134380608Y-49005736D01*
X111442500Y-47752000D02*
X111442500Y-48641000D01*
X193383901Y-46483389D02*
X191495611Y-46483389D01*
X194045600Y-45821690D02*
X193383901Y-46483389D01*
X194045600Y-44856312D02*
X194045600Y-45821690D01*
X134380608Y-49005736D02*
X136630474Y-49005736D01*
X193522688Y-44333400D02*
X194045600Y-44856312D01*
X191662321Y-44333400D02*
X193522688Y-44333400D01*
X188542931Y-47452790D02*
X191662321Y-44333400D01*
X138183420Y-47452790D02*
X143111596Y-47452790D01*
X144924404Y-47452790D02*
X188542931Y-47452790D01*
X143705998Y-46858388D02*
X144330002Y-46858388D01*
X143111596Y-47452790D02*
X143705998Y-46858388D01*
X111950500Y-49149000D02*
X134237344Y-49149000D01*
X109468422Y-47752000D02*
X111442500Y-47752000D01*
X107950000Y-50339001D02*
X107950000Y-49270422D01*
X107950000Y-55339001D02*
X110205499Y-55339001D01*
X110205499Y-55339001D02*
X110955612Y-54588888D01*
X125591190Y-50038000D02*
X125722801Y-49906389D01*
X110955612Y-54588888D02*
X110955612Y-50270888D01*
X130424389Y-49906389D02*
X130936996Y-50418996D01*
X130936996Y-53129325D02*
X130936996Y-53695010D01*
X125722801Y-49906389D02*
X130424389Y-49906389D01*
X111188500Y-50038000D02*
X125591190Y-50038000D01*
X110955612Y-50270888D02*
X111188500Y-50038000D01*
X130936996Y-50418996D02*
X130936996Y-53129325D01*
X102362000Y-108712000D02*
X103367601Y-107706399D01*
X105989669Y-92356389D02*
X108698935Y-92356389D01*
X108698935Y-92356389D02*
X111272026Y-94929480D01*
X111272026Y-94929480D02*
X111672025Y-95329479D01*
X103367601Y-93723119D02*
X104734332Y-92356388D01*
X103367601Y-107706399D02*
X103367601Y-93723119D01*
X104734332Y-92356388D02*
X105989669Y-92356389D01*
X105123710Y-94962000D02*
X104356399Y-95729311D01*
X104356399Y-115341899D02*
X104692501Y-115678001D01*
X104356399Y-95729311D02*
X104356399Y-115341899D01*
X104692501Y-115678001D02*
X105092500Y-116078000D01*
X107012000Y-94962000D02*
X105123710Y-94962000D01*
X202880520Y-93712001D02*
X203057021Y-93535500D01*
X198627999Y-93712001D02*
X202880520Y-93712001D01*
X138582400Y-49130485D02*
X138582400Y-48564800D01*
X138005061Y-55896477D02*
X138582400Y-55319138D01*
X138582400Y-55319138D02*
X138582400Y-49130485D01*
X107012000Y-102462000D02*
X108084896Y-101389104D01*
X108126253Y-94847198D02*
X108126253Y-94281513D01*
X108084896Y-94888555D02*
X108126253Y-94847198D01*
X108084896Y-101389104D02*
X108084896Y-94888555D01*
X109172628Y-96142546D02*
X109172628Y-95576861D01*
X109172628Y-105301372D02*
X109172628Y-96142546D01*
X107012000Y-107462000D02*
X109172628Y-105301372D01*
X144989601Y-50669980D02*
X145389600Y-51069979D01*
X135334398Y-50850800D02*
X138270399Y-47914799D01*
X134264400Y-50850800D02*
X135334398Y-50850800D01*
X138270399Y-47914799D02*
X140382832Y-47914799D01*
X140382832Y-47914799D02*
X142233143Y-49765110D01*
X142233143Y-49765110D02*
X144084731Y-49765110D01*
X144084731Y-49765110D02*
X144989601Y-50669980D01*
X105362000Y-106212000D02*
X107250290Y-106212000D01*
X107250290Y-106212000D02*
X108461872Y-105000418D01*
X108461872Y-105000418D02*
X108461872Y-95248091D01*
X108461872Y-95248091D02*
X108678434Y-95031529D01*
X108678434Y-95031529D02*
X109078433Y-94631530D01*
X181505020Y-118111270D02*
X180882689Y-118733601D01*
X180882689Y-118733601D02*
X179917311Y-118733601D01*
X179917311Y-118733601D02*
X179760489Y-118576779D01*
X179760489Y-118576779D02*
X128730711Y-118576780D01*
X113678599Y-118483599D02*
X112923000Y-117728000D01*
X113928601Y-118733601D02*
X113678599Y-118483599D01*
X183382689Y-118733601D02*
X182417311Y-118733601D01*
X181794980Y-118111270D02*
X181505020Y-118111270D01*
X182417311Y-118733601D02*
X181794980Y-118111270D01*
X128730711Y-118576780D02*
X128573890Y-118733601D01*
X184150000Y-117966290D02*
X183382689Y-118733601D01*
X184150000Y-116078000D02*
X184150000Y-117966290D01*
X128573890Y-118733601D02*
X113928601Y-118733601D01*
X104879311Y-92706399D02*
X105844689Y-92706399D01*
X103901002Y-114686498D02*
X103811600Y-114597096D01*
X109219999Y-120040400D02*
X107913200Y-118733601D01*
X103811600Y-93774110D02*
X104879311Y-92706399D01*
X108721529Y-93060011D02*
X110427385Y-94765867D01*
X109219999Y-120904000D02*
X109219999Y-120040400D01*
X103901002Y-117694292D02*
X103901002Y-114686498D01*
X110427385Y-94765867D02*
X110427385Y-95331552D01*
X105844689Y-92706399D02*
X106198301Y-93060011D01*
X104940311Y-118733601D02*
X103901002Y-117694292D01*
X106198301Y-93060011D02*
X108721529Y-93060011D01*
X103811600Y-114597096D02*
X103811600Y-93774110D01*
X107913200Y-118733601D02*
X104940311Y-118733601D01*
X180644399Y-116560689D02*
X180743131Y-116659421D01*
X180644399Y-115595311D02*
X180644399Y-116560689D01*
X181167311Y-115072399D02*
X180644399Y-115595311D01*
X182132689Y-115072399D02*
X181167311Y-115072399D01*
X183377350Y-114372382D02*
X182444378Y-115305354D01*
X192622388Y-108089670D02*
X193350331Y-108817613D01*
X193244719Y-106212001D02*
X192622387Y-106834333D01*
X182444378Y-115305354D02*
X182444378Y-115384088D01*
X192622389Y-105589669D02*
X193244719Y-106212001D01*
X192622388Y-104334334D02*
X192622389Y-105589669D01*
X193244720Y-103712002D02*
X192622388Y-104334334D01*
X192622387Y-106834333D02*
X192622388Y-108089670D01*
X192622389Y-103089669D02*
X193244720Y-103712002D01*
X192622388Y-101834334D02*
X192622389Y-103089669D01*
X193350331Y-101106391D02*
X192622388Y-101834334D01*
X193627989Y-101106390D02*
X193350331Y-101106391D01*
X193627989Y-100967602D02*
X193627989Y-101106390D01*
X193495310Y-100967602D02*
X193627989Y-100967602D01*
X192972398Y-100444690D02*
X193495310Y-100967602D01*
X192972398Y-99479312D02*
X192972398Y-100444690D01*
X193495310Y-98956400D02*
X192972398Y-99479312D01*
X182444378Y-115384088D02*
X182132689Y-115072399D01*
X195627999Y-96212001D02*
X195627999Y-97706400D01*
X180400000Y-116659421D02*
X180400000Y-117728000D01*
X192972398Y-97944690D02*
X193495310Y-98467602D01*
X193350331Y-108817613D02*
X194077387Y-108817613D01*
X194077387Y-108817613D02*
X188522619Y-114372381D01*
X193908831Y-98956400D02*
X193495310Y-98956400D01*
X188522619Y-114372381D02*
X183377350Y-114372382D01*
X180743131Y-116659421D02*
X180400000Y-116659421D01*
X195627999Y-97706400D02*
X195145310Y-97706400D01*
X195145310Y-97706400D02*
X194983600Y-97868110D01*
X194983600Y-97868110D02*
X194983600Y-96979312D01*
X194983600Y-96979312D02*
X194460688Y-96456400D01*
X194460688Y-96456400D02*
X193495310Y-96456400D01*
X193495310Y-96456400D02*
X192972398Y-96979312D01*
X192972398Y-96979312D02*
X192972398Y-97944690D01*
X193495310Y-98467602D02*
X193627989Y-98467602D01*
X193627989Y-98467602D02*
X193627989Y-98675558D01*
X193627989Y-98675558D02*
X193908831Y-98956400D01*
X196983610Y-96079322D02*
X195866289Y-94962001D01*
X196983611Y-109339669D02*
X196983610Y-96079322D01*
X196255667Y-110067613D02*
X196983611Y-109339669D01*
X194351387Y-110067613D02*
X196255667Y-110067613D01*
X190246000Y-114173000D02*
X194351387Y-110067613D01*
X185155601Y-115595311D02*
X185155601Y-116084109D01*
X184632689Y-115072399D02*
X185155601Y-115595311D01*
X183144399Y-115595311D02*
X183667311Y-115072399D01*
X190246000Y-115204692D02*
X190246000Y-114173000D01*
X182900000Y-117728000D02*
X183144399Y-117483601D01*
X195046578Y-94962001D02*
X193977999Y-94962001D01*
X183144399Y-117483601D02*
X183144399Y-115595311D01*
X195866289Y-94962001D02*
X195046578Y-94962001D01*
X185155601Y-116084109D02*
X186167311Y-115072399D01*
X188905601Y-117284500D02*
X189420500Y-117284500D01*
X183667311Y-115072399D02*
X184632689Y-115072399D01*
X186167311Y-115072399D02*
X187132689Y-115072399D01*
X187132689Y-115072399D02*
X187655601Y-115595311D01*
X187655601Y-115595311D02*
X187655601Y-116034500D01*
X187655601Y-116034500D02*
X188905601Y-117284500D01*
X189420500Y-117284500D02*
X190644399Y-116060601D01*
X190644399Y-116060601D02*
X190644399Y-115603091D01*
X190644399Y-115603091D02*
X190246000Y-115204692D01*
X196110688Y-100206400D02*
X196633600Y-100729312D01*
X196633600Y-100729312D02*
X196633600Y-109194690D01*
X196633600Y-109194690D02*
X196110688Y-109717602D01*
X196110688Y-109717602D02*
X194193398Y-109717602D01*
X194193398Y-109717602D02*
X189150000Y-114761000D01*
X189150000Y-115009421D02*
X189150000Y-116078000D01*
X189150000Y-114761000D02*
X189150000Y-115009421D01*
X195653819Y-100206400D02*
X196110688Y-100206400D01*
X193977999Y-98530580D02*
X195653819Y-100206400D01*
X193977999Y-97462001D02*
X193977999Y-98530580D01*
X182794389Y-116002190D02*
X182718579Y-116078000D01*
X182718579Y-116078000D02*
X181650000Y-116078000D01*
X193772968Y-101456401D02*
X193495311Y-101456401D01*
X194622398Y-108767592D02*
X188667598Y-114722392D01*
X193978000Y-101251369D02*
X193772968Y-101456401D01*
X193495311Y-101456401D02*
X192972399Y-101979313D01*
X193594731Y-103856981D02*
X192972399Y-104479313D01*
X183522330Y-114722392D02*
X182794389Y-115450333D01*
X192972399Y-104479313D02*
X192972399Y-105444689D01*
X193977999Y-99962001D02*
X193978000Y-101251369D01*
X182794389Y-115450333D02*
X182794389Y-116002190D01*
X194322408Y-108467602D02*
X194622398Y-108767592D01*
X192972398Y-107944690D02*
X193495310Y-108467602D01*
X193842225Y-106314515D02*
X193842225Y-106456400D01*
X193842225Y-106456400D02*
X193495310Y-106456400D01*
X193495310Y-106456400D02*
X192972398Y-106979312D01*
X192972398Y-106979312D02*
X192972398Y-107944690D01*
X188667598Y-114722392D02*
X183522330Y-114722392D01*
X193495310Y-108467602D02*
X194322408Y-108467602D01*
X192972399Y-105444689D02*
X193842225Y-106314515D01*
X192972399Y-101979313D02*
X192972399Y-102944689D01*
X193594731Y-103567021D02*
X193594731Y-103856981D01*
X192972399Y-102944689D02*
X193594731Y-103567021D01*
X178358800Y-102108000D02*
X178358800Y-109423200D01*
D23*
G36*
X121221500Y-45656500D02*
G01*
X121223940Y-45681276D01*
X121231167Y-45705101D01*
X121242903Y-45727057D01*
X121258697Y-45746303D01*
X121277943Y-45762097D01*
X121299899Y-45773833D01*
X121323724Y-45781060D01*
X121348500Y-45783500D01*
X143422133Y-45783500D01*
X143416935Y-45784012D01*
X143278387Y-45826040D01*
X143278385Y-45826041D01*
X143150698Y-45894291D01*
X143066825Y-45963124D01*
X143066821Y-45963128D01*
X143038782Y-45986139D01*
X143015770Y-46014179D01*
X142662171Y-46367779D01*
X138074535Y-46367779D01*
X138038440Y-46364224D01*
X138002345Y-46367779D01*
X138002336Y-46367779D01*
X137894356Y-46378414D01*
X137755808Y-46420442D01*
X137628121Y-46488692D01*
X137516203Y-46580541D01*
X137493188Y-46608585D01*
X136181049Y-47920725D01*
X134271734Y-47920725D01*
X134235629Y-47917169D01*
X134199524Y-47920725D01*
X134091544Y-47931360D01*
X133952996Y-47973388D01*
X133841470Y-48033000D01*
X126380165Y-48033000D01*
X126444005Y-47937456D01*
X126522026Y-47749098D01*
X126561800Y-47549139D01*
X126561800Y-47345261D01*
X126522026Y-47145302D01*
X126444005Y-46956944D01*
X126330737Y-46787426D01*
X126186574Y-46643263D01*
X126017056Y-46529995D01*
X125828698Y-46451974D01*
X125628739Y-46412200D01*
X125424861Y-46412200D01*
X125224902Y-46451974D01*
X125036544Y-46529995D01*
X124867026Y-46643263D01*
X124722863Y-46787426D01*
X124609595Y-46956944D01*
X124531574Y-47145302D01*
X124491800Y-47345261D01*
X124491800Y-47549139D01*
X124531574Y-47749098D01*
X124609595Y-47937456D01*
X124673435Y-48033000D01*
X112622000Y-48033000D01*
X112622000Y-47407105D01*
X112625556Y-47371000D01*
X112611365Y-47226915D01*
X112569337Y-47088366D01*
X112501087Y-46960680D01*
X112432253Y-46876806D01*
X112432250Y-46876803D01*
X112409237Y-46848762D01*
X112381197Y-46825750D01*
X111650259Y-46094813D01*
X111627239Y-46066763D01*
X111515321Y-45974914D01*
X111387634Y-45906664D01*
X111249086Y-45864636D01*
X111105001Y-45850445D01*
X111068896Y-45854001D01*
X110781349Y-45854001D01*
X110680150Y-45702545D01*
X110486456Y-45508851D01*
X110258696Y-45356667D01*
X110005623Y-45251841D01*
X109736962Y-45198401D01*
X109463038Y-45198401D01*
X109340600Y-45222755D01*
X109340600Y-45202039D01*
X109287160Y-44933378D01*
X109182334Y-44680305D01*
X109030150Y-44452545D01*
X108836456Y-44258851D01*
X108608696Y-44106667D01*
X108355623Y-44001841D01*
X108086962Y-43948401D01*
X107813038Y-43948401D01*
X107544377Y-44001841D01*
X107291304Y-44106667D01*
X107063544Y-44258851D01*
X106869850Y-44452545D01*
X106717666Y-44680305D01*
X106612840Y-44933378D01*
X106559400Y-45202039D01*
X106559400Y-45475963D01*
X106612840Y-45744624D01*
X106717666Y-45997697D01*
X106869850Y-46225457D01*
X106952829Y-46308436D01*
X106450207Y-46811058D01*
X106422161Y-46834075D01*
X106330312Y-46945993D01*
X106262062Y-47073680D01*
X106241634Y-47141022D01*
X106220034Y-47212227D01*
X106205843Y-47356312D01*
X106209399Y-47392417D01*
X106209400Y-51797285D01*
X106205843Y-51833400D01*
X106220034Y-51977485D01*
X106257334Y-52100445D01*
X106262063Y-52116033D01*
X106330313Y-52243720D01*
X106422162Y-52355638D01*
X106450207Y-52378654D01*
X106594937Y-52523384D01*
X106559400Y-52702039D01*
X106559400Y-52975963D01*
X106594937Y-53154618D01*
X106026297Y-53723258D01*
X105998251Y-53746275D01*
X105906402Y-53858193D01*
X105838152Y-53985880D01*
X105812230Y-54071335D01*
X105796124Y-54124427D01*
X105781933Y-54268512D01*
X105785489Y-54304617D01*
X105785490Y-57861665D01*
X105781933Y-57897780D01*
X105796124Y-58041865D01*
X105825935Y-58140135D01*
X105838153Y-58180413D01*
X105906403Y-58308100D01*
X105998252Y-58420018D01*
X106026297Y-58443034D01*
X106941955Y-59358693D01*
X106951758Y-59370637D01*
X106869850Y-59452545D01*
X106717666Y-59680305D01*
X106612840Y-59933378D01*
X106559400Y-60202039D01*
X106559400Y-60475963D01*
X106612840Y-60744624D01*
X106717666Y-60997697D01*
X106869850Y-61225457D01*
X107063544Y-61419151D01*
X107291304Y-61571335D01*
X107544377Y-61676161D01*
X107813038Y-61729601D01*
X108086962Y-61729601D01*
X108355623Y-61676161D01*
X108608696Y-61571335D01*
X108836456Y-61419151D01*
X109030150Y-61225457D01*
X109182334Y-60997697D01*
X109287160Y-60744624D01*
X109340600Y-60475963D01*
X109340600Y-60455247D01*
X109463038Y-60479601D01*
X109736962Y-60479601D01*
X110005623Y-60426161D01*
X110258696Y-60321335D01*
X110486456Y-60169151D01*
X110559546Y-60096061D01*
X138360200Y-60096061D01*
X138360200Y-60299939D01*
X138399974Y-60499898D01*
X138477995Y-60688256D01*
X138591263Y-60857774D01*
X138735426Y-61001937D01*
X138904944Y-61115205D01*
X139093302Y-61193226D01*
X139293261Y-61233000D01*
X139497139Y-61233000D01*
X139697098Y-61193226D01*
X139885456Y-61115205D01*
X140054974Y-61001937D01*
X140199137Y-60857774D01*
X140312405Y-60688256D01*
X140390426Y-60499898D01*
X140430200Y-60299939D01*
X140430200Y-60096061D01*
X140390426Y-59896102D01*
X140312405Y-59707744D01*
X140199137Y-59538226D01*
X140054974Y-59394063D01*
X139885456Y-59280795D01*
X139697098Y-59202774D01*
X139497139Y-59163000D01*
X139293261Y-59163000D01*
X139093302Y-59202774D01*
X138904944Y-59280795D01*
X138735426Y-59394063D01*
X138591263Y-59538226D01*
X138477995Y-59707744D01*
X138399974Y-59896102D01*
X138360200Y-60096061D01*
X110559546Y-60096061D01*
X110680150Y-59975457D01*
X110832334Y-59747697D01*
X110937160Y-59494624D01*
X110990600Y-59225963D01*
X110990600Y-58952039D01*
X110937160Y-58683378D01*
X110832334Y-58430305D01*
X110680150Y-58202545D01*
X110486456Y-58008851D01*
X110299783Y-57884121D01*
X110324365Y-57803085D01*
X110327067Y-57775651D01*
X110486456Y-57669151D01*
X110680150Y-57475457D01*
X110832334Y-57247697D01*
X110937160Y-56994624D01*
X110990600Y-56725963D01*
X110990600Y-56452039D01*
X110937160Y-56183378D01*
X110832334Y-55930305D01*
X110798496Y-55879661D01*
X125355400Y-55879661D01*
X125355400Y-56083539D01*
X125395174Y-56283498D01*
X125473195Y-56471856D01*
X125586463Y-56641374D01*
X125730626Y-56785537D01*
X125900144Y-56898805D01*
X126088502Y-56976826D01*
X126288461Y-57016600D01*
X126492339Y-57016600D01*
X126692298Y-56976826D01*
X126880656Y-56898805D01*
X127050174Y-56785537D01*
X127194337Y-56641374D01*
X127307605Y-56471856D01*
X127385626Y-56283498D01*
X127425400Y-56083539D01*
X127425400Y-55879661D01*
X127385626Y-55679702D01*
X127307605Y-55491344D01*
X127194337Y-55321826D01*
X127050174Y-55177663D01*
X126880656Y-55064395D01*
X126692298Y-54986374D01*
X126492339Y-54946600D01*
X126288461Y-54946600D01*
X126088502Y-54986374D01*
X125900144Y-55064395D01*
X125730626Y-55177663D01*
X125586463Y-55321826D01*
X125473195Y-55491344D01*
X125395174Y-55679702D01*
X125355400Y-55879661D01*
X110798496Y-55879661D01*
X110760760Y-55823186D01*
X111449809Y-55134138D01*
X111477849Y-55111126D01*
X111500862Y-55083085D01*
X111500865Y-55083082D01*
X111525729Y-55052785D01*
X111569699Y-54999208D01*
X111637949Y-54871521D01*
X111679977Y-54732973D01*
X111682921Y-54703087D01*
X111694168Y-54588888D01*
X111690612Y-54552783D01*
X111690612Y-53187261D01*
X124085400Y-53187261D01*
X124085400Y-53391139D01*
X124125174Y-53591098D01*
X124203195Y-53779456D01*
X124316463Y-53948974D01*
X124460626Y-54093137D01*
X124630144Y-54206405D01*
X124818502Y-54284426D01*
X125018461Y-54324200D01*
X125222339Y-54324200D01*
X125422298Y-54284426D01*
X125610656Y-54206405D01*
X125780174Y-54093137D01*
X125924337Y-53948974D01*
X126037605Y-53779456D01*
X126115626Y-53591098D01*
X126155400Y-53391139D01*
X126155400Y-53187261D01*
X126115626Y-52987302D01*
X126037605Y-52798944D01*
X125924337Y-52629426D01*
X125780174Y-52485263D01*
X125610656Y-52371995D01*
X125422298Y-52293974D01*
X125222339Y-52254200D01*
X125018461Y-52254200D01*
X124818502Y-52293974D01*
X124630144Y-52371995D01*
X124460626Y-52485263D01*
X124316463Y-52629426D01*
X124203195Y-52798944D01*
X124125174Y-52987302D01*
X124085400Y-53187261D01*
X111690612Y-53187261D01*
X111690612Y-50773000D01*
X125022611Y-50773000D01*
X125039576Y-50858288D01*
X125117597Y-51046646D01*
X125230865Y-51216164D01*
X125375028Y-51360327D01*
X125544546Y-51473595D01*
X125732904Y-51551616D01*
X125932863Y-51591390D01*
X126136741Y-51591390D01*
X126336700Y-51551616D01*
X126525058Y-51473595D01*
X126694576Y-51360327D01*
X126838739Y-51216164D01*
X126952007Y-51046646D01*
X127030028Y-50858288D01*
X127069802Y-50658329D01*
X127069802Y-50641389D01*
X130119943Y-50641389D01*
X130201996Y-50723443D01*
X130201997Y-52966298D01*
X130133059Y-53035236D01*
X130019791Y-53204754D01*
X129941770Y-53393112D01*
X129901996Y-53593071D01*
X129901996Y-53796949D01*
X129941770Y-53996908D01*
X130019791Y-54185266D01*
X130133059Y-54354784D01*
X130277222Y-54498947D01*
X130446740Y-54612215D01*
X130635098Y-54690236D01*
X130835057Y-54730010D01*
X131038935Y-54730010D01*
X131238894Y-54690236D01*
X131427252Y-54612215D01*
X131596770Y-54498947D01*
X131740933Y-54354784D01*
X131854201Y-54185266D01*
X131932222Y-53996908D01*
X131971996Y-53796949D01*
X131971996Y-53593071D01*
X131932222Y-53393112D01*
X131854201Y-53204754D01*
X131740933Y-53035236D01*
X131671996Y-52966299D01*
X131671996Y-50455101D01*
X131675552Y-50418996D01*
X131661361Y-50274911D01*
X131658671Y-50266042D01*
X131658355Y-50265000D01*
X133411035Y-50265000D01*
X133347195Y-50360544D01*
X133269174Y-50548902D01*
X133229400Y-50748861D01*
X133229400Y-50952739D01*
X133269174Y-51152698D01*
X133347195Y-51341056D01*
X133460463Y-51510574D01*
X133604626Y-51654737D01*
X133774144Y-51768005D01*
X133962502Y-51846026D01*
X134162461Y-51885800D01*
X134366339Y-51885800D01*
X134566298Y-51846026D01*
X134754656Y-51768005D01*
X134924174Y-51654737D01*
X134993111Y-51585800D01*
X135298293Y-51585800D01*
X135334398Y-51589356D01*
X135370503Y-51585800D01*
X135478483Y-51575165D01*
X135617031Y-51533137D01*
X135744718Y-51464887D01*
X135856636Y-51373038D01*
X135879657Y-51344987D01*
X137847401Y-49377244D01*
X137847400Y-54872561D01*
X137703163Y-54901251D01*
X137514805Y-54979272D01*
X137345287Y-55092540D01*
X137201124Y-55236703D01*
X137087856Y-55406221D01*
X137009835Y-55594579D01*
X136970061Y-55794538D01*
X136970061Y-55998416D01*
X137009835Y-56198375D01*
X137087856Y-56386733D01*
X137201124Y-56556251D01*
X137345287Y-56700414D01*
X137514805Y-56813682D01*
X137703163Y-56891703D01*
X137903122Y-56931477D01*
X138107000Y-56931477D01*
X138306959Y-56891703D01*
X138495317Y-56813682D01*
X138664835Y-56700414D01*
X138808998Y-56556251D01*
X138922266Y-56386733D01*
X139000287Y-56198375D01*
X139040061Y-55998416D01*
X139040061Y-55900924D01*
X139076597Y-55864388D01*
X139104637Y-55841376D01*
X139127650Y-55813335D01*
X139127653Y-55813332D01*
X139196487Y-55729458D01*
X139264737Y-55601772D01*
X139306765Y-55463223D01*
X139320956Y-55319138D01*
X139317400Y-55283033D01*
X139317400Y-49293511D01*
X139386337Y-49224574D01*
X139499605Y-49055056D01*
X139577626Y-48866698D01*
X139617400Y-48666739D01*
X139617400Y-48649799D01*
X140078386Y-48649799D01*
X141548572Y-50119986D01*
X141510145Y-50313173D01*
X141510145Y-50517051D01*
X141549919Y-50717010D01*
X141627940Y-50905368D01*
X141741208Y-51074886D01*
X141885371Y-51219049D01*
X142054889Y-51332317D01*
X142243247Y-51410338D01*
X142443206Y-51450112D01*
X142540699Y-51450112D01*
X142841974Y-51751387D01*
X142864995Y-51779438D01*
X142976913Y-51871287D01*
X143104600Y-51939537D01*
X143243148Y-51981565D01*
X143338883Y-51990994D01*
X143409026Y-52061137D01*
X143578544Y-52174405D01*
X143766902Y-52252426D01*
X143966861Y-52292200D01*
X144170739Y-52292200D01*
X144370698Y-52252426D01*
X144559056Y-52174405D01*
X144728574Y-52061137D01*
X144841306Y-51948405D01*
X144899344Y-51987184D01*
X145087702Y-52065205D01*
X145287661Y-52104979D01*
X145491539Y-52104979D01*
X145691498Y-52065205D01*
X145879856Y-51987184D01*
X146049374Y-51873916D01*
X146193537Y-51729753D01*
X146306805Y-51560235D01*
X146384826Y-51371877D01*
X146424600Y-51171918D01*
X146424600Y-50968040D01*
X146384826Y-50768081D01*
X146306805Y-50579723D01*
X146193537Y-50410205D01*
X146049374Y-50266042D01*
X145879856Y-50152774D01*
X145691498Y-50074753D01*
X145491539Y-50034979D01*
X145394047Y-50034979D01*
X144629989Y-49270922D01*
X144606969Y-49242872D01*
X144495051Y-49151023D01*
X144367364Y-49082773D01*
X144228816Y-49040745D01*
X144120836Y-49030110D01*
X144084731Y-49026554D01*
X144048626Y-49030110D01*
X143717300Y-49030110D01*
X143808647Y-48893400D01*
X187858754Y-48893400D01*
X188906991Y-49941638D01*
X188906990Y-69664581D01*
X188800761Y-69751761D01*
X188778221Y-69779226D01*
X188750762Y-69801761D01*
X188658913Y-69913679D01*
X188624974Y-69977175D01*
X188590663Y-70041366D01*
X188548634Y-70179914D01*
X188534443Y-70323999D01*
X188538000Y-70360114D01*
X188537999Y-72387896D01*
X188534443Y-72424001D01*
X188548634Y-72568086D01*
X188561383Y-72610114D01*
X188590662Y-72706633D01*
X188658912Y-72834320D01*
X188750761Y-72946238D01*
X188778221Y-72968774D01*
X188800761Y-72996239D01*
X188912679Y-73088088D01*
X189040366Y-73156338D01*
X189178914Y-73198366D01*
X189286894Y-73209001D01*
X189322999Y-73212557D01*
X189359104Y-73209001D01*
X191776894Y-73209001D01*
X191812999Y-73212557D01*
X191849104Y-73209001D01*
X191957084Y-73198366D01*
X192095632Y-73156338D01*
X192223319Y-73088088D01*
X192335237Y-72996239D01*
X192358257Y-72968189D01*
X192519878Y-72806568D01*
X192621889Y-72837513D01*
X192840050Y-72859000D01*
X192985950Y-72859000D01*
X193204111Y-72837513D01*
X193484034Y-72752599D01*
X193742014Y-72614706D01*
X193968134Y-72429134D01*
X194153706Y-72203014D01*
X194183000Y-72148209D01*
X194212294Y-72203014D01*
X194397866Y-72429134D01*
X194623986Y-72614706D01*
X194881966Y-72752599D01*
X195161889Y-72837513D01*
X195380050Y-72859000D01*
X195525950Y-72859000D01*
X195744111Y-72837513D01*
X196024034Y-72752599D01*
X196282014Y-72614706D01*
X196508134Y-72429134D01*
X196693706Y-72203014D01*
X196723000Y-72148209D01*
X196752294Y-72203014D01*
X196937866Y-72429134D01*
X197163986Y-72614706D01*
X197421966Y-72752599D01*
X197701889Y-72837513D01*
X197920050Y-72859000D01*
X198065950Y-72859000D01*
X198284111Y-72837513D01*
X198564034Y-72752599D01*
X198822014Y-72614706D01*
X199048134Y-72429134D01*
X199233706Y-72203014D01*
X199268201Y-72138477D01*
X199337822Y-72255355D01*
X199532731Y-72471588D01*
X199766080Y-72645641D01*
X200028901Y-72770825D01*
X200176110Y-72815476D01*
X200406000Y-72694155D01*
X200406000Y-71501000D01*
X200660000Y-71501000D01*
X200660000Y-72694155D01*
X200889890Y-72815476D01*
X201037099Y-72770825D01*
X201299920Y-72645641D01*
X201533269Y-72471588D01*
X201728178Y-72255355D01*
X201877157Y-72005252D01*
X201974481Y-71730891D01*
X201853814Y-71501000D01*
X200660000Y-71501000D01*
X200406000Y-71501000D01*
X200386000Y-71501000D01*
X200386000Y-71247000D01*
X200406000Y-71247000D01*
X200406000Y-70053845D01*
X200660000Y-70053845D01*
X200660000Y-71247000D01*
X201853814Y-71247000D01*
X201974481Y-71017109D01*
X201877157Y-70742748D01*
X201728178Y-70492645D01*
X201533269Y-70276412D01*
X201299920Y-70102359D01*
X201037099Y-69977175D01*
X200889890Y-69932524D01*
X200660000Y-70053845D01*
X200406000Y-70053845D01*
X200176110Y-69932524D01*
X200028901Y-69977175D01*
X199766080Y-70102359D01*
X199532731Y-70276412D01*
X199337822Y-70492645D01*
X199268201Y-70609523D01*
X199233706Y-70544986D01*
X199048134Y-70318866D01*
X198822014Y-70133294D01*
X198564034Y-69995401D01*
X198284111Y-69910487D01*
X198065950Y-69889000D01*
X197920050Y-69889000D01*
X197701889Y-69910487D01*
X197421966Y-69995401D01*
X197163986Y-70133294D01*
X196937866Y-70318866D01*
X196752294Y-70544986D01*
X196723000Y-70599791D01*
X196693706Y-70544986D01*
X196508134Y-70318866D01*
X196282014Y-70133294D01*
X196024034Y-69995401D01*
X195744111Y-69910487D01*
X195525950Y-69889000D01*
X195380050Y-69889000D01*
X195161889Y-69910487D01*
X194881966Y-69995401D01*
X194623986Y-70133294D01*
X194397866Y-70318866D01*
X194212294Y-70544986D01*
X194183000Y-70599791D01*
X194153706Y-70544986D01*
X193968134Y-70318866D01*
X193742014Y-70133294D01*
X193484034Y-69995401D01*
X193204111Y-69910487D01*
X192985950Y-69889000D01*
X192840050Y-69889000D01*
X192621889Y-69910487D01*
X192341966Y-69995401D01*
X192083986Y-70133294D01*
X191857866Y-70318866D01*
X191833393Y-70348687D01*
X191812502Y-70279820D01*
X191753537Y-70169506D01*
X191674185Y-70072815D01*
X191577494Y-69993463D01*
X191467180Y-69934498D01*
X191347482Y-69898188D01*
X191223000Y-69885928D01*
X190964313Y-69885928D01*
X190895238Y-69801760D01*
X190867187Y-69778739D01*
X190727001Y-69638553D01*
X190727001Y-63525061D01*
X191814500Y-63525061D01*
X191814500Y-63728939D01*
X191854274Y-63928898D01*
X191932295Y-64117256D01*
X192045563Y-64286774D01*
X192189726Y-64430937D01*
X192359244Y-64544205D01*
X192547602Y-64622226D01*
X192620105Y-64636648D01*
X192694295Y-64815756D01*
X192807563Y-64985274D01*
X192951726Y-65129437D01*
X193121244Y-65242705D01*
X193309602Y-65320726D01*
X193509561Y-65360500D01*
X193713439Y-65360500D01*
X193913398Y-65320726D01*
X194101756Y-65242705D01*
X194224520Y-65160677D01*
X194269313Y-65147089D01*
X194423059Y-65064911D01*
X194557817Y-64954317D01*
X194585534Y-64920544D01*
X196396544Y-63109535D01*
X196453398Y-63098226D01*
X196641756Y-63020205D01*
X196811274Y-62906937D01*
X196955437Y-62762774D01*
X197068705Y-62593256D01*
X197146726Y-62404898D01*
X197186500Y-62204939D01*
X197186500Y-62001061D01*
X197146726Y-61801102D01*
X197068705Y-61612744D01*
X196955437Y-61443226D01*
X196811274Y-61299063D01*
X196641756Y-61185795D01*
X196453398Y-61107774D01*
X196380895Y-61093352D01*
X196306705Y-60914244D01*
X196193437Y-60744726D01*
X196049274Y-60600563D01*
X195879756Y-60487295D01*
X195691398Y-60409274D01*
X195491439Y-60369500D01*
X195287561Y-60369500D01*
X195087602Y-60409274D01*
X194899244Y-60487295D01*
X194729726Y-60600563D01*
X194585563Y-60744726D01*
X194472295Y-60914244D01*
X194394274Y-61102602D01*
X194382965Y-61159456D01*
X192950422Y-62592000D01*
X192747561Y-62592000D01*
X192547602Y-62631774D01*
X192359244Y-62709795D01*
X192189726Y-62823063D01*
X192045563Y-62967226D01*
X191932295Y-63136744D01*
X191854274Y-63325102D01*
X191814500Y-63525061D01*
X190727001Y-63525061D01*
X190727000Y-60318460D01*
X190731303Y-60321335D01*
X190984376Y-60426161D01*
X191253037Y-60479601D01*
X191526961Y-60479601D01*
X191649399Y-60455247D01*
X191649399Y-60475963D01*
X191702839Y-60744624D01*
X191807665Y-60997697D01*
X191959849Y-61225457D01*
X192153543Y-61419151D01*
X192381303Y-61571335D01*
X192634376Y-61676161D01*
X192903037Y-61729601D01*
X193176961Y-61729601D01*
X193445622Y-61676161D01*
X193698695Y-61571335D01*
X193926455Y-61419151D01*
X194120149Y-61225457D01*
X194272333Y-60997697D01*
X194377159Y-60744624D01*
X194430599Y-60475963D01*
X194430599Y-60202039D01*
X194377159Y-59933378D01*
X194272333Y-59680305D01*
X194120149Y-59452545D01*
X193926455Y-59258851D01*
X193698695Y-59106667D01*
X193656045Y-59089001D01*
X193698695Y-59071335D01*
X193926455Y-58919151D01*
X194120149Y-58725457D01*
X194272333Y-58497697D01*
X194377159Y-58244624D01*
X194430599Y-57975963D01*
X194430599Y-57702039D01*
X194395062Y-57523384D01*
X194539787Y-57378659D01*
X194567838Y-57355638D01*
X194659687Y-57243720D01*
X194727937Y-57116033D01*
X194769965Y-56977485D01*
X194780600Y-56869505D01*
X194780600Y-56869496D01*
X194784155Y-56833401D01*
X194780600Y-56797306D01*
X194780600Y-54892406D01*
X194784155Y-54856311D01*
X194780600Y-54820216D01*
X194780600Y-54820207D01*
X194769965Y-54712227D01*
X194727937Y-54573679D01*
X194659687Y-54445992D01*
X194598663Y-54371635D01*
X194590853Y-54362118D01*
X194590850Y-54362115D01*
X194567837Y-54334074D01*
X194539797Y-54311062D01*
X194067946Y-53839212D01*
X194044926Y-53811162D01*
X194039169Y-53806437D01*
X194120149Y-53725457D01*
X194272333Y-53497697D01*
X194377159Y-53244624D01*
X194430599Y-52975963D01*
X194430599Y-52702039D01*
X194377159Y-52433378D01*
X194272333Y-52180305D01*
X194120149Y-51952545D01*
X193926455Y-51758851D01*
X193698695Y-51606667D01*
X193656045Y-51589001D01*
X193698695Y-51571335D01*
X193926455Y-51419151D01*
X194120149Y-51225457D01*
X194272333Y-50997697D01*
X194377159Y-50744624D01*
X194430599Y-50475963D01*
X194430599Y-50202039D01*
X194377159Y-49933378D01*
X194272333Y-49680305D01*
X194120149Y-49452545D01*
X193926455Y-49258851D01*
X193739424Y-49133881D01*
X193760444Y-49064587D01*
X193764364Y-49051666D01*
X193766916Y-49025751D01*
X193926455Y-48919151D01*
X194120149Y-48725457D01*
X194272333Y-48497697D01*
X194377159Y-48244624D01*
X194430599Y-47975963D01*
X194430599Y-47702039D01*
X194377159Y-47433378D01*
X194308888Y-47268558D01*
X194963703Y-46613744D01*
X194991748Y-46590728D01*
X195083597Y-46478810D01*
X195151847Y-46351123D01*
X195184251Y-46244301D01*
X195193875Y-46212576D01*
X195199933Y-46151063D01*
X195204510Y-46104595D01*
X195204510Y-46104588D01*
X195208065Y-46068491D01*
X195204510Y-46032394D01*
X195204510Y-44821337D01*
X195208066Y-44785232D01*
X195193875Y-44641147D01*
X195173409Y-44573679D01*
X195151847Y-44502599D01*
X195083597Y-44374912D01*
X195073097Y-44362118D01*
X195014763Y-44291038D01*
X195014760Y-44291035D01*
X194991747Y-44262994D01*
X194963707Y-44239982D01*
X194212922Y-43489198D01*
X194189906Y-43461153D01*
X194077988Y-43369304D01*
X193950301Y-43301054D01*
X193950294Y-43301052D01*
X193811753Y-43259025D01*
X193667668Y-43244834D01*
X193631553Y-43248391D01*
X191553448Y-43248389D01*
X191517342Y-43244833D01*
X191373257Y-43259024D01*
X191234708Y-43301052D01*
X191107022Y-43369302D01*
X191023148Y-43438136D01*
X191023144Y-43438140D01*
X190995105Y-43461151D01*
X190972093Y-43489191D01*
X188093506Y-46367779D01*
X145373830Y-46367779D01*
X145020236Y-46014186D01*
X144997220Y-45986141D01*
X144885302Y-45894292D01*
X144757615Y-45826042D01*
X144757608Y-45826040D01*
X144619067Y-45784013D01*
X144613858Y-45783500D01*
X151257000Y-45783500D01*
X151281776Y-45781060D01*
X151305601Y-45773833D01*
X151327557Y-45762097D01*
X151346803Y-45746303D01*
X151362597Y-45727057D01*
X151374333Y-45705101D01*
X151381560Y-45681276D01*
X151384000Y-45656500D01*
X151384000Y-42010001D01*
X210085001Y-42010001D01*
X210085000Y-126265000D01*
X163206996Y-126265000D01*
X163146695Y-126263026D01*
X163099019Y-126270897D01*
X163050915Y-126275635D01*
X163027738Y-126282666D01*
X163003847Y-126286610D01*
X162958620Y-126303632D01*
X162912367Y-126317663D01*
X162891007Y-126329080D01*
X162868344Y-126337610D01*
X162827309Y-126363128D01*
X162784680Y-126385913D01*
X162765957Y-126401279D01*
X162745395Y-126414065D01*
X162710124Y-126447100D01*
X162672762Y-126477762D01*
X162657399Y-126496481D01*
X162639723Y-126513037D01*
X162611571Y-126552323D01*
X162580913Y-126589680D01*
X162552464Y-126642904D01*
X157271387Y-135790001D01*
X156119385Y-135790001D01*
X156120000Y-135783752D01*
X156120000Y-134672248D01*
X156103577Y-134505501D01*
X156038676Y-134291553D01*
X155933284Y-134094377D01*
X155791449Y-133921551D01*
X155618623Y-133779716D01*
X155421446Y-133674324D01*
X155207498Y-133609423D01*
X154985000Y-133587509D01*
X154762501Y-133609423D01*
X154548553Y-133674324D01*
X154351377Y-133779716D01*
X154178551Y-133921551D01*
X154036716Y-134094377D01*
X153931324Y-134291554D01*
X153866423Y-134505502D01*
X153850000Y-134672249D01*
X153850000Y-135783752D01*
X153850615Y-135790001D01*
X147139385Y-135790001D01*
X147140000Y-135783752D01*
X147140000Y-134672248D01*
X147123577Y-134505501D01*
X147058676Y-134291553D01*
X146953284Y-134094377D01*
X146811449Y-133921551D01*
X146638623Y-133779716D01*
X146441446Y-133674324D01*
X146227498Y-133609423D01*
X146005000Y-133587509D01*
X145782501Y-133609423D01*
X145568553Y-133674324D01*
X145371377Y-133779716D01*
X145198551Y-133921551D01*
X145056716Y-134094377D01*
X144951324Y-134291554D01*
X144886423Y-134505502D01*
X144870000Y-134672249D01*
X144870000Y-135783752D01*
X144870615Y-135790001D01*
X143718615Y-135790001D01*
X140564644Y-130327163D01*
X145380000Y-130327163D01*
X145380000Y-131228838D01*
X145394977Y-131380895D01*
X145454160Y-131575993D01*
X145550267Y-131755797D01*
X145679605Y-131913396D01*
X145837204Y-132042734D01*
X146017008Y-132138841D01*
X146212106Y-132198024D01*
X146415000Y-132218007D01*
X146617895Y-132198024D01*
X146812993Y-132138841D01*
X146992797Y-132042734D01*
X147150396Y-131913396D01*
X147279734Y-131755797D01*
X147375841Y-131575993D01*
X147410508Y-131461711D01*
X147418738Y-131474028D01*
X147548972Y-131604262D01*
X147702111Y-131706586D01*
X147872271Y-131777068D01*
X148052911Y-131813000D01*
X148237089Y-131813000D01*
X148417729Y-131777068D01*
X148545000Y-131724351D01*
X148672271Y-131777068D01*
X148852911Y-131813000D01*
X149037089Y-131813000D01*
X149217729Y-131777068D01*
X149345000Y-131724351D01*
X149472271Y-131777068D01*
X149652911Y-131813000D01*
X149837089Y-131813000D01*
X150017729Y-131777068D01*
X150187889Y-131706586D01*
X150341028Y-131604262D01*
X150471262Y-131474028D01*
X150545000Y-131363671D01*
X150618738Y-131474028D01*
X150748972Y-131604262D01*
X150902111Y-131706586D01*
X151072271Y-131777068D01*
X151252911Y-131813000D01*
X151437089Y-131813000D01*
X151617729Y-131777068D01*
X151745000Y-131724351D01*
X151872271Y-131777068D01*
X152052911Y-131813000D01*
X152237089Y-131813000D01*
X152417729Y-131777068D01*
X152545000Y-131724351D01*
X152672271Y-131777068D01*
X152852911Y-131813000D01*
X153037089Y-131813000D01*
X153217729Y-131777068D01*
X153387889Y-131706586D01*
X153541028Y-131604262D01*
X153671262Y-131474028D01*
X153679492Y-131461710D01*
X153714160Y-131575993D01*
X153810267Y-131755797D01*
X153939605Y-131913396D01*
X154097204Y-132042734D01*
X154277008Y-132138841D01*
X154472106Y-132198024D01*
X154675000Y-132218007D01*
X154877895Y-132198024D01*
X155072993Y-132138841D01*
X155252797Y-132042734D01*
X155410396Y-131913396D01*
X155539734Y-131755797D01*
X155635841Y-131575993D01*
X155695024Y-131380894D01*
X155710000Y-131228837D01*
X155710000Y-130327162D01*
X155695024Y-130175105D01*
X155635841Y-129980007D01*
X155539734Y-129800203D01*
X155410396Y-129642604D01*
X155302875Y-129554364D01*
X155304962Y-129535149D01*
X155304996Y-129525585D01*
X155304988Y-129523316D01*
X155301964Y-129493557D01*
X155302173Y-129463648D01*
X155301240Y-129454129D01*
X155294610Y-129391049D01*
X155282120Y-129330201D01*
X155270494Y-129269252D01*
X155267730Y-129260096D01*
X155248974Y-129199504D01*
X155224908Y-129142253D01*
X155201652Y-129084693D01*
X155197162Y-129076248D01*
X155166993Y-129020453D01*
X155132254Y-128968952D01*
X155098280Y-128917035D01*
X155092235Y-128909623D01*
X155092234Y-128909621D01*
X155092230Y-128909617D01*
X155089332Y-128906113D01*
X158635446Y-125360000D01*
X162926928Y-125360000D01*
X162939188Y-125484482D01*
X162975498Y-125604180D01*
X163034463Y-125714494D01*
X163113815Y-125811185D01*
X163210506Y-125890537D01*
X163320820Y-125949502D01*
X163440518Y-125985812D01*
X163565000Y-125998072D01*
X164179250Y-125995000D01*
X164338000Y-125836250D01*
X164338000Y-124587000D01*
X163088750Y-124587000D01*
X162930000Y-124745750D01*
X162926928Y-125360000D01*
X158635446Y-125360000D01*
X158906847Y-125088600D01*
X159004339Y-125088600D01*
X159204298Y-125048826D01*
X159392656Y-124970805D01*
X159562174Y-124857537D01*
X159706337Y-124713374D01*
X159819605Y-124543856D01*
X159897626Y-124355498D01*
X159937400Y-124155539D01*
X159937400Y-123951661D01*
X159897626Y-123751702D01*
X159819605Y-123563344D01*
X159817371Y-123560000D01*
X162926928Y-123560000D01*
X162930000Y-124174250D01*
X163088750Y-124333000D01*
X164338000Y-124333000D01*
X164338000Y-123083750D01*
X164592000Y-123083750D01*
X164592000Y-124333000D01*
X164612000Y-124333000D01*
X164612000Y-124587000D01*
X164592000Y-124587000D01*
X164592000Y-125836250D01*
X164750750Y-125995000D01*
X165365000Y-125998072D01*
X165489482Y-125985812D01*
X165609180Y-125949502D01*
X165719494Y-125890537D01*
X165816185Y-125811185D01*
X165895537Y-125714494D01*
X165954502Y-125604180D01*
X165960056Y-125585873D01*
X166026495Y-125652312D01*
X166277905Y-125820299D01*
X166557257Y-125936011D01*
X166853816Y-125995000D01*
X167156184Y-125995000D01*
X167452743Y-125936011D01*
X167732095Y-125820299D01*
X167983505Y-125652312D01*
X168197312Y-125438505D01*
X168365299Y-125187095D01*
X168481011Y-124907743D01*
X168540000Y-124611184D01*
X168540000Y-124308816D01*
X168481011Y-124012257D01*
X168365299Y-123732905D01*
X168197312Y-123481495D01*
X167983505Y-123267688D01*
X167732095Y-123099701D01*
X167452743Y-122983989D01*
X167156184Y-122925000D01*
X166853816Y-122925000D01*
X166557257Y-122983989D01*
X166277905Y-123099701D01*
X166026495Y-123267688D01*
X165960056Y-123334127D01*
X165954502Y-123315820D01*
X165895537Y-123205506D01*
X165816185Y-123108815D01*
X165719494Y-123029463D01*
X165609180Y-122970498D01*
X165489482Y-122934188D01*
X165365000Y-122921928D01*
X164750750Y-122925000D01*
X164592000Y-123083750D01*
X164338000Y-123083750D01*
X164179250Y-122925000D01*
X163565000Y-122921928D01*
X163440518Y-122934188D01*
X163320820Y-122970498D01*
X163210506Y-123029463D01*
X163113815Y-123108815D01*
X163034463Y-123205506D01*
X162975498Y-123315820D01*
X162939188Y-123435518D01*
X162926928Y-123560000D01*
X159817371Y-123560000D01*
X159706337Y-123393826D01*
X159562174Y-123249663D01*
X159392656Y-123136395D01*
X159204298Y-123058374D01*
X159004339Y-123018600D01*
X158800461Y-123018600D01*
X158600502Y-123058374D01*
X158412144Y-123136395D01*
X158242626Y-123249663D01*
X158098463Y-123393826D01*
X158038598Y-123483420D01*
X158037312Y-123481495D01*
X157823505Y-123267688D01*
X157572095Y-123099701D01*
X157292743Y-122983989D01*
X156996184Y-122925000D01*
X156693816Y-122925000D01*
X156397257Y-122983989D01*
X156117905Y-123099701D01*
X155866495Y-123267688D01*
X155800056Y-123334127D01*
X155794502Y-123315820D01*
X155735537Y-123205506D01*
X155656185Y-123108815D01*
X155559494Y-123029463D01*
X155449180Y-122970498D01*
X155329482Y-122934188D01*
X155205000Y-122921928D01*
X153405000Y-122921928D01*
X153280518Y-122934188D01*
X153160820Y-122970498D01*
X153050506Y-123029463D01*
X152953815Y-123108815D01*
X152874463Y-123205506D01*
X152815498Y-123315820D01*
X152779188Y-123435518D01*
X152766928Y-123560000D01*
X152766928Y-125360000D01*
X152779188Y-125484482D01*
X152815498Y-125604180D01*
X152874463Y-125714494D01*
X152953815Y-125811185D01*
X153050506Y-125890537D01*
X153160820Y-125949502D01*
X153280518Y-125985812D01*
X153405000Y-125998072D01*
X155205000Y-125998072D01*
X155329482Y-125985812D01*
X155449180Y-125949502D01*
X155559494Y-125890537D01*
X155656185Y-125811185D01*
X155735537Y-125714494D01*
X155794502Y-125604180D01*
X155800056Y-125585873D01*
X155866495Y-125652312D01*
X156104926Y-125811627D01*
X153788727Y-128127826D01*
X153752853Y-128126315D01*
X153609790Y-128148558D01*
X153609786Y-128148560D01*
X153609783Y-128148560D01*
X153556654Y-128167990D01*
X153056104Y-128167990D01*
X153020009Y-128164435D01*
X152983914Y-128167990D01*
X152983905Y-128167990D01*
X152875925Y-128178625D01*
X152737377Y-128220653D01*
X152609690Y-128288903D01*
X152497772Y-128380752D01*
X152474756Y-128408797D01*
X151745000Y-129138554D01*
X151740258Y-129133812D01*
X151717237Y-129105761D01*
X151605319Y-129013912D01*
X151477632Y-128945662D01*
X151339084Y-128903634D01*
X151231104Y-128892999D01*
X151194999Y-128889443D01*
X151158894Y-128892999D01*
X149931106Y-128892999D01*
X149895001Y-128889443D01*
X149858896Y-128892999D01*
X149750916Y-128903634D01*
X149612368Y-128945662D01*
X149484681Y-129013912D01*
X149372763Y-129105761D01*
X149349747Y-129133806D01*
X149237485Y-129246069D01*
X149072271Y-129278932D01*
X148902111Y-129349414D01*
X148748972Y-129451738D01*
X148618738Y-129581972D01*
X148519381Y-129730671D01*
X148379541Y-129723064D01*
X148159605Y-129943000D01*
X148052911Y-129943000D01*
X147872271Y-129978932D01*
X147769964Y-130021308D01*
X147795741Y-129982731D01*
X147820544Y-129922851D01*
X148199936Y-129543459D01*
X148189425Y-129350237D01*
X148019397Y-129279438D01*
X147868331Y-129249098D01*
X147868108Y-129247978D01*
X147795741Y-129073269D01*
X147690681Y-128916036D01*
X147556964Y-128782319D01*
X147399731Y-128677259D01*
X147225022Y-128604892D01*
X147039552Y-128568000D01*
X146850448Y-128568000D01*
X146664978Y-128604892D01*
X146490269Y-128677259D01*
X146333036Y-128782319D01*
X146199319Y-128916036D01*
X146094259Y-129073269D01*
X146021892Y-129247978D01*
X145985000Y-129433448D01*
X145985000Y-129434267D01*
X145837203Y-129513266D01*
X145679604Y-129642604D01*
X145550266Y-129800203D01*
X145454159Y-129980008D01*
X145394976Y-130175106D01*
X145380000Y-130327163D01*
X140564644Y-130327163D01*
X138437549Y-126642927D01*
X138409088Y-126589680D01*
X138378422Y-126552313D01*
X138350277Y-126513037D01*
X138332605Y-126496485D01*
X138317239Y-126477762D01*
X138279869Y-126447093D01*
X138244605Y-126414065D01*
X138224047Y-126401281D01*
X138205321Y-126385913D01*
X138162688Y-126363125D01*
X138121655Y-126337609D01*
X138098994Y-126329080D01*
X138077634Y-126317663D01*
X138031379Y-126303632D01*
X137986153Y-126286610D01*
X137962264Y-126282666D01*
X137939086Y-126275635D01*
X137890979Y-126270897D01*
X137843305Y-126263026D01*
X137783004Y-126265000D01*
X90905001Y-126265000D01*
X90905001Y-119966781D01*
X100101399Y-119966781D01*
X100101399Y-121841218D01*
X100123083Y-122061376D01*
X100208774Y-122343863D01*
X100347930Y-122604205D01*
X100535202Y-122832397D01*
X100763393Y-123019669D01*
X101023735Y-123158825D01*
X101306222Y-123244516D01*
X101599999Y-123273451D01*
X101893775Y-123244516D01*
X102176262Y-123158825D01*
X102436604Y-123019669D01*
X102664796Y-122832397D01*
X102852068Y-122604206D01*
X102869999Y-122570659D01*
X102887930Y-122604205D01*
X103075202Y-122832397D01*
X103303393Y-123019669D01*
X103563735Y-123158825D01*
X103846222Y-123244516D01*
X104139999Y-123273451D01*
X104433775Y-123244516D01*
X104716262Y-123158825D01*
X104976604Y-123019669D01*
X105204796Y-122832397D01*
X105392068Y-122604206D01*
X105409999Y-122570659D01*
X105427930Y-122604205D01*
X105615202Y-122832397D01*
X105843393Y-123019669D01*
X106103735Y-123158825D01*
X106386222Y-123244516D01*
X106679999Y-123273451D01*
X106945559Y-123247295D01*
X106954777Y-123293638D01*
X107032798Y-123481996D01*
X107146066Y-123651514D01*
X107290229Y-123795677D01*
X107459747Y-123908945D01*
X107648105Y-123986966D01*
X107848064Y-124026740D01*
X108051942Y-124026740D01*
X108251901Y-123986966D01*
X108440259Y-123908945D01*
X108609777Y-123795677D01*
X108678714Y-123726740D01*
X109540873Y-123726740D01*
X109576978Y-123730296D01*
X109613083Y-123726740D01*
X109721063Y-123716105D01*
X109859611Y-123674077D01*
X109987298Y-123605827D01*
X110099216Y-123513978D01*
X110122236Y-123485928D01*
X110739452Y-122868712D01*
X110923393Y-123019669D01*
X111183735Y-123158825D01*
X111466222Y-123244516D01*
X111759999Y-123273451D01*
X112053775Y-123244516D01*
X112336262Y-123158825D01*
X112596604Y-123019669D01*
X112783971Y-122865901D01*
X113293473Y-123375403D01*
X113316489Y-123403448D01*
X113428407Y-123495297D01*
X113556094Y-123563547D01*
X113652613Y-123592826D01*
X113694641Y-123605575D01*
X113838727Y-123619766D01*
X113874832Y-123616210D01*
X124885166Y-123616210D01*
X124921271Y-123619766D01*
X124957376Y-123616210D01*
X125065356Y-123605575D01*
X125203904Y-123563547D01*
X125210539Y-123560000D01*
X132446928Y-123560000D01*
X132446928Y-125360000D01*
X132459188Y-125484482D01*
X132495498Y-125604180D01*
X132554463Y-125714494D01*
X132633815Y-125811185D01*
X132730506Y-125890537D01*
X132840820Y-125949502D01*
X132960518Y-125985812D01*
X133085000Y-125998072D01*
X134885000Y-125998072D01*
X135009482Y-125985812D01*
X135129180Y-125949502D01*
X135239494Y-125890537D01*
X135336185Y-125811185D01*
X135415537Y-125714494D01*
X135474502Y-125604180D01*
X135480056Y-125585873D01*
X135546495Y-125652312D01*
X135797905Y-125820299D01*
X136077257Y-125936011D01*
X136373816Y-125995000D01*
X136676184Y-125995000D01*
X136972743Y-125936011D01*
X137252095Y-125820299D01*
X137503505Y-125652312D01*
X137717312Y-125438505D01*
X137885299Y-125187095D01*
X138001011Y-124907743D01*
X138060000Y-124611184D01*
X138060000Y-124308816D01*
X138001011Y-124012257D01*
X137885299Y-123732905D01*
X137769768Y-123560000D01*
X142606928Y-123560000D01*
X142606928Y-125360000D01*
X142619188Y-125484482D01*
X142655498Y-125604180D01*
X142714463Y-125714494D01*
X142793815Y-125811185D01*
X142890506Y-125890537D01*
X143000820Y-125949502D01*
X143120518Y-125985812D01*
X143245000Y-125998072D01*
X145045000Y-125998072D01*
X145169482Y-125985812D01*
X145289180Y-125949502D01*
X145399494Y-125890537D01*
X145496185Y-125811185D01*
X145575537Y-125714494D01*
X145634502Y-125604180D01*
X145640056Y-125585873D01*
X145706495Y-125652312D01*
X145957905Y-125820299D01*
X146237257Y-125936011D01*
X146533816Y-125995000D01*
X146836184Y-125995000D01*
X147132743Y-125936011D01*
X147412095Y-125820299D01*
X147663505Y-125652312D01*
X147877312Y-125438505D01*
X148045299Y-125187095D01*
X148161011Y-124907743D01*
X148220000Y-124611184D01*
X148220000Y-124308816D01*
X148161011Y-124012257D01*
X148045299Y-123732905D01*
X147877312Y-123481495D01*
X147663505Y-123267688D01*
X147412095Y-123099701D01*
X147132743Y-122983989D01*
X146836184Y-122925000D01*
X146533816Y-122925000D01*
X146237257Y-122983989D01*
X145957905Y-123099701D01*
X145706495Y-123267688D01*
X145640056Y-123334127D01*
X145634502Y-123315820D01*
X145575537Y-123205506D01*
X145496185Y-123108815D01*
X145399494Y-123029463D01*
X145289180Y-122970498D01*
X145169482Y-122934188D01*
X145045000Y-122921928D01*
X143245000Y-122921928D01*
X143120518Y-122934188D01*
X143000820Y-122970498D01*
X142890506Y-123029463D01*
X142793815Y-123108815D01*
X142714463Y-123205506D01*
X142655498Y-123315820D01*
X142619188Y-123435518D01*
X142606928Y-123560000D01*
X137769768Y-123560000D01*
X137717312Y-123481495D01*
X137503505Y-123267688D01*
X137252095Y-123099701D01*
X136972743Y-122983989D01*
X136676184Y-122925000D01*
X136373816Y-122925000D01*
X136077257Y-122983989D01*
X135797905Y-123099701D01*
X135546495Y-123267688D01*
X135480056Y-123334127D01*
X135474502Y-123315820D01*
X135415537Y-123205506D01*
X135336185Y-123108815D01*
X135239494Y-123029463D01*
X135129180Y-122970498D01*
X135009482Y-122934188D01*
X134885000Y-122921928D01*
X133085000Y-122921928D01*
X132960518Y-122934188D01*
X132840820Y-122970498D01*
X132730506Y-123029463D01*
X132633815Y-123108815D01*
X132554463Y-123205506D01*
X132495498Y-123315820D01*
X132459188Y-123435518D01*
X132446928Y-123560000D01*
X125210539Y-123560000D01*
X125331591Y-123495297D01*
X125443509Y-123403448D01*
X125466530Y-123375397D01*
X129180138Y-119661790D01*
X175078817Y-119661790D01*
X175053083Y-119746624D01*
X175031399Y-119966782D01*
X175031399Y-121841219D01*
X175053084Y-122061377D01*
X175138775Y-122343864D01*
X175277931Y-122604206D01*
X175465203Y-122832397D01*
X175693394Y-123019669D01*
X175953736Y-123158825D01*
X176236223Y-123244516D01*
X176529999Y-123273451D01*
X176823776Y-123244516D01*
X177106263Y-123158825D01*
X177366605Y-123019669D01*
X177594796Y-122832397D01*
X177782068Y-122604206D01*
X177800000Y-122570659D01*
X177817931Y-122604206D01*
X178005203Y-122832397D01*
X178233394Y-123019669D01*
X178493736Y-123158825D01*
X178776223Y-123244516D01*
X179069999Y-123273451D01*
X179363776Y-123244516D01*
X179646263Y-123158825D01*
X179906605Y-123019669D01*
X180134796Y-122832397D01*
X180322068Y-122604206D01*
X180340000Y-122570659D01*
X180357931Y-122604206D01*
X180545203Y-122832397D01*
X180773394Y-123019669D01*
X181033736Y-123158825D01*
X181316223Y-123244516D01*
X181609999Y-123273451D01*
X181903776Y-123244516D01*
X182186263Y-123158825D01*
X182446605Y-123019669D01*
X182674796Y-122832397D01*
X182862068Y-122604206D01*
X182880000Y-122570659D01*
X182897931Y-122604206D01*
X183085203Y-122832397D01*
X183313394Y-123019669D01*
X183573736Y-123158825D01*
X183856223Y-123244516D01*
X184149999Y-123273451D01*
X184443776Y-123244516D01*
X184726263Y-123158825D01*
X184986605Y-123019669D01*
X185214796Y-122832397D01*
X185402068Y-122604206D01*
X185420000Y-122570659D01*
X185437931Y-122604206D01*
X185625203Y-122832397D01*
X185853394Y-123019669D01*
X186113736Y-123158825D01*
X186396223Y-123244516D01*
X186689999Y-123273451D01*
X186983776Y-123244516D01*
X187266263Y-123158825D01*
X187526605Y-123019669D01*
X187754796Y-122832397D01*
X187942068Y-122604206D01*
X187960000Y-122570659D01*
X187977931Y-122604206D01*
X188165203Y-122832397D01*
X188393394Y-123019669D01*
X188653736Y-123158825D01*
X188936223Y-123244516D01*
X189229999Y-123273451D01*
X189523776Y-123244516D01*
X189806263Y-123158825D01*
X190066605Y-123019669D01*
X190294796Y-122832397D01*
X190482068Y-122604206D01*
X190500000Y-122570659D01*
X190517931Y-122604206D01*
X190705203Y-122832397D01*
X190933394Y-123019669D01*
X191193736Y-123158825D01*
X191476223Y-123244516D01*
X191769999Y-123273451D01*
X192063776Y-123244516D01*
X192346263Y-123158825D01*
X192606605Y-123019669D01*
X192834796Y-122832397D01*
X193022068Y-122604206D01*
X193040000Y-122570659D01*
X193057931Y-122604206D01*
X193245203Y-122832397D01*
X193473394Y-123019669D01*
X193733736Y-123158825D01*
X194016223Y-123244516D01*
X194309999Y-123273451D01*
X194603776Y-123244516D01*
X194886263Y-123158825D01*
X195146605Y-123019669D01*
X195374796Y-122832397D01*
X195562068Y-122604206D01*
X195580000Y-122570659D01*
X195597931Y-122604206D01*
X195785203Y-122832397D01*
X196013394Y-123019669D01*
X196273736Y-123158825D01*
X196556223Y-123244516D01*
X196849999Y-123273451D01*
X197143776Y-123244516D01*
X197426263Y-123158825D01*
X197686605Y-123019669D01*
X197914796Y-122832397D01*
X198102068Y-122604206D01*
X198120000Y-122570659D01*
X198137931Y-122604206D01*
X198325203Y-122832397D01*
X198553394Y-123019669D01*
X198813736Y-123158825D01*
X199096223Y-123244516D01*
X199389999Y-123273451D01*
X199683776Y-123244516D01*
X199966263Y-123158825D01*
X200226605Y-123019669D01*
X200454796Y-122832397D01*
X200642068Y-122604206D01*
X200781224Y-122343864D01*
X200866915Y-122061377D01*
X200888599Y-121841219D01*
X200888599Y-119966781D01*
X200866915Y-119746623D01*
X200781224Y-119464136D01*
X200642068Y-119203794D01*
X200454796Y-118975603D01*
X200226604Y-118788331D01*
X199966262Y-118649175D01*
X199683775Y-118563484D01*
X199389999Y-118534549D01*
X199096222Y-118563484D01*
X198813735Y-118649175D01*
X198553393Y-118788331D01*
X198325202Y-118975603D01*
X198137930Y-119203795D01*
X198119999Y-119237341D01*
X198102068Y-119203794D01*
X197914796Y-118975603D01*
X197686604Y-118788331D01*
X197426262Y-118649175D01*
X197143775Y-118563484D01*
X196849999Y-118534549D01*
X196556222Y-118563484D01*
X196503528Y-118579469D01*
X196632334Y-118386696D01*
X196737160Y-118133623D01*
X196790600Y-117864962D01*
X196790600Y-117591038D01*
X196737160Y-117322377D01*
X196632334Y-117069304D01*
X196480150Y-116841544D01*
X196286456Y-116647850D01*
X196058696Y-116495666D01*
X195805623Y-116390840D01*
X195536962Y-116337400D01*
X195516246Y-116337400D01*
X195540600Y-116214962D01*
X195540600Y-115941038D01*
X195487160Y-115672377D01*
X195382334Y-115419304D01*
X195230150Y-115191544D01*
X195036456Y-114997850D01*
X194808696Y-114845666D01*
X194555623Y-114740840D01*
X194286962Y-114687400D01*
X194013038Y-114687400D01*
X193744377Y-114740840D01*
X193491304Y-114845666D01*
X193263544Y-114997850D01*
X193069850Y-115191544D01*
X192917666Y-115419304D01*
X192900000Y-115461954D01*
X192882334Y-115419304D01*
X192730150Y-115191544D01*
X192536456Y-114997850D01*
X192308696Y-114845666D01*
X192055623Y-114740840D01*
X191786962Y-114687400D01*
X191513038Y-114687400D01*
X191244377Y-114740840D01*
X190991304Y-114845666D01*
X190981000Y-114852551D01*
X190981000Y-114477446D01*
X194655834Y-110802613D01*
X196219562Y-110802613D01*
X196255667Y-110806169D01*
X196291772Y-110802613D01*
X196399752Y-110791978D01*
X196538300Y-110749950D01*
X196665987Y-110681700D01*
X196777905Y-110589851D01*
X196800925Y-110561801D01*
X197477809Y-109884918D01*
X197505849Y-109861906D01*
X197528860Y-109833867D01*
X197528864Y-109833863D01*
X197597697Y-109749990D01*
X197633117Y-109683725D01*
X197741543Y-109792151D01*
X197969303Y-109944335D01*
X198222376Y-110049161D01*
X198491037Y-110102601D01*
X198764961Y-110102601D01*
X199033622Y-110049161D01*
X199286695Y-109944335D01*
X199514455Y-109792151D01*
X199708149Y-109598457D01*
X199860333Y-109370697D01*
X199965159Y-109117624D01*
X200018599Y-108848963D01*
X200018599Y-108575039D01*
X199965159Y-108306378D01*
X199860333Y-108053305D01*
X199708149Y-107825545D01*
X199514455Y-107631851D01*
X199286695Y-107479667D01*
X199244045Y-107462001D01*
X199286695Y-107444335D01*
X199514455Y-107292151D01*
X199708149Y-107098457D01*
X199860333Y-106870697D01*
X199965159Y-106617624D01*
X200018599Y-106348963D01*
X200018599Y-106075039D01*
X199965159Y-105806378D01*
X199860333Y-105553305D01*
X199708149Y-105325545D01*
X199514455Y-105131851D01*
X199286695Y-104979667D01*
X199244045Y-104962001D01*
X199286695Y-104944335D01*
X199514455Y-104792151D01*
X199708149Y-104598457D01*
X199860333Y-104370697D01*
X199965159Y-104117624D01*
X200018599Y-103848963D01*
X200018599Y-103575039D01*
X199965159Y-103306378D01*
X199860333Y-103053305D01*
X199708149Y-102825545D01*
X199514455Y-102631851D01*
X199286695Y-102479667D01*
X199244045Y-102462001D01*
X199286695Y-102444335D01*
X199514455Y-102292151D01*
X199708149Y-102098457D01*
X199860333Y-101870697D01*
X199965159Y-101617624D01*
X200018599Y-101348963D01*
X200018599Y-101075039D01*
X199965159Y-100806378D01*
X199860333Y-100553305D01*
X199708149Y-100325545D01*
X199514455Y-100131851D01*
X199286695Y-99979667D01*
X199244045Y-99962001D01*
X199286695Y-99944335D01*
X199514455Y-99792151D01*
X199708149Y-99598457D01*
X199860333Y-99370697D01*
X199965159Y-99117624D01*
X200018599Y-98848963D01*
X200018599Y-98575039D01*
X199965159Y-98306378D01*
X199860333Y-98053305D01*
X199708149Y-97825545D01*
X199514455Y-97631851D01*
X199286695Y-97479667D01*
X199244045Y-97462001D01*
X199286695Y-97444335D01*
X199514455Y-97292151D01*
X199708149Y-97098457D01*
X199860333Y-96870697D01*
X199965159Y-96617624D01*
X200018599Y-96348963D01*
X200018599Y-96075039D01*
X199965159Y-95806378D01*
X199860333Y-95553305D01*
X199708149Y-95325545D01*
X199514455Y-95131851D01*
X199286695Y-94979667D01*
X199244045Y-94962001D01*
X199286695Y-94944335D01*
X199514455Y-94792151D01*
X199708149Y-94598457D01*
X199809348Y-94447001D01*
X202558228Y-94447001D01*
X202566765Y-94452705D01*
X202755123Y-94530726D01*
X202955082Y-94570500D01*
X203158960Y-94570500D01*
X203358919Y-94530726D01*
X203547277Y-94452705D01*
X203716795Y-94339437D01*
X203860958Y-94195274D01*
X203974226Y-94025756D01*
X204052247Y-93837398D01*
X204092021Y-93637439D01*
X204092021Y-93433561D01*
X204052247Y-93233602D01*
X203974226Y-93045244D01*
X203860958Y-92875726D01*
X203716795Y-92731563D01*
X203547277Y-92618295D01*
X203358919Y-92540274D01*
X203158960Y-92500500D01*
X202955082Y-92500500D01*
X202755123Y-92540274D01*
X202566765Y-92618295D01*
X202397247Y-92731563D01*
X202253084Y-92875726D01*
X202185414Y-92977001D01*
X199809348Y-92977001D01*
X199708149Y-92825545D01*
X199514455Y-92631851D01*
X199286695Y-92479667D01*
X199033622Y-92374841D01*
X198764961Y-92321401D01*
X198491037Y-92321401D01*
X198222376Y-92374841D01*
X197969303Y-92479667D01*
X197741543Y-92631851D01*
X197547849Y-92825545D01*
X197395665Y-93053305D01*
X197290839Y-93306378D01*
X197237399Y-93575039D01*
X197237399Y-93848963D01*
X197290839Y-94117624D01*
X197395665Y-94370697D01*
X197547849Y-94598457D01*
X197741543Y-94792151D01*
X197969303Y-94944335D01*
X198011953Y-94962001D01*
X197969303Y-94979667D01*
X197741543Y-95131851D01*
X197547849Y-95325545D01*
X197436270Y-95492535D01*
X196625170Y-94681436D01*
X196708149Y-94598457D01*
X196860333Y-94370697D01*
X196965159Y-94117624D01*
X197018599Y-93848963D01*
X197018599Y-93575039D01*
X196965159Y-93306378D01*
X196860333Y-93053305D01*
X196708149Y-92825545D01*
X196514455Y-92631851D01*
X196286695Y-92479667D01*
X196033622Y-92374841D01*
X195764961Y-92321401D01*
X195491037Y-92321401D01*
X195222376Y-92374841D01*
X194969303Y-92479667D01*
X194741543Y-92631851D01*
X194547849Y-92825545D01*
X194395665Y-93053305D01*
X194290839Y-93306378D01*
X194237399Y-93575039D01*
X194237399Y-93595755D01*
X194114961Y-93571401D01*
X193841037Y-93571401D01*
X193572376Y-93624841D01*
X193319303Y-93729667D01*
X193091543Y-93881851D01*
X192897849Y-94075545D01*
X192745665Y-94303305D01*
X192640839Y-94556378D01*
X192587399Y-94825039D01*
X192587399Y-95098963D01*
X192640839Y-95367624D01*
X192745665Y-95620697D01*
X192897849Y-95848457D01*
X192978829Y-95929437D01*
X192973072Y-95934162D01*
X192950056Y-95962208D01*
X192478206Y-96434058D01*
X192450160Y-96457075D01*
X192358311Y-96568993D01*
X192290061Y-96696680D01*
X192270350Y-96761659D01*
X192248033Y-96835227D01*
X192233842Y-96979312D01*
X192237398Y-97015418D01*
X192237399Y-97908576D01*
X192233842Y-97944690D01*
X192248033Y-98088775D01*
X192287187Y-98217845D01*
X192290062Y-98227323D01*
X192358312Y-98355010D01*
X192450161Y-98466928D01*
X192478206Y-98489944D01*
X192700263Y-98712001D01*
X192478206Y-98934058D01*
X192450160Y-98957075D01*
X192358311Y-99068993D01*
X192290061Y-99196680D01*
X192277213Y-99239034D01*
X192248033Y-99335227D01*
X192233842Y-99479312D01*
X192237398Y-99515418D01*
X192237399Y-100408576D01*
X192233842Y-100444690D01*
X192248033Y-100588775D01*
X192283629Y-100706116D01*
X192290062Y-100727323D01*
X192358312Y-100855010D01*
X192450161Y-100966928D01*
X192450263Y-100967012D01*
X192128195Y-101289081D01*
X192100150Y-101312097D01*
X192008301Y-101424015D01*
X191940051Y-101551702D01*
X191916716Y-101628628D01*
X191898023Y-101690249D01*
X191883832Y-101834334D01*
X191887388Y-101870440D01*
X191887390Y-103053556D01*
X191883833Y-103089668D01*
X191898024Y-103233752D01*
X191940052Y-103372301D01*
X191967117Y-103422935D01*
X192008303Y-103499989D01*
X192100152Y-103611907D01*
X192128196Y-103634922D01*
X192205275Y-103712001D01*
X192128195Y-103789081D01*
X192100150Y-103812097D01*
X192008301Y-103924015D01*
X191940051Y-104051702D01*
X191913383Y-104139614D01*
X191898023Y-104190249D01*
X191883832Y-104334334D01*
X191887388Y-104370440D01*
X191887390Y-105553556D01*
X191883833Y-105589668D01*
X191898024Y-105733752D01*
X191940052Y-105872301D01*
X191960816Y-105911147D01*
X192008303Y-105999989D01*
X192100152Y-106111907D01*
X192128196Y-106134922D01*
X192205274Y-106212000D01*
X192128194Y-106289080D01*
X192100149Y-106312096D01*
X192008300Y-106424014D01*
X191940050Y-106551701D01*
X191910771Y-106648220D01*
X191898022Y-106690248D01*
X191883831Y-106834333D01*
X191887387Y-106870439D01*
X191887389Y-108053556D01*
X191883832Y-108089670D01*
X191898023Y-108233755D01*
X191925253Y-108323517D01*
X191940052Y-108372303D01*
X192008302Y-108499990D01*
X192100151Y-108611908D01*
X192128196Y-108634924D01*
X192674412Y-109181141D01*
X188218173Y-113637381D01*
X183413465Y-113637383D01*
X183377350Y-113633826D01*
X183233265Y-113648017D01*
X183094716Y-113690045D01*
X182967030Y-113758295D01*
X182883156Y-113827129D01*
X182883151Y-113827134D01*
X182855112Y-113850145D01*
X182832100Y-113878185D01*
X182342357Y-114367928D01*
X182276774Y-114348034D01*
X182168794Y-114337399D01*
X182132689Y-114333843D01*
X182096584Y-114337399D01*
X181203405Y-114337399D01*
X181167310Y-114333844D01*
X181131215Y-114337399D01*
X181131206Y-114337399D01*
X181023226Y-114348034D01*
X180884678Y-114390062D01*
X180756991Y-114458312D01*
X180645073Y-114550161D01*
X180622057Y-114578207D01*
X180150207Y-115050057D01*
X180122161Y-115073074D01*
X180030312Y-115184992D01*
X179962062Y-115312679D01*
X179936979Y-115395367D01*
X179920034Y-115451226D01*
X179905843Y-115595311D01*
X179909399Y-115631417D01*
X179909400Y-116111219D01*
X179877762Y-116137183D01*
X179785913Y-116249101D01*
X179717663Y-116376788D01*
X179675635Y-116515336D01*
X179673083Y-116541250D01*
X179513544Y-116647850D01*
X179319850Y-116841544D01*
X179167666Y-117069304D01*
X179062840Y-117322377D01*
X179009400Y-117591038D01*
X179009400Y-117841779D01*
X128766815Y-117841781D01*
X128730710Y-117838225D01*
X128586625Y-117852416D01*
X128449805Y-117893920D01*
X128448078Y-117894444D01*
X128320391Y-117962694D01*
X128276638Y-117998601D01*
X121787018Y-117998601D01*
X121813600Y-117864962D01*
X121813600Y-117591038D01*
X121760160Y-117322377D01*
X121655334Y-117069304D01*
X121503150Y-116841544D01*
X121309456Y-116647850D01*
X121081696Y-116495666D01*
X120828623Y-116390840D01*
X120559962Y-116337400D01*
X120539246Y-116337400D01*
X120563600Y-116214962D01*
X120563600Y-115941038D01*
X120510160Y-115672377D01*
X120405334Y-115419304D01*
X120253150Y-115191544D01*
X120059456Y-114997850D01*
X119831696Y-114845666D01*
X119578623Y-114740840D01*
X119309962Y-114687400D01*
X119036038Y-114687400D01*
X118767377Y-114740840D01*
X118514304Y-114845666D01*
X118286544Y-114997850D01*
X118092850Y-115191544D01*
X117940666Y-115419304D01*
X117923000Y-115461954D01*
X117905334Y-115419304D01*
X117753150Y-115191544D01*
X117559456Y-114997850D01*
X117331696Y-114845666D01*
X117078623Y-114740840D01*
X116809962Y-114687400D01*
X116536038Y-114687400D01*
X116267377Y-114740840D01*
X116014304Y-114845666D01*
X115786544Y-114997850D01*
X115592850Y-115191544D01*
X115440666Y-115419304D01*
X115423000Y-115461954D01*
X115405334Y-115419304D01*
X115253150Y-115191544D01*
X115059456Y-114997850D01*
X114831696Y-114845666D01*
X114578623Y-114740840D01*
X114309962Y-114687400D01*
X114036038Y-114687400D01*
X113767377Y-114740840D01*
X113514304Y-114845666D01*
X113286544Y-114997850D01*
X113092850Y-115191544D01*
X112940666Y-115419304D01*
X112923000Y-115461954D01*
X112905334Y-115419304D01*
X112753150Y-115191544D01*
X112559456Y-114997850D01*
X112331696Y-114845666D01*
X112078623Y-114740840D01*
X111809962Y-114687400D01*
X111536038Y-114687400D01*
X111267377Y-114740840D01*
X111014304Y-114845666D01*
X110786544Y-114997850D01*
X110592850Y-115191544D01*
X110440666Y-115419304D01*
X110423000Y-115461954D01*
X110405334Y-115419304D01*
X110253150Y-115191544D01*
X110059456Y-114997850D01*
X109831696Y-114845666D01*
X109578623Y-114740840D01*
X109309962Y-114687400D01*
X109036038Y-114687400D01*
X108767377Y-114740840D01*
X108514304Y-114845666D01*
X108286544Y-114997850D01*
X108092850Y-115191544D01*
X107940666Y-115419304D01*
X107923000Y-115461954D01*
X107905334Y-115419304D01*
X107753150Y-115191544D01*
X107559456Y-114997850D01*
X107331696Y-114845666D01*
X107078623Y-114740840D01*
X106809962Y-114687400D01*
X106536038Y-114687400D01*
X106267377Y-114740840D01*
X106014304Y-114845666D01*
X105786544Y-114997850D01*
X105607240Y-115177154D01*
X105582756Y-115160795D01*
X105394398Y-115082774D01*
X105194439Y-115043000D01*
X105096946Y-115043000D01*
X105091399Y-115037453D01*
X105091399Y-110076018D01*
X105225038Y-110102600D01*
X105498962Y-110102600D01*
X105767623Y-110049160D01*
X106020696Y-109944334D01*
X106248456Y-109792150D01*
X106442150Y-109598456D01*
X106594334Y-109370696D01*
X106699160Y-109117623D01*
X106752600Y-108848962D01*
X106752600Y-108828246D01*
X106875038Y-108852600D01*
X107148962Y-108852600D01*
X107417623Y-108799160D01*
X107670696Y-108694334D01*
X107898456Y-108542150D01*
X108092150Y-108348456D01*
X108244334Y-108120696D01*
X108349160Y-107867623D01*
X108402600Y-107598962D01*
X108402600Y-107325038D01*
X108367063Y-107146383D01*
X109666825Y-105846622D01*
X109694865Y-105823610D01*
X109717878Y-105795569D01*
X109717881Y-105795566D01*
X109786714Y-105711693D01*
X109786715Y-105711692D01*
X109854965Y-105584005D01*
X109896993Y-105445457D01*
X109907628Y-105337477D01*
X109907628Y-105337468D01*
X109911183Y-105301373D01*
X109907628Y-105265278D01*
X109907628Y-104292061D01*
X158781800Y-104292061D01*
X158781800Y-104495939D01*
X158821574Y-104695898D01*
X158899595Y-104884256D01*
X158931800Y-104932454D01*
X158931801Y-109443544D01*
X158899595Y-109491744D01*
X158821574Y-109680102D01*
X158781800Y-109880061D01*
X158781800Y-110083939D01*
X158821574Y-110283898D01*
X158899595Y-110472256D01*
X159012863Y-110641774D01*
X159157026Y-110785937D01*
X159326544Y-110899205D01*
X159514902Y-110977226D01*
X159714861Y-111017000D01*
X159918739Y-111017000D01*
X160118698Y-110977226D01*
X160307056Y-110899205D01*
X160375600Y-110853405D01*
X160444144Y-110899205D01*
X160632502Y-110977226D01*
X160832461Y-111017000D01*
X161036339Y-111017000D01*
X161236298Y-110977226D01*
X161424656Y-110899205D01*
X161594174Y-110785937D01*
X161738337Y-110641774D01*
X161851605Y-110472256D01*
X161929626Y-110283898D01*
X161969400Y-110083939D01*
X161969400Y-109880061D01*
X161929626Y-109680102D01*
X161851605Y-109491744D01*
X161819400Y-109443546D01*
X161819400Y-104932454D01*
X161851605Y-104884256D01*
X161929626Y-104695898D01*
X161969400Y-104495939D01*
X161969400Y-104292061D01*
X161929626Y-104092102D01*
X161851605Y-103903744D01*
X161738337Y-103734226D01*
X161594174Y-103590063D01*
X161424656Y-103476795D01*
X161236298Y-103398774D01*
X161036339Y-103359000D01*
X160832461Y-103359000D01*
X160632502Y-103398774D01*
X160444144Y-103476795D01*
X160375600Y-103522595D01*
X160307056Y-103476795D01*
X160118698Y-103398774D01*
X159918739Y-103359000D01*
X159714861Y-103359000D01*
X159514902Y-103398774D01*
X159326544Y-103476795D01*
X159157026Y-103590063D01*
X159012863Y-103734226D01*
X158899595Y-103903744D01*
X158821574Y-104092102D01*
X158781800Y-104292061D01*
X109907628Y-104292061D01*
X109907628Y-102006061D01*
X177323800Y-102006061D01*
X177323800Y-102209939D01*
X177363574Y-102409898D01*
X177441595Y-102598256D01*
X177554863Y-102767774D01*
X177623800Y-102836711D01*
X177623801Y-108694488D01*
X177554863Y-108763426D01*
X177441595Y-108932944D01*
X177363574Y-109121302D01*
X177323800Y-109321261D01*
X177323800Y-109525139D01*
X177363574Y-109725098D01*
X177441595Y-109913456D01*
X177554863Y-110082974D01*
X177699026Y-110227137D01*
X177868544Y-110340405D01*
X178056902Y-110418426D01*
X178256861Y-110458200D01*
X178460739Y-110458200D01*
X178660698Y-110418426D01*
X178849056Y-110340405D01*
X178930386Y-110286062D01*
X179087744Y-110391205D01*
X179276102Y-110469226D01*
X179476061Y-110509000D01*
X179679939Y-110509000D01*
X179879898Y-110469226D01*
X180068256Y-110391205D01*
X180237774Y-110277937D01*
X180381937Y-110133774D01*
X180495205Y-109964256D01*
X180573226Y-109775898D01*
X180613000Y-109575939D01*
X180613000Y-109372061D01*
X180573226Y-109172102D01*
X180495205Y-108983744D01*
X180463000Y-108935546D01*
X180463000Y-102697254D01*
X180495205Y-102649056D01*
X180573226Y-102460698D01*
X180613000Y-102260739D01*
X180613000Y-102056861D01*
X180573226Y-101856902D01*
X180495205Y-101668544D01*
X180381937Y-101499026D01*
X180237774Y-101354863D01*
X180068256Y-101241595D01*
X179879898Y-101163574D01*
X179679939Y-101123800D01*
X179476061Y-101123800D01*
X179276102Y-101163574D01*
X179087744Y-101241595D01*
X179006414Y-101295938D01*
X178849056Y-101190795D01*
X178660698Y-101112774D01*
X178460739Y-101073000D01*
X178256861Y-101073000D01*
X178056902Y-101112774D01*
X177868544Y-101190795D01*
X177699026Y-101304063D01*
X177554863Y-101448226D01*
X177441595Y-101617744D01*
X177363574Y-101806102D01*
X177323800Y-102006061D01*
X109907628Y-102006061D01*
X109907628Y-99711107D01*
X147991498Y-99711107D01*
X148348686Y-100198213D01*
X149008405Y-100556024D01*
X149725253Y-100778255D01*
X150471682Y-100856365D01*
X151219007Y-100787353D01*
X151938508Y-100573871D01*
X152602537Y-100224123D01*
X152641314Y-100198213D01*
X152998502Y-99711107D01*
X150495000Y-97207605D01*
X147991498Y-99711107D01*
X109907628Y-99711107D01*
X109907628Y-97004682D01*
X146666635Y-97004682D01*
X146735647Y-97752007D01*
X146949129Y-98471508D01*
X147298877Y-99135537D01*
X147324787Y-99174314D01*
X147811893Y-99531502D01*
X150315395Y-97028000D01*
X150674605Y-97028000D01*
X153178107Y-99531502D01*
X153665213Y-99174314D01*
X154023024Y-98514595D01*
X154245255Y-97797747D01*
X154323365Y-97051318D01*
X154254353Y-96303993D01*
X154040871Y-95584492D01*
X153691123Y-94920463D01*
X153665213Y-94881686D01*
X153178107Y-94524498D01*
X150674605Y-97028000D01*
X150315395Y-97028000D01*
X147811893Y-94524498D01*
X147324787Y-94881686D01*
X146966976Y-95541405D01*
X146744745Y-96258253D01*
X146666635Y-97004682D01*
X109907628Y-97004682D01*
X109907628Y-96305572D01*
X109956443Y-96256757D01*
X110125487Y-96326778D01*
X110325446Y-96366552D01*
X110529324Y-96366552D01*
X110729283Y-96326778D01*
X110917641Y-96248757D01*
X111051256Y-96159478D01*
X111181769Y-96246684D01*
X111370127Y-96324705D01*
X111570086Y-96364479D01*
X111773964Y-96364479D01*
X111973923Y-96324705D01*
X112162281Y-96246684D01*
X112331799Y-96133416D01*
X112475962Y-95989253D01*
X112589230Y-95819735D01*
X112667251Y-95631377D01*
X112707025Y-95431418D01*
X112707025Y-95227540D01*
X112667251Y-95027581D01*
X112589230Y-94839223D01*
X112475962Y-94669705D01*
X112331799Y-94525542D01*
X112162281Y-94412274D01*
X111999611Y-94344893D01*
X147991498Y-94344893D01*
X150495000Y-96848395D01*
X152998502Y-94344893D01*
X152641314Y-93857787D01*
X151981595Y-93499976D01*
X151264747Y-93277745D01*
X150518318Y-93199635D01*
X149770993Y-93268647D01*
X149051492Y-93482129D01*
X148387463Y-93831877D01*
X148348686Y-93857787D01*
X147991498Y-94344893D01*
X111999611Y-94344893D01*
X111973923Y-94334253D01*
X111773964Y-94294479D01*
X111676472Y-94294479D01*
X109244194Y-91862201D01*
X109221173Y-91834151D01*
X109109255Y-91742302D01*
X108981568Y-91674052D01*
X108843020Y-91632024D01*
X108735040Y-91621389D01*
X108698935Y-91617833D01*
X108662830Y-91621389D01*
X105953564Y-91621389D01*
X105953555Y-91621390D01*
X104770438Y-91621388D01*
X104734332Y-91617832D01*
X104590247Y-91632023D01*
X104451698Y-91674051D01*
X104324012Y-91742301D01*
X104240138Y-91811135D01*
X104240134Y-91811139D01*
X104212095Y-91834150D01*
X104189083Y-91862190D01*
X103333940Y-92717334D01*
X103248456Y-92631850D01*
X103020696Y-92479666D01*
X102767623Y-92374840D01*
X102498962Y-92321400D01*
X102225038Y-92321400D01*
X101956377Y-92374840D01*
X101703304Y-92479666D01*
X101475544Y-92631850D01*
X101281850Y-92825544D01*
X101129666Y-93053304D01*
X101024840Y-93306377D01*
X100971400Y-93575038D01*
X100971400Y-93848962D01*
X101024840Y-94117623D01*
X101129666Y-94370696D01*
X101281850Y-94598456D01*
X101475544Y-94792150D01*
X101703304Y-94944334D01*
X101745954Y-94962000D01*
X101703304Y-94979666D01*
X101475544Y-95131850D01*
X101281850Y-95325544D01*
X101129666Y-95553304D01*
X101024840Y-95806377D01*
X100971400Y-96075038D01*
X100971400Y-96348962D01*
X101024840Y-96617623D01*
X101129666Y-96870696D01*
X101281850Y-97098456D01*
X101475544Y-97292150D01*
X101703304Y-97444334D01*
X101745954Y-97462000D01*
X101703304Y-97479666D01*
X101475544Y-97631850D01*
X101281850Y-97825544D01*
X101129666Y-98053304D01*
X101024840Y-98306377D01*
X100971400Y-98575038D01*
X100971400Y-98848962D01*
X101024840Y-99117623D01*
X101129666Y-99370696D01*
X101281850Y-99598456D01*
X101475544Y-99792150D01*
X101703304Y-99944334D01*
X101745954Y-99962000D01*
X101703304Y-99979666D01*
X101475544Y-100131850D01*
X101281850Y-100325544D01*
X101129666Y-100553304D01*
X101024840Y-100806377D01*
X100971400Y-101075038D01*
X100971400Y-101348962D01*
X101024840Y-101617623D01*
X101129666Y-101870696D01*
X101281850Y-102098456D01*
X101475544Y-102292150D01*
X101703304Y-102444334D01*
X101745954Y-102462000D01*
X101703304Y-102479666D01*
X101475544Y-102631850D01*
X101281850Y-102825544D01*
X101129666Y-103053304D01*
X101024840Y-103306377D01*
X100971400Y-103575038D01*
X100971400Y-103848962D01*
X101024840Y-104117623D01*
X101129666Y-104370696D01*
X101281850Y-104598456D01*
X101475544Y-104792150D01*
X101703304Y-104944334D01*
X101745954Y-104962000D01*
X101703304Y-104979666D01*
X101475544Y-105131850D01*
X101281850Y-105325544D01*
X101129666Y-105553304D01*
X101024840Y-105806377D01*
X100971400Y-106075038D01*
X100971400Y-106348962D01*
X101024840Y-106617623D01*
X101129666Y-106870696D01*
X101281850Y-107098456D01*
X101475544Y-107292150D01*
X101703304Y-107444334D01*
X101745954Y-107462000D01*
X101703304Y-107479666D01*
X101475544Y-107631850D01*
X101281850Y-107825544D01*
X101129666Y-108053304D01*
X101024840Y-108306377D01*
X100971400Y-108575038D01*
X100971400Y-108848962D01*
X101024840Y-109117623D01*
X101129666Y-109370696D01*
X101281850Y-109598456D01*
X101475544Y-109792150D01*
X101703304Y-109944334D01*
X101956377Y-110049160D01*
X102225038Y-110102600D01*
X102498962Y-110102600D01*
X102767623Y-110049160D01*
X103020696Y-109944334D01*
X103076600Y-109906980D01*
X103076600Y-114560991D01*
X103073044Y-114597096D01*
X103087235Y-114741181D01*
X103099830Y-114782700D01*
X103129263Y-114879728D01*
X103166003Y-114948464D01*
X103166002Y-117658187D01*
X103162446Y-117694292D01*
X103175044Y-117822205D01*
X103176637Y-117838376D01*
X103218665Y-117976924D01*
X103286915Y-118104611D01*
X103378764Y-118216529D01*
X103406810Y-118239546D01*
X103757624Y-118590360D01*
X103563736Y-118649175D01*
X103303394Y-118788331D01*
X103075203Y-118975603D01*
X102887931Y-119203794D01*
X102870000Y-119237341D01*
X102852068Y-119203794D01*
X102664796Y-118975603D01*
X102436605Y-118788331D01*
X102176263Y-118649175D01*
X101893776Y-118563484D01*
X101599999Y-118534549D01*
X101306223Y-118563484D01*
X101023736Y-118649175D01*
X100763394Y-118788331D01*
X100535203Y-118975603D01*
X100347931Y-119203794D01*
X100208775Y-119464136D01*
X100123084Y-119746623D01*
X100101399Y-119966781D01*
X90905001Y-119966781D01*
X90905001Y-88842253D01*
X107218056Y-88842253D01*
X107218521Y-88908868D01*
X107218056Y-88975484D01*
X107219058Y-88985697D01*
X107244967Y-89232200D01*
X107258359Y-89297441D01*
X107270844Y-89362890D01*
X107273810Y-89372714D01*
X107347104Y-89609491D01*
X107372941Y-89670954D01*
X107397876Y-89732670D01*
X107402693Y-89741731D01*
X107520582Y-89959762D01*
X107557841Y-90015000D01*
X107594309Y-90070729D01*
X107600795Y-90078682D01*
X107758788Y-90269662D01*
X107806060Y-90316606D01*
X107852668Y-90364200D01*
X107860569Y-90370736D01*
X107860573Y-90370740D01*
X107860575Y-90370741D01*
X108052654Y-90527396D01*
X108108162Y-90564275D01*
X108163107Y-90601897D01*
X108172134Y-90606778D01*
X108390981Y-90723141D01*
X108452620Y-90748547D01*
X108513801Y-90774769D01*
X108523601Y-90777803D01*
X108523607Y-90777805D01*
X108760886Y-90849443D01*
X108826240Y-90862383D01*
X108891394Y-90876232D01*
X108901600Y-90877305D01*
X109146303Y-90901298D01*
X109183897Y-90905001D01*
X111796105Y-90905001D01*
X111832983Y-90901369D01*
X111849453Y-90901369D01*
X111859659Y-90900297D01*
X112105976Y-90872669D01*
X112171188Y-90858808D01*
X112236487Y-90845878D01*
X112246284Y-90842846D01*
X112246288Y-90842845D01*
X112246293Y-90842843D01*
X112482549Y-90767898D01*
X112543792Y-90741649D01*
X112605367Y-90716270D01*
X112614394Y-90711389D01*
X112831596Y-90591983D01*
X112886600Y-90554321D01*
X112942051Y-90517479D01*
X112949959Y-90510938D01*
X113139831Y-90351616D01*
X113186454Y-90304006D01*
X113233707Y-90257082D01*
X113240193Y-90249129D01*
X113240196Y-90249126D01*
X113240197Y-90249124D01*
X113395504Y-90055962D01*
X113431985Y-90000214D01*
X113469233Y-89944991D01*
X113474048Y-89935935D01*
X113474051Y-89935931D01*
X113474053Y-89935927D01*
X113588885Y-89716275D01*
X113613857Y-89654467D01*
X113639654Y-89593098D01*
X113642618Y-89583280D01*
X113642621Y-89583273D01*
X113642622Y-89583266D01*
X113712603Y-89345497D01*
X113725099Y-89279991D01*
X113738480Y-89214803D01*
X113739482Y-89204589D01*
X113761946Y-88957749D01*
X113761481Y-88891135D01*
X113761822Y-88842253D01*
X187228057Y-88842253D01*
X187228522Y-88908868D01*
X187228057Y-88975484D01*
X187229059Y-88985697D01*
X187254968Y-89232200D01*
X187268360Y-89297441D01*
X187280845Y-89362890D01*
X187283811Y-89372714D01*
X187357105Y-89609491D01*
X187382942Y-89670954D01*
X187407877Y-89732670D01*
X187412694Y-89741731D01*
X187530583Y-89959762D01*
X187567842Y-90015000D01*
X187604310Y-90070729D01*
X187610796Y-90078682D01*
X187768789Y-90269662D01*
X187816061Y-90316606D01*
X187862669Y-90364200D01*
X187870570Y-90370736D01*
X187870574Y-90370740D01*
X187870576Y-90370741D01*
X188062655Y-90527396D01*
X188118163Y-90564275D01*
X188173108Y-90601897D01*
X188182135Y-90606778D01*
X188400982Y-90723141D01*
X188462621Y-90748547D01*
X188523802Y-90774769D01*
X188533602Y-90777803D01*
X188533608Y-90777805D01*
X188770887Y-90849443D01*
X188836241Y-90862383D01*
X188901395Y-90876232D01*
X188911601Y-90877305D01*
X189158131Y-90901477D01*
X189193896Y-90905000D01*
X191806104Y-90905000D01*
X191842982Y-90901368D01*
X191859453Y-90901368D01*
X191869659Y-90900296D01*
X192115976Y-90872668D01*
X192181207Y-90858803D01*
X192246488Y-90845877D01*
X192256291Y-90842843D01*
X192492549Y-90767897D01*
X192553817Y-90741637D01*
X192615366Y-90716269D01*
X192624390Y-90711389D01*
X192624396Y-90711387D01*
X192624401Y-90711384D01*
X192841595Y-90591982D01*
X192896606Y-90554315D01*
X192952049Y-90517479D01*
X192959956Y-90510938D01*
X193149829Y-90351616D01*
X193196453Y-90304005D01*
X193243708Y-90257079D01*
X193250195Y-90249126D01*
X193405505Y-90055960D01*
X193442004Y-90000184D01*
X193479232Y-89944990D01*
X193484049Y-89935931D01*
X193484051Y-89935928D01*
X193484053Y-89935924D01*
X193598884Y-89716274D01*
X193623862Y-89654452D01*
X193649653Y-89593098D01*
X193652619Y-89583274D01*
X193652620Y-89583272D01*
X193652621Y-89583268D01*
X193722601Y-89345498D01*
X193735093Y-89280015D01*
X193748479Y-89214803D01*
X193749481Y-89204589D01*
X193771945Y-88957749D01*
X193771480Y-88891136D01*
X193771945Y-88824522D01*
X193770944Y-88814308D01*
X193745036Y-88567805D01*
X193731637Y-88502528D01*
X193719158Y-88437112D01*
X193716192Y-88427288D01*
X193658493Y-88240890D01*
X199028024Y-88240890D01*
X199072675Y-88388099D01*
X199197859Y-88650920D01*
X199371912Y-88884269D01*
X199588145Y-89079178D01*
X199838248Y-89228157D01*
X200112609Y-89325481D01*
X200342500Y-89204814D01*
X200342500Y-88011000D01*
X200596500Y-88011000D01*
X200596500Y-89204814D01*
X200826391Y-89325481D01*
X201100752Y-89228157D01*
X201350855Y-89079178D01*
X201567088Y-88884269D01*
X201741141Y-88650920D01*
X201866325Y-88388099D01*
X201910976Y-88240890D01*
X201789655Y-88011000D01*
X200596500Y-88011000D01*
X200342500Y-88011000D01*
X199149345Y-88011000D01*
X199028024Y-88240890D01*
X193658493Y-88240890D01*
X193642898Y-88190512D01*
X193617081Y-88129094D01*
X193592127Y-88067332D01*
X193587309Y-88058271D01*
X193469420Y-87840241D01*
X193432163Y-87785005D01*
X193395693Y-87729273D01*
X193389207Y-87721320D01*
X193231215Y-87530340D01*
X193183940Y-87483395D01*
X193137335Y-87435803D01*
X193129428Y-87429262D01*
X192937351Y-87272607D01*
X192881854Y-87235735D01*
X192826899Y-87198106D01*
X192817872Y-87193225D01*
X192599024Y-87076861D01*
X192537385Y-87051455D01*
X192476204Y-87025233D01*
X192466401Y-87022198D01*
X192229120Y-86950558D01*
X192163767Y-86937617D01*
X192098610Y-86923768D01*
X192088406Y-86922695D01*
X192088404Y-86922695D01*
X191841725Y-86898508D01*
X191841723Y-86898508D01*
X191806105Y-86895000D01*
X189193895Y-86895000D01*
X189157018Y-86898632D01*
X189140544Y-86898632D01*
X189130338Y-86899705D01*
X188884022Y-86927334D01*
X188818833Y-86941190D01*
X188753512Y-86954124D01*
X188743708Y-86957158D01*
X188507451Y-87032104D01*
X188446183Y-87058364D01*
X188384634Y-87083732D01*
X188375610Y-87088612D01*
X188375604Y-87088614D01*
X188375599Y-87088617D01*
X188158405Y-87208020D01*
X188103427Y-87245664D01*
X188047950Y-87282523D01*
X188040043Y-87289064D01*
X187850170Y-87448386D01*
X187803527Y-87496016D01*
X187756291Y-87542924D01*
X187749805Y-87550876D01*
X187594495Y-87744044D01*
X187557983Y-87799841D01*
X187520769Y-87855012D01*
X187515954Y-87864067D01*
X187515949Y-87864075D01*
X187515946Y-87864083D01*
X187401118Y-88083728D01*
X187376153Y-88145517D01*
X187350347Y-88206907D01*
X187347383Y-88216723D01*
X187347381Y-88216729D01*
X187347381Y-88216731D01*
X187277400Y-88454507D01*
X187264910Y-88519984D01*
X187251523Y-88585199D01*
X187250521Y-88595413D01*
X187228057Y-88842253D01*
X113761822Y-88842253D01*
X113761946Y-88824522D01*
X113760945Y-88814308D01*
X113735037Y-88567805D01*
X113721638Y-88502528D01*
X113709159Y-88437112D01*
X113706193Y-88427288D01*
X113632899Y-88190512D01*
X113607066Y-88129056D01*
X113582128Y-88067334D01*
X113577311Y-88058272D01*
X113459422Y-87840241D01*
X113422153Y-87784988D01*
X113385694Y-87729272D01*
X113379208Y-87721319D01*
X113221216Y-87530339D01*
X113173941Y-87483394D01*
X113127336Y-87435802D01*
X113119429Y-87429261D01*
X112927352Y-87272606D01*
X112871855Y-87235734D01*
X112816900Y-87198105D01*
X112807873Y-87193224D01*
X112589025Y-87076860D01*
X112527419Y-87051468D01*
X112466205Y-87025231D01*
X112456401Y-87022196D01*
X112239009Y-86956561D01*
X132632500Y-86956561D01*
X132632500Y-87160439D01*
X132672274Y-87360398D01*
X132750295Y-87548756D01*
X132863563Y-87718274D01*
X133007726Y-87862437D01*
X133177244Y-87975705D01*
X133365602Y-88053726D01*
X133565561Y-88093500D01*
X133769439Y-88093500D01*
X133969398Y-88053726D01*
X134157756Y-87975705D01*
X134205954Y-87943500D01*
X171857739Y-87943500D01*
X171924944Y-87988405D01*
X172113302Y-88066426D01*
X172313261Y-88106200D01*
X172517139Y-88106200D01*
X172717098Y-88066426D01*
X172905456Y-87988405D01*
X173074974Y-87875137D01*
X173219137Y-87730974D01*
X173332405Y-87561456D01*
X173410426Y-87373098D01*
X173450200Y-87173139D01*
X173450200Y-86969261D01*
X173410426Y-86769302D01*
X173370743Y-86673500D01*
X173635748Y-86673500D01*
X173702944Y-86718399D01*
X173891302Y-86796420D01*
X174091261Y-86836194D01*
X174295139Y-86836194D01*
X174495098Y-86796420D01*
X174683456Y-86718399D01*
X174852974Y-86605131D01*
X174997137Y-86460968D01*
X175110405Y-86291450D01*
X175188426Y-86103092D01*
X175228200Y-85903133D01*
X175228200Y-85699255D01*
X175188426Y-85499296D01*
X175110405Y-85310938D01*
X174997137Y-85141420D01*
X174852974Y-84997257D01*
X174683456Y-84883989D01*
X174495098Y-84805968D01*
X174295139Y-84766194D01*
X174091261Y-84766194D01*
X173891302Y-84805968D01*
X173702944Y-84883989D01*
X173673744Y-84903500D01*
X134269454Y-84903500D01*
X134221256Y-84871295D01*
X134032898Y-84793274D01*
X133832939Y-84753500D01*
X133629061Y-84753500D01*
X133429102Y-84793274D01*
X133240744Y-84871295D01*
X133071226Y-84984563D01*
X132927063Y-85128726D01*
X132813795Y-85298244D01*
X132735774Y-85486602D01*
X132696000Y-85686561D01*
X132696000Y-85890439D01*
X132735774Y-86090398D01*
X132813795Y-86278756D01*
X132881782Y-86380507D01*
X132863563Y-86398726D01*
X132750295Y-86568244D01*
X132672274Y-86756602D01*
X132632500Y-86956561D01*
X112239009Y-86956561D01*
X112219119Y-86950556D01*
X112153738Y-86937610D01*
X112088610Y-86923767D01*
X112078406Y-86922694D01*
X112078404Y-86922694D01*
X111831725Y-86898507D01*
X111831714Y-86898507D01*
X111796106Y-86895000D01*
X109183895Y-86895000D01*
X109147018Y-86898632D01*
X109130543Y-86898632D01*
X109120337Y-86899705D01*
X108874021Y-86927334D01*
X108808832Y-86941190D01*
X108743511Y-86954124D01*
X108733707Y-86957158D01*
X108497450Y-87032104D01*
X108436182Y-87058364D01*
X108374633Y-87083732D01*
X108365609Y-87088612D01*
X108365603Y-87088614D01*
X108365598Y-87088617D01*
X108148404Y-87208020D01*
X108093426Y-87245664D01*
X108037949Y-87282523D01*
X108030042Y-87289064D01*
X107840169Y-87448386D01*
X107793526Y-87496016D01*
X107746290Y-87542924D01*
X107739804Y-87550876D01*
X107584494Y-87744044D01*
X107547982Y-87799841D01*
X107510768Y-87855012D01*
X107505953Y-87864067D01*
X107505948Y-87864075D01*
X107505945Y-87864083D01*
X107391117Y-88083728D01*
X107366152Y-88145517D01*
X107340346Y-88206907D01*
X107337382Y-88216723D01*
X107337380Y-88216729D01*
X107337380Y-88216731D01*
X107267399Y-88454507D01*
X107254909Y-88519984D01*
X107241522Y-88585199D01*
X107240520Y-88595413D01*
X107218056Y-88842253D01*
X90905001Y-88842253D01*
X90905001Y-84494000D01*
X198981428Y-84494000D01*
X198981428Y-86194000D01*
X198993688Y-86318482D01*
X199029998Y-86438180D01*
X199088963Y-86548494D01*
X199168315Y-86645185D01*
X199265006Y-86724537D01*
X199375320Y-86783502D01*
X199455966Y-86807966D01*
X199371912Y-86883731D01*
X199197859Y-87117080D01*
X199072675Y-87379901D01*
X199028024Y-87527110D01*
X199149345Y-87757000D01*
X200342500Y-87757000D01*
X200342500Y-87737000D01*
X200596500Y-87737000D01*
X200596500Y-87757000D01*
X201789655Y-87757000D01*
X201910976Y-87527110D01*
X201866325Y-87379901D01*
X201741141Y-87117080D01*
X201567088Y-86883731D01*
X201483034Y-86807966D01*
X201563680Y-86783502D01*
X201673994Y-86724537D01*
X201770685Y-86645185D01*
X201850037Y-86548494D01*
X201909002Y-86438180D01*
X201945312Y-86318482D01*
X201957572Y-86194000D01*
X201957572Y-84494000D01*
X201945312Y-84369518D01*
X201909002Y-84249820D01*
X201850037Y-84139506D01*
X201770685Y-84042815D01*
X201673994Y-83963463D01*
X201563680Y-83904498D01*
X201443982Y-83868188D01*
X201319500Y-83855928D01*
X199619500Y-83855928D01*
X199495018Y-83868188D01*
X199375320Y-83904498D01*
X199265006Y-83963463D01*
X199168315Y-84042815D01*
X199088963Y-84139506D01*
X199029998Y-84249820D01*
X198993688Y-84369518D01*
X198981428Y-84494000D01*
X90905001Y-84494000D01*
X90905001Y-74929661D01*
X97059800Y-74929661D01*
X97059800Y-75133539D01*
X97099574Y-75333498D01*
X97163903Y-75488800D01*
X97099574Y-75644102D01*
X97059800Y-75844061D01*
X97059800Y-76047939D01*
X97099574Y-76247898D01*
X97177595Y-76436256D01*
X97290863Y-76605774D01*
X97435026Y-76749937D01*
X97604544Y-76863205D01*
X97792902Y-76941226D01*
X97992861Y-76981000D01*
X98196739Y-76981000D01*
X98396698Y-76941226D01*
X98585056Y-76863205D01*
X98633254Y-76831000D01*
X102229946Y-76831000D01*
X102278144Y-76863205D01*
X102466502Y-76941226D01*
X102666461Y-76981000D01*
X102870339Y-76981000D01*
X103070298Y-76941226D01*
X103258656Y-76863205D01*
X103428174Y-76749937D01*
X103572337Y-76605774D01*
X103685605Y-76436256D01*
X103763626Y-76247898D01*
X103768168Y-76225061D01*
X133077000Y-76225061D01*
X133077000Y-76428939D01*
X133116774Y-76628898D01*
X133194795Y-76817256D01*
X133249080Y-76898500D01*
X133194795Y-76979744D01*
X133116774Y-77168102D01*
X133077000Y-77368061D01*
X133077000Y-77571939D01*
X133116774Y-77771898D01*
X133194795Y-77960256D01*
X133270295Y-78073250D01*
X133194795Y-78186244D01*
X133116774Y-78374602D01*
X133077000Y-78574561D01*
X133077000Y-78778439D01*
X133116774Y-78978398D01*
X133194795Y-79166756D01*
X133308063Y-79336274D01*
X133452226Y-79480437D01*
X133621744Y-79593705D01*
X133810102Y-79671726D01*
X134010061Y-79711500D01*
X134213939Y-79711500D01*
X134413898Y-79671726D01*
X134602256Y-79593705D01*
X134650454Y-79561500D01*
X138717046Y-79561500D01*
X138765244Y-79593705D01*
X138953602Y-79671726D01*
X139153561Y-79711500D01*
X139357439Y-79711500D01*
X139557398Y-79671726D01*
X139745756Y-79593705D01*
X139793954Y-79561500D01*
X143543046Y-79561500D01*
X143591244Y-79593705D01*
X143779602Y-79671726D01*
X143979561Y-79711500D01*
X144183439Y-79711500D01*
X144383398Y-79671726D01*
X144571756Y-79593705D01*
X144741274Y-79480437D01*
X144885437Y-79336274D01*
X144998705Y-79166756D01*
X145076726Y-78978398D01*
X145116500Y-78778439D01*
X145116500Y-78574561D01*
X145076726Y-78374602D01*
X144998705Y-78186244D01*
X144923205Y-78073250D01*
X144998705Y-77960256D01*
X145076726Y-77771898D01*
X145116500Y-77571939D01*
X145116500Y-77368061D01*
X145076726Y-77168102D01*
X144998705Y-76979744D01*
X144944420Y-76898500D01*
X144998705Y-76817256D01*
X145076726Y-76628898D01*
X145116500Y-76428939D01*
X145116500Y-76225061D01*
X145076726Y-76025102D01*
X144998705Y-75836744D01*
X144885437Y-75667226D01*
X144757472Y-75539261D01*
X200082200Y-75539261D01*
X200082200Y-75743139D01*
X200121974Y-75943098D01*
X200199995Y-76131456D01*
X200313263Y-76300974D01*
X200457426Y-76445137D01*
X200626944Y-76558405D01*
X200815302Y-76636426D01*
X201015261Y-76676200D01*
X201219139Y-76676200D01*
X201419098Y-76636426D01*
X201607456Y-76558405D01*
X201655654Y-76526200D01*
X203118746Y-76526200D01*
X203166944Y-76558405D01*
X203355302Y-76636426D01*
X203555261Y-76676200D01*
X203759139Y-76676200D01*
X203959098Y-76636426D01*
X204147456Y-76558405D01*
X204316974Y-76445137D01*
X204461137Y-76300974D01*
X204574405Y-76131456D01*
X204652426Y-75943098D01*
X204692200Y-75743139D01*
X204692200Y-75539261D01*
X204652426Y-75339302D01*
X204574405Y-75150944D01*
X204461137Y-74981426D01*
X204316974Y-74837263D01*
X204147456Y-74723995D01*
X203959098Y-74645974D01*
X203759139Y-74606200D01*
X203555261Y-74606200D01*
X203355302Y-74645974D01*
X203166944Y-74723995D01*
X203118746Y-74756200D01*
X201655654Y-74756200D01*
X201607456Y-74723995D01*
X201419098Y-74645974D01*
X201219139Y-74606200D01*
X201015261Y-74606200D01*
X200815302Y-74645974D01*
X200626944Y-74723995D01*
X200457426Y-74837263D01*
X200313263Y-74981426D01*
X200199995Y-75150944D01*
X200121974Y-75339302D01*
X200082200Y-75539261D01*
X144757472Y-75539261D01*
X144741274Y-75523063D01*
X144571756Y-75409795D01*
X144383398Y-75331774D01*
X144183439Y-75292000D01*
X143979561Y-75292000D01*
X143779602Y-75331774D01*
X143591244Y-75409795D01*
X143543046Y-75442000D01*
X139793954Y-75442000D01*
X139745756Y-75409795D01*
X139557398Y-75331774D01*
X139357439Y-75292000D01*
X139153561Y-75292000D01*
X138953602Y-75331774D01*
X138765244Y-75409795D01*
X138717046Y-75442000D01*
X134650454Y-75442000D01*
X134602256Y-75409795D01*
X134413898Y-75331774D01*
X134213939Y-75292000D01*
X134010061Y-75292000D01*
X133810102Y-75331774D01*
X133621744Y-75409795D01*
X133452226Y-75523063D01*
X133308063Y-75667226D01*
X133194795Y-75836744D01*
X133116774Y-76025102D01*
X133077000Y-76225061D01*
X103768168Y-76225061D01*
X103803400Y-76047939D01*
X103803400Y-75844061D01*
X103763626Y-75644102D01*
X103699297Y-75488800D01*
X103763626Y-75333498D01*
X103803400Y-75133539D01*
X103803400Y-74929661D01*
X103763626Y-74729702D01*
X103685605Y-74541344D01*
X103572337Y-74371826D01*
X103428174Y-74227663D01*
X103258656Y-74114395D01*
X103070298Y-74036374D01*
X102870339Y-73996600D01*
X102666461Y-73996600D01*
X102466502Y-74036374D01*
X102278144Y-74114395D01*
X102229946Y-74146600D01*
X98633254Y-74146600D01*
X98585056Y-74114395D01*
X98396698Y-74036374D01*
X98196739Y-73996600D01*
X97992861Y-73996600D01*
X97792902Y-74036374D01*
X97604544Y-74114395D01*
X97435026Y-74227663D01*
X97290863Y-74371826D01*
X97177595Y-74541344D01*
X97099574Y-74729702D01*
X97059800Y-74929661D01*
X90905001Y-74929661D01*
X90905001Y-64892793D01*
X146583923Y-64892793D01*
X146583923Y-65663207D01*
X146734224Y-66418819D01*
X147029049Y-67130590D01*
X147457068Y-67771166D01*
X148001834Y-68315932D01*
X148642410Y-68743951D01*
X149354181Y-69038776D01*
X150109793Y-69189077D01*
X150880207Y-69189077D01*
X151635819Y-69038776D01*
X152347590Y-68743951D01*
X152988166Y-68315932D01*
X153532932Y-67771166D01*
X153942302Y-67158500D01*
X178915428Y-67158500D01*
X178915428Y-68858500D01*
X178927688Y-68982982D01*
X178963998Y-69102680D01*
X179022963Y-69212994D01*
X179102315Y-69309685D01*
X179199006Y-69389037D01*
X179309320Y-69448002D01*
X179429018Y-69484312D01*
X179553500Y-69496572D01*
X181253500Y-69496572D01*
X181377982Y-69484312D01*
X181497680Y-69448002D01*
X181607994Y-69389037D01*
X181704685Y-69309685D01*
X181784037Y-69212994D01*
X181843002Y-69102680D01*
X181867466Y-69022034D01*
X181943231Y-69106088D01*
X182176580Y-69280141D01*
X182439401Y-69405325D01*
X182586610Y-69449976D01*
X182816500Y-69328655D01*
X182816500Y-68135500D01*
X183070500Y-68135500D01*
X183070500Y-69328655D01*
X183300390Y-69449976D01*
X183447599Y-69405325D01*
X183710420Y-69280141D01*
X183943769Y-69106088D01*
X184138678Y-68889855D01*
X184287657Y-68639752D01*
X184384981Y-68365391D01*
X184264314Y-68135500D01*
X183070500Y-68135500D01*
X182816500Y-68135500D01*
X182796500Y-68135500D01*
X182796500Y-67881500D01*
X182816500Y-67881500D01*
X182816500Y-66688345D01*
X183070500Y-66688345D01*
X183070500Y-67881500D01*
X184264314Y-67881500D01*
X184384981Y-67651609D01*
X184287657Y-67377248D01*
X184138678Y-67127145D01*
X183943769Y-66910912D01*
X183710420Y-66736859D01*
X183447599Y-66611675D01*
X183300390Y-66567024D01*
X183070500Y-66688345D01*
X182816500Y-66688345D01*
X182586610Y-66567024D01*
X182439401Y-66611675D01*
X182176580Y-66736859D01*
X181943231Y-66910912D01*
X181867466Y-66994966D01*
X181843002Y-66914320D01*
X181784037Y-66804006D01*
X181704685Y-66707315D01*
X181607994Y-66627963D01*
X181497680Y-66568998D01*
X181377982Y-66532688D01*
X181253500Y-66520428D01*
X179553500Y-66520428D01*
X179429018Y-66532688D01*
X179309320Y-66568998D01*
X179199006Y-66627963D01*
X179102315Y-66707315D01*
X179022963Y-66804006D01*
X178963998Y-66914320D01*
X178927688Y-67034018D01*
X178915428Y-67158500D01*
X153942302Y-67158500D01*
X153960951Y-67130590D01*
X154255776Y-66418819D01*
X154406077Y-65663207D01*
X154406077Y-64892793D01*
X154255776Y-64137181D01*
X153960951Y-63425410D01*
X153532932Y-62784834D01*
X152988166Y-62240068D01*
X152347590Y-61812049D01*
X151635819Y-61517224D01*
X150880207Y-61366923D01*
X150109793Y-61366923D01*
X149354181Y-61517224D01*
X148642410Y-61812049D01*
X148001834Y-62240068D01*
X147457068Y-62784834D01*
X147029049Y-63425410D01*
X146734224Y-64137181D01*
X146583923Y-64892793D01*
X90905001Y-64892793D01*
X90905001Y-42010001D01*
X121221500Y-42010001D01*
X121221500Y-45656500D01*
X121221500Y-45656500D01*
G37*
X121221500Y-45656500D02*
X121223940Y-45681276D01*
X121231167Y-45705101D01*
X121242903Y-45727057D01*
X121258697Y-45746303D01*
X121277943Y-45762097D01*
X121299899Y-45773833D01*
X121323724Y-45781060D01*
X121348500Y-45783500D01*
X143422133Y-45783500D01*
X143416935Y-45784012D01*
X143278387Y-45826040D01*
X143278385Y-45826041D01*
X143150698Y-45894291D01*
X143066825Y-45963124D01*
X143066821Y-45963128D01*
X143038782Y-45986139D01*
X143015770Y-46014179D01*
X142662171Y-46367779D01*
X138074535Y-46367779D01*
X138038440Y-46364224D01*
X138002345Y-46367779D01*
X138002336Y-46367779D01*
X137894356Y-46378414D01*
X137755808Y-46420442D01*
X137628121Y-46488692D01*
X137516203Y-46580541D01*
X137493188Y-46608585D01*
X136181049Y-47920725D01*
X134271734Y-47920725D01*
X134235629Y-47917169D01*
X134199524Y-47920725D01*
X134091544Y-47931360D01*
X133952996Y-47973388D01*
X133841470Y-48033000D01*
X126380165Y-48033000D01*
X126444005Y-47937456D01*
X126522026Y-47749098D01*
X126561800Y-47549139D01*
X126561800Y-47345261D01*
X126522026Y-47145302D01*
X126444005Y-46956944D01*
X126330737Y-46787426D01*
X126186574Y-46643263D01*
X126017056Y-46529995D01*
X125828698Y-46451974D01*
X125628739Y-46412200D01*
X125424861Y-46412200D01*
X125224902Y-46451974D01*
X125036544Y-46529995D01*
X124867026Y-46643263D01*
X124722863Y-46787426D01*
X124609595Y-46956944D01*
X124531574Y-47145302D01*
X124491800Y-47345261D01*
X124491800Y-47549139D01*
X124531574Y-47749098D01*
X124609595Y-47937456D01*
X124673435Y-48033000D01*
X112622000Y-48033000D01*
X112622000Y-47407105D01*
X112625556Y-47371000D01*
X112611365Y-47226915D01*
X112569337Y-47088366D01*
X112501087Y-46960680D01*
X112432253Y-46876806D01*
X112432250Y-46876803D01*
X112409237Y-46848762D01*
X112381197Y-46825750D01*
X111650259Y-46094813D01*
X111627239Y-46066763D01*
X111515321Y-45974914D01*
X111387634Y-45906664D01*
X111249086Y-45864636D01*
X111105001Y-45850445D01*
X111068896Y-45854001D01*
X110781349Y-45854001D01*
X110680150Y-45702545D01*
X110486456Y-45508851D01*
X110258696Y-45356667D01*
X110005623Y-45251841D01*
X109736962Y-45198401D01*
X109463038Y-45198401D01*
X109340600Y-45222755D01*
X109340600Y-45202039D01*
X109287160Y-44933378D01*
X109182334Y-44680305D01*
X109030150Y-44452545D01*
X108836456Y-44258851D01*
X108608696Y-44106667D01*
X108355623Y-44001841D01*
X108086962Y-43948401D01*
X107813038Y-43948401D01*
X107544377Y-44001841D01*
X107291304Y-44106667D01*
X107063544Y-44258851D01*
X106869850Y-44452545D01*
X106717666Y-44680305D01*
X106612840Y-44933378D01*
X106559400Y-45202039D01*
X106559400Y-45475963D01*
X106612840Y-45744624D01*
X106717666Y-45997697D01*
X106869850Y-46225457D01*
X106952829Y-46308436D01*
X106450207Y-46811058D01*
X106422161Y-46834075D01*
X106330312Y-46945993D01*
X106262062Y-47073680D01*
X106241634Y-47141022D01*
X106220034Y-47212227D01*
X106205843Y-47356312D01*
X106209399Y-47392417D01*
X106209400Y-51797285D01*
X106205843Y-51833400D01*
X106220034Y-51977485D01*
X106257334Y-52100445D01*
X106262063Y-52116033D01*
X106330313Y-52243720D01*
X106422162Y-52355638D01*
X106450207Y-52378654D01*
X106594937Y-52523384D01*
X106559400Y-52702039D01*
X106559400Y-52975963D01*
X106594937Y-53154618D01*
X106026297Y-53723258D01*
X105998251Y-53746275D01*
X105906402Y-53858193D01*
X105838152Y-53985880D01*
X105812230Y-54071335D01*
X105796124Y-54124427D01*
X105781933Y-54268512D01*
X105785489Y-54304617D01*
X105785490Y-57861665D01*
X105781933Y-57897780D01*
X105796124Y-58041865D01*
X105825935Y-58140135D01*
X105838153Y-58180413D01*
X105906403Y-58308100D01*
X105998252Y-58420018D01*
X106026297Y-58443034D01*
X106941955Y-59358693D01*
X106951758Y-59370637D01*
X106869850Y-59452545D01*
X106717666Y-59680305D01*
X106612840Y-59933378D01*
X106559400Y-60202039D01*
X106559400Y-60475963D01*
X106612840Y-60744624D01*
X106717666Y-60997697D01*
X106869850Y-61225457D01*
X107063544Y-61419151D01*
X107291304Y-61571335D01*
X107544377Y-61676161D01*
X107813038Y-61729601D01*
X108086962Y-61729601D01*
X108355623Y-61676161D01*
X108608696Y-61571335D01*
X108836456Y-61419151D01*
X109030150Y-61225457D01*
X109182334Y-60997697D01*
X109287160Y-60744624D01*
X109340600Y-60475963D01*
X109340600Y-60455247D01*
X109463038Y-60479601D01*
X109736962Y-60479601D01*
X110005623Y-60426161D01*
X110258696Y-60321335D01*
X110486456Y-60169151D01*
X110559546Y-60096061D01*
X138360200Y-60096061D01*
X138360200Y-60299939D01*
X138399974Y-60499898D01*
X138477995Y-60688256D01*
X138591263Y-60857774D01*
X138735426Y-61001937D01*
X138904944Y-61115205D01*
X139093302Y-61193226D01*
X139293261Y-61233000D01*
X139497139Y-61233000D01*
X139697098Y-61193226D01*
X139885456Y-61115205D01*
X140054974Y-61001937D01*
X140199137Y-60857774D01*
X140312405Y-60688256D01*
X140390426Y-60499898D01*
X140430200Y-60299939D01*
X140430200Y-60096061D01*
X140390426Y-59896102D01*
X140312405Y-59707744D01*
X140199137Y-59538226D01*
X140054974Y-59394063D01*
X139885456Y-59280795D01*
X139697098Y-59202774D01*
X139497139Y-59163000D01*
X139293261Y-59163000D01*
X139093302Y-59202774D01*
X138904944Y-59280795D01*
X138735426Y-59394063D01*
X138591263Y-59538226D01*
X138477995Y-59707744D01*
X138399974Y-59896102D01*
X138360200Y-60096061D01*
X110559546Y-60096061D01*
X110680150Y-59975457D01*
X110832334Y-59747697D01*
X110937160Y-59494624D01*
X110990600Y-59225963D01*
X110990600Y-58952039D01*
X110937160Y-58683378D01*
X110832334Y-58430305D01*
X110680150Y-58202545D01*
X110486456Y-58008851D01*
X110299783Y-57884121D01*
X110324365Y-57803085D01*
X110327067Y-57775651D01*
X110486456Y-57669151D01*
X110680150Y-57475457D01*
X110832334Y-57247697D01*
X110937160Y-56994624D01*
X110990600Y-56725963D01*
X110990600Y-56452039D01*
X110937160Y-56183378D01*
X110832334Y-55930305D01*
X110798496Y-55879661D01*
X125355400Y-55879661D01*
X125355400Y-56083539D01*
X125395174Y-56283498D01*
X125473195Y-56471856D01*
X125586463Y-56641374D01*
X125730626Y-56785537D01*
X125900144Y-56898805D01*
X126088502Y-56976826D01*
X126288461Y-57016600D01*
X126492339Y-57016600D01*
X126692298Y-56976826D01*
X126880656Y-56898805D01*
X127050174Y-56785537D01*
X127194337Y-56641374D01*
X127307605Y-56471856D01*
X127385626Y-56283498D01*
X127425400Y-56083539D01*
X127425400Y-55879661D01*
X127385626Y-55679702D01*
X127307605Y-55491344D01*
X127194337Y-55321826D01*
X127050174Y-55177663D01*
X126880656Y-55064395D01*
X126692298Y-54986374D01*
X126492339Y-54946600D01*
X126288461Y-54946600D01*
X126088502Y-54986374D01*
X125900144Y-55064395D01*
X125730626Y-55177663D01*
X125586463Y-55321826D01*
X125473195Y-55491344D01*
X125395174Y-55679702D01*
X125355400Y-55879661D01*
X110798496Y-55879661D01*
X110760760Y-55823186D01*
X111449809Y-55134138D01*
X111477849Y-55111126D01*
X111500862Y-55083085D01*
X111500865Y-55083082D01*
X111525729Y-55052785D01*
X111569699Y-54999208D01*
X111637949Y-54871521D01*
X111679977Y-54732973D01*
X111682921Y-54703087D01*
X111694168Y-54588888D01*
X111690612Y-54552783D01*
X111690612Y-53187261D01*
X124085400Y-53187261D01*
X124085400Y-53391139D01*
X124125174Y-53591098D01*
X124203195Y-53779456D01*
X124316463Y-53948974D01*
X124460626Y-54093137D01*
X124630144Y-54206405D01*
X124818502Y-54284426D01*
X125018461Y-54324200D01*
X125222339Y-54324200D01*
X125422298Y-54284426D01*
X125610656Y-54206405D01*
X125780174Y-54093137D01*
X125924337Y-53948974D01*
X126037605Y-53779456D01*
X126115626Y-53591098D01*
X126155400Y-53391139D01*
X126155400Y-53187261D01*
X126115626Y-52987302D01*
X126037605Y-52798944D01*
X125924337Y-52629426D01*
X125780174Y-52485263D01*
X125610656Y-52371995D01*
X125422298Y-52293974D01*
X125222339Y-52254200D01*
X125018461Y-52254200D01*
X124818502Y-52293974D01*
X124630144Y-52371995D01*
X124460626Y-52485263D01*
X124316463Y-52629426D01*
X124203195Y-52798944D01*
X124125174Y-52987302D01*
X124085400Y-53187261D01*
X111690612Y-53187261D01*
X111690612Y-50773000D01*
X125022611Y-50773000D01*
X125039576Y-50858288D01*
X125117597Y-51046646D01*
X125230865Y-51216164D01*
X125375028Y-51360327D01*
X125544546Y-51473595D01*
X125732904Y-51551616D01*
X125932863Y-51591390D01*
X126136741Y-51591390D01*
X126336700Y-51551616D01*
X126525058Y-51473595D01*
X126694576Y-51360327D01*
X126838739Y-51216164D01*
X126952007Y-51046646D01*
X127030028Y-50858288D01*
X127069802Y-50658329D01*
X127069802Y-50641389D01*
X130119943Y-50641389D01*
X130201996Y-50723443D01*
X130201997Y-52966298D01*
X130133059Y-53035236D01*
X130019791Y-53204754D01*
X129941770Y-53393112D01*
X129901996Y-53593071D01*
X129901996Y-53796949D01*
X129941770Y-53996908D01*
X130019791Y-54185266D01*
X130133059Y-54354784D01*
X130277222Y-54498947D01*
X130446740Y-54612215D01*
X130635098Y-54690236D01*
X130835057Y-54730010D01*
X131038935Y-54730010D01*
X131238894Y-54690236D01*
X131427252Y-54612215D01*
X131596770Y-54498947D01*
X131740933Y-54354784D01*
X131854201Y-54185266D01*
X131932222Y-53996908D01*
X131971996Y-53796949D01*
X131971996Y-53593071D01*
X131932222Y-53393112D01*
X131854201Y-53204754D01*
X131740933Y-53035236D01*
X131671996Y-52966299D01*
X131671996Y-50455101D01*
X131675552Y-50418996D01*
X131661361Y-50274911D01*
X131658671Y-50266042D01*
X131658355Y-50265000D01*
X133411035Y-50265000D01*
X133347195Y-50360544D01*
X133269174Y-50548902D01*
X133229400Y-50748861D01*
X133229400Y-50952739D01*
X133269174Y-51152698D01*
X133347195Y-51341056D01*
X133460463Y-51510574D01*
X133604626Y-51654737D01*
X133774144Y-51768005D01*
X133962502Y-51846026D01*
X134162461Y-51885800D01*
X134366339Y-51885800D01*
X134566298Y-51846026D01*
X134754656Y-51768005D01*
X134924174Y-51654737D01*
X134993111Y-51585800D01*
X135298293Y-51585800D01*
X135334398Y-51589356D01*
X135370503Y-51585800D01*
X135478483Y-51575165D01*
X135617031Y-51533137D01*
X135744718Y-51464887D01*
X135856636Y-51373038D01*
X135879657Y-51344987D01*
X137847401Y-49377244D01*
X137847400Y-54872561D01*
X137703163Y-54901251D01*
X137514805Y-54979272D01*
X137345287Y-55092540D01*
X137201124Y-55236703D01*
X137087856Y-55406221D01*
X137009835Y-55594579D01*
X136970061Y-55794538D01*
X136970061Y-55998416D01*
X137009835Y-56198375D01*
X137087856Y-56386733D01*
X137201124Y-56556251D01*
X137345287Y-56700414D01*
X137514805Y-56813682D01*
X137703163Y-56891703D01*
X137903122Y-56931477D01*
X138107000Y-56931477D01*
X138306959Y-56891703D01*
X138495317Y-56813682D01*
X138664835Y-56700414D01*
X138808998Y-56556251D01*
X138922266Y-56386733D01*
X139000287Y-56198375D01*
X139040061Y-55998416D01*
X139040061Y-55900924D01*
X139076597Y-55864388D01*
X139104637Y-55841376D01*
X139127650Y-55813335D01*
X139127653Y-55813332D01*
X139196487Y-55729458D01*
X139264737Y-55601772D01*
X139306765Y-55463223D01*
X139320956Y-55319138D01*
X139317400Y-55283033D01*
X139317400Y-49293511D01*
X139386337Y-49224574D01*
X139499605Y-49055056D01*
X139577626Y-48866698D01*
X139617400Y-48666739D01*
X139617400Y-48649799D01*
X140078386Y-48649799D01*
X141548572Y-50119986D01*
X141510145Y-50313173D01*
X141510145Y-50517051D01*
X141549919Y-50717010D01*
X141627940Y-50905368D01*
X141741208Y-51074886D01*
X141885371Y-51219049D01*
X142054889Y-51332317D01*
X142243247Y-51410338D01*
X142443206Y-51450112D01*
X142540699Y-51450112D01*
X142841974Y-51751387D01*
X142864995Y-51779438D01*
X142976913Y-51871287D01*
X143104600Y-51939537D01*
X143243148Y-51981565D01*
X143338883Y-51990994D01*
X143409026Y-52061137D01*
X143578544Y-52174405D01*
X143766902Y-52252426D01*
X143966861Y-52292200D01*
X144170739Y-52292200D01*
X144370698Y-52252426D01*
X144559056Y-52174405D01*
X144728574Y-52061137D01*
X144841306Y-51948405D01*
X144899344Y-51987184D01*
X145087702Y-52065205D01*
X145287661Y-52104979D01*
X145491539Y-52104979D01*
X145691498Y-52065205D01*
X145879856Y-51987184D01*
X146049374Y-51873916D01*
X146193537Y-51729753D01*
X146306805Y-51560235D01*
X146384826Y-51371877D01*
X146424600Y-51171918D01*
X146424600Y-50968040D01*
X146384826Y-50768081D01*
X146306805Y-50579723D01*
X146193537Y-50410205D01*
X146049374Y-50266042D01*
X145879856Y-50152774D01*
X145691498Y-50074753D01*
X145491539Y-50034979D01*
X145394047Y-50034979D01*
X144629989Y-49270922D01*
X144606969Y-49242872D01*
X144495051Y-49151023D01*
X144367364Y-49082773D01*
X144228816Y-49040745D01*
X144120836Y-49030110D01*
X144084731Y-49026554D01*
X144048626Y-49030110D01*
X143717300Y-49030110D01*
X143808647Y-48893400D01*
X187858754Y-48893400D01*
X188906991Y-49941638D01*
X188906990Y-69664581D01*
X188800761Y-69751761D01*
X188778221Y-69779226D01*
X188750762Y-69801761D01*
X188658913Y-69913679D01*
X188624974Y-69977175D01*
X188590663Y-70041366D01*
X188548634Y-70179914D01*
X188534443Y-70323999D01*
X188538000Y-70360114D01*
X188537999Y-72387896D01*
X188534443Y-72424001D01*
X188548634Y-72568086D01*
X188561383Y-72610114D01*
X188590662Y-72706633D01*
X188658912Y-72834320D01*
X188750761Y-72946238D01*
X188778221Y-72968774D01*
X188800761Y-72996239D01*
X188912679Y-73088088D01*
X189040366Y-73156338D01*
X189178914Y-73198366D01*
X189286894Y-73209001D01*
X189322999Y-73212557D01*
X189359104Y-73209001D01*
X191776894Y-73209001D01*
X191812999Y-73212557D01*
X191849104Y-73209001D01*
X191957084Y-73198366D01*
X192095632Y-73156338D01*
X192223319Y-73088088D01*
X192335237Y-72996239D01*
X192358257Y-72968189D01*
X192519878Y-72806568D01*
X192621889Y-72837513D01*
X192840050Y-72859000D01*
X192985950Y-72859000D01*
X193204111Y-72837513D01*
X193484034Y-72752599D01*
X193742014Y-72614706D01*
X193968134Y-72429134D01*
X194153706Y-72203014D01*
X194183000Y-72148209D01*
X194212294Y-72203014D01*
X194397866Y-72429134D01*
X194623986Y-72614706D01*
X194881966Y-72752599D01*
X195161889Y-72837513D01*
X195380050Y-72859000D01*
X195525950Y-72859000D01*
X195744111Y-72837513D01*
X196024034Y-72752599D01*
X196282014Y-72614706D01*
X196508134Y-72429134D01*
X196693706Y-72203014D01*
X196723000Y-72148209D01*
X196752294Y-72203014D01*
X196937866Y-72429134D01*
X197163986Y-72614706D01*
X197421966Y-72752599D01*
X197701889Y-72837513D01*
X197920050Y-72859000D01*
X198065950Y-72859000D01*
X198284111Y-72837513D01*
X198564034Y-72752599D01*
X198822014Y-72614706D01*
X199048134Y-72429134D01*
X199233706Y-72203014D01*
X199268201Y-72138477D01*
X199337822Y-72255355D01*
X199532731Y-72471588D01*
X199766080Y-72645641D01*
X200028901Y-72770825D01*
X200176110Y-72815476D01*
X200406000Y-72694155D01*
X200406000Y-71501000D01*
X200660000Y-71501000D01*
X200660000Y-72694155D01*
X200889890Y-72815476D01*
X201037099Y-72770825D01*
X201299920Y-72645641D01*
X201533269Y-72471588D01*
X201728178Y-72255355D01*
X201877157Y-72005252D01*
X201974481Y-71730891D01*
X201853814Y-71501000D01*
X200660000Y-71501000D01*
X200406000Y-71501000D01*
X200386000Y-71501000D01*
X200386000Y-71247000D01*
X200406000Y-71247000D01*
X200406000Y-70053845D01*
X200660000Y-70053845D01*
X200660000Y-71247000D01*
X201853814Y-71247000D01*
X201974481Y-71017109D01*
X201877157Y-70742748D01*
X201728178Y-70492645D01*
X201533269Y-70276412D01*
X201299920Y-70102359D01*
X201037099Y-69977175D01*
X200889890Y-69932524D01*
X200660000Y-70053845D01*
X200406000Y-70053845D01*
X200176110Y-69932524D01*
X200028901Y-69977175D01*
X199766080Y-70102359D01*
X199532731Y-70276412D01*
X199337822Y-70492645D01*
X199268201Y-70609523D01*
X199233706Y-70544986D01*
X199048134Y-70318866D01*
X198822014Y-70133294D01*
X198564034Y-69995401D01*
X198284111Y-69910487D01*
X198065950Y-69889000D01*
X197920050Y-69889000D01*
X197701889Y-69910487D01*
X197421966Y-69995401D01*
X197163986Y-70133294D01*
X196937866Y-70318866D01*
X196752294Y-70544986D01*
X196723000Y-70599791D01*
X196693706Y-70544986D01*
X196508134Y-70318866D01*
X196282014Y-70133294D01*
X196024034Y-69995401D01*
X195744111Y-69910487D01*
X195525950Y-69889000D01*
X195380050Y-69889000D01*
X195161889Y-69910487D01*
X194881966Y-69995401D01*
X194623986Y-70133294D01*
X194397866Y-70318866D01*
X194212294Y-70544986D01*
X194183000Y-70599791D01*
X194153706Y-70544986D01*
X193968134Y-70318866D01*
X193742014Y-70133294D01*
X193484034Y-69995401D01*
X193204111Y-69910487D01*
X192985950Y-69889000D01*
X192840050Y-69889000D01*
X192621889Y-69910487D01*
X192341966Y-69995401D01*
X192083986Y-70133294D01*
X191857866Y-70318866D01*
X191833393Y-70348687D01*
X191812502Y-70279820D01*
X191753537Y-70169506D01*
X191674185Y-70072815D01*
X191577494Y-69993463D01*
X191467180Y-69934498D01*
X191347482Y-69898188D01*
X191223000Y-69885928D01*
X190964313Y-69885928D01*
X190895238Y-69801760D01*
X190867187Y-69778739D01*
X190727001Y-69638553D01*
X190727001Y-63525061D01*
X191814500Y-63525061D01*
X191814500Y-63728939D01*
X191854274Y-63928898D01*
X191932295Y-64117256D01*
X192045563Y-64286774D01*
X192189726Y-64430937D01*
X192359244Y-64544205D01*
X192547602Y-64622226D01*
X192620105Y-64636648D01*
X192694295Y-64815756D01*
X192807563Y-64985274D01*
X192951726Y-65129437D01*
X193121244Y-65242705D01*
X193309602Y-65320726D01*
X193509561Y-65360500D01*
X193713439Y-65360500D01*
X193913398Y-65320726D01*
X194101756Y-65242705D01*
X194224520Y-65160677D01*
X194269313Y-65147089D01*
X194423059Y-65064911D01*
X194557817Y-64954317D01*
X194585534Y-64920544D01*
X196396544Y-63109535D01*
X196453398Y-63098226D01*
X196641756Y-63020205D01*
X196811274Y-62906937D01*
X196955437Y-62762774D01*
X197068705Y-62593256D01*
X197146726Y-62404898D01*
X197186500Y-62204939D01*
X197186500Y-62001061D01*
X197146726Y-61801102D01*
X197068705Y-61612744D01*
X196955437Y-61443226D01*
X196811274Y-61299063D01*
X196641756Y-61185795D01*
X196453398Y-61107774D01*
X196380895Y-61093352D01*
X196306705Y-60914244D01*
X196193437Y-60744726D01*
X196049274Y-60600563D01*
X195879756Y-60487295D01*
X195691398Y-60409274D01*
X195491439Y-60369500D01*
X195287561Y-60369500D01*
X195087602Y-60409274D01*
X194899244Y-60487295D01*
X194729726Y-60600563D01*
X194585563Y-60744726D01*
X194472295Y-60914244D01*
X194394274Y-61102602D01*
X194382965Y-61159456D01*
X192950422Y-62592000D01*
X192747561Y-62592000D01*
X192547602Y-62631774D01*
X192359244Y-62709795D01*
X192189726Y-62823063D01*
X192045563Y-62967226D01*
X191932295Y-63136744D01*
X191854274Y-63325102D01*
X191814500Y-63525061D01*
X190727001Y-63525061D01*
X190727000Y-60318460D01*
X190731303Y-60321335D01*
X190984376Y-60426161D01*
X191253037Y-60479601D01*
X191526961Y-60479601D01*
X191649399Y-60455247D01*
X191649399Y-60475963D01*
X191702839Y-60744624D01*
X191807665Y-60997697D01*
X191959849Y-61225457D01*
X192153543Y-61419151D01*
X192381303Y-61571335D01*
X192634376Y-61676161D01*
X192903037Y-61729601D01*
X193176961Y-61729601D01*
X193445622Y-61676161D01*
X193698695Y-61571335D01*
X193926455Y-61419151D01*
X194120149Y-61225457D01*
X194272333Y-60997697D01*
X194377159Y-60744624D01*
X194430599Y-60475963D01*
X194430599Y-60202039D01*
X194377159Y-59933378D01*
X194272333Y-59680305D01*
X194120149Y-59452545D01*
X193926455Y-59258851D01*
X193698695Y-59106667D01*
X193656045Y-59089001D01*
X193698695Y-59071335D01*
X193926455Y-58919151D01*
X194120149Y-58725457D01*
X194272333Y-58497697D01*
X194377159Y-58244624D01*
X194430599Y-57975963D01*
X194430599Y-57702039D01*
X194395062Y-57523384D01*
X194539787Y-57378659D01*
X194567838Y-57355638D01*
X194659687Y-57243720D01*
X194727937Y-57116033D01*
X194769965Y-56977485D01*
X194780600Y-56869505D01*
X194780600Y-56869496D01*
X194784155Y-56833401D01*
X194780600Y-56797306D01*
X194780600Y-54892406D01*
X194784155Y-54856311D01*
X194780600Y-54820216D01*
X194780600Y-54820207D01*
X194769965Y-54712227D01*
X194727937Y-54573679D01*
X194659687Y-54445992D01*
X194598663Y-54371635D01*
X194590853Y-54362118D01*
X194590850Y-54362115D01*
X194567837Y-54334074D01*
X194539797Y-54311062D01*
X194067946Y-53839212D01*
X194044926Y-53811162D01*
X194039169Y-53806437D01*
X194120149Y-53725457D01*
X194272333Y-53497697D01*
X194377159Y-53244624D01*
X194430599Y-52975963D01*
X194430599Y-52702039D01*
X194377159Y-52433378D01*
X194272333Y-52180305D01*
X194120149Y-51952545D01*
X193926455Y-51758851D01*
X193698695Y-51606667D01*
X193656045Y-51589001D01*
X193698695Y-51571335D01*
X193926455Y-51419151D01*
X194120149Y-51225457D01*
X194272333Y-50997697D01*
X194377159Y-50744624D01*
X194430599Y-50475963D01*
X194430599Y-50202039D01*
X194377159Y-49933378D01*
X194272333Y-49680305D01*
X194120149Y-49452545D01*
X193926455Y-49258851D01*
X193739424Y-49133881D01*
X193760444Y-49064587D01*
X193764364Y-49051666D01*
X193766916Y-49025751D01*
X193926455Y-48919151D01*
X194120149Y-48725457D01*
X194272333Y-48497697D01*
X194377159Y-48244624D01*
X194430599Y-47975963D01*
X194430599Y-47702039D01*
X194377159Y-47433378D01*
X194308888Y-47268558D01*
X194963703Y-46613744D01*
X194991748Y-46590728D01*
X195083597Y-46478810D01*
X195151847Y-46351123D01*
X195184251Y-46244301D01*
X195193875Y-46212576D01*
X195199933Y-46151063D01*
X195204510Y-46104595D01*
X195204510Y-46104588D01*
X195208065Y-46068491D01*
X195204510Y-46032394D01*
X195204510Y-44821337D01*
X195208066Y-44785232D01*
X195193875Y-44641147D01*
X195173409Y-44573679D01*
X195151847Y-44502599D01*
X195083597Y-44374912D01*
X195073097Y-44362118D01*
X195014763Y-44291038D01*
X195014760Y-44291035D01*
X194991747Y-44262994D01*
X194963707Y-44239982D01*
X194212922Y-43489198D01*
X194189906Y-43461153D01*
X194077988Y-43369304D01*
X193950301Y-43301054D01*
X193950294Y-43301052D01*
X193811753Y-43259025D01*
X193667668Y-43244834D01*
X193631553Y-43248391D01*
X191553448Y-43248389D01*
X191517342Y-43244833D01*
X191373257Y-43259024D01*
X191234708Y-43301052D01*
X191107022Y-43369302D01*
X191023148Y-43438136D01*
X191023144Y-43438140D01*
X190995105Y-43461151D01*
X190972093Y-43489191D01*
X188093506Y-46367779D01*
X145373830Y-46367779D01*
X145020236Y-46014186D01*
X144997220Y-45986141D01*
X144885302Y-45894292D01*
X144757615Y-45826042D01*
X144757608Y-45826040D01*
X144619067Y-45784013D01*
X144613858Y-45783500D01*
X151257000Y-45783500D01*
X151281776Y-45781060D01*
X151305601Y-45773833D01*
X151327557Y-45762097D01*
X151346803Y-45746303D01*
X151362597Y-45727057D01*
X151374333Y-45705101D01*
X151381560Y-45681276D01*
X151384000Y-45656500D01*
X151384000Y-42010001D01*
X210085001Y-42010001D01*
X210085000Y-126265000D01*
X163206996Y-126265000D01*
X163146695Y-126263026D01*
X163099019Y-126270897D01*
X163050915Y-126275635D01*
X163027738Y-126282666D01*
X163003847Y-126286610D01*
X162958620Y-126303632D01*
X162912367Y-126317663D01*
X162891007Y-126329080D01*
X162868344Y-126337610D01*
X162827309Y-126363128D01*
X162784680Y-126385913D01*
X162765957Y-126401279D01*
X162745395Y-126414065D01*
X162710124Y-126447100D01*
X162672762Y-126477762D01*
X162657399Y-126496481D01*
X162639723Y-126513037D01*
X162611571Y-126552323D01*
X162580913Y-126589680D01*
X162552464Y-126642904D01*
X157271387Y-135790001D01*
X156119385Y-135790001D01*
X156120000Y-135783752D01*
X156120000Y-134672248D01*
X156103577Y-134505501D01*
X156038676Y-134291553D01*
X155933284Y-134094377D01*
X155791449Y-133921551D01*
X155618623Y-133779716D01*
X155421446Y-133674324D01*
X155207498Y-133609423D01*
X154985000Y-133587509D01*
X154762501Y-133609423D01*
X154548553Y-133674324D01*
X154351377Y-133779716D01*
X154178551Y-133921551D01*
X154036716Y-134094377D01*
X153931324Y-134291554D01*
X153866423Y-134505502D01*
X153850000Y-134672249D01*
X153850000Y-135783752D01*
X153850615Y-135790001D01*
X147139385Y-135790001D01*
X147140000Y-135783752D01*
X147140000Y-134672248D01*
X147123577Y-134505501D01*
X147058676Y-134291553D01*
X146953284Y-134094377D01*
X146811449Y-133921551D01*
X146638623Y-133779716D01*
X146441446Y-133674324D01*
X146227498Y-133609423D01*
X146005000Y-133587509D01*
X145782501Y-133609423D01*
X145568553Y-133674324D01*
X145371377Y-133779716D01*
X145198551Y-133921551D01*
X145056716Y-134094377D01*
X144951324Y-134291554D01*
X144886423Y-134505502D01*
X144870000Y-134672249D01*
X144870000Y-135783752D01*
X144870615Y-135790001D01*
X143718615Y-135790001D01*
X140564644Y-130327163D01*
X145380000Y-130327163D01*
X145380000Y-131228838D01*
X145394977Y-131380895D01*
X145454160Y-131575993D01*
X145550267Y-131755797D01*
X145679605Y-131913396D01*
X145837204Y-132042734D01*
X146017008Y-132138841D01*
X146212106Y-132198024D01*
X146415000Y-132218007D01*
X146617895Y-132198024D01*
X146812993Y-132138841D01*
X146992797Y-132042734D01*
X147150396Y-131913396D01*
X147279734Y-131755797D01*
X147375841Y-131575993D01*
X147410508Y-131461711D01*
X147418738Y-131474028D01*
X147548972Y-131604262D01*
X147702111Y-131706586D01*
X147872271Y-131777068D01*
X148052911Y-131813000D01*
X148237089Y-131813000D01*
X148417729Y-131777068D01*
X148545000Y-131724351D01*
X148672271Y-131777068D01*
X148852911Y-131813000D01*
X149037089Y-131813000D01*
X149217729Y-131777068D01*
X149345000Y-131724351D01*
X149472271Y-131777068D01*
X149652911Y-131813000D01*
X149837089Y-131813000D01*
X150017729Y-131777068D01*
X150187889Y-131706586D01*
X150341028Y-131604262D01*
X150471262Y-131474028D01*
X150545000Y-131363671D01*
X150618738Y-131474028D01*
X150748972Y-131604262D01*
X150902111Y-131706586D01*
X151072271Y-131777068D01*
X151252911Y-131813000D01*
X151437089Y-131813000D01*
X151617729Y-131777068D01*
X151745000Y-131724351D01*
X151872271Y-131777068D01*
X152052911Y-131813000D01*
X152237089Y-131813000D01*
X152417729Y-131777068D01*
X152545000Y-131724351D01*
X152672271Y-131777068D01*
X152852911Y-131813000D01*
X153037089Y-131813000D01*
X153217729Y-131777068D01*
X153387889Y-131706586D01*
X153541028Y-131604262D01*
X153671262Y-131474028D01*
X153679492Y-131461710D01*
X153714160Y-131575993D01*
X153810267Y-131755797D01*
X153939605Y-131913396D01*
X154097204Y-132042734D01*
X154277008Y-132138841D01*
X154472106Y-132198024D01*
X154675000Y-132218007D01*
X154877895Y-132198024D01*
X155072993Y-132138841D01*
X155252797Y-132042734D01*
X155410396Y-131913396D01*
X155539734Y-131755797D01*
X155635841Y-131575993D01*
X155695024Y-131380894D01*
X155710000Y-131228837D01*
X155710000Y-130327162D01*
X155695024Y-130175105D01*
X155635841Y-129980007D01*
X155539734Y-129800203D01*
X155410396Y-129642604D01*
X155302875Y-129554364D01*
X155304962Y-129535149D01*
X155304996Y-129525585D01*
X155304988Y-129523316D01*
X155301964Y-129493557D01*
X155302173Y-129463648D01*
X155301240Y-129454129D01*
X155294610Y-129391049D01*
X155282120Y-129330201D01*
X155270494Y-129269252D01*
X155267730Y-129260096D01*
X155248974Y-129199504D01*
X155224908Y-129142253D01*
X155201652Y-129084693D01*
X155197162Y-129076248D01*
X155166993Y-129020453D01*
X155132254Y-128968952D01*
X155098280Y-128917035D01*
X155092235Y-128909623D01*
X155092234Y-128909621D01*
X155092230Y-128909617D01*
X155089332Y-128906113D01*
X158635446Y-125360000D01*
X162926928Y-125360000D01*
X162939188Y-125484482D01*
X162975498Y-125604180D01*
X163034463Y-125714494D01*
X163113815Y-125811185D01*
X163210506Y-125890537D01*
X163320820Y-125949502D01*
X163440518Y-125985812D01*
X163565000Y-125998072D01*
X164179250Y-125995000D01*
X164338000Y-125836250D01*
X164338000Y-124587000D01*
X163088750Y-124587000D01*
X162930000Y-124745750D01*
X162926928Y-125360000D01*
X158635446Y-125360000D01*
X158906847Y-125088600D01*
X159004339Y-125088600D01*
X159204298Y-125048826D01*
X159392656Y-124970805D01*
X159562174Y-124857537D01*
X159706337Y-124713374D01*
X159819605Y-124543856D01*
X159897626Y-124355498D01*
X159937400Y-124155539D01*
X159937400Y-123951661D01*
X159897626Y-123751702D01*
X159819605Y-123563344D01*
X159817371Y-123560000D01*
X162926928Y-123560000D01*
X162930000Y-124174250D01*
X163088750Y-124333000D01*
X164338000Y-124333000D01*
X164338000Y-123083750D01*
X164592000Y-123083750D01*
X164592000Y-124333000D01*
X164612000Y-124333000D01*
X164612000Y-124587000D01*
X164592000Y-124587000D01*
X164592000Y-125836250D01*
X164750750Y-125995000D01*
X165365000Y-125998072D01*
X165489482Y-125985812D01*
X165609180Y-125949502D01*
X165719494Y-125890537D01*
X165816185Y-125811185D01*
X165895537Y-125714494D01*
X165954502Y-125604180D01*
X165960056Y-125585873D01*
X166026495Y-125652312D01*
X166277905Y-125820299D01*
X166557257Y-125936011D01*
X166853816Y-125995000D01*
X167156184Y-125995000D01*
X167452743Y-125936011D01*
X167732095Y-125820299D01*
X167983505Y-125652312D01*
X168197312Y-125438505D01*
X168365299Y-125187095D01*
X168481011Y-124907743D01*
X168540000Y-124611184D01*
X168540000Y-124308816D01*
X168481011Y-124012257D01*
X168365299Y-123732905D01*
X168197312Y-123481495D01*
X167983505Y-123267688D01*
X167732095Y-123099701D01*
X167452743Y-122983989D01*
X167156184Y-122925000D01*
X166853816Y-122925000D01*
X166557257Y-122983989D01*
X166277905Y-123099701D01*
X166026495Y-123267688D01*
X165960056Y-123334127D01*
X165954502Y-123315820D01*
X165895537Y-123205506D01*
X165816185Y-123108815D01*
X165719494Y-123029463D01*
X165609180Y-122970498D01*
X165489482Y-122934188D01*
X165365000Y-122921928D01*
X164750750Y-122925000D01*
X164592000Y-123083750D01*
X164338000Y-123083750D01*
X164179250Y-122925000D01*
X163565000Y-122921928D01*
X163440518Y-122934188D01*
X163320820Y-122970498D01*
X163210506Y-123029463D01*
X163113815Y-123108815D01*
X163034463Y-123205506D01*
X162975498Y-123315820D01*
X162939188Y-123435518D01*
X162926928Y-123560000D01*
X159817371Y-123560000D01*
X159706337Y-123393826D01*
X159562174Y-123249663D01*
X159392656Y-123136395D01*
X159204298Y-123058374D01*
X159004339Y-123018600D01*
X158800461Y-123018600D01*
X158600502Y-123058374D01*
X158412144Y-123136395D01*
X158242626Y-123249663D01*
X158098463Y-123393826D01*
X158038598Y-123483420D01*
X158037312Y-123481495D01*
X157823505Y-123267688D01*
X157572095Y-123099701D01*
X157292743Y-122983989D01*
X156996184Y-122925000D01*
X156693816Y-122925000D01*
X156397257Y-122983989D01*
X156117905Y-123099701D01*
X155866495Y-123267688D01*
X155800056Y-123334127D01*
X155794502Y-123315820D01*
X155735537Y-123205506D01*
X155656185Y-123108815D01*
X155559494Y-123029463D01*
X155449180Y-122970498D01*
X155329482Y-122934188D01*
X155205000Y-122921928D01*
X153405000Y-122921928D01*
X153280518Y-122934188D01*
X153160820Y-122970498D01*
X153050506Y-123029463D01*
X152953815Y-123108815D01*
X152874463Y-123205506D01*
X152815498Y-123315820D01*
X152779188Y-123435518D01*
X152766928Y-123560000D01*
X152766928Y-125360000D01*
X152779188Y-125484482D01*
X152815498Y-125604180D01*
X152874463Y-125714494D01*
X152953815Y-125811185D01*
X153050506Y-125890537D01*
X153160820Y-125949502D01*
X153280518Y-125985812D01*
X153405000Y-125998072D01*
X155205000Y-125998072D01*
X155329482Y-125985812D01*
X155449180Y-125949502D01*
X155559494Y-125890537D01*
X155656185Y-125811185D01*
X155735537Y-125714494D01*
X155794502Y-125604180D01*
X155800056Y-125585873D01*
X155866495Y-125652312D01*
X156104926Y-125811627D01*
X153788727Y-128127826D01*
X153752853Y-128126315D01*
X153609790Y-128148558D01*
X153609786Y-128148560D01*
X153609783Y-128148560D01*
X153556654Y-128167990D01*
X153056104Y-128167990D01*
X153020009Y-128164435D01*
X152983914Y-128167990D01*
X152983905Y-128167990D01*
X152875925Y-128178625D01*
X152737377Y-128220653D01*
X152609690Y-128288903D01*
X152497772Y-128380752D01*
X152474756Y-128408797D01*
X151745000Y-129138554D01*
X151740258Y-129133812D01*
X151717237Y-129105761D01*
X151605319Y-129013912D01*
X151477632Y-128945662D01*
X151339084Y-128903634D01*
X151231104Y-128892999D01*
X151194999Y-128889443D01*
X151158894Y-128892999D01*
X149931106Y-128892999D01*
X149895001Y-128889443D01*
X149858896Y-128892999D01*
X149750916Y-128903634D01*
X149612368Y-128945662D01*
X149484681Y-129013912D01*
X149372763Y-129105761D01*
X149349747Y-129133806D01*
X149237485Y-129246069D01*
X149072271Y-129278932D01*
X148902111Y-129349414D01*
X148748972Y-129451738D01*
X148618738Y-129581972D01*
X148519381Y-129730671D01*
X148379541Y-129723064D01*
X148159605Y-129943000D01*
X148052911Y-129943000D01*
X147872271Y-129978932D01*
X147769964Y-130021308D01*
X147795741Y-129982731D01*
X147820544Y-129922851D01*
X148199936Y-129543459D01*
X148189425Y-129350237D01*
X148019397Y-129279438D01*
X147868331Y-129249098D01*
X147868108Y-129247978D01*
X147795741Y-129073269D01*
X147690681Y-128916036D01*
X147556964Y-128782319D01*
X147399731Y-128677259D01*
X147225022Y-128604892D01*
X147039552Y-128568000D01*
X146850448Y-128568000D01*
X146664978Y-128604892D01*
X146490269Y-128677259D01*
X146333036Y-128782319D01*
X146199319Y-128916036D01*
X146094259Y-129073269D01*
X146021892Y-129247978D01*
X145985000Y-129433448D01*
X145985000Y-129434267D01*
X145837203Y-129513266D01*
X145679604Y-129642604D01*
X145550266Y-129800203D01*
X145454159Y-129980008D01*
X145394976Y-130175106D01*
X145380000Y-130327163D01*
X140564644Y-130327163D01*
X138437549Y-126642927D01*
X138409088Y-126589680D01*
X138378422Y-126552313D01*
X138350277Y-126513037D01*
X138332605Y-126496485D01*
X138317239Y-126477762D01*
X138279869Y-126447093D01*
X138244605Y-126414065D01*
X138224047Y-126401281D01*
X138205321Y-126385913D01*
X138162688Y-126363125D01*
X138121655Y-126337609D01*
X138098994Y-126329080D01*
X138077634Y-126317663D01*
X138031379Y-126303632D01*
X137986153Y-126286610D01*
X137962264Y-126282666D01*
X137939086Y-126275635D01*
X137890979Y-126270897D01*
X137843305Y-126263026D01*
X137783004Y-126265000D01*
X90905001Y-126265000D01*
X90905001Y-119966781D01*
X100101399Y-119966781D01*
X100101399Y-121841218D01*
X100123083Y-122061376D01*
X100208774Y-122343863D01*
X100347930Y-122604205D01*
X100535202Y-122832397D01*
X100763393Y-123019669D01*
X101023735Y-123158825D01*
X101306222Y-123244516D01*
X101599999Y-123273451D01*
X101893775Y-123244516D01*
X102176262Y-123158825D01*
X102436604Y-123019669D01*
X102664796Y-122832397D01*
X102852068Y-122604206D01*
X102869999Y-122570659D01*
X102887930Y-122604205D01*
X103075202Y-122832397D01*
X103303393Y-123019669D01*
X103563735Y-123158825D01*
X103846222Y-123244516D01*
X104139999Y-123273451D01*
X104433775Y-123244516D01*
X104716262Y-123158825D01*
X104976604Y-123019669D01*
X105204796Y-122832397D01*
X105392068Y-122604206D01*
X105409999Y-122570659D01*
X105427930Y-122604205D01*
X105615202Y-122832397D01*
X105843393Y-123019669D01*
X106103735Y-123158825D01*
X106386222Y-123244516D01*
X106679999Y-123273451D01*
X106945559Y-123247295D01*
X106954777Y-123293638D01*
X107032798Y-123481996D01*
X107146066Y-123651514D01*
X107290229Y-123795677D01*
X107459747Y-123908945D01*
X107648105Y-123986966D01*
X107848064Y-124026740D01*
X108051942Y-124026740D01*
X108251901Y-123986966D01*
X108440259Y-123908945D01*
X108609777Y-123795677D01*
X108678714Y-123726740D01*
X109540873Y-123726740D01*
X109576978Y-123730296D01*
X109613083Y-123726740D01*
X109721063Y-123716105D01*
X109859611Y-123674077D01*
X109987298Y-123605827D01*
X110099216Y-123513978D01*
X110122236Y-123485928D01*
X110739452Y-122868712D01*
X110923393Y-123019669D01*
X111183735Y-123158825D01*
X111466222Y-123244516D01*
X111759999Y-123273451D01*
X112053775Y-123244516D01*
X112336262Y-123158825D01*
X112596604Y-123019669D01*
X112783971Y-122865901D01*
X113293473Y-123375403D01*
X113316489Y-123403448D01*
X113428407Y-123495297D01*
X113556094Y-123563547D01*
X113652613Y-123592826D01*
X113694641Y-123605575D01*
X113838727Y-123619766D01*
X113874832Y-123616210D01*
X124885166Y-123616210D01*
X124921271Y-123619766D01*
X124957376Y-123616210D01*
X125065356Y-123605575D01*
X125203904Y-123563547D01*
X125210539Y-123560000D01*
X132446928Y-123560000D01*
X132446928Y-125360000D01*
X132459188Y-125484482D01*
X132495498Y-125604180D01*
X132554463Y-125714494D01*
X132633815Y-125811185D01*
X132730506Y-125890537D01*
X132840820Y-125949502D01*
X132960518Y-125985812D01*
X133085000Y-125998072D01*
X134885000Y-125998072D01*
X135009482Y-125985812D01*
X135129180Y-125949502D01*
X135239494Y-125890537D01*
X135336185Y-125811185D01*
X135415537Y-125714494D01*
X135474502Y-125604180D01*
X135480056Y-125585873D01*
X135546495Y-125652312D01*
X135797905Y-125820299D01*
X136077257Y-125936011D01*
X136373816Y-125995000D01*
X136676184Y-125995000D01*
X136972743Y-125936011D01*
X137252095Y-125820299D01*
X137503505Y-125652312D01*
X137717312Y-125438505D01*
X137885299Y-125187095D01*
X138001011Y-124907743D01*
X138060000Y-124611184D01*
X138060000Y-124308816D01*
X138001011Y-124012257D01*
X137885299Y-123732905D01*
X137769768Y-123560000D01*
X142606928Y-123560000D01*
X142606928Y-125360000D01*
X142619188Y-125484482D01*
X142655498Y-125604180D01*
X142714463Y-125714494D01*
X142793815Y-125811185D01*
X142890506Y-125890537D01*
X143000820Y-125949502D01*
X143120518Y-125985812D01*
X143245000Y-125998072D01*
X145045000Y-125998072D01*
X145169482Y-125985812D01*
X145289180Y-125949502D01*
X145399494Y-125890537D01*
X145496185Y-125811185D01*
X145575537Y-125714494D01*
X145634502Y-125604180D01*
X145640056Y-125585873D01*
X145706495Y-125652312D01*
X145957905Y-125820299D01*
X146237257Y-125936011D01*
X146533816Y-125995000D01*
X146836184Y-125995000D01*
X147132743Y-125936011D01*
X147412095Y-125820299D01*
X147663505Y-125652312D01*
X147877312Y-125438505D01*
X148045299Y-125187095D01*
X148161011Y-124907743D01*
X148220000Y-124611184D01*
X148220000Y-124308816D01*
X148161011Y-124012257D01*
X148045299Y-123732905D01*
X147877312Y-123481495D01*
X147663505Y-123267688D01*
X147412095Y-123099701D01*
X147132743Y-122983989D01*
X146836184Y-122925000D01*
X146533816Y-122925000D01*
X146237257Y-122983989D01*
X145957905Y-123099701D01*
X145706495Y-123267688D01*
X145640056Y-123334127D01*
X145634502Y-123315820D01*
X145575537Y-123205506D01*
X145496185Y-123108815D01*
X145399494Y-123029463D01*
X145289180Y-122970498D01*
X145169482Y-122934188D01*
X145045000Y-122921928D01*
X143245000Y-122921928D01*
X143120518Y-122934188D01*
X143000820Y-122970498D01*
X142890506Y-123029463D01*
X142793815Y-123108815D01*
X142714463Y-123205506D01*
X142655498Y-123315820D01*
X142619188Y-123435518D01*
X142606928Y-123560000D01*
X137769768Y-123560000D01*
X137717312Y-123481495D01*
X137503505Y-123267688D01*
X137252095Y-123099701D01*
X136972743Y-122983989D01*
X136676184Y-122925000D01*
X136373816Y-122925000D01*
X136077257Y-122983989D01*
X135797905Y-123099701D01*
X135546495Y-123267688D01*
X135480056Y-123334127D01*
X135474502Y-123315820D01*
X135415537Y-123205506D01*
X135336185Y-123108815D01*
X135239494Y-123029463D01*
X135129180Y-122970498D01*
X135009482Y-122934188D01*
X134885000Y-122921928D01*
X133085000Y-122921928D01*
X132960518Y-122934188D01*
X132840820Y-122970498D01*
X132730506Y-123029463D01*
X132633815Y-123108815D01*
X132554463Y-123205506D01*
X132495498Y-123315820D01*
X132459188Y-123435518D01*
X132446928Y-123560000D01*
X125210539Y-123560000D01*
X125331591Y-123495297D01*
X125443509Y-123403448D01*
X125466530Y-123375397D01*
X129180138Y-119661790D01*
X175078817Y-119661790D01*
X175053083Y-119746624D01*
X175031399Y-119966782D01*
X175031399Y-121841219D01*
X175053084Y-122061377D01*
X175138775Y-122343864D01*
X175277931Y-122604206D01*
X175465203Y-122832397D01*
X175693394Y-123019669D01*
X175953736Y-123158825D01*
X176236223Y-123244516D01*
X176529999Y-123273451D01*
X176823776Y-123244516D01*
X177106263Y-123158825D01*
X177366605Y-123019669D01*
X177594796Y-122832397D01*
X177782068Y-122604206D01*
X177800000Y-122570659D01*
X177817931Y-122604206D01*
X178005203Y-122832397D01*
X178233394Y-123019669D01*
X178493736Y-123158825D01*
X178776223Y-123244516D01*
X179069999Y-123273451D01*
X179363776Y-123244516D01*
X179646263Y-123158825D01*
X179906605Y-123019669D01*
X180134796Y-122832397D01*
X180322068Y-122604206D01*
X180340000Y-122570659D01*
X180357931Y-122604206D01*
X180545203Y-122832397D01*
X180773394Y-123019669D01*
X181033736Y-123158825D01*
X181316223Y-123244516D01*
X181609999Y-123273451D01*
X181903776Y-123244516D01*
X182186263Y-123158825D01*
X182446605Y-123019669D01*
X182674796Y-122832397D01*
X182862068Y-122604206D01*
X182880000Y-122570659D01*
X182897931Y-122604206D01*
X183085203Y-122832397D01*
X183313394Y-123019669D01*
X183573736Y-123158825D01*
X183856223Y-123244516D01*
X184149999Y-123273451D01*
X184443776Y-123244516D01*
X184726263Y-123158825D01*
X184986605Y-123019669D01*
X185214796Y-122832397D01*
X185402068Y-122604206D01*
X185420000Y-122570659D01*
X185437931Y-122604206D01*
X185625203Y-122832397D01*
X185853394Y-123019669D01*
X186113736Y-123158825D01*
X186396223Y-123244516D01*
X186689999Y-123273451D01*
X186983776Y-123244516D01*
X187266263Y-123158825D01*
X187526605Y-123019669D01*
X187754796Y-122832397D01*
X187942068Y-122604206D01*
X187960000Y-122570659D01*
X187977931Y-122604206D01*
X188165203Y-122832397D01*
X188393394Y-123019669D01*
X188653736Y-123158825D01*
X188936223Y-123244516D01*
X189229999Y-123273451D01*
X189523776Y-123244516D01*
X189806263Y-123158825D01*
X190066605Y-123019669D01*
X190294796Y-122832397D01*
X190482068Y-122604206D01*
X190500000Y-122570659D01*
X190517931Y-122604206D01*
X190705203Y-122832397D01*
X190933394Y-123019669D01*
X191193736Y-123158825D01*
X191476223Y-123244516D01*
X191769999Y-123273451D01*
X192063776Y-123244516D01*
X192346263Y-123158825D01*
X192606605Y-123019669D01*
X192834796Y-122832397D01*
X193022068Y-122604206D01*
X193040000Y-122570659D01*
X193057931Y-122604206D01*
X193245203Y-122832397D01*
X193473394Y-123019669D01*
X193733736Y-123158825D01*
X194016223Y-123244516D01*
X194309999Y-123273451D01*
X194603776Y-123244516D01*
X194886263Y-123158825D01*
X195146605Y-123019669D01*
X195374796Y-122832397D01*
X195562068Y-122604206D01*
X195580000Y-122570659D01*
X195597931Y-122604206D01*
X195785203Y-122832397D01*
X196013394Y-123019669D01*
X196273736Y-123158825D01*
X196556223Y-123244516D01*
X196849999Y-123273451D01*
X197143776Y-123244516D01*
X197426263Y-123158825D01*
X197686605Y-123019669D01*
X197914796Y-122832397D01*
X198102068Y-122604206D01*
X198120000Y-122570659D01*
X198137931Y-122604206D01*
X198325203Y-122832397D01*
X198553394Y-123019669D01*
X198813736Y-123158825D01*
X199096223Y-123244516D01*
X199389999Y-123273451D01*
X199683776Y-123244516D01*
X199966263Y-123158825D01*
X200226605Y-123019669D01*
X200454796Y-122832397D01*
X200642068Y-122604206D01*
X200781224Y-122343864D01*
X200866915Y-122061377D01*
X200888599Y-121841219D01*
X200888599Y-119966781D01*
X200866915Y-119746623D01*
X200781224Y-119464136D01*
X200642068Y-119203794D01*
X200454796Y-118975603D01*
X200226604Y-118788331D01*
X199966262Y-118649175D01*
X199683775Y-118563484D01*
X199389999Y-118534549D01*
X199096222Y-118563484D01*
X198813735Y-118649175D01*
X198553393Y-118788331D01*
X198325202Y-118975603D01*
X198137930Y-119203795D01*
X198119999Y-119237341D01*
X198102068Y-119203794D01*
X197914796Y-118975603D01*
X197686604Y-118788331D01*
X197426262Y-118649175D01*
X197143775Y-118563484D01*
X196849999Y-118534549D01*
X196556222Y-118563484D01*
X196503528Y-118579469D01*
X196632334Y-118386696D01*
X196737160Y-118133623D01*
X196790600Y-117864962D01*
X196790600Y-117591038D01*
X196737160Y-117322377D01*
X196632334Y-117069304D01*
X196480150Y-116841544D01*
X196286456Y-116647850D01*
X196058696Y-116495666D01*
X195805623Y-116390840D01*
X195536962Y-116337400D01*
X195516246Y-116337400D01*
X195540600Y-116214962D01*
X195540600Y-115941038D01*
X195487160Y-115672377D01*
X195382334Y-115419304D01*
X195230150Y-115191544D01*
X195036456Y-114997850D01*
X194808696Y-114845666D01*
X194555623Y-114740840D01*
X194286962Y-114687400D01*
X194013038Y-114687400D01*
X193744377Y-114740840D01*
X193491304Y-114845666D01*
X193263544Y-114997850D01*
X193069850Y-115191544D01*
X192917666Y-115419304D01*
X192900000Y-115461954D01*
X192882334Y-115419304D01*
X192730150Y-115191544D01*
X192536456Y-114997850D01*
X192308696Y-114845666D01*
X192055623Y-114740840D01*
X191786962Y-114687400D01*
X191513038Y-114687400D01*
X191244377Y-114740840D01*
X190991304Y-114845666D01*
X190981000Y-114852551D01*
X190981000Y-114477446D01*
X194655834Y-110802613D01*
X196219562Y-110802613D01*
X196255667Y-110806169D01*
X196291772Y-110802613D01*
X196399752Y-110791978D01*
X196538300Y-110749950D01*
X196665987Y-110681700D01*
X196777905Y-110589851D01*
X196800925Y-110561801D01*
X197477809Y-109884918D01*
X197505849Y-109861906D01*
X197528860Y-109833867D01*
X197528864Y-109833863D01*
X197597697Y-109749990D01*
X197633117Y-109683725D01*
X197741543Y-109792151D01*
X197969303Y-109944335D01*
X198222376Y-110049161D01*
X198491037Y-110102601D01*
X198764961Y-110102601D01*
X199033622Y-110049161D01*
X199286695Y-109944335D01*
X199514455Y-109792151D01*
X199708149Y-109598457D01*
X199860333Y-109370697D01*
X199965159Y-109117624D01*
X200018599Y-108848963D01*
X200018599Y-108575039D01*
X199965159Y-108306378D01*
X199860333Y-108053305D01*
X199708149Y-107825545D01*
X199514455Y-107631851D01*
X199286695Y-107479667D01*
X199244045Y-107462001D01*
X199286695Y-107444335D01*
X199514455Y-107292151D01*
X199708149Y-107098457D01*
X199860333Y-106870697D01*
X199965159Y-106617624D01*
X200018599Y-106348963D01*
X200018599Y-106075039D01*
X199965159Y-105806378D01*
X199860333Y-105553305D01*
X199708149Y-105325545D01*
X199514455Y-105131851D01*
X199286695Y-104979667D01*
X199244045Y-104962001D01*
X199286695Y-104944335D01*
X199514455Y-104792151D01*
X199708149Y-104598457D01*
X199860333Y-104370697D01*
X199965159Y-104117624D01*
X200018599Y-103848963D01*
X200018599Y-103575039D01*
X199965159Y-103306378D01*
X199860333Y-103053305D01*
X199708149Y-102825545D01*
X199514455Y-102631851D01*
X199286695Y-102479667D01*
X199244045Y-102462001D01*
X199286695Y-102444335D01*
X199514455Y-102292151D01*
X199708149Y-102098457D01*
X199860333Y-101870697D01*
X199965159Y-101617624D01*
X200018599Y-101348963D01*
X200018599Y-101075039D01*
X199965159Y-100806378D01*
X199860333Y-100553305D01*
X199708149Y-100325545D01*
X199514455Y-100131851D01*
X199286695Y-99979667D01*
X199244045Y-99962001D01*
X199286695Y-99944335D01*
X199514455Y-99792151D01*
X199708149Y-99598457D01*
X199860333Y-99370697D01*
X199965159Y-99117624D01*
X200018599Y-98848963D01*
X200018599Y-98575039D01*
X199965159Y-98306378D01*
X199860333Y-98053305D01*
X199708149Y-97825545D01*
X199514455Y-97631851D01*
X199286695Y-97479667D01*
X199244045Y-97462001D01*
X199286695Y-97444335D01*
X199514455Y-97292151D01*
X199708149Y-97098457D01*
X199860333Y-96870697D01*
X199965159Y-96617624D01*
X200018599Y-96348963D01*
X200018599Y-96075039D01*
X199965159Y-95806378D01*
X199860333Y-95553305D01*
X199708149Y-95325545D01*
X199514455Y-95131851D01*
X199286695Y-94979667D01*
X199244045Y-94962001D01*
X199286695Y-94944335D01*
X199514455Y-94792151D01*
X199708149Y-94598457D01*
X199809348Y-94447001D01*
X202558228Y-94447001D01*
X202566765Y-94452705D01*
X202755123Y-94530726D01*
X202955082Y-94570500D01*
X203158960Y-94570500D01*
X203358919Y-94530726D01*
X203547277Y-94452705D01*
X203716795Y-94339437D01*
X203860958Y-94195274D01*
X203974226Y-94025756D01*
X204052247Y-93837398D01*
X204092021Y-93637439D01*
X204092021Y-93433561D01*
X204052247Y-93233602D01*
X203974226Y-93045244D01*
X203860958Y-92875726D01*
X203716795Y-92731563D01*
X203547277Y-92618295D01*
X203358919Y-92540274D01*
X203158960Y-92500500D01*
X202955082Y-92500500D01*
X202755123Y-92540274D01*
X202566765Y-92618295D01*
X202397247Y-92731563D01*
X202253084Y-92875726D01*
X202185414Y-92977001D01*
X199809348Y-92977001D01*
X199708149Y-92825545D01*
X199514455Y-92631851D01*
X199286695Y-92479667D01*
X199033622Y-92374841D01*
X198764961Y-92321401D01*
X198491037Y-92321401D01*
X198222376Y-92374841D01*
X197969303Y-92479667D01*
X197741543Y-92631851D01*
X197547849Y-92825545D01*
X197395665Y-93053305D01*
X197290839Y-93306378D01*
X197237399Y-93575039D01*
X197237399Y-93848963D01*
X197290839Y-94117624D01*
X197395665Y-94370697D01*
X197547849Y-94598457D01*
X197741543Y-94792151D01*
X197969303Y-94944335D01*
X198011953Y-94962001D01*
X197969303Y-94979667D01*
X197741543Y-95131851D01*
X197547849Y-95325545D01*
X197436270Y-95492535D01*
X196625170Y-94681436D01*
X196708149Y-94598457D01*
X196860333Y-94370697D01*
X196965159Y-94117624D01*
X197018599Y-93848963D01*
X197018599Y-93575039D01*
X196965159Y-93306378D01*
X196860333Y-93053305D01*
X196708149Y-92825545D01*
X196514455Y-92631851D01*
X196286695Y-92479667D01*
X196033622Y-92374841D01*
X195764961Y-92321401D01*
X195491037Y-92321401D01*
X195222376Y-92374841D01*
X194969303Y-92479667D01*
X194741543Y-92631851D01*
X194547849Y-92825545D01*
X194395665Y-93053305D01*
X194290839Y-93306378D01*
X194237399Y-93575039D01*
X194237399Y-93595755D01*
X194114961Y-93571401D01*
X193841037Y-93571401D01*
X193572376Y-93624841D01*
X193319303Y-93729667D01*
X193091543Y-93881851D01*
X192897849Y-94075545D01*
X192745665Y-94303305D01*
X192640839Y-94556378D01*
X192587399Y-94825039D01*
X192587399Y-95098963D01*
X192640839Y-95367624D01*
X192745665Y-95620697D01*
X192897849Y-95848457D01*
X192978829Y-95929437D01*
X192973072Y-95934162D01*
X192950056Y-95962208D01*
X192478206Y-96434058D01*
X192450160Y-96457075D01*
X192358311Y-96568993D01*
X192290061Y-96696680D01*
X192270350Y-96761659D01*
X192248033Y-96835227D01*
X192233842Y-96979312D01*
X192237398Y-97015418D01*
X192237399Y-97908576D01*
X192233842Y-97944690D01*
X192248033Y-98088775D01*
X192287187Y-98217845D01*
X192290062Y-98227323D01*
X192358312Y-98355010D01*
X192450161Y-98466928D01*
X192478206Y-98489944D01*
X192700263Y-98712001D01*
X192478206Y-98934058D01*
X192450160Y-98957075D01*
X192358311Y-99068993D01*
X192290061Y-99196680D01*
X192277213Y-99239034D01*
X192248033Y-99335227D01*
X192233842Y-99479312D01*
X192237398Y-99515418D01*
X192237399Y-100408576D01*
X192233842Y-100444690D01*
X192248033Y-100588775D01*
X192283629Y-100706116D01*
X192290062Y-100727323D01*
X192358312Y-100855010D01*
X192450161Y-100966928D01*
X192450263Y-100967012D01*
X192128195Y-101289081D01*
X192100150Y-101312097D01*
X192008301Y-101424015D01*
X191940051Y-101551702D01*
X191916716Y-101628628D01*
X191898023Y-101690249D01*
X191883832Y-101834334D01*
X191887388Y-101870440D01*
X191887390Y-103053556D01*
X191883833Y-103089668D01*
X191898024Y-103233752D01*
X191940052Y-103372301D01*
X191967117Y-103422935D01*
X192008303Y-103499989D01*
X192100152Y-103611907D01*
X192128196Y-103634922D01*
X192205275Y-103712001D01*
X192128195Y-103789081D01*
X192100150Y-103812097D01*
X192008301Y-103924015D01*
X191940051Y-104051702D01*
X191913383Y-104139614D01*
X191898023Y-104190249D01*
X191883832Y-104334334D01*
X191887388Y-104370440D01*
X191887390Y-105553556D01*
X191883833Y-105589668D01*
X191898024Y-105733752D01*
X191940052Y-105872301D01*
X191960816Y-105911147D01*
X192008303Y-105999989D01*
X192100152Y-106111907D01*
X192128196Y-106134922D01*
X192205274Y-106212000D01*
X192128194Y-106289080D01*
X192100149Y-106312096D01*
X192008300Y-106424014D01*
X191940050Y-106551701D01*
X191910771Y-106648220D01*
X191898022Y-106690248D01*
X191883831Y-106834333D01*
X191887387Y-106870439D01*
X191887389Y-108053556D01*
X191883832Y-108089670D01*
X191898023Y-108233755D01*
X191925253Y-108323517D01*
X191940052Y-108372303D01*
X192008302Y-108499990D01*
X192100151Y-108611908D01*
X192128196Y-108634924D01*
X192674412Y-109181141D01*
X188218173Y-113637381D01*
X183413465Y-113637383D01*
X183377350Y-113633826D01*
X183233265Y-113648017D01*
X183094716Y-113690045D01*
X182967030Y-113758295D01*
X182883156Y-113827129D01*
X182883151Y-113827134D01*
X182855112Y-113850145D01*
X182832100Y-113878185D01*
X182342357Y-114367928D01*
X182276774Y-114348034D01*
X182168794Y-114337399D01*
X182132689Y-114333843D01*
X182096584Y-114337399D01*
X181203405Y-114337399D01*
X181167310Y-114333844D01*
X181131215Y-114337399D01*
X181131206Y-114337399D01*
X181023226Y-114348034D01*
X180884678Y-114390062D01*
X180756991Y-114458312D01*
X180645073Y-114550161D01*
X180622057Y-114578207D01*
X180150207Y-115050057D01*
X180122161Y-115073074D01*
X180030312Y-115184992D01*
X179962062Y-115312679D01*
X179936979Y-115395367D01*
X179920034Y-115451226D01*
X179905843Y-115595311D01*
X179909399Y-115631417D01*
X179909400Y-116111219D01*
X179877762Y-116137183D01*
X179785913Y-116249101D01*
X179717663Y-116376788D01*
X179675635Y-116515336D01*
X179673083Y-116541250D01*
X179513544Y-116647850D01*
X179319850Y-116841544D01*
X179167666Y-117069304D01*
X179062840Y-117322377D01*
X179009400Y-117591038D01*
X179009400Y-117841779D01*
X128766815Y-117841781D01*
X128730710Y-117838225D01*
X128586625Y-117852416D01*
X128449805Y-117893920D01*
X128448078Y-117894444D01*
X128320391Y-117962694D01*
X128276638Y-117998601D01*
X121787018Y-117998601D01*
X121813600Y-117864962D01*
X121813600Y-117591038D01*
X121760160Y-117322377D01*
X121655334Y-117069304D01*
X121503150Y-116841544D01*
X121309456Y-116647850D01*
X121081696Y-116495666D01*
X120828623Y-116390840D01*
X120559962Y-116337400D01*
X120539246Y-116337400D01*
X120563600Y-116214962D01*
X120563600Y-115941038D01*
X120510160Y-115672377D01*
X120405334Y-115419304D01*
X120253150Y-115191544D01*
X120059456Y-114997850D01*
X119831696Y-114845666D01*
X119578623Y-114740840D01*
X119309962Y-114687400D01*
X119036038Y-114687400D01*
X118767377Y-114740840D01*
X118514304Y-114845666D01*
X118286544Y-114997850D01*
X118092850Y-115191544D01*
X117940666Y-115419304D01*
X117923000Y-115461954D01*
X117905334Y-115419304D01*
X117753150Y-115191544D01*
X117559456Y-114997850D01*
X117331696Y-114845666D01*
X117078623Y-114740840D01*
X116809962Y-114687400D01*
X116536038Y-114687400D01*
X116267377Y-114740840D01*
X116014304Y-114845666D01*
X115786544Y-114997850D01*
X115592850Y-115191544D01*
X115440666Y-115419304D01*
X115423000Y-115461954D01*
X115405334Y-115419304D01*
X115253150Y-115191544D01*
X115059456Y-114997850D01*
X114831696Y-114845666D01*
X114578623Y-114740840D01*
X114309962Y-114687400D01*
X114036038Y-114687400D01*
X113767377Y-114740840D01*
X113514304Y-114845666D01*
X113286544Y-114997850D01*
X113092850Y-115191544D01*
X112940666Y-115419304D01*
X112923000Y-115461954D01*
X112905334Y-115419304D01*
X112753150Y-115191544D01*
X112559456Y-114997850D01*
X112331696Y-114845666D01*
X112078623Y-114740840D01*
X111809962Y-114687400D01*
X111536038Y-114687400D01*
X111267377Y-114740840D01*
X111014304Y-114845666D01*
X110786544Y-114997850D01*
X110592850Y-115191544D01*
X110440666Y-115419304D01*
X110423000Y-115461954D01*
X110405334Y-115419304D01*
X110253150Y-115191544D01*
X110059456Y-114997850D01*
X109831696Y-114845666D01*
X109578623Y-114740840D01*
X109309962Y-114687400D01*
X109036038Y-114687400D01*
X108767377Y-114740840D01*
X108514304Y-114845666D01*
X108286544Y-114997850D01*
X108092850Y-115191544D01*
X107940666Y-115419304D01*
X107923000Y-115461954D01*
X107905334Y-115419304D01*
X107753150Y-115191544D01*
X107559456Y-114997850D01*
X107331696Y-114845666D01*
X107078623Y-114740840D01*
X106809962Y-114687400D01*
X106536038Y-114687400D01*
X106267377Y-114740840D01*
X106014304Y-114845666D01*
X105786544Y-114997850D01*
X105607240Y-115177154D01*
X105582756Y-115160795D01*
X105394398Y-115082774D01*
X105194439Y-115043000D01*
X105096946Y-115043000D01*
X105091399Y-115037453D01*
X105091399Y-110076018D01*
X105225038Y-110102600D01*
X105498962Y-110102600D01*
X105767623Y-110049160D01*
X106020696Y-109944334D01*
X106248456Y-109792150D01*
X106442150Y-109598456D01*
X106594334Y-109370696D01*
X106699160Y-109117623D01*
X106752600Y-108848962D01*
X106752600Y-108828246D01*
X106875038Y-108852600D01*
X107148962Y-108852600D01*
X107417623Y-108799160D01*
X107670696Y-108694334D01*
X107898456Y-108542150D01*
X108092150Y-108348456D01*
X108244334Y-108120696D01*
X108349160Y-107867623D01*
X108402600Y-107598962D01*
X108402600Y-107325038D01*
X108367063Y-107146383D01*
X109666825Y-105846622D01*
X109694865Y-105823610D01*
X109717878Y-105795569D01*
X109717881Y-105795566D01*
X109786714Y-105711693D01*
X109786715Y-105711692D01*
X109854965Y-105584005D01*
X109896993Y-105445457D01*
X109907628Y-105337477D01*
X109907628Y-105337468D01*
X109911183Y-105301373D01*
X109907628Y-105265278D01*
X109907628Y-104292061D01*
X158781800Y-104292061D01*
X158781800Y-104495939D01*
X158821574Y-104695898D01*
X158899595Y-104884256D01*
X158931800Y-104932454D01*
X158931801Y-109443544D01*
X158899595Y-109491744D01*
X158821574Y-109680102D01*
X158781800Y-109880061D01*
X158781800Y-110083939D01*
X158821574Y-110283898D01*
X158899595Y-110472256D01*
X159012863Y-110641774D01*
X159157026Y-110785937D01*
X159326544Y-110899205D01*
X159514902Y-110977226D01*
X159714861Y-111017000D01*
X159918739Y-111017000D01*
X160118698Y-110977226D01*
X160307056Y-110899205D01*
X160375600Y-110853405D01*
X160444144Y-110899205D01*
X160632502Y-110977226D01*
X160832461Y-111017000D01*
X161036339Y-111017000D01*
X161236298Y-110977226D01*
X161424656Y-110899205D01*
X161594174Y-110785937D01*
X161738337Y-110641774D01*
X161851605Y-110472256D01*
X161929626Y-110283898D01*
X161969400Y-110083939D01*
X161969400Y-109880061D01*
X161929626Y-109680102D01*
X161851605Y-109491744D01*
X161819400Y-109443546D01*
X161819400Y-104932454D01*
X161851605Y-104884256D01*
X161929626Y-104695898D01*
X161969400Y-104495939D01*
X161969400Y-104292061D01*
X161929626Y-104092102D01*
X161851605Y-103903744D01*
X161738337Y-103734226D01*
X161594174Y-103590063D01*
X161424656Y-103476795D01*
X161236298Y-103398774D01*
X161036339Y-103359000D01*
X160832461Y-103359000D01*
X160632502Y-103398774D01*
X160444144Y-103476795D01*
X160375600Y-103522595D01*
X160307056Y-103476795D01*
X160118698Y-103398774D01*
X159918739Y-103359000D01*
X159714861Y-103359000D01*
X159514902Y-103398774D01*
X159326544Y-103476795D01*
X159157026Y-103590063D01*
X159012863Y-103734226D01*
X158899595Y-103903744D01*
X158821574Y-104092102D01*
X158781800Y-104292061D01*
X109907628Y-104292061D01*
X109907628Y-102006061D01*
X177323800Y-102006061D01*
X177323800Y-102209939D01*
X177363574Y-102409898D01*
X177441595Y-102598256D01*
X177554863Y-102767774D01*
X177623800Y-102836711D01*
X177623801Y-108694488D01*
X177554863Y-108763426D01*
X177441595Y-108932944D01*
X177363574Y-109121302D01*
X177323800Y-109321261D01*
X177323800Y-109525139D01*
X177363574Y-109725098D01*
X177441595Y-109913456D01*
X177554863Y-110082974D01*
X177699026Y-110227137D01*
X177868544Y-110340405D01*
X178056902Y-110418426D01*
X178256861Y-110458200D01*
X178460739Y-110458200D01*
X178660698Y-110418426D01*
X178849056Y-110340405D01*
X178930386Y-110286062D01*
X179087744Y-110391205D01*
X179276102Y-110469226D01*
X179476061Y-110509000D01*
X179679939Y-110509000D01*
X179879898Y-110469226D01*
X180068256Y-110391205D01*
X180237774Y-110277937D01*
X180381937Y-110133774D01*
X180495205Y-109964256D01*
X180573226Y-109775898D01*
X180613000Y-109575939D01*
X180613000Y-109372061D01*
X180573226Y-109172102D01*
X180495205Y-108983744D01*
X180463000Y-108935546D01*
X180463000Y-102697254D01*
X180495205Y-102649056D01*
X180573226Y-102460698D01*
X180613000Y-102260739D01*
X180613000Y-102056861D01*
X180573226Y-101856902D01*
X180495205Y-101668544D01*
X180381937Y-101499026D01*
X180237774Y-101354863D01*
X180068256Y-101241595D01*
X179879898Y-101163574D01*
X179679939Y-101123800D01*
X179476061Y-101123800D01*
X179276102Y-101163574D01*
X179087744Y-101241595D01*
X179006414Y-101295938D01*
X178849056Y-101190795D01*
X178660698Y-101112774D01*
X178460739Y-101073000D01*
X178256861Y-101073000D01*
X178056902Y-101112774D01*
X177868544Y-101190795D01*
X177699026Y-101304063D01*
X177554863Y-101448226D01*
X177441595Y-101617744D01*
X177363574Y-101806102D01*
X177323800Y-102006061D01*
X109907628Y-102006061D01*
X109907628Y-99711107D01*
X147991498Y-99711107D01*
X148348686Y-100198213D01*
X149008405Y-100556024D01*
X149725253Y-100778255D01*
X150471682Y-100856365D01*
X151219007Y-100787353D01*
X151938508Y-100573871D01*
X152602537Y-100224123D01*
X152641314Y-100198213D01*
X152998502Y-99711107D01*
X150495000Y-97207605D01*
X147991498Y-99711107D01*
X109907628Y-99711107D01*
X109907628Y-97004682D01*
X146666635Y-97004682D01*
X146735647Y-97752007D01*
X146949129Y-98471508D01*
X147298877Y-99135537D01*
X147324787Y-99174314D01*
X147811893Y-99531502D01*
X150315395Y-97028000D01*
X150674605Y-97028000D01*
X153178107Y-99531502D01*
X153665213Y-99174314D01*
X154023024Y-98514595D01*
X154245255Y-97797747D01*
X154323365Y-97051318D01*
X154254353Y-96303993D01*
X154040871Y-95584492D01*
X153691123Y-94920463D01*
X153665213Y-94881686D01*
X153178107Y-94524498D01*
X150674605Y-97028000D01*
X150315395Y-97028000D01*
X147811893Y-94524498D01*
X147324787Y-94881686D01*
X146966976Y-95541405D01*
X146744745Y-96258253D01*
X146666635Y-97004682D01*
X109907628Y-97004682D01*
X109907628Y-96305572D01*
X109956443Y-96256757D01*
X110125487Y-96326778D01*
X110325446Y-96366552D01*
X110529324Y-96366552D01*
X110729283Y-96326778D01*
X110917641Y-96248757D01*
X111051256Y-96159478D01*
X111181769Y-96246684D01*
X111370127Y-96324705D01*
X111570086Y-96364479D01*
X111773964Y-96364479D01*
X111973923Y-96324705D01*
X112162281Y-96246684D01*
X112331799Y-96133416D01*
X112475962Y-95989253D01*
X112589230Y-95819735D01*
X112667251Y-95631377D01*
X112707025Y-95431418D01*
X112707025Y-95227540D01*
X112667251Y-95027581D01*
X112589230Y-94839223D01*
X112475962Y-94669705D01*
X112331799Y-94525542D01*
X112162281Y-94412274D01*
X111999611Y-94344893D01*
X147991498Y-94344893D01*
X150495000Y-96848395D01*
X152998502Y-94344893D01*
X152641314Y-93857787D01*
X151981595Y-93499976D01*
X151264747Y-93277745D01*
X150518318Y-93199635D01*
X149770993Y-93268647D01*
X149051492Y-93482129D01*
X148387463Y-93831877D01*
X148348686Y-93857787D01*
X147991498Y-94344893D01*
X111999611Y-94344893D01*
X111973923Y-94334253D01*
X111773964Y-94294479D01*
X111676472Y-94294479D01*
X109244194Y-91862201D01*
X109221173Y-91834151D01*
X109109255Y-91742302D01*
X108981568Y-91674052D01*
X108843020Y-91632024D01*
X108735040Y-91621389D01*
X108698935Y-91617833D01*
X108662830Y-91621389D01*
X105953564Y-91621389D01*
X105953555Y-91621390D01*
X104770438Y-91621388D01*
X104734332Y-91617832D01*
X104590247Y-91632023D01*
X104451698Y-91674051D01*
X104324012Y-91742301D01*
X104240138Y-91811135D01*
X104240134Y-91811139D01*
X104212095Y-91834150D01*
X104189083Y-91862190D01*
X103333940Y-92717334D01*
X103248456Y-92631850D01*
X103020696Y-92479666D01*
X102767623Y-92374840D01*
X102498962Y-92321400D01*
X102225038Y-92321400D01*
X101956377Y-92374840D01*
X101703304Y-92479666D01*
X101475544Y-92631850D01*
X101281850Y-92825544D01*
X101129666Y-93053304D01*
X101024840Y-93306377D01*
X100971400Y-93575038D01*
X100971400Y-93848962D01*
X101024840Y-94117623D01*
X101129666Y-94370696D01*
X101281850Y-94598456D01*
X101475544Y-94792150D01*
X101703304Y-94944334D01*
X101745954Y-94962000D01*
X101703304Y-94979666D01*
X101475544Y-95131850D01*
X101281850Y-95325544D01*
X101129666Y-95553304D01*
X101024840Y-95806377D01*
X100971400Y-96075038D01*
X100971400Y-96348962D01*
X101024840Y-96617623D01*
X101129666Y-96870696D01*
X101281850Y-97098456D01*
X101475544Y-97292150D01*
X101703304Y-97444334D01*
X101745954Y-97462000D01*
X101703304Y-97479666D01*
X101475544Y-97631850D01*
X101281850Y-97825544D01*
X101129666Y-98053304D01*
X101024840Y-98306377D01*
X100971400Y-98575038D01*
X100971400Y-98848962D01*
X101024840Y-99117623D01*
X101129666Y-99370696D01*
X101281850Y-99598456D01*
X101475544Y-99792150D01*
X101703304Y-99944334D01*
X101745954Y-99962000D01*
X101703304Y-99979666D01*
X101475544Y-100131850D01*
X101281850Y-100325544D01*
X101129666Y-100553304D01*
X101024840Y-100806377D01*
X100971400Y-101075038D01*
X100971400Y-101348962D01*
X101024840Y-101617623D01*
X101129666Y-101870696D01*
X101281850Y-102098456D01*
X101475544Y-102292150D01*
X101703304Y-102444334D01*
X101745954Y-102462000D01*
X101703304Y-102479666D01*
X101475544Y-102631850D01*
X101281850Y-102825544D01*
X101129666Y-103053304D01*
X101024840Y-103306377D01*
X100971400Y-103575038D01*
X100971400Y-103848962D01*
X101024840Y-104117623D01*
X101129666Y-104370696D01*
X101281850Y-104598456D01*
X101475544Y-104792150D01*
X101703304Y-104944334D01*
X101745954Y-104962000D01*
X101703304Y-104979666D01*
X101475544Y-105131850D01*
X101281850Y-105325544D01*
X101129666Y-105553304D01*
X101024840Y-105806377D01*
X100971400Y-106075038D01*
X100971400Y-106348962D01*
X101024840Y-106617623D01*
X101129666Y-106870696D01*
X101281850Y-107098456D01*
X101475544Y-107292150D01*
X101703304Y-107444334D01*
X101745954Y-107462000D01*
X101703304Y-107479666D01*
X101475544Y-107631850D01*
X101281850Y-107825544D01*
X101129666Y-108053304D01*
X101024840Y-108306377D01*
X100971400Y-108575038D01*
X100971400Y-108848962D01*
X101024840Y-109117623D01*
X101129666Y-109370696D01*
X101281850Y-109598456D01*
X101475544Y-109792150D01*
X101703304Y-109944334D01*
X101956377Y-110049160D01*
X102225038Y-110102600D01*
X102498962Y-110102600D01*
X102767623Y-110049160D01*
X103020696Y-109944334D01*
X103076600Y-109906980D01*
X103076600Y-114560991D01*
X103073044Y-114597096D01*
X103087235Y-114741181D01*
X103099830Y-114782700D01*
X103129263Y-114879728D01*
X103166003Y-114948464D01*
X103166002Y-117658187D01*
X103162446Y-117694292D01*
X103175044Y-117822205D01*
X103176637Y-117838376D01*
X103218665Y-117976924D01*
X103286915Y-118104611D01*
X103378764Y-118216529D01*
X103406810Y-118239546D01*
X103757624Y-118590360D01*
X103563736Y-118649175D01*
X103303394Y-118788331D01*
X103075203Y-118975603D01*
X102887931Y-119203794D01*
X102870000Y-119237341D01*
X102852068Y-119203794D01*
X102664796Y-118975603D01*
X102436605Y-118788331D01*
X102176263Y-118649175D01*
X101893776Y-118563484D01*
X101599999Y-118534549D01*
X101306223Y-118563484D01*
X101023736Y-118649175D01*
X100763394Y-118788331D01*
X100535203Y-118975603D01*
X100347931Y-119203794D01*
X100208775Y-119464136D01*
X100123084Y-119746623D01*
X100101399Y-119966781D01*
X90905001Y-119966781D01*
X90905001Y-88842253D01*
X107218056Y-88842253D01*
X107218521Y-88908868D01*
X107218056Y-88975484D01*
X107219058Y-88985697D01*
X107244967Y-89232200D01*
X107258359Y-89297441D01*
X107270844Y-89362890D01*
X107273810Y-89372714D01*
X107347104Y-89609491D01*
X107372941Y-89670954D01*
X107397876Y-89732670D01*
X107402693Y-89741731D01*
X107520582Y-89959762D01*
X107557841Y-90015000D01*
X107594309Y-90070729D01*
X107600795Y-90078682D01*
X107758788Y-90269662D01*
X107806060Y-90316606D01*
X107852668Y-90364200D01*
X107860569Y-90370736D01*
X107860573Y-90370740D01*
X107860575Y-90370741D01*
X108052654Y-90527396D01*
X108108162Y-90564275D01*
X108163107Y-90601897D01*
X108172134Y-90606778D01*
X108390981Y-90723141D01*
X108452620Y-90748547D01*
X108513801Y-90774769D01*
X108523601Y-90777803D01*
X108523607Y-90777805D01*
X108760886Y-90849443D01*
X108826240Y-90862383D01*
X108891394Y-90876232D01*
X108901600Y-90877305D01*
X109146303Y-90901298D01*
X109183897Y-90905001D01*
X111796105Y-90905001D01*
X111832983Y-90901369D01*
X111849453Y-90901369D01*
X111859659Y-90900297D01*
X112105976Y-90872669D01*
X112171188Y-90858808D01*
X112236487Y-90845878D01*
X112246284Y-90842846D01*
X112246288Y-90842845D01*
X112246293Y-90842843D01*
X112482549Y-90767898D01*
X112543792Y-90741649D01*
X112605367Y-90716270D01*
X112614394Y-90711389D01*
X112831596Y-90591983D01*
X112886600Y-90554321D01*
X112942051Y-90517479D01*
X112949959Y-90510938D01*
X113139831Y-90351616D01*
X113186454Y-90304006D01*
X113233707Y-90257082D01*
X113240193Y-90249129D01*
X113240196Y-90249126D01*
X113240197Y-90249124D01*
X113395504Y-90055962D01*
X113431985Y-90000214D01*
X113469233Y-89944991D01*
X113474048Y-89935935D01*
X113474051Y-89935931D01*
X113474053Y-89935927D01*
X113588885Y-89716275D01*
X113613857Y-89654467D01*
X113639654Y-89593098D01*
X113642618Y-89583280D01*
X113642621Y-89583273D01*
X113642622Y-89583266D01*
X113712603Y-89345497D01*
X113725099Y-89279991D01*
X113738480Y-89214803D01*
X113739482Y-89204589D01*
X113761946Y-88957749D01*
X113761481Y-88891135D01*
X113761822Y-88842253D01*
X187228057Y-88842253D01*
X187228522Y-88908868D01*
X187228057Y-88975484D01*
X187229059Y-88985697D01*
X187254968Y-89232200D01*
X187268360Y-89297441D01*
X187280845Y-89362890D01*
X187283811Y-89372714D01*
X187357105Y-89609491D01*
X187382942Y-89670954D01*
X187407877Y-89732670D01*
X187412694Y-89741731D01*
X187530583Y-89959762D01*
X187567842Y-90015000D01*
X187604310Y-90070729D01*
X187610796Y-90078682D01*
X187768789Y-90269662D01*
X187816061Y-90316606D01*
X187862669Y-90364200D01*
X187870570Y-90370736D01*
X187870574Y-90370740D01*
X187870576Y-90370741D01*
X188062655Y-90527396D01*
X188118163Y-90564275D01*
X188173108Y-90601897D01*
X188182135Y-90606778D01*
X188400982Y-90723141D01*
X188462621Y-90748547D01*
X188523802Y-90774769D01*
X188533602Y-90777803D01*
X188533608Y-90777805D01*
X188770887Y-90849443D01*
X188836241Y-90862383D01*
X188901395Y-90876232D01*
X188911601Y-90877305D01*
X189158131Y-90901477D01*
X189193896Y-90905000D01*
X191806104Y-90905000D01*
X191842982Y-90901368D01*
X191859453Y-90901368D01*
X191869659Y-90900296D01*
X192115976Y-90872668D01*
X192181207Y-90858803D01*
X192246488Y-90845877D01*
X192256291Y-90842843D01*
X192492549Y-90767897D01*
X192553817Y-90741637D01*
X192615366Y-90716269D01*
X192624390Y-90711389D01*
X192624396Y-90711387D01*
X192624401Y-90711384D01*
X192841595Y-90591982D01*
X192896606Y-90554315D01*
X192952049Y-90517479D01*
X192959956Y-90510938D01*
X193149829Y-90351616D01*
X193196453Y-90304005D01*
X193243708Y-90257079D01*
X193250195Y-90249126D01*
X193405505Y-90055960D01*
X193442004Y-90000184D01*
X193479232Y-89944990D01*
X193484049Y-89935931D01*
X193484051Y-89935928D01*
X193484053Y-89935924D01*
X193598884Y-89716274D01*
X193623862Y-89654452D01*
X193649653Y-89593098D01*
X193652619Y-89583274D01*
X193652620Y-89583272D01*
X193652621Y-89583268D01*
X193722601Y-89345498D01*
X193735093Y-89280015D01*
X193748479Y-89214803D01*
X193749481Y-89204589D01*
X193771945Y-88957749D01*
X193771480Y-88891136D01*
X193771945Y-88824522D01*
X193770944Y-88814308D01*
X193745036Y-88567805D01*
X193731637Y-88502528D01*
X193719158Y-88437112D01*
X193716192Y-88427288D01*
X193658493Y-88240890D01*
X199028024Y-88240890D01*
X199072675Y-88388099D01*
X199197859Y-88650920D01*
X199371912Y-88884269D01*
X199588145Y-89079178D01*
X199838248Y-89228157D01*
X200112609Y-89325481D01*
X200342500Y-89204814D01*
X200342500Y-88011000D01*
X200596500Y-88011000D01*
X200596500Y-89204814D01*
X200826391Y-89325481D01*
X201100752Y-89228157D01*
X201350855Y-89079178D01*
X201567088Y-88884269D01*
X201741141Y-88650920D01*
X201866325Y-88388099D01*
X201910976Y-88240890D01*
X201789655Y-88011000D01*
X200596500Y-88011000D01*
X200342500Y-88011000D01*
X199149345Y-88011000D01*
X199028024Y-88240890D01*
X193658493Y-88240890D01*
X193642898Y-88190512D01*
X193617081Y-88129094D01*
X193592127Y-88067332D01*
X193587309Y-88058271D01*
X193469420Y-87840241D01*
X193432163Y-87785005D01*
X193395693Y-87729273D01*
X193389207Y-87721320D01*
X193231215Y-87530340D01*
X193183940Y-87483395D01*
X193137335Y-87435803D01*
X193129428Y-87429262D01*
X192937351Y-87272607D01*
X192881854Y-87235735D01*
X192826899Y-87198106D01*
X192817872Y-87193225D01*
X192599024Y-87076861D01*
X192537385Y-87051455D01*
X192476204Y-87025233D01*
X192466401Y-87022198D01*
X192229120Y-86950558D01*
X192163767Y-86937617D01*
X192098610Y-86923768D01*
X192088406Y-86922695D01*
X192088404Y-86922695D01*
X191841725Y-86898508D01*
X191841723Y-86898508D01*
X191806105Y-86895000D01*
X189193895Y-86895000D01*
X189157018Y-86898632D01*
X189140544Y-86898632D01*
X189130338Y-86899705D01*
X188884022Y-86927334D01*
X188818833Y-86941190D01*
X188753512Y-86954124D01*
X188743708Y-86957158D01*
X188507451Y-87032104D01*
X188446183Y-87058364D01*
X188384634Y-87083732D01*
X188375610Y-87088612D01*
X188375604Y-87088614D01*
X188375599Y-87088617D01*
X188158405Y-87208020D01*
X188103427Y-87245664D01*
X188047950Y-87282523D01*
X188040043Y-87289064D01*
X187850170Y-87448386D01*
X187803527Y-87496016D01*
X187756291Y-87542924D01*
X187749805Y-87550876D01*
X187594495Y-87744044D01*
X187557983Y-87799841D01*
X187520769Y-87855012D01*
X187515954Y-87864067D01*
X187515949Y-87864075D01*
X187515946Y-87864083D01*
X187401118Y-88083728D01*
X187376153Y-88145517D01*
X187350347Y-88206907D01*
X187347383Y-88216723D01*
X187347381Y-88216729D01*
X187347381Y-88216731D01*
X187277400Y-88454507D01*
X187264910Y-88519984D01*
X187251523Y-88585199D01*
X187250521Y-88595413D01*
X187228057Y-88842253D01*
X113761822Y-88842253D01*
X113761946Y-88824522D01*
X113760945Y-88814308D01*
X113735037Y-88567805D01*
X113721638Y-88502528D01*
X113709159Y-88437112D01*
X113706193Y-88427288D01*
X113632899Y-88190512D01*
X113607066Y-88129056D01*
X113582128Y-88067334D01*
X113577311Y-88058272D01*
X113459422Y-87840241D01*
X113422153Y-87784988D01*
X113385694Y-87729272D01*
X113379208Y-87721319D01*
X113221216Y-87530339D01*
X113173941Y-87483394D01*
X113127336Y-87435802D01*
X113119429Y-87429261D01*
X112927352Y-87272606D01*
X112871855Y-87235734D01*
X112816900Y-87198105D01*
X112807873Y-87193224D01*
X112589025Y-87076860D01*
X112527419Y-87051468D01*
X112466205Y-87025231D01*
X112456401Y-87022196D01*
X112239009Y-86956561D01*
X132632500Y-86956561D01*
X132632500Y-87160439D01*
X132672274Y-87360398D01*
X132750295Y-87548756D01*
X132863563Y-87718274D01*
X133007726Y-87862437D01*
X133177244Y-87975705D01*
X133365602Y-88053726D01*
X133565561Y-88093500D01*
X133769439Y-88093500D01*
X133969398Y-88053726D01*
X134157756Y-87975705D01*
X134205954Y-87943500D01*
X171857739Y-87943500D01*
X171924944Y-87988405D01*
X172113302Y-88066426D01*
X172313261Y-88106200D01*
X172517139Y-88106200D01*
X172717098Y-88066426D01*
X172905456Y-87988405D01*
X173074974Y-87875137D01*
X173219137Y-87730974D01*
X173332405Y-87561456D01*
X173410426Y-87373098D01*
X173450200Y-87173139D01*
X173450200Y-86969261D01*
X173410426Y-86769302D01*
X173370743Y-86673500D01*
X173635748Y-86673500D01*
X173702944Y-86718399D01*
X173891302Y-86796420D01*
X174091261Y-86836194D01*
X174295139Y-86836194D01*
X174495098Y-86796420D01*
X174683456Y-86718399D01*
X174852974Y-86605131D01*
X174997137Y-86460968D01*
X175110405Y-86291450D01*
X175188426Y-86103092D01*
X175228200Y-85903133D01*
X175228200Y-85699255D01*
X175188426Y-85499296D01*
X175110405Y-85310938D01*
X174997137Y-85141420D01*
X174852974Y-84997257D01*
X174683456Y-84883989D01*
X174495098Y-84805968D01*
X174295139Y-84766194D01*
X174091261Y-84766194D01*
X173891302Y-84805968D01*
X173702944Y-84883989D01*
X173673744Y-84903500D01*
X134269454Y-84903500D01*
X134221256Y-84871295D01*
X134032898Y-84793274D01*
X133832939Y-84753500D01*
X133629061Y-84753500D01*
X133429102Y-84793274D01*
X133240744Y-84871295D01*
X133071226Y-84984563D01*
X132927063Y-85128726D01*
X132813795Y-85298244D01*
X132735774Y-85486602D01*
X132696000Y-85686561D01*
X132696000Y-85890439D01*
X132735774Y-86090398D01*
X132813795Y-86278756D01*
X132881782Y-86380507D01*
X132863563Y-86398726D01*
X132750295Y-86568244D01*
X132672274Y-86756602D01*
X132632500Y-86956561D01*
X112239009Y-86956561D01*
X112219119Y-86950556D01*
X112153738Y-86937610D01*
X112088610Y-86923767D01*
X112078406Y-86922694D01*
X112078404Y-86922694D01*
X111831725Y-86898507D01*
X111831714Y-86898507D01*
X111796106Y-86895000D01*
X109183895Y-86895000D01*
X109147018Y-86898632D01*
X109130543Y-86898632D01*
X109120337Y-86899705D01*
X108874021Y-86927334D01*
X108808832Y-86941190D01*
X108743511Y-86954124D01*
X108733707Y-86957158D01*
X108497450Y-87032104D01*
X108436182Y-87058364D01*
X108374633Y-87083732D01*
X108365609Y-87088612D01*
X108365603Y-87088614D01*
X108365598Y-87088617D01*
X108148404Y-87208020D01*
X108093426Y-87245664D01*
X108037949Y-87282523D01*
X108030042Y-87289064D01*
X107840169Y-87448386D01*
X107793526Y-87496016D01*
X107746290Y-87542924D01*
X107739804Y-87550876D01*
X107584494Y-87744044D01*
X107547982Y-87799841D01*
X107510768Y-87855012D01*
X107505953Y-87864067D01*
X107505948Y-87864075D01*
X107505945Y-87864083D01*
X107391117Y-88083728D01*
X107366152Y-88145517D01*
X107340346Y-88206907D01*
X107337382Y-88216723D01*
X107337380Y-88216729D01*
X107337380Y-88216731D01*
X107267399Y-88454507D01*
X107254909Y-88519984D01*
X107241522Y-88585199D01*
X107240520Y-88595413D01*
X107218056Y-88842253D01*
X90905001Y-88842253D01*
X90905001Y-84494000D01*
X198981428Y-84494000D01*
X198981428Y-86194000D01*
X198993688Y-86318482D01*
X199029998Y-86438180D01*
X199088963Y-86548494D01*
X199168315Y-86645185D01*
X199265006Y-86724537D01*
X199375320Y-86783502D01*
X199455966Y-86807966D01*
X199371912Y-86883731D01*
X199197859Y-87117080D01*
X199072675Y-87379901D01*
X199028024Y-87527110D01*
X199149345Y-87757000D01*
X200342500Y-87757000D01*
X200342500Y-87737000D01*
X200596500Y-87737000D01*
X200596500Y-87757000D01*
X201789655Y-87757000D01*
X201910976Y-87527110D01*
X201866325Y-87379901D01*
X201741141Y-87117080D01*
X201567088Y-86883731D01*
X201483034Y-86807966D01*
X201563680Y-86783502D01*
X201673994Y-86724537D01*
X201770685Y-86645185D01*
X201850037Y-86548494D01*
X201909002Y-86438180D01*
X201945312Y-86318482D01*
X201957572Y-86194000D01*
X201957572Y-84494000D01*
X201945312Y-84369518D01*
X201909002Y-84249820D01*
X201850037Y-84139506D01*
X201770685Y-84042815D01*
X201673994Y-83963463D01*
X201563680Y-83904498D01*
X201443982Y-83868188D01*
X201319500Y-83855928D01*
X199619500Y-83855928D01*
X199495018Y-83868188D01*
X199375320Y-83904498D01*
X199265006Y-83963463D01*
X199168315Y-84042815D01*
X199088963Y-84139506D01*
X199029998Y-84249820D01*
X198993688Y-84369518D01*
X198981428Y-84494000D01*
X90905001Y-84494000D01*
X90905001Y-74929661D01*
X97059800Y-74929661D01*
X97059800Y-75133539D01*
X97099574Y-75333498D01*
X97163903Y-75488800D01*
X97099574Y-75644102D01*
X97059800Y-75844061D01*
X97059800Y-76047939D01*
X97099574Y-76247898D01*
X97177595Y-76436256D01*
X97290863Y-76605774D01*
X97435026Y-76749937D01*
X97604544Y-76863205D01*
X97792902Y-76941226D01*
X97992861Y-76981000D01*
X98196739Y-76981000D01*
X98396698Y-76941226D01*
X98585056Y-76863205D01*
X98633254Y-76831000D01*
X102229946Y-76831000D01*
X102278144Y-76863205D01*
X102466502Y-76941226D01*
X102666461Y-76981000D01*
X102870339Y-76981000D01*
X103070298Y-76941226D01*
X103258656Y-76863205D01*
X103428174Y-76749937D01*
X103572337Y-76605774D01*
X103685605Y-76436256D01*
X103763626Y-76247898D01*
X103768168Y-76225061D01*
X133077000Y-76225061D01*
X133077000Y-76428939D01*
X133116774Y-76628898D01*
X133194795Y-76817256D01*
X133249080Y-76898500D01*
X133194795Y-76979744D01*
X133116774Y-77168102D01*
X133077000Y-77368061D01*
X133077000Y-77571939D01*
X133116774Y-77771898D01*
X133194795Y-77960256D01*
X133270295Y-78073250D01*
X133194795Y-78186244D01*
X133116774Y-78374602D01*
X133077000Y-78574561D01*
X133077000Y-78778439D01*
X133116774Y-78978398D01*
X133194795Y-79166756D01*
X133308063Y-79336274D01*
X133452226Y-79480437D01*
X133621744Y-79593705D01*
X133810102Y-79671726D01*
X134010061Y-79711500D01*
X134213939Y-79711500D01*
X134413898Y-79671726D01*
X134602256Y-79593705D01*
X134650454Y-79561500D01*
X138717046Y-79561500D01*
X138765244Y-79593705D01*
X138953602Y-79671726D01*
X139153561Y-79711500D01*
X139357439Y-79711500D01*
X139557398Y-79671726D01*
X139745756Y-79593705D01*
X139793954Y-79561500D01*
X143543046Y-79561500D01*
X143591244Y-79593705D01*
X143779602Y-79671726D01*
X143979561Y-79711500D01*
X144183439Y-79711500D01*
X144383398Y-79671726D01*
X144571756Y-79593705D01*
X144741274Y-79480437D01*
X144885437Y-79336274D01*
X144998705Y-79166756D01*
X145076726Y-78978398D01*
X145116500Y-78778439D01*
X145116500Y-78574561D01*
X145076726Y-78374602D01*
X144998705Y-78186244D01*
X144923205Y-78073250D01*
X144998705Y-77960256D01*
X145076726Y-77771898D01*
X145116500Y-77571939D01*
X145116500Y-77368061D01*
X145076726Y-77168102D01*
X144998705Y-76979744D01*
X144944420Y-76898500D01*
X144998705Y-76817256D01*
X145076726Y-76628898D01*
X145116500Y-76428939D01*
X145116500Y-76225061D01*
X145076726Y-76025102D01*
X144998705Y-75836744D01*
X144885437Y-75667226D01*
X144757472Y-75539261D01*
X200082200Y-75539261D01*
X200082200Y-75743139D01*
X200121974Y-75943098D01*
X200199995Y-76131456D01*
X200313263Y-76300974D01*
X200457426Y-76445137D01*
X200626944Y-76558405D01*
X200815302Y-76636426D01*
X201015261Y-76676200D01*
X201219139Y-76676200D01*
X201419098Y-76636426D01*
X201607456Y-76558405D01*
X201655654Y-76526200D01*
X203118746Y-76526200D01*
X203166944Y-76558405D01*
X203355302Y-76636426D01*
X203555261Y-76676200D01*
X203759139Y-76676200D01*
X203959098Y-76636426D01*
X204147456Y-76558405D01*
X204316974Y-76445137D01*
X204461137Y-76300974D01*
X204574405Y-76131456D01*
X204652426Y-75943098D01*
X204692200Y-75743139D01*
X204692200Y-75539261D01*
X204652426Y-75339302D01*
X204574405Y-75150944D01*
X204461137Y-74981426D01*
X204316974Y-74837263D01*
X204147456Y-74723995D01*
X203959098Y-74645974D01*
X203759139Y-74606200D01*
X203555261Y-74606200D01*
X203355302Y-74645974D01*
X203166944Y-74723995D01*
X203118746Y-74756200D01*
X201655654Y-74756200D01*
X201607456Y-74723995D01*
X201419098Y-74645974D01*
X201219139Y-74606200D01*
X201015261Y-74606200D01*
X200815302Y-74645974D01*
X200626944Y-74723995D01*
X200457426Y-74837263D01*
X200313263Y-74981426D01*
X200199995Y-75150944D01*
X200121974Y-75339302D01*
X200082200Y-75539261D01*
X144757472Y-75539261D01*
X144741274Y-75523063D01*
X144571756Y-75409795D01*
X144383398Y-75331774D01*
X144183439Y-75292000D01*
X143979561Y-75292000D01*
X143779602Y-75331774D01*
X143591244Y-75409795D01*
X143543046Y-75442000D01*
X139793954Y-75442000D01*
X139745756Y-75409795D01*
X139557398Y-75331774D01*
X139357439Y-75292000D01*
X139153561Y-75292000D01*
X138953602Y-75331774D01*
X138765244Y-75409795D01*
X138717046Y-75442000D01*
X134650454Y-75442000D01*
X134602256Y-75409795D01*
X134413898Y-75331774D01*
X134213939Y-75292000D01*
X134010061Y-75292000D01*
X133810102Y-75331774D01*
X133621744Y-75409795D01*
X133452226Y-75523063D01*
X133308063Y-75667226D01*
X133194795Y-75836744D01*
X133116774Y-76025102D01*
X133077000Y-76225061D01*
X103768168Y-76225061D01*
X103803400Y-76047939D01*
X103803400Y-75844061D01*
X103763626Y-75644102D01*
X103699297Y-75488800D01*
X103763626Y-75333498D01*
X103803400Y-75133539D01*
X103803400Y-74929661D01*
X103763626Y-74729702D01*
X103685605Y-74541344D01*
X103572337Y-74371826D01*
X103428174Y-74227663D01*
X103258656Y-74114395D01*
X103070298Y-74036374D01*
X102870339Y-73996600D01*
X102666461Y-73996600D01*
X102466502Y-74036374D01*
X102278144Y-74114395D01*
X102229946Y-74146600D01*
X98633254Y-74146600D01*
X98585056Y-74114395D01*
X98396698Y-74036374D01*
X98196739Y-73996600D01*
X97992861Y-73996600D01*
X97792902Y-74036374D01*
X97604544Y-74114395D01*
X97435026Y-74227663D01*
X97290863Y-74371826D01*
X97177595Y-74541344D01*
X97099574Y-74729702D01*
X97059800Y-74929661D01*
X90905001Y-74929661D01*
X90905001Y-64892793D01*
X146583923Y-64892793D01*
X146583923Y-65663207D01*
X146734224Y-66418819D01*
X147029049Y-67130590D01*
X147457068Y-67771166D01*
X148001834Y-68315932D01*
X148642410Y-68743951D01*
X149354181Y-69038776D01*
X150109793Y-69189077D01*
X150880207Y-69189077D01*
X151635819Y-69038776D01*
X152347590Y-68743951D01*
X152988166Y-68315932D01*
X153532932Y-67771166D01*
X153942302Y-67158500D01*
X178915428Y-67158500D01*
X178915428Y-68858500D01*
X178927688Y-68982982D01*
X178963998Y-69102680D01*
X179022963Y-69212994D01*
X179102315Y-69309685D01*
X179199006Y-69389037D01*
X179309320Y-69448002D01*
X179429018Y-69484312D01*
X179553500Y-69496572D01*
X181253500Y-69496572D01*
X181377982Y-69484312D01*
X181497680Y-69448002D01*
X181607994Y-69389037D01*
X181704685Y-69309685D01*
X181784037Y-69212994D01*
X181843002Y-69102680D01*
X181867466Y-69022034D01*
X181943231Y-69106088D01*
X182176580Y-69280141D01*
X182439401Y-69405325D01*
X182586610Y-69449976D01*
X182816500Y-69328655D01*
X182816500Y-68135500D01*
X183070500Y-68135500D01*
X183070500Y-69328655D01*
X183300390Y-69449976D01*
X183447599Y-69405325D01*
X183710420Y-69280141D01*
X183943769Y-69106088D01*
X184138678Y-68889855D01*
X184287657Y-68639752D01*
X184384981Y-68365391D01*
X184264314Y-68135500D01*
X183070500Y-68135500D01*
X182816500Y-68135500D01*
X182796500Y-68135500D01*
X182796500Y-67881500D01*
X182816500Y-67881500D01*
X182816500Y-66688345D01*
X183070500Y-66688345D01*
X183070500Y-67881500D01*
X184264314Y-67881500D01*
X184384981Y-67651609D01*
X184287657Y-67377248D01*
X184138678Y-67127145D01*
X183943769Y-66910912D01*
X183710420Y-66736859D01*
X183447599Y-66611675D01*
X183300390Y-66567024D01*
X183070500Y-66688345D01*
X182816500Y-66688345D01*
X182586610Y-66567024D01*
X182439401Y-66611675D01*
X182176580Y-66736859D01*
X181943231Y-66910912D01*
X181867466Y-66994966D01*
X181843002Y-66914320D01*
X181784037Y-66804006D01*
X181704685Y-66707315D01*
X181607994Y-66627963D01*
X181497680Y-66568998D01*
X181377982Y-66532688D01*
X181253500Y-66520428D01*
X179553500Y-66520428D01*
X179429018Y-66532688D01*
X179309320Y-66568998D01*
X179199006Y-66627963D01*
X179102315Y-66707315D01*
X179022963Y-66804006D01*
X178963998Y-66914320D01*
X178927688Y-67034018D01*
X178915428Y-67158500D01*
X153942302Y-67158500D01*
X153960951Y-67130590D01*
X154255776Y-66418819D01*
X154406077Y-65663207D01*
X154406077Y-64892793D01*
X154255776Y-64137181D01*
X153960951Y-63425410D01*
X153532932Y-62784834D01*
X152988166Y-62240068D01*
X152347590Y-61812049D01*
X151635819Y-61517224D01*
X150880207Y-61366923D01*
X150109793Y-61366923D01*
X149354181Y-61517224D01*
X148642410Y-61812049D01*
X148001834Y-62240068D01*
X147457068Y-62784834D01*
X147029049Y-63425410D01*
X146734224Y-64137181D01*
X146583923Y-64892793D01*
X90905001Y-64892793D01*
X90905001Y-42010001D01*
X121221500Y-42010001D01*
X121221500Y-45656500D01*
M02*
