M48
; DRILL file {KiCad (5.1.4)-1} date 6/9/2020 9:04:32 PM
; FORMAT={-:-/ absolute / inch / decimal}
; #@! TF.CreationDate,2020-06-09T21:04:32-05:00
; #@! TF.GenerationSoftware,Kicad,Pcbnew,(5.1.4)-1
; #@! TF.FileFunction,Plated,1,2,PTH
FMAT,2
INCH
T1C0.0157
T2C0.0197
T3C0.0315
T4C0.0354
T5C0.0394
T6C0.0400
T7C0.1560
%
G90
G05
T1
X3.862Y-2.954
X3.862Y-2.99
X4.046Y-2.954
X4.046Y-2.99
X4.1375Y-4.57
X4.2475Y-2.7725
X4.25Y-4.8422
X4.2569Y-3.7119
X4.2944Y-3.7257
X4.2981Y-3.7629
X4.3475Y-3.7532
X4.3965Y-3.7531
X4.815Y-3.0
X4.926Y-2.098
X4.942Y-1.868
X4.962Y-1.9904
X4.976Y-2.204
X5.0475Y-3.205
X5.0525Y-2.6075
X5.1501Y-2.1762
X5.155Y-2.114
X5.155Y-1.85
X5.2625Y-3.4275
X5.265Y-3.3775
X5.27Y-1.8725
X5.28Y-2.0775
X5.28Y-3.005
X5.28Y-3.05
X5.28Y-3.0975
X5.286Y-2.002
X5.3029Y-1.955
X5.3375Y-1.8375
X5.4025Y-1.83
X5.4333Y-2.2006
X5.456Y-1.912
X5.4825Y-3.005
X5.4825Y-3.05
X5.4825Y-3.0975
X5.488Y-2.37
X5.4982Y-2.1967
X5.52Y-4.99
X5.5494Y-2.1875
X5.612Y-1.9848
X5.6182Y-1.8175
X5.6261Y-1.905
X5.67Y-1.8704
X5.672Y-2.018
X5.6725Y-3.005
X5.6725Y-3.05
X5.6725Y-3.0975
X5.724Y-2.0106
X5.8175Y-5.0375
X6.1125Y-5.0775
X6.256Y-4.884
X6.292Y-4.11
X6.292Y-4.33
X6.336Y-4.11
X6.336Y-4.33
X6.36Y-4.938
X6.788Y-3.428
X6.858Y-3.378
X6.894Y-2.884
X7.022Y-4.02
X7.022Y-4.308
X7.07Y-4.022
X7.07Y-4.31
X7.132Y-2.884
X7.1776Y-3.572
X7.212Y-3.972
X7.3504Y-2.3656
X7.5925Y-2.505
X7.6225Y-2.5325
X7.6475Y-3.1975
X7.6925Y-2.4175
X7.6975Y-3.1975
X7.7225Y-2.445
X7.7975Y-3.1975
X7.918Y-2.978
X7.9944Y-3.6825
X8.018Y-2.978
X5.8167Y-5.1251
X5.8325Y-5.1527
X5.864Y-5.1527
X5.8797Y-5.1251
X5.8955Y-5.1527
X5.9112Y-5.1251
X5.9427Y-5.1251
X5.9585Y-5.1527
X5.9742Y-5.1251
X5.99Y-5.1527
X6.0215Y-5.1527
X6.0372Y-5.1251
T2
X5.7482Y-5.3239
X5.7644Y-5.1487
X6.0896Y-5.1487
X6.1018Y-5.3239
T3
X7.6369Y-3.7387
X7.6369Y-3.8371
X7.6369Y-3.9355
X7.6369Y-4.0339
X7.6369Y-4.1324
X7.6369Y-4.2308
X7.7019Y-3.6894
X7.7019Y-3.7879
X7.7019Y-3.8863
X7.7019Y-3.9847
X7.7019Y-4.0831
X7.7019Y-4.1816
X7.7019Y-4.28
X7.82Y-3.6894
X7.82Y-3.7879
X7.82Y-3.8863
X7.82Y-3.9847
X7.82Y-4.0831
X7.82Y-4.1816
X7.82Y-4.28
X4.25Y-1.785
X4.25Y-1.8834
X4.25Y-1.9819
X4.25Y-2.0803
X4.25Y-2.1787
X4.25Y-2.2771
X4.25Y-2.3756
X4.315Y-1.8342
X4.315Y-1.9326
X4.315Y-2.0311
X4.315Y-2.1295
X4.315Y-2.2279
X4.315Y-2.3263
X7.1024Y-4.635
X7.1516Y-4.57
X7.2008Y-4.635
X7.25Y-4.57
X7.2992Y-4.635
X7.3484Y-4.57
X7.3976Y-4.635
X7.4469Y-4.57
X7.4961Y-4.635
X7.5453Y-4.57
X7.5945Y-4.635
X7.6437Y-4.57
X7.6929Y-4.635
X4.1505Y-4.635
X4.1997Y-4.57
X4.2489Y-4.635
X4.2981Y-4.57
X4.3474Y-4.635
X4.3966Y-4.57
X4.4458Y-4.635
X4.495Y-4.57
X4.5442Y-4.635
X4.5934Y-4.57
X4.6426Y-4.635
X4.6919Y-4.57
X4.7411Y-4.635
X4.03Y-3.6894
X4.03Y-3.7879
X4.03Y-3.8863
X4.03Y-3.9847
X4.03Y-4.0831
X4.03Y-4.1816
X4.03Y-4.28
X4.1481Y-3.6894
X4.1481Y-3.7879
X4.1481Y-3.8863
X4.1481Y-3.9847
X4.1481Y-4.0831
X4.1481Y-4.1816
X4.1481Y-4.28
X4.2131Y-3.7387
X4.2131Y-3.8371
X4.2131Y-3.9355
X4.2131Y-4.0339
X4.2131Y-4.1324
X4.2131Y-4.2308
X7.535Y-1.8342
X7.535Y-1.9326
X7.535Y-2.0311
X7.535Y-2.1295
X7.535Y-2.2279
X7.535Y-2.3263
X7.6Y-1.785
X7.6Y-1.8834
X7.6Y-1.9819
X7.6Y-2.0803
X7.6Y-2.1787
X7.6Y-2.2771
X7.6Y-2.3756
T4
X6.475Y-4.9
X6.575Y-4.9
X6.075Y-4.9
X6.175Y-4.9
X5.675Y-4.9
X5.775Y-4.9
X5.275Y-4.9
X5.375Y-4.9
T5
X7.1025Y-2.6775
X7.2025Y-2.6775
X7.8925Y-3.36
X7.8925Y-3.46
X7.495Y-2.81
X7.595Y-2.81
X7.695Y-2.81
X7.795Y-2.81
X7.895Y-2.81
T6
X4.0Y-4.76
X4.1Y-4.76
X4.2Y-4.76
X4.3Y-4.76
X4.4Y-4.76
X4.5Y-4.76
X4.6Y-4.76
X4.7Y-4.76
X4.8Y-4.76
X4.9Y-4.76
X6.95Y-4.76
X7.05Y-4.76
X7.15Y-4.76
X7.25Y-4.76
X7.35Y-4.76
X7.45Y-4.76
X7.55Y-4.76
X7.65Y-4.76
X7.75Y-4.76
X7.85Y-4.76
T7
X5.925Y-3.82
T0
M30
